  0
SECTION
  2
HEADER
  9
$ACADVER
  1
AC1027
  9
$ACADMAINTVER
 70
     8
  9
$DWGCODEPAGE
  3
ANSI_1252
  9
$REQUIREDVERSIONS
160
                 0
  9
$INSBASE
 10
0.0
 20
0.0
 30
0.0
  9
$EXTMIN
 10
1.000000000000000E+20
 20
1.000000000000000E+20
 30
1.000000000000000E+20
  9
$EXTMAX
 10
-1.000000000000000E+20
 20
-1.000000000000000E+20
 30
-1.000000000000000E+20
  9
$LIMMIN
 10
0.0
 20
0.0
  9
$LIMMAX
 10
12.0
 20
9.0
  9
$ORTHOMODE
 70
     0
  9
$REGENMODE
 70
     1
  9
$FILLMODE
 70
     1
  9
$QTEXTMODE
 70
     0
  9
$MIRRTEXT
 70
     1
  9
$LTSCALE
 40
1.0
  9
$ATTMODE
 70
     1
  9
$TEXTSIZE
 40
0.2
  9
$TRACEWID
 40
0.05
  9
$TEXTSTYLE
  7
Standard
  9
$CLAYER
  8
0
  9
$CELTYPE
  6
ByLayer
  9
$CECOLOR
 62
    18
  9
$CELTSCALE
 40
1.0
  9
$DISPSILH
 70
     0
  9
$DIMSCALE
 40
1.0
  9
$DIMASZ
 40
2.5
  9
$DIMEXO
 40
0.625
  9
$DIMDLI
 40
0.38
  9
$DIMRND
 40
0.0
  9
$DIMDLE
 40
0.0
  9
$DIMEXE
 40
1.25
  9
$DIMTP
 40
0.0
  9
$DIMTM
 40
0.0
  9
$DIMTXT
 40
2.5
  9
$DIMCEN
 40
0.09
  9
$DIMTSZ
 40
0.0
  9
$DIMTOL
 70
     0
  9
$DIMLIM
 70
     0
  9
$DIMTIH
 70
     1
  9
$DIMTOH
 70
     1
  9
$DIMSE1
 70
     0
  9
$DIMSE2
 70
     0
  9
$DIMTAD
 70
     0
  9
$DIMZIN
 70
     8
  9
$DIMBLK
  1

  9
$DIMASO
 70
     1
  9
$DIMSHO
 70
     1
  9
$DIMPOST
  1

  9
$DIMAPOST
  1

  9
$DIMALT
 70
     0
  9
$DIMALTD
 70
     2
  9
$DIMALTF
 40
25.4
  9
$DIMLFAC
 40
1.0
  9
$DIMTOFL
 70
     0
  9
$DIMTVP
 40
0.0
  9
$DIMTIX
 70
     0
  9
$DIMSOXD
 70
     0
  9
$DIMSAH
 70
     0
  9
$DIMBLK1
  1

  9
$DIMBLK2
  1

  9
$DIMSTYLE
  2
Standard
  9
$DIMCLRD
 70
    18
  9
$DIMCLRE
 70
    18
  9
$DIMCLRT
 70
    18
  9
$DIMTFAC
 40
1.0
  9
$DIMGAP
 40
0.625
  9
$DIMJUST
 70
     0
  9
$DIMSD1
 70
     0
  9
$DIMSD2
 70
     0
  9
$DIMTOLJ
 70
     1
  9
$DIMTZIN
 70
     0
  9
$DIMALTZ
 70
     0
  9
$DIMALTTZ
 70
     0
  9
$DIMUPT
 70
     0
  9
$DIMDEC
 70
     4
  9
$DIMTDEC
 70
     4
  9
$DIMALTU
 70
     2
  9
$DIMALTTD
 70
     2
  9
$DIMTXSTY
  7
Standard
  9
$DIMAUNIT
 70
     0
  9
$DIMADEC
 70
     0
  9
$DIMALTRND
 40
0.0
  9
$DIMAZIN
 70
     2
  9
$DIMDSEP
 70
    46
  9
$DIMATFIT
 70
     3
  9
$DIMFRAC
 70
     0
  9
$DIMLDRBLK
  1

  9
$DIMLUNIT
 70
     2
  9
$DIMLWD
 70
    -2
  9
$DIMLWE
 70
    -2
  9
$DIMTMOVE
 70
     0
  9
$DIMFXL
 40
1.0
  9
$DIMFXLON
 70
     0
  9
$DIMJOGANG
 40
0.7853981633974483
  9
$DIMTFILL
 70
     0
  9
$DIMTFILLCLR
 70
     0
  9
$DIMARCSYM
 70
     0
  9
$DIMLTYPE
  6

  9
$DIMLTEX1
  6

  9
$DIMLTEX2
  6

  9
$DIMTXTDIRECTION
 70
     0
  9
$LUNITS
 70
     2
  9
$LUPREC
 70
     4
  9
$SKETCHINC
 40
0.1
  9
$FILLETRAD
 40
0.5
  9
$AUNITS
 70
     0
  9
$AUPREC
 70
     0
  9
$MENU
  1
.
  9
$ELEVATION
 40
0.0
  9
$PELEVATION
 40
0.0
  9
$THICKNESS
 40
0.0
  9
$LIMCHECK
 70
     0
  9
$CHAMFERA
 40
0.0
  9
$CHAMFERB
 40
0.0
  9
$CHAMFERC
 40
0.0
  9
$CHAMFERD
 40
0.0
  9
$SKPOLY
 70
     0
  9
$TDCREATE
 40
2457059.620836458
  9
$TDUCREATE
 40
2457059.495836458
  9
$TDUPDATE
 40
2457059.620836817
  9
$TDUUPDATE
 40
2457059.495836817
  9
$TDINDWG
 40
0.0000000116
  9
$TDUSRTIMER
 40
0.0000000116
  9
$USRTIMER
 70
     1
  9
$ANGBASE
 50
0.0
  9
$ANGDIR
 70
     0
  9
$PDMODE
 70
     0
  9
$PDSIZE
 40
0.0
  9
$PLINEWID
 40
0.0
  9
$SPLFRAME
 70
     0
  9
$SPLINETYPE
 70
     6
  9
$SPLINESEGS
 70
     8
  9
$HANDSEED
  5
207F
  9
$SURFTAB1
 70
     6
  9
$SURFTAB2
 70
     6
  9
$SURFTYPE
 70
     6
  9
$SURFU
 70
     6
  9
$SURFV
 70
     6
  9
$UCSBASE
  2

  9
$UCSNAME
  2

  9
$UCSORG
 10
0.0
 20
0.0
 30
0.0
  9
$UCSXDIR
 10
1.0
 20
0.0
 30
0.0
  9
$UCSYDIR
 10
0.0
 20
1.0
 30
0.0
  9
$UCSORTHOREF
  2

  9
$UCSORTHOVIEW
 70
     0
  9
$UCSORGTOP
 10
0.0
 20
0.0
 30
0.0
  9
$UCSORGBOTTOM
 10
0.0
 20
0.0
 30
0.0
  9
$UCSORGLEFT
 10
0.0
 20
0.0
 30
0.0
  9
$UCSORGRIGHT
 10
0.0
 20
0.0
 30
0.0
  9
$UCSORGFRONT
 10
0.0
 20
0.0
 30
0.0
  9
$UCSORGBACK
 10
0.0
 20
0.0
 30
0.0
  9
$PUCSBASE
  2

  9
$PUCSNAME
  2

  9
$PUCSORG
 10
0.0
 20
0.0
 30
0.0
  9
$PUCSXDIR
 10
1.0
 20
0.0
 30
0.0
  9
$PUCSYDIR
 10
0.0
 20
1.0
 30
0.0
  9
$PUCSORTHOREF
  2

  9
$PUCSORTHOVIEW
 70
     0
  9
$PUCSORGTOP
 10
0.0
 20
0.0
 30
0.0
  9
$PUCSORGBOTTOM
 10
0.0
 20
0.0
 30
0.0
  9
$PUCSORGLEFT
 10
0.0
 20
0.0
 30
0.0
  9
$PUCSORGRIGHT
 10
0.0
 20
0.0
 30
0.0
  9
$PUCSORGFRONT
 10
0.0
 20
0.0
 30
0.0
  9
$PUCSORGBACK
 10
0.0
 20
0.0
 30
0.0
  9
$USERI1
 70
     0
  9
$USERI2
 70
     0
  9
$USERI3
 70
     0
  9
$USERI4
 70
     0
  9
$USERI5
 70
     0
  9
$USERR1
 40
0.0
  9
$USERR2
 40
0.0
  9
$USERR3
 40
0.0
  9
$USERR4
 40
0.0
  9
$USERR5
 40
0.0
  9
$WORLDVIEW
 70
     1
  9
$SHADEDGE
 70
     3
  9
$SHADEDIF
 70
    70
  9
$TILEMODE
 70
     1
  9
$MAXACTVP
 70
     2
  9
$PINSBASE
 10
0.0
 20
0.0
 30
0.0
  9
$PLIMCHECK
 70
     0
  9
$PEXTMIN
 10
1.000000000000000E+20
 20
1.000000000000000E+20
 30
1.000000000000000E+20
  9
$PEXTMAX
 10
-1.000000000000000E+20
 20
-1.000000000000000E+20
 30
-1.000000000000000E+20
  9
$PLIMMIN
 10
0.0
 20
0.0
  9
$PLIMMAX
 10
12.0
 20
9.0
  9
$UNITMODE
 70
     0
  9
$VISRETAIN
 70
     1
  9
$PLINEGEN
 70
     0
  9
$PSLTSCALE
 70
     1
  9
$TREEDEPTH
 70
  3020
  9
$CMLSTYLE
  2
Standard
  9
$CMLJUST
 70
     0
  9
$CMLSCALE
 40
1.0
  9
$PROXYGRAPHICS
 70
     1
  9
$MEASUREMENT
 70
     1
  9
$CELWEIGHT
370
    -1
  9
$ENDCAPS
280
     0
  9
$JOINSTYLE
280
     0
  9
$LWDISPLAY
290
     0
  9
$INSUNITS
 70
     4
  9
$HYPERLINKBASE
  1

  9
$STYLESHEET
  1

  9
$XEDIT
290
     1
  9
$CEPSNTYPE
380
     0
  9
$PSTYLEMODE
290
     1
  9
$FINGERPRINTGUID
  2
{58EE29E4-3FBB-413F-838A-600C4B03E993}
  9
$VERSIONGUID
  2
{FAEB1C32-E019-11D5-929B-00C0DF256EC4}
  9
$EXTNAMES
290
     1
  9
$PSVPSCALE
 40
0.0
  9
$OLESTARTUP
290
     0
  9
$SORTENTS
280
   127
  9
$INDEXCTL
280
     0
  9
$HIDETEXT
280
     1
  9
$XCLIPFRAME
280
     2
  9
$HALOGAP
280
     0
  9
$OBSCOLOR
 70
   257
  9
$OBSLTYPE
280
     0
  9
$INTERSECTIONDISPLAY
280
     0
  9
$INTERSECTIONCOLOR
 70
   257
  9
$DIMASSOC
280
     2
  9
$PROJECTNAME
  1

  9
$CAMERADISPLAY
290
     0
  9
$LENSLENGTH
 40
50.0
  9
$CAMERAHEIGHT
 40
0.0
  9
$STEPSPERSEC
 40
2.0
  9
$STEPSIZE
 40
6.0
  9
$3DDWFPREC
 40
2.0
  9
$PSOLWIDTH
 40
0.25
  9
$PSOLHEIGHT
 40
4.0
  9
$LOFTANG1
 40
1.570796326794897
  9
$LOFTANG2
 40
1.570796326794897
  9
$LOFTMAG1
 40
0.0
  9
$LOFTMAG2
 40
0.0
  9
$LOFTPARAM
 70
     7
  9
$LOFTNORMALS
280
     1
  9
$LATITUDE
 40
37.795
  9
$LONGITUDE
 40
-122.394
  9
$NORTHDIRECTION
 40
0.0
  9
$TIMEZONE
 70
 -8000
  9
$LIGHTGLYPHDISPLAY
280
     1
  9
$TILEMODELIGHTSYNCH
280
     1
  9
$CMATERIAL
347
1FD3
  9
$SOLIDHIST
280
     0
  9
$SHOWHIST
280
     1
  9
$DWFFRAME
280
     2
  9
$DGNFRAME
280
     2
  9
$REALWORLDSCALE
290
     1
  9
$INTERFERECOLOR
 62
   256
  9
$CSHADOW
280
     0
  9
$SHADOWPLANELOCATION
 40
0.0
  0
ENDSEC
  0
SECTION
  2
CLASSES
  0
CLASS
  1
ACDBDICTIONARYWDFLT
  2
AcDbDictionaryWithDefault
  3
ObjectDBX Classes
 90
        0
 91
        4
280
     0
281
     0
  0
CLASS
  1
VISUALSTYLE
  2
AcDbVisualStyle
  3
ObjectDBX Classes
 90
     4095
 91
        4
280
     0
281
     0
  0
CLASS
  1
MATERIAL
  2
AcDbMaterial
  3
ObjectDBX Classes
 90
     1153
 91
        4
280
     0
281
     0
  0
CLASS
  1
SCALE
  2
AcDbScale
  3
ObjectDBX Classes
 90
     1153
 91
        4
280
     0
281
     0
  0
CLASS
  1
TABLESTYLE
  2
AcDbTableStyle
  3
ObjectDBX Classes
 90
     4095
 91
        4
280
     0
281
     0
  0
CLASS
  1
MLEADERSTYLE
  2
AcDbMLeaderStyle
  3
ACDB_MLEADERSTYLE_CLASS
 90
     4095
 91
        4
280
     0
281
     0
  0
CLASS
  1
SUN
  2
AcDbSun
  3
SCENEOE
 90
     1153
 91
        4
280
     0
281
     0
  0
CLASS
  1
DICTIONARYVAR
  2
AcDbDictionaryVar
  3
ObjectDBX Classes
 90
        0
 91
        4
280
     0
281
     0
  0
CLASS
  1
CELLSTYLEMAP
  2
AcDbCellStyleMap
  3
ObjectDBX Classes
 90
     1152
 91
        4
280
     0
281
     0
  0
ENDSEC
  0
SECTION
  2
TABLES
  0
TABLE
  2
VPORT
  5
1F98
330
0
100
AcDbSymbolTable
 70
     1
  0
VPORT
  5
1FB8
330
1F98
100
AcDbSymbolTableRecord
100
AcDbViewportTableRecord
  2
*Active
 70
     0
 10
0.0
 20
0.0
 11
1.0
 21
1.0
 12
10.42990654205607
 22
4.5
 13
0.0
 23
0.0
 14
0.5
 24
0.5
 15
0.5
 25
0.5
 16
0.0
 26
0.0
 36
1.0
 17
0.0
 27
0.0
 37
0.0
 40
9.0
 41
1.972972972850329
 42
50.0
 43
0.0
 44
0.0
 50
0.0
 51
0.0
 71
     0
 72
   100
 73
     1
 74
     3
 75
     0
 76
     0
 77
     0
 78
     0
281
     0
 65
     1
110
0.0
120
0.0
130
0.0
111
1.0
121
0.0
131
0.0
112
0.0
122
1.0
132
0.0
 79
     0
146
0.0
 60
     3
 61
     5
292
     1
282
     1
141
0.0
142
0.0
 63
   250
361
1FFC
  0
ENDTAB
  0
TABLE
  2
LTYPE
  5
1F95
330
0
100
AcDbSymbolTable
 70
    48
  0
LTYPE
  5
1FA3
330
1F95
100
AcDbSymbolTableRecord
100
AcDbLinetypeTableRecord
  2
ByBlock
 70
     0
  3

 72
    65
 73
     0
 40
0.0
  0
LTYPE
  5
1FA4
330
1F95
100
AcDbSymbolTableRecord
100
AcDbLinetypeTableRecord
  2
ByLayer
 70
     0
  3

 72
    65
 73
     0
 40
0.0
  0
LTYPE
  5
1FA5
330
1F95
100
AcDbSymbolTableRecord
100
AcDbLinetypeTableRecord
  2
Continuous
 70
     0
  3
Solid line
 72
    65
 73
     0
 40
0.0
  0
LTYPE
  5
202F
330
1F95
100
AcDbSymbolTableRecord
100
AcDbLinetypeTableRecord
  2
ACAD_ISO02W100
 70
     0
  3
ISO dash __ __ __ __ __ __ __ __ __ __ __ __ __
 72
    65
 73
     2
 40
15.0
 49
12.0
 74
     0
 49
-3.0
 74
     0
  0
LTYPE
  5
2030
330
1F95
100
AcDbSymbolTableRecord
100
AcDbLinetypeTableRecord
  2
ACAD_ISO03W100
 70
     0
  3
ISO dash space __    __    __    __    __    __
 72
    65
 73
     2
 40
30.0
 49
12.0
 74
     0
 49
-18.0
 74
     0
  0
LTYPE
  5
2031
330
1F95
100
AcDbSymbolTableRecord
100
AcDbLinetypeTableRecord
  2
ACAD_ISO04W100
 70
     0
  3
ISO long-dash dot ____ . ____ . ____ . ____ . _
 72
    65
 73
     4
 40
30.0
 49
24.0
 74
     0
 49
-3.0
 74
     0
 49
0.0
 74
     0
 49
-3.0
 74
     0
  0
LTYPE
  5
2032
330
1F95
100
AcDbSymbolTableRecord
100
AcDbLinetypeTableRecord
  2
ACAD_ISO05W100
 70
     0
  3
ISO long-dash double-dot ____ .. ____ .. ____ . 
 72
    65
 73
     6
 40
33.0
 49
24.0
 74
     0
 49
-3.0
 74
     0
 49
0.0
 74
     0
 49
-3.0
 74
     0
 49
0.0
 74
     0
 49
-3.0
 74
     0
  0
LTYPE
  5
2033
330
1F95
100
AcDbSymbolTableRecord
100
AcDbLinetypeTableRecord
  2
ACAD_ISO06W100
 70
     0
  3
ISO long-dash triple-dot ____ ... ____ ... ____
 72
    65
 73
     8
 40
36.0
 49
24.0
 74
     0
 49
-3.0
 74
     0
 49
0.0
 74
     0
 49
-3.0
 74
     0
 49
0.0
 74
     0
 49
-3.0
 74
     0
 49
0.0
 74
     0
 49
-3.0
 74
     0
  0
LTYPE
  5
2034
330
1F95
100
AcDbSymbolTableRecord
100
AcDbLinetypeTableRecord
  2
ACAD_ISO07W100
 70
     0
  3
ISO dot . . . . . . . . . . . . . . . . . . . . 
 72
    65
 73
     2
 40
3.0
 49
0.0
 74
     0
 49
-3.0
 74
     0
  0
LTYPE
  5
2035
330
1F95
100
AcDbSymbolTableRecord
100
AcDbLinetypeTableRecord
  2
ACAD_ISO08W100
 70
     0
  3
ISO long-dash short-dash ____ __ ____ __ ____ _
 72
    65
 73
     4
 40
36.0
 49
24.0
 74
     0
 49
-3.0
 74
     0
 49
6.0
 74
     0
 49
-3.0
 74
     0
  0
LTYPE
  5
2036
330
1F95
100
AcDbSymbolTableRecord
100
AcDbLinetypeTableRecord
  2
ACAD_ISO09W100
 70
     0
  3
ISO long-dash double-short-dash ____ __ __ ____
 72
    65
 73
     6
 40
45.0
 49
24.0
 74
     0
 49
-3.0
 74
     0
 49
6.0
 74
     0
 49
-3.0
 74
     0
 49
6.0
 74
     0
 49
-3.0
 74
     0
  0
LTYPE
  5
2037
330
1F95
100
AcDbSymbolTableRecord
100
AcDbLinetypeTableRecord
  2
ACAD_ISO10W100
 70
     0
  3
ISO dash dot __ . __ . __ . __ . __ . __ . __ . 
 72
    65
 73
     4
 40
18.0
 49
12.0
 74
     0
 49
-3.0
 74
     0
 49
0.0
 74
     0
 49
-3.0
 74
     0
  0
LTYPE
  5
2038
330
1F95
100
AcDbSymbolTableRecord
100
AcDbLinetypeTableRecord
  2
ACAD_ISO11W100
 70
     0
  3
ISO double-dash dot __ __ . __ __ . __ __ . __ _
 72
    65
 73
     6
 40
33.0
 49
12.0
 74
     0
 49
-3.0
 74
     0
 49
12.0
 74
     0
 49
-3.0
 74
     0
 49
0.0
 74
     0
 49
-3.0
 74
     0
  0
LTYPE
  5
2039
330
1F95
100
AcDbSymbolTableRecord
100
AcDbLinetypeTableRecord
  2
ACAD_ISO12W100
 70
     0
  3
ISO dash double-dot __ . . __ . . __ . . __ . . 
 72
    65
 73
     6
 40
21.0
 49
12.0
 74
     0
 49
-3.0
 74
     0
 49
0.0
 74
     0
 49
-3.0
 74
     0
 49
0.0
 74
     0
 49
-3.0
 74
     0
  0
LTYPE
  5
203A
330
1F95
100
AcDbSymbolTableRecord
100
AcDbLinetypeTableRecord
  2
ACAD_ISO13W100
 70
     0
  3
ISO double-dash double-dot __ __ . . __ __ . . _
 72
    65
 73
     8
 40
36.0
 49
12.0
 74
     0
 49
-3.0
 74
     0
 49
12.0
 74
     0
 49
-3.0
 74
     0
 49
0.0
 74
     0
 49
-3.0
 74
     0
 49
0.0
 74
     0
 49
-3.0
 74
     0
  0
LTYPE
  5
203B
330
1F95
100
AcDbSymbolTableRecord
100
AcDbLinetypeTableRecord
  2
ACAD_ISO14W100
 70
     0
  3
ISO dash triple-dot __ . . . __ . . . __ . . . _
 72
    65
 73
     8
 40
24.0
 49
12.0
 74
     0
 49
-3.0
 74
     0
 49
0.0
 74
     0
 49
-3.0
 74
     0
 49
0.0
 74
     0
 49
-3.0
 74
     0
 49
0.0
 74
     0
 49
-3.0
 74
     0
  0
LTYPE
  5
203C
330
1F95
100
AcDbSymbolTableRecord
100
AcDbLinetypeTableRecord
  2
ACAD_ISO15W100
 70
     0
  3
ISO double-dash triple-dot __ __ . . . __ __ . .
 72
    65
 73
    10
 40
39.0
 49
12.0
 74
     0
 49
-3.0
 74
     0
 49
12.0
 74
     0
 49
-3.0
 74
     0
 49
0.0
 74
     0
 49
-3.0
 74
     0
 49
0.0
 74
     0
 49
-3.0
 74
     0
 49
0.0
 74
     0
 49
-3.0
 74
     0
  0
LTYPE
  5
203F
330
1F95
100
AcDbSymbolTableRecord
100
AcDbLinetypeTableRecord
  2
BATTING
 70
     0
  3
Batting SSSSSSSSSSSSSSSSSSSSSSSSSSSSSSSSSSSSSSSSSSSSSSS
 72
    65
 73
     4
 40
10.16254
 49
0.00254
 74
     0
 49
-2.54
 74
     2
 75
     0
340
203D
 46
2.54
 50
0.0
 44
-2.54
 45
0.0
  9
BAT
 49
-5.08
 74
     2
 75
     0
340
203E
 46
2.54
 50
180.0
 44
2.54
 45
0.0
  9
BAT
 49
-2.54
 74
     0
  0
LTYPE
  5
2040
330
1F95
100
AcDbSymbolTableRecord
100
AcDbLinetypeTableRecord
  2
BORDER
 70
     0
  3
Border __ __ . __ __ . __ __ . __ __ . __ __ .
 72
    65
 73
     6
 40
44.45
 49
12.7
 74
     0
 49
-6.35
 74
     0
 49
12.7
 74
     0
 49
-6.35
 74
     0
 49
0.0
 74
     0
 49
-6.35
 74
     0
  0
LTYPE
  5
2041
330
1F95
100
AcDbSymbolTableRecord
100
AcDbLinetypeTableRecord
  2
BORDER2
 70
     0
  3
Border (.5x) __.__.__.__.__.__.__.__.__.__.__.
 72
    65
 73
     6
 40
22.225
 49
6.35
 74
     0
 49
-3.175
 74
     0
 49
6.35
 74
     0
 49
-3.175
 74
     0
 49
0.0
 74
     0
 49
-3.175
 74
     0
  0
LTYPE
  5
2042
330
1F95
100
AcDbSymbolTableRecord
100
AcDbLinetypeTableRecord
  2
BORDERX2
 70
     0
  3
Border (2x) ____  ____  .  ____  ____  .  ___
 72
    65
 73
     6
 40
88.89999999999999
 49
25.4
 74
     0
 49
-12.7
 74
     0
 49
25.4
 74
     0
 49
-12.7
 74
     0
 49
0.0
 74
     0
 49
-12.7
 74
     0
  0
LTYPE
  5
2043
330
1F95
100
AcDbSymbolTableRecord
100
AcDbLinetypeTableRecord
  2
CENTER
 70
     0
  3
Center ____ _ ____ _ ____ _ ____ _ ____ _ ____
 72
    65
 73
     4
 40
50.8
 49
31.75
 74
     0
 49
-6.35
 74
     0
 49
6.35
 74
     0
 49
-6.35
 74
     0
  0
LTYPE
  5
2044
330
1F95
100
AcDbSymbolTableRecord
100
AcDbLinetypeTableRecord
  2
CENTER2
 70
     0
  3
Center (.5x) ___ _ ___ _ ___ _ ___ _ ___ _ ___
 72
    65
 73
     4
 40
28.575
 49
19.05
 74
     0
 49
-3.175
 74
     0
 49
3.175
 74
     0
 49
-3.175
 74
     0
  0
LTYPE
  5
2045
330
1F95
100
AcDbSymbolTableRecord
100
AcDbLinetypeTableRecord
  2
CENTERX2
 70
     0
  3
Center (2x) ________  __  ________  __  _____
 72
    65
 73
     4
 40
101.6
 49
63.5
 74
     0
 49
-12.7
 74
     0
 49
12.7
 74
     0
 49
-12.7
 74
     0
  0
LTYPE
  5
2046
330
1F95
100
AcDbSymbolTableRecord
100
AcDbLinetypeTableRecord
  2
DASHDOT
 70
     0
  3
Dash dot __ . __ . __ . __ . __ . __ . __ . __
 72
    65
 73
     4
 40
25.4
 49
12.7
 74
     0
 49
-6.35
 74
     0
 49
0.0
 74
     0
 49
-6.35
 74
     0
  0
LTYPE
  5
2047
330
1F95
100
AcDbSymbolTableRecord
100
AcDbLinetypeTableRecord
  2
DASHDOT2
 70
     0
  3
Dash dot (.5x) _._._._._._._._._._._._._._._.
 72
    65
 73
     4
 40
12.7
 49
6.35
 74
     0
 49
-3.175
 74
     0
 49
0.0
 74
     0
 49
-3.175
 74
     0
  0
LTYPE
  5
2048
330
1F95
100
AcDbSymbolTableRecord
100
AcDbLinetypeTableRecord
  2
DASHDOTX2
 70
     0
  3
Dash dot (2x) ____  .  ____  .  ____  .  ___
 72
    65
 73
     4
 40
50.8
 49
25.4
 74
     0
 49
-12.7
 74
     0
 49
0.0
 74
     0
 49
-12.7
 74
     0
  0
LTYPE
  5
2049
330
1F95
100
AcDbSymbolTableRecord
100
AcDbLinetypeTableRecord
  2
DASHED
 70
     0
  3
Dashed __ __ __ __ __ __ __ __ __ __ __ __ __ _
 72
    65
 73
     2
 40
19.05
 49
12.7
 74
     0
 49
-6.35
 74
     0
  0
LTYPE
  5
204A
330
1F95
100
AcDbSymbolTableRecord
100
AcDbLinetypeTableRecord
  2
DASHED2
 70
     0
  3
Dashed (.5x) _ _ _ _ _ _ _ _ _ _ _ _ _ _ _ _ _ 
 72
    65
 73
     2
 40
9.524999999999999
 49
6.35
 74
     0
 49
-3.175
 74
     0
  0
LTYPE
  5
204B
330
1F95
100
AcDbSymbolTableRecord
100
AcDbLinetypeTableRecord
  2
DASHEDX2
 70
     0
  3
Dashed (2x) ____  ____  ____  ____  ____  ___
 72
    65
 73
     2
 40
38.09999999999999
 49
25.4
 74
     0
 49
-12.7
 74
     0
  0
LTYPE
  5
204C
330
1F95
100
AcDbSymbolTableRecord
100
AcDbLinetypeTableRecord
  2
DIVIDE
 70
     0
  3
Divide ____ . . ____ . . ____ . . ____ . . ____
 72
    65
 73
     6
 40
31.75
 49
12.7
 74
     0
 49
-6.35
 74
     0
 49
0.0
 74
     0
 49
-6.35
 74
     0
 49
0.0
 74
     0
 49
-6.35
 74
     0
  0
LTYPE
  5
204D
330
1F95
100
AcDbSymbolTableRecord
100
AcDbLinetypeTableRecord
  2
DIVIDE2
 70
     0
  3
Divide (.5x) __..__..__..__..__..__..__..__.._
 72
    65
 73
     6
 40
15.875
 49
6.35
 74
     0
 49
-3.175
 74
     0
 49
0.0
 74
     0
 49
-3.175
 74
     0
 49
0.0
 74
     0
 49
-3.175
 74
     0
  0
LTYPE
  5
204E
330
1F95
100
AcDbSymbolTableRecord
100
AcDbLinetypeTableRecord
  2
DIVIDEX2
 70
     0
  3
Divide (2x) ________  .  .  ________  .  .  _
 72
    65
 73
     6
 40
63.5
 49
25.4
 74
     0
 49
-12.7
 74
     0
 49
0.0
 74
     0
 49
-12.7
 74
     0
 49
0.0
 74
     0
 49
-12.7
 74
     0
  0
LTYPE
  5
204F
330
1F95
100
AcDbSymbolTableRecord
100
AcDbLinetypeTableRecord
  2
DOT
 70
     0
  3
Dot . . . . . . . . . . . . . . . . . . . . . . . .
 72
    65
 73
     2
 40
6.35
 49
0.0
 74
     0
 49
-6.35
 74
     0
  0
LTYPE
  5
2050
330
1F95
100
AcDbSymbolTableRecord
100
AcDbLinetypeTableRecord
  2
DOT2
 70
     0
  3
Dot (.5x) ........................................
 72
    65
 73
     2
 40
3.175
 49
0.0
 74
     0
 49
-3.175
 74
     0
  0
LTYPE
  5
2051
330
1F95
100
AcDbSymbolTableRecord
100
AcDbLinetypeTableRecord
  2
DOTX2
 70
     0
  3
Dot (2x) .  .  .  .  .  .  .  .  .  .  .  .  .  .
 72
    65
 73
     2
 40
12.7
 49
0.0
 74
     0
 49
-12.7
 74
     0
  0
LTYPE
  5
2053
330
1F95
100
AcDbSymbolTableRecord
100
AcDbLinetypeTableRecord
  2
DRAINAGE
 70
     0
  3
Drainage ---->---->---->----
 72
    65
 73
     2
 40
10.16
 49
5.08
 74
     2
 75
     0
340
2052
 46
2.54
 50
180.0
 44
0.0
 45
0.0
  9
RIGHT_ARROW
 49
5.08
 74
     0
  0
LTYPE
  5
2055
330
1F95
100
AcDbSymbolTableRecord
100
AcDbLinetypeTableRecord
  2
DRAINAGE2
 70
     0
  3
Drainage reversed----<----<----<----
 72
    65
 73
     2
 40
10.16
 49
5.08
 74
     2
 75
     0
340
2054
 46
2.54
 50
0.0
 44
0.0
 45
0.0
  9
RIGHT_ARROW
 49
5.08
 74
     0
  0
LTYPE
  5
2057
330
1F95
100
AcDbSymbolTableRecord
100
AcDbLinetypeTableRecord
  2
FENCELINE1
 70
     0
  3
Fenceline circle ----0-----0----0-----0----0-----0--
 72
    65
 73
     4
 40
36.83
 49
6.35
 74
     0
 49
-2.54
 74
     2
 75
     0
340
2056
 46
2.54
 50
0.0
 44
-2.54
 45
0.0
  9
CIRC1
 49
-2.54
 74
     0
 49
25.4
 74
     0
  0
LTYPE
  5
2059
330
1F95
100
AcDbSymbolTableRecord
100
AcDbLinetypeTableRecord
  2
FENCELINE2
 70
     0
  3
Fenceline square ----[]-----[]----[]-----[]----[]---
 72
    65
 73
     4
 40
36.83
 49
6.35
 74
     0
 49
-2.54
 74
     2
 75
     0
340
2058
 46
2.54
 50
0.0
 44
-2.54
 45
0.0
  9
BOX
 49
-2.54
 74
     0
 49
25.4
 74
     0
  0
LTYPE
  5
205B
330
1F95
100
AcDbSymbolTableRecord
100
AcDbLinetypeTableRecord
  2
GAS_LINE
 70
     0
  3
Gas line ----GAS----GAS----GAS----GAS----GAS----GAS--
 72
    65
 73
     3
 40
24.13
 49
12.7
 74
     0
 49
-5.08
 74
     2
 75
     0
340
205A
 46
2.54
 50
0.0
 44
-2.54
 45
-1.27
  9
GAS
 49
-6.35
 74
     0
  0
LTYPE
  5
205C
330
1F95
100
AcDbSymbolTableRecord
100
AcDbLinetypeTableRecord
  2
HIDDEN
 70
     0
  3
Hidden __ __ __ __ __ __ __ __ __ __ __ __ __ __
 72
    65
 73
     2
 40
9.524999999999999
 49
6.35
 74
     0
 49
-3.175
 74
     0
  0
LTYPE
  5
205D
330
1F95
100
AcDbSymbolTableRecord
100
AcDbLinetypeTableRecord
  2
HIDDEN2
 70
     0
  3
Hidden (.5x) _ _ _ _ _ _ _ _ _ _ _ _ _ _ _ _ _ 
 72
    65
 73
     2
 40
4.762499999999999
 49
3.175
 74
     0
 49
-1.5875
 74
     0
  0
LTYPE
  5
205E
330
1F95
100
AcDbSymbolTableRecord
100
AcDbLinetypeTableRecord
  2
HIDDENX2
 70
     0
  3
Hidden (2x) ____ ____ ____ ____ ____ ____ ____ 
 72
    65
 73
     2
 40
19.05
 49
12.7
 74
     0
 49
-6.35
 74
     0
  0
LTYPE
  5
2060
330
1F95
100
AcDbSymbolTableRecord
100
AcDbLinetypeTableRecord
  2
HOT_WATER_SUPPLY
 70
     0
  3
Hot water supply ---- HW ---- HW ---- HW ----
 72
    65
 73
     3
 40
22.86
 49
12.7
 74
     0
 49
-5.08
 74
     2
 75
     0
340
205F
 46
2.54
 50
0.0
 44
-2.54
 45
-1.27
  9
HW
 49
-5.08
 74
     0
  0
LTYPE
  5
2061
330
1F95
100
AcDbSymbolTableRecord
100
AcDbLinetypeTableRecord
  2
PHANTOM
 70
     0
  3
Phantom ______  __  __  ______  __  __  ______ 
 72
    65
 73
     6
 40
63.50000000000001
 49
31.75
 74
     0
 49
-6.35
 74
     0
 49
6.35
 74
     0
 49
-6.35
 74
     0
 49
6.35
 74
     0
 49
-6.35
 74
     0
  0
LTYPE
  5
2062
330
1F95
100
AcDbSymbolTableRecord
100
AcDbLinetypeTableRecord
  2
PHANTOM2
 70
     0
  3
Phantom (.5x) ___ _ _ ___ _ _ ___ _ _ ___ _ _
 72
    65
 73
     6
 40
31.75
 49
15.875
 74
     0
 49
-3.175
 74
     0
 49
3.175
 74
     0
 49
-3.175
 74
     0
 49
3.175
 74
     0
 49
-3.175
 74
     0
  0
LTYPE
  5
2063
330
1F95
100
AcDbSymbolTableRecord
100
AcDbLinetypeTableRecord
  2
PHANTOMX2
 70
     0
  3
Phantom (2x) ____________    ____    ____   _
 72
    65
 73
     6
 40
127.0
 49
63.5
 74
     0
 49
-12.7
 74
     0
 49
12.7
 74
     0
 49
-12.7
 74
     0
 49
12.7
 74
     0
 49
-12.7
 74
     0
  0
LTYPE
  5
2065
330
1F95
100
AcDbSymbolTableRecord
100
AcDbLinetypeTableRecord
  2
TRACKS
 70
     0
  3
Tracks -|-|-|-|-|-|-|-|-|-|-|-|-|-|-|-|-|-|-|-|-|-|-|-|-
 72
    65
 73
     2
 40
7.62
 49
3.81
 74
     2
 75
     0
340
2064
 46
6.35
 50
0.0
 44
0.0
 45
0.0
  9
TRACK1
 49
3.81
 74
     0
  0
LTYPE
  5
2068
330
1F95
100
AcDbSymbolTableRecord
100
AcDbLinetypeTableRecord
  2
ZIGZAG
 70
     0
  3
Zig zag /\/\/\/\/\/\/\/\/\/\/\/\/\/\/\/\/\/\/\/\/\/\/\/
 72
    65
 73
     4
 40
20.32254
 49
0.00254
 74
     0
 49
-5.08
 74
     2
 75
     0
340
2066
 46
5.08
 50
0.0
 44
-5.08
 45
0.0
  9
ZIG
 49
-10.16
 74
     2
 75
     0
340
2067
 46
5.08
 50
180.0
 44
5.08
 45
0.0
  9
ZIG
 49
-5.08
 74
     0
  0
ENDTAB
  0
TABLE
  2
LAYER
  5
1F92
330
0
100
AcDbSymbolTable
 70
     2
  0
LAYER
  5
1FA0
330
1F92
100
AcDbSymbolTableRecord
100
AcDbLayerTableRecord
  2
0
 70
     0
 62
     7
420
 16777215
  6
Continuous
370
     0
390
1F9F
347
1FD5
348
0
  0
LAYER
  5
2069
330
1F92
100
AcDbSymbolTableRecord
100
AcDbLayerTableRecord
  2
lazerCut
 70
     0
 62
     1
420
 16711680
  6
Continuous
370
     0
390
1F9F
347
1FD5
348
0
  0
ENDTAB
  0
TABLE
  2
STYLE
  5
1F93
330
0
100
AcDbSymbolTable
 70
    13
  0
STYLE
  5
1FA1
330
1F93
100
AcDbSymbolTableRecord
100
AcDbTextStyleTableRecord
  2
Standard
 70
     0
 40
0.0
 41
1.0
 50
0.0
 71
     0
 42
0.2
  3
txt
  4

  0
STYLE
  5
202D
330
1F93
100
AcDbSymbolTableRecord
100
AcDbTextStyleTableRecord
  2
QCADDimTextStyle
 70
     0
 40
0.0
 41
1.0
 50
0.0
 71
     0
 42
0.2
  3

  4

  0
STYLE
  5
203D
330
1F93
100
AcDbSymbolTableRecord
100
AcDbTextStyleTableRecord
  2
textstyle0
 70
     0
 40
0.0
 41
1.0
 50
0.0
 71
     0
 42
0.2
  3
ltypeshp.shx
  4

  0
STYLE
  5
203E
330
1F93
100
AcDbSymbolTableRecord
100
AcDbTextStyleTableRecord
  2
textstyle1
 70
     0
 40
0.0
 41
1.0
 50
0.0
 71
     0
 42
0.2
  3
ltypeshp.shx
  4

  0
STYLE
  5
2052
330
1F93
100
AcDbSymbolTableRecord
100
AcDbTextStyleTableRecord
  2
textstyle2
 70
     0
 40
0.0
 41
1.0
 50
0.0
 71
     0
 42
0.2
  3
qcadshp.shx
  4

  0
STYLE
  5
2054
330
1F93
100
AcDbSymbolTableRecord
100
AcDbTextStyleTableRecord
  2
textstyle3
 70
     0
 40
0.0
 41
1.0
 50
0.0
 71
     0
 42
0.2
  3
qcadshp.shx
  4

  0
STYLE
  5
2056
330
1F93
100
AcDbSymbolTableRecord
100
AcDbTextStyleTableRecord
  2
textstyle4
 70
     0
 40
0.0
 41
1.0
 50
0.0
 71
     0
 42
0.2
  3
ltypeshp.shx
  4

  0
STYLE
  5
2058
330
1F93
100
AcDbSymbolTableRecord
100
AcDbTextStyleTableRecord
  2
textstyle5
 70
     0
 40
0.0
 41
1.0
 50
0.0
 71
     0
 42
0.2
  3
ltypeshp.shx
  4

  0
STYLE
  5
205A
330
1F93
100
AcDbSymbolTableRecord
100
AcDbTextStyleTableRecord
  2
textstyle6
 70
     0
 40
0.0
 41
1.0
 50
0.0
 71
     0
 42
0.2
  3
STANDARD
  4

  0
STYLE
  5
205F
330
1F93
100
AcDbSymbolTableRecord
100
AcDbTextStyleTableRecord
  2
textstyle7
 70
     0
 40
0.0
 41
1.0
 50
0.0
 71
     0
 42
0.2
  3
STANDARD
  4

  0
STYLE
  5
2064
330
1F93
100
AcDbSymbolTableRecord
100
AcDbTextStyleTableRecord
  2
textstyle8
 70
     0
 40
0.0
 41
1.0
 50
0.0
 71
     0
 42
0.2
  3
ltypeshp.shx
  4

  0
STYLE
  5
2066
330
1F93
100
AcDbSymbolTableRecord
100
AcDbTextStyleTableRecord
  2
textstyle9
 70
     0
 40
0.0
 41
1.0
 50
0.0
 71
     0
 42
0.2
  3
ltypeshp.shx
  4

  0
STYLE
  5
2067
330
1F93
100
AcDbSymbolTableRecord
100
AcDbTextStyleTableRecord
  2
textstyle10
 70
     0
 40
0.0
 41
1.0
 50
0.0
 71
     0
 42
0.2
  3
ltypeshp.shx
  4

  0
ENDTAB
  0
TABLE
  2
VIEW
  5
1F96
330
0
100
AcDbSymbolTable
 70
     0
  0
ENDTAB
  0
TABLE
  2
UCS
  5
1F97
330
0
100
AcDbSymbolTable
 70
     0
  0
ENDTAB
  0
TABLE
  2
APPID
  5
1F99
330
0
100
AcDbSymbolTable
 70
     2
  0
APPID
  5
1FA2
330
1F99
100
AcDbSymbolTableRecord
100
AcDbRegAppTableRecord
  2
ACAD
 70
     0
  0
APPID
  5
1FFD
330
1F99
100
AcDbSymbolTableRecord
100
AcDbRegAppTableRecord
  2
QCAD
 70
     0
  0
ENDTAB
  0
TABLE
  2
DIMSTYLE
  5
1F9A
330
0
100
AcDbSymbolTable
 70
     2
100
AcDbDimStyleTable
  0
DIMSTYLE
105
1FB6
330
1F9A
100
AcDbSymbolTableRecord
100
AcDbDimStyleTableRecord
  2
Standard
 70
     0
178
     0
340
1FA1
  0
DIMSTYLE
105
202E
330
1F9A
100
AcDbSymbolTableRecord
100
AcDbDimStyleTableRecord
  2
QCADDimStyle
 70
     0
 41
2.5
 42
0.625
 44
1.25
 73
     0
 77
     1
140
2.5
147
0.625
178
     0
340
202D
  0
ENDTAB
  0
TABLE
  2
BLOCK_RECORD
  5
1F91
330
0
100
AcDbSymbolTable
 70
     5
  0
BLOCK_RECORD
  5
1FAE
330
1F91
100
AcDbSymbolTableRecord
100
AcDbBlockTableRecord
  2
*Model_Space
340
1FB1
 70
     0
280
     1
281
     0
  0
BLOCK_RECORD
  5
1FAA
330
1F91
100
AcDbSymbolTableRecord
100
AcDbBlockTableRecord
  2
*Paper_Space
340
1FAD
 70
     0
280
     1
281
     0
  0
BLOCK_RECORD
  5
1FB2
330
1F91
100
AcDbSymbolTableRecord
100
AcDbBlockTableRecord
  2
*Paper_Space0
340
1FB5
 70
     0
280
     1
281
     0
  0
BLOCK_RECORD
  5
206A
330
1F91
100
AcDbSymbolTableRecord
100
AcDbBlockTableRecord
  2
motorConnector
340
0
 70
     0
280
     1
281
     0
  0
BLOCK_RECORD
  5
206D
330
1F91
100
AcDbSymbolTableRecord
100
AcDbBlockTableRecord
  2
wheelDisk
340
0
102
{BLKREFS
331
1BAB
331
1C04
331
1C91
331
1C9E
331
1DE2
331
1DEF
331
1E2C
331
1E39
102
}
 70
     0
280
     1
281
     0
  0
BLOCK_RECORD
  5
2070
330
1F91
100
AcDbSymbolTableRecord
100
AcDbBlockTableRecord
  2
w-2-47-wide
340
0
102
{BLKREFS
331
1ED5
331
1ED7
331
1ED9
331
1EDB
331
1EDD
331
1EDF
331
1EE5
331
1EE7
331
1EE9
331
1EEB
331
1EED
331
1EEF
331
1EF0
331
1EF1
331
1EF2
331
1EF3
331
1EF4
331
1EF5
331
1EF6
331
1EF7
331
1EF8
331
1EF9
331
1EFA
331
1EFB
331
1EFC
331
1EFD
331
1EFE
331
1EFF
331
1F00
331
1F01
331
1F02
331
1F03
331
1F04
331
1F05
331
1F06
331
1F07
102
}
 70
     0
280
     1
281
     0
  0
BLOCK_RECORD
  5
2073
330
1F91
100
AcDbSymbolTableRecord
100
AcDbBlockTableRecord
  2
w-3-47-wide
340
0
102
{BLKREFS
331
1EE4
331
1EE6
331
1EE8
331
1EEA
331
1EEC
331
1EEE
331
1F0D
331
1F0E
331
1F0F
331
1F10
331
1F11
331
1F12
331
1F13
331
1F14
331
1F15
331
1F16
331
1F17
331
1F18
331
1F19
331
1F1A
331
1F1B
331
1F1C
331
1F1D
331
1F1E
331
1F1F
331
1F20
331
1F21
331
1F22
331
1F23
331
1F24
331
1F25
331
1F26
331
1F27
331
1F28
331
1F29
331
1F2A
102
}
 70
     0
280
     1
281
     0
  0
ENDTAB
  0
ENDSEC
  0
SECTION
  2
BLOCKS
  0
BLOCK
  5
1FAF
330
1FAE
100
AcDbEntity
  8
0
100
AcDbBlockBegin
  2
*Model_Space
 70
     0
 10
0.0
 20
0.0
 30
0.0
  3
*Model_Space
  1
*Model_Space
  0
ENDBLK
  5
1FB0
330
1FAE
100
AcDbEntity
  8
0
100
AcDbBlockEnd
  0
BLOCK
  5
1FAB
330
1FAA
100
AcDbEntity
 67
     1
  8
0
100
AcDbBlockBegin
  2
*Paper_Space
 70
     0
 10
0.0
 20
0.0
 30
0.0
  3
*Paper_Space
  1
*Paper_Space
  0
ENDBLK
  5
1FAC
330
1FAA
100
AcDbEntity
 67
     1
  8
0
100
AcDbBlockEnd
  0
BLOCK
  5
1FB3
330
1FB2
100
AcDbEntity
  8
0
100
AcDbBlockBegin
  2
*Paper_Space0
 70
     0
 10
0.0
 20
0.0
 30
0.0
  3
*Paper_Space0
  1
*Paper_Space0
  0
ENDBLK
  5
1FB4
330
1FB2
100
AcDbEntity
  8
0
100
AcDbBlockEnd
  0
BLOCK
  5
206B
330
206A
100
AcDbEntity
  8
0
100
AcDbBlockBegin
  2
motorConnector
 70
     0
 10
0.0
 20
0.0
 30
0.0
  3
motorConnector
  1
motorConnector
  0
ARC
  5
82
330
206A
100
AcDbEntity
  8
lazerCut
100
AcDbCircle
 10
0.0
 20
0.0
 30
0.0
 40
1.5
100
AcDbArc
 50
138.1896851042214
 51
41.8103148957786
  0
LINE
  5
83
330
206A
100
AcDbEntity
  8
lazerCut
100
AcDbLine
 10
1.118033988749893
 20
1.0
 30
0.0
 11
-1.118033988749893
 21
1.0
 31
0.0
  0
ENDBLK
  5
206C
330
206A
100
AcDbEntity
  8
0
100
AcDbBlockEnd
  0
BLOCK
  5
206E
330
206D
100
AcDbEntity
  8
0
100
AcDbBlockBegin
  2
wheelDisk
 70
     0
 10
0.0
 20
0.0
 30
0.0
  3
wheelDisk
  1
wheelDisk
  0
LINE
  5
50
330
206D
100
AcDbEntity
  8
lazerCut
100
AcDbLine
 10
19.97999199359359
 20
-1.000000000000004
 30
0.0
 11
24.97999199359359
 21
-1.000000000000004
 31
0.0
  0
LINE
  5
51
330
206D
100
AcDbEntity
  8
lazerCut
100
AcDbLine
 10
24.97999199359359
 20
0.9999999999999964
 30
0.0
 11
19.97999199359359
 21
0.9999999999999964
 31
0.0
  0
LINE
  5
52
330
206D
100
AcDbEntity
  8
lazerCut
100
AcDbLine
 10
-17.80318063386176
 20
9.123970593012402
 30
0.0
 11
-16.80318063386176
 21
10.85602140058127
 31
0.0
  0
LINE
  5
53
330
206D
100
AcDbEntity
  8
lazerCut
100
AcDbLine
 10
-16.80318063386176
 20
10.85602140058127
 30
0.0
 11
-21.13330765278396
 21
13.35602140058127
 31
0.0
  0
LINE
  5
54
330
206D
100
AcDbEntity
  8
lazerCut
100
AcDbLine
 10
-22.13330765278396
 20
11.6239705930124
 30
0.0
 11
-17.80318063386176
 21
9.123970593012402
 31
0.0
  0
LINE
  5
55
330
206D
100
AcDbEntity
  8
lazerCut
100
AcDbLine
 10
-9.123970593012402
 20
-17.8031806338617
 30
0.0
 11
-10.85602140058126
 21
-16.80318063386171
 31
0.0
  0
LINE
  5
56
330
206D
100
AcDbEntity
  8
lazerCut
100
AcDbLine
 10
-10.85602140058126
 20
-16.80318063386171
 30
0.0
 11
-13.3560214005813
 21
-21.13330765278388
 31
0.0
  0
LINE
  5
57
330
206D
100
AcDbEntity
  8
lazerCut
100
AcDbLine
 10
-11.62397059301239
 20
-22.13330765278391
 30
0.0
 11
-9.123970593012402
 21
-17.8031806338617
 31
0.0
  0
LINE
  5
58
330
206D
100
AcDbEntity
  8
lazerCut
100
AcDbLine
 10
17.80318063386171
 20
-9.123970593012338
 30
0.0
 11
16.80318063386174
 21
-10.85602140058121
 31
0.0
  0
LINE
  5
59
330
206D
100
AcDbEntity
  8
lazerCut
100
AcDbLine
 10
16.80318063386174
 20
-10.85602140058121
 30
0.0
 11
21.13330765278391
 21
-13.35602140058122
 31
0.0
  0
LINE
  5
5A
330
206D
100
AcDbEntity
  8
lazerCut
100
AcDbLine
 10
22.13330765278391
 20
-11.62397059301234
 30
0.0
 11
17.80318063386171
 21
-9.123970593012338
 31
0.0
  0
LINE
  5
5B
330
206D
100
AcDbEntity
  8
lazerCut
100
AcDbLine
 10
9.123970593012345
 20
17.80318063386176
 30
0.0
 11
10.8560214005812
 21
16.80318063386179
 31
0.0
  0
LINE
  5
5C
330
206D
100
AcDbEntity
  8
lazerCut
100
AcDbLine
 10
10.8560214005812
 20
16.80318063386179
 30
0.0
 11
13.35602140058121
 21
21.13330765278396
 31
0.0
  0
LINE
  5
5D
330
206D
100
AcDbEntity
  8
lazerCut
100
AcDbLine
 10
11.62397059301233
 20
22.13330765278397
 30
0.0
 11
9.123970593012345
 21
17.80318063386176
 31
0.0
  0
LINE
  5
5E
330
206D
100
AcDbEntity
  8
lazerCut
100
AcDbLine
 10
-10.85602140058123
 20
16.80318063386174
 30
0.0
 11
-9.12397059301236
 21
17.80318063386174
 31
0.0
  0
LINE
  5
5F
330
206D
100
AcDbEntity
  8
lazerCut
100
AcDbLine
 10
-9.12397059301236
 20
17.80318063386174
 30
0.0
 11
-11.62397059301236
 21
22.13330765278394
 31
0.0
  0
LINE
  5
60
330
206D
100
AcDbEntity
  8
lazerCut
100
AcDbLine
 10
-13.35602140058123
 20
21.13330765278394
 30
0.0
 11
-10.85602140058123
 21
16.80318063386174
 31
0.0
  0
LINE
  5
61
330
206D
100
AcDbEntity
  8
lazerCut
100
AcDbLine
 10
-16.80318063386176
 20
-10.85602140058121
 30
0.0
 11
-17.80318063386174
 21
-9.123970593012363
 31
0.0
  0
LINE
  5
62
330
206D
100
AcDbEntity
  8
lazerCut
100
AcDbLine
 10
-17.80318063386174
 20
-9.123970593012363
 30
0.0
 11
-22.13330765278396
 21
-11.62397059301233
 31
0.0
  0
LINE
  5
63
330
206D
100
AcDbEntity
  8
lazerCut
100
AcDbLine
 10
-21.13330765278394
 20
-13.35602140058124
 30
0.0
 11
-16.80318063386176
 21
-10.85602140058121
 31
0.0
  0
LINE
  5
64
330
206D
100
AcDbEntity
  8
lazerCut
100
AcDbLine
 10
10.85602140058123
 20
-16.80318063386174
 30
0.0
 11
9.12397059301236
 21
-17.80318063386175
 31
0.0
  0
LINE
  5
65
330
206D
100
AcDbEntity
  8
lazerCut
100
AcDbLine
 10
9.12397059301236
 20
-17.80318063386175
 30
0.0
 11
11.62397059301236
 21
-22.13330765278394
 31
0.0
  0
LINE
  5
66
330
206D
100
AcDbEntity
  8
lazerCut
100
AcDbLine
 10
13.35602140058123
 20
-21.13330765278394
 30
0.0
 11
10.85602140058123
 21
-16.80318063386174
 31
0.0
  0
LINE
  5
67
330
206D
100
AcDbEntity
  8
lazerCut
100
AcDbLine
 10
16.80318063386174
 20
10.85602140058122
 30
0.0
 11
17.80318063386173
 21
9.123970593012388
 31
0.0
  0
LINE
  5
68
330
206D
100
AcDbEntity
  8
lazerCut
100
AcDbLine
 10
17.80318063386173
 20
9.123970593012388
 30
0.0
 11
22.13330765278393
 21
11.62397059301236
 31
0.0
  0
LINE
  5
69
330
206D
100
AcDbEntity
  8
lazerCut
100
AcDbLine
 10
21.13330765278393
 20
13.35602140058126
 30
0.0
 11
16.80318063386174
 21
10.85602140058122
 31
0.0
  0
ARC
  5
6A
330
206D
100
AcDbEntity
  8
lazerCut
100
AcDbCircle
 10
0.0
 20
0.0
 30
0.0
 40
25.0
100
AcDbArc
 50
92.29244277595586
 51
117.7075572240441
  0
ARC
  5
6B
330
206D
100
AcDbEntity
  8
lazerCut
100
AcDbCircle
 10
0.0
 20
0.0
 30
0.0
 40
25.0
100
AcDbArc
 50
122.2924427759557
 51
147.7075572240439
  0
ARC
  5
6C
330
206D
100
AcDbEntity
  8
lazerCut
100
AcDbCircle
 10
0.0
 20
0.0
 30
0.0
 40
25.0
100
AcDbArc
 50
152.2924427759559
 51
177.7075572240441
  0
ARC
  5
6D
330
206D
100
AcDbEntity
  8
lazerCut
100
AcDbCircle
 10
0.0
 20
0.0
 30
0.0
 40
25.0
100
AcDbArc
 50
182.2924427759559
 51
207.7075572240441
  0
ARC
  5
6E
330
206D
100
AcDbEntity
  8
lazerCut
100
AcDbCircle
 10
0.0
 20
0.0
 30
0.0
 40
25.0
100
AcDbArc
 50
212.292442775956
 51
237.707557224044
  0
ARC
  5
6F
330
206D
100
AcDbEntity
  8
lazerCut
100
AcDbCircle
 10
0.0
 20
0.0
 30
0.0
 40
25.0
100
AcDbArc
 50
242.2924427759557
 51
267.707557224044
  0
ARC
  5
70
330
206D
100
AcDbEntity
  8
lazerCut
100
AcDbCircle
 10
0.0
 20
0.0
 30
0.0
 40
25.0
100
AcDbArc
 50
272.292442775956
 51
297.7075572240441
  0
ARC
  5
71
330
206D
100
AcDbEntity
  8
lazerCut
100
AcDbCircle
 10
0.0
 20
0.0
 30
0.0
 40
25.0
100
AcDbArc
 50
302.292442775956
 51
327.7075572240444
  0
ARC
  5
72
330
206D
100
AcDbEntity
  8
lazerCut
100
AcDbCircle
 10
0.0
 20
0.0
 30
0.0
 40
25.0
100
AcDbArc
 50
332.2924427759557
 51
357.707557224044
  0
ARC
  5
73
330
206D
100
AcDbEntity
  8
lazerCut
100
AcDbCircle
 10
0.0
 20
0.0
 30
0.0
 40
25.0
100
AcDbArc
 50
2.292442775955927
 51
27.70755722404416
  0
ARC
  5
74
330
206D
100
AcDbEntity
  8
lazerCut
100
AcDbCircle
 10
0.0
 20
0.0
 30
0.0
 40
25.0
100
AcDbArc
 50
32.29244277595593
 51
57.70755722404418
  0
ARC
  5
75
330
206D
100
AcDbEntity
  8
lazerCut
100
AcDbCircle
 10
0.0
 20
0.0
 30
0.0
 40
25.0
100
AcDbArc
 50
62.29244277595606
 51
87.70755722404421
  0
LINE
  5
76
330
206D
100
AcDbEntity
  8
lazerCut
100
AcDbLine
 10
-1.0
 20
19.97999199359359
 30
0.0
 11
1.0
 21
19.97999199359359
 31
0.0
  0
LINE
  5
77
330
206D
100
AcDbEntity
  8
lazerCut
100
AcDbLine
 10
1.0
 20
19.97999199359359
 30
0.0
 11
1.0
 21
24.97999199359359
 31
0.0
  0
LINE
  5
78
330
206D
100
AcDbEntity
  8
lazerCut
100
AcDbLine
 10
-1.0
 20
24.97999199359359
 30
0.0
 11
-1.0
 21
19.97999199359359
 31
0.0
  0
LINE
  5
79
330
206D
100
AcDbEntity
  8
lazerCut
100
AcDbLine
 10
-19.9799919935936
 20
-1.0
 30
0.0
 11
-19.9799919935936
 21
1.0
 31
0.0
  0
LINE
  5
7A
330
206D
100
AcDbEntity
  8
lazerCut
100
AcDbLine
 10
-19.9799919935936
 20
1.0
 30
0.0
 11
-24.9799919935936
 21
1.0
 31
0.0
  0
LINE
  5
7B
330
206D
100
AcDbEntity
  8
lazerCut
100
AcDbLine
 10
-24.9799919935936
 20
-1.0
 30
0.0
 11
-19.9799919935936
 21
-1.0
 31
0.0
  0
LINE
  5
7C
330
206D
100
AcDbEntity
  8
lazerCut
100
AcDbLine
 10
0.9999999999999929
 20
-19.9799919935936
 30
0.0
 11
-1.000000000000007
 21
-19.9799919935936
 31
0.0
  0
LINE
  5
7D
330
206D
100
AcDbEntity
  8
lazerCut
100
AcDbLine
 10
-1.000000000000007
 20
-19.9799919935936
 30
0.0
 11
-1.000000000000007
 21
-24.9799919935936
 31
0.0
  0
LINE
  5
7E
330
206D
100
AcDbEntity
  8
lazerCut
100
AcDbLine
 10
0.9999999999999929
 20
-24.9799919935936
 30
0.0
 11
0.9999999999999929
 21
-19.9799919935936
 31
0.0
  0
LINE
  5
7F
330
206D
100
AcDbEntity
  8
lazerCut
100
AcDbLine
 10
19.97999199359359
 20
0.9999999999999964
 30
0.0
 11
19.97999199359359
 21
-1.000000000000004
 31
0.0
  0
ENDBLK
  5
206F
330
206D
100
AcDbEntity
  8
0
100
AcDbBlockEnd
  0
BLOCK
  5
2071
330
2070
100
AcDbEntity
  8
0
100
AcDbBlockBegin
  2
w-2-47-wide
 70
     0
 10
0.0
 20
0.0
 30
0.0
  3
w-2-47-wide
  1
w-2-47-wide
  0
LINE
  5
1EC7
330
2070
100
AcDbEntity
  8
lazerCut
100
AcDbLine
 10
3.0
 20
0.0
 30
0.0
 11
1.0
 21
0.0
 31
0.0
  0
LINE
  5
1EC8
330
2070
100
AcDbEntity
  8
lazerCut
100
AcDbLine
 10
1.0
 20
0.0
 30
0.0
 11
1.0
 21
-5.0
 31
0.0
  0
LINE
  5
1EC9
330
2070
100
AcDbEntity
  8
lazerCut
100
AcDbLine
 10
-5.0
 20
-5.0
 30
0.0
 11
-3.0
 21
-5.0
 31
0.0
  0
ARC
  5
1ECA
330
2070
100
AcDbEntity
  8
lazerCut
100
AcDbCircle
 10
0.0
 20
9.700000000000003
 30
0.0
 40
4.7
100
AcDbArc
 50
221.8683062262929
 51
318.1316937737071
  0
ARC
  5
1ECB
330
2070
100
AcDbEntity
  8
lazerCut
100
AcDbCircle
 10
1.774859297176903
 20
0.0
 30
0.0
 40
8.420137676816474
100
AcDbArc
 50
128.7892520594781
 51
216.428167872479
  0
ARC
  5
1ECC
330
2070
100
AcDbEntity
  8
lazerCut
100
AcDbCircle
 10
-1.774859297176903
 20
0.0
 30
0.0
 40
8.420137676816474
100
AcDbArc
 50
323.571832127521
 51
51.21074794052192
  0
LINE
  5
1ECD
330
2070
100
AcDbEntity
  8
lazerCut
100
AcDbLine
 10
-1.0
 20
-5.0
 30
0.0
 11
-1.0
 21
-5.0
 31
0.0
  0
LINE
  5
1ECE
330
2070
100
AcDbEntity
  8
lazerCut
100
AcDbLine
 10
3.0
 20
-5.0
 30
0.0
 11
5.0
 21
-5.0
 31
0.0
  0
LINE
  5
1ECF
330
2070
100
AcDbEntity
  8
lazerCut
100
AcDbLine
 10
-1.0
 20
-5.0
 30
0.0
 11
-0.2
 21
-5.0
 31
0.0
  0
LINE
  5
1ED0
330
2070
100
AcDbEntity
  8
lazerCut
100
AcDbLine
 10
-3.0
 20
-5.0
 30
0.0
 11
-3.0
 21
-5.0
 31
0.0
  0
LINE
  5
1ED1
330
2070
100
AcDbEntity
  8
lazerCut
100
AcDbLine
 10
-1.0
 20
-5.0
 30
0.0
 11
-1.0
 21
0.0
 31
0.0
  0
LINE
  5
1ED2
330
2070
100
AcDbEntity
  8
lazerCut
100
AcDbLine
 10
-1.0
 20
0.0
 30
0.0
 11
-3.0
 21
0.0
 31
0.0
  0
LINE
  5
1ED3
330
2070
100
AcDbEntity
  8
lazerCut
100
AcDbLine
 10
-3.0
 20
0.0
 30
0.0
 11
-3.0
 21
-5.0
 31
0.0
  0
LINE
  5
1ED4
330
2070
100
AcDbEntity
  8
lazerCut
100
AcDbLine
 10
3.0
 20
-5.0
 30
0.0
 11
3.0
 21
0.0
 31
0.0
  0
LINE
  5
1F08
330
2070
100
AcDbEntity
  8
lazerCut
100
AcDbLine
 10
0.2
 20
-5.0
 30
0.0
 11
1.0
 21
-5.0
 31
0.0
  0
ENDBLK
  5
2072
330
2070
100
AcDbEntity
  8
0
100
AcDbBlockEnd
  0
BLOCK
  5
2074
330
2073
100
AcDbEntity
  8
0
100
AcDbBlockBegin
  2
w-3-47-wide
 70
     0
 10
0.0
 20
0.0
 30
0.0
  3
w-3-47-wide
  1
w-3-47-wide
  0
LINE
  5
1EB9
330
2073
100
AcDbEntity
  8
lazerCut
100
AcDbLine
 10
-1.5
 20
-5.0
 30
0.0
 11
-1.5
 21
0.0
 31
0.0
  0
LINE
  5
1EBA
330
2073
100
AcDbEntity
  8
lazerCut
100
AcDbLine
 10
-1.5
 20
0.0
 30
0.0
 11
-3.5
 21
0.0
 31
0.0
  0
LINE
  5
1EBB
330
2073
100
AcDbEntity
  8
lazerCut
100
AcDbLine
 10
-3.5
 20
0.0
 30
0.0
 11
-3.5
 21
-5.0
 31
0.0
  0
LINE
  5
1EBC
330
2073
100
AcDbEntity
  8
lazerCut
100
AcDbLine
 10
3.5
 20
-5.0
 30
0.0
 11
3.5
 21
0.0
 31
0.0
  0
LINE
  5
1EBD
330
2073
100
AcDbEntity
  8
lazerCut
100
AcDbLine
 10
3.5
 20
0.0
 30
0.0
 11
1.5
 21
0.0
 31
0.0
  0
LINE
  5
1EBE
330
2073
100
AcDbEntity
  8
lazerCut
100
AcDbLine
 10
1.5
 20
0.0
 30
0.0
 11
1.5
 21
-5.0
 31
0.0
  0
LINE
  5
1EBF
330
2073
100
AcDbEntity
  8
lazerCut
100
AcDbLine
 10
-5.0
 20
-5.0
 30
0.0
 11
-3.5
 21
-5.0
 31
0.0
  0
ARC
  5
1EC0
330
2073
100
AcDbEntity
  8
lazerCut
100
AcDbCircle
 10
0.0
 20
9.700000000000003
 30
0.0
 40
4.7
100
AcDbArc
 50
221.8683062262929
 51
318.1316937737071
  0
ARC
  5
1EC1
330
2073
100
AcDbEntity
  8
lazerCut
100
AcDbCircle
 10
1.774859297176903
 20
0.0
 30
0.0
 40
8.420137676816474
100
AcDbArc
 50
128.7892520594781
 51
216.428167872479
  0
ARC
  5
1EC2
330
2073
100
AcDbEntity
  8
lazerCut
100
AcDbCircle
 10
-1.774859297176874
 20
0.0
 30
0.0
 40
8.42013767681645
100
AcDbArc
 50
323.5718321275209
 51
51.21074794052206
  0
LINE
  5
1EC3
330
2073
100
AcDbEntity
  8
lazerCut
100
AcDbLine
 10
-1.5
 20
-5.0
 30
0.0
 11
-0.3
 21
-5.0
 31
0.0
  0
LINE
  5
1EC4
330
2073
100
AcDbEntity
  8
lazerCut
100
AcDbLine
 10
3.5
 20
-5.0
 30
0.0
 11
5.0
 21
-5.0
 31
0.0
  0
LINE
  5
1F2F
330
2073
100
AcDbEntity
  8
lazerCut
100
AcDbLine
 10
0.3
 20
-5.0
 30
0.0
 11
1.5
 21
-5.0
 31
0.0
  0
ENDBLK
  5
2075
330
2073
100
AcDbEntity
  8
0
100
AcDbBlockEnd
  0
ENDSEC
  0
SECTION
  2
ENTITIES
  0
LINE
  5
1C79
330
1FAE
100
AcDbEntity
  8
lazerCut
100
AcDbLine
 10
130.0
 20
70.0
 30
0.0
 11
130.0
 21
63.00000000000001
 31
0.0
  0
ARC
  5
1C64
330
1FAE
100
AcDbEntity
  8
lazerCut
100
AcDbCircle
 10
135.0
 20
64.75
 30
0.0
 40
0.2499999999999929
100
AcDbArc
 50
90.00000000000001
 51
270.0
  0
ARC
  5
1C63
330
1FAE
100
AcDbEntity
  8
lazerCut
100
AcDbCircle
 10
135.0
 20
68.24999999999999
 30
0.0
 40
0.2499999999999929
100
AcDbArc
 50
90.00000000000001
 51
270.0
  0
ARC
  5
1C62
330
1FAE
100
AcDbEntity
  8
lazerCut
100
AcDbCircle
 10
162.0
 20
64.75000000000001
 30
0.0
 40
0.2499999999999929
100
AcDbArc
 50
270.0
 51
90.0
  0
ARC
  5
1C61
330
1FAE
100
AcDbEntity
  8
lazerCut
100
AcDbCircle
 10
162.0
 20
68.24999999999999
 30
0.0
 40
0.2499999999999929
100
AcDbArc
 50
270.0
 51
90.0
  0
LINE
  5
1C60
330
1FAE
100
AcDbEntity
  8
lazerCut
100
AcDbLine
 10
162.0
 20
69.99999999999999
 30
0.0
 11
162.0
 21
68.49999999999999
 31
0.0
  0
LINE
  5
1C5F
330
1FAE
100
AcDbEntity
  8
lazerCut
100
AcDbLine
 10
167.0
 20
69.99999999999999
 30
0.0
 11
162.0
 21
69.99999999999999
 31
0.0
  0
LINE
  5
1C5E
330
1FAE
100
AcDbEntity
  8
lazerCut
100
AcDbLine
 10
167.0
 20
63.0
 30
0.0
 11
167.0
 21
69.99999999999999
 31
0.0
  0
LINE
  5
1C5C
330
1FAE
100
AcDbEntity
  8
lazerCut
100
AcDbLine
 10
135.0
 20
70.0
 30
0.0
 11
130.0
 21
70.0
 31
0.0
  0
LINE
  5
1C5B
330
1FAE
100
AcDbEntity
  8
lazerCut
100
AcDbLine
 10
135.0
 20
68.49999999999999
 30
0.0
 11
135.0
 21
70.0
 31
0.0
  0
LINE
  5
1C5A
330
1FAE
100
AcDbEntity
  8
lazerCut
100
AcDbLine
 10
162.0
 20
64.50000000000003
 30
0.0
 11
162.0
 21
63.0
 31
0.0
  0
LINE
  5
1C58
330
1FAE
100
AcDbEntity
  8
lazerCut
100
AcDbLine
 10
162.0
 20
63.0
 30
0.0
 11
167.0
 21
63.0
 31
0.0
  0
LINE
  5
1C56
330
1FAE
100
AcDbEntity
  8
lazerCut
100
AcDbLine
 10
135.0
 20
63.00000000000001
 30
0.0
 11
135.0
 21
64.50000000000001
 31
0.0
  0
LINE
  5
1C55
330
1FAE
100
AcDbEntity
  8
lazerCut
100
AcDbLine
 10
130.0
 20
63.00000000000001
 30
0.0
 11
135.0
 21
63.00000000000001
 31
0.0
  0
LINE
  5
1C53
330
1FAE
100
AcDbEntity
  8
lazerCut
100
AcDbLine
 10
162.0
 20
68.0
 30
0.0
 11
135.0
 21
67.99999999999999
 31
0.0
  0
LINE
  5
1C51
330
1FAE
100
AcDbEntity
  8
lazerCut
100
AcDbLine
 10
135.0
 20
65.00000000000001
 30
0.0
 11
162.0
 21
65.0
 31
0.0
  0
INSERT
  5
1BAB
330
1FAE
100
AcDbEntity
  8
lazerCut
370
     0
100
AcDbBlockReference
  2
wheelDisk
 10
140.0000000000001
 20
30.00000000000003
 30
0.0
 50
15.0
  0
ARC
  5
1BAC
330
1FAE
100
AcDbEntity
  8
lazerCut
100
AcDbCircle
 10
140.0
 20
30.0
 30
0.0
 40
1.425
100
AcDbArc
 50
138.1896851042214
 51
41.8103148957786
  0
LINE
  5
1BAD
330
1FAE
100
AcDbEntity
  8
lazerCut
100
AcDbLine
 10
141.0621322893124
 20
30.95
 30
0.0
 11
138.9378677106876
 21
30.95
 31
0.0
  0
LINE
  5
1BED
330
1FAE
100
AcDbEntity
  8
lazerCut
100
AcDbLine
 10
121.5
 20
30.7
 30
0.0
 11
126.5
 21
30.7
 31
0.0
  0
LINE
  5
1BEE
330
1FAE
100
AcDbEntity
  8
lazerCut
100
AcDbLine
 10
126.5
 20
30.7
 30
0.0
 11
126.5
 21
32.7
 31
0.0
  0
LINE
  5
1BEF
330
1FAE
100
AcDbEntity
  8
lazerCut
100
AcDbLine
 10
126.5
 20
32.7
 30
0.0
 11
121.5
 21
32.7
 31
0.0
  0
LINE
  5
1BF0
330
1FAE
100
AcDbEntity
  8
lazerCut
100
AcDbLine
 10
121.5
 20
32.7
 30
0.0
 11
121.5
 21
30.7
 31
0.0
  0
LINE
  5
1BF1
330
1FAE
100
AcDbEntity
  8
lazerCut
100
AcDbLine
 10
153.5
 20
30.7
 30
0.0
 11
158.5
 21
30.7
 31
0.0
  0
LINE
  5
1BF2
330
1FAE
100
AcDbEntity
  8
lazerCut
100
AcDbLine
 10
158.5
 20
30.7
 30
0.0
 11
158.5
 21
32.7
 31
0.0
  0
LINE
  5
1BF3
330
1FAE
100
AcDbEntity
  8
lazerCut
100
AcDbLine
 10
158.5
 20
32.7
 30
0.0
 11
153.5
 21
32.7
 31
0.0
  0
LINE
  5
1BF4
330
1FAE
100
AcDbEntity
  8
lazerCut
100
AcDbLine
 10
153.5
 20
32.7
 30
0.0
 11
153.5
 21
30.7
 31
0.0
  0
INSERT
  5
1C04
330
1FAE
100
AcDbEntity
  8
lazerCut
370
     0
100
AcDbBlockReference
  2
wheelDisk
 10
192.0000000000001
 20
30.00000000000003
 30
0.0
 50
15.0
  0
ARC
  5
1C05
330
1FAE
100
AcDbEntity
  8
lazerCut
100
AcDbCircle
 10
192.0
 20
30.0
 30
0.0
 40
1.425
100
AcDbArc
 50
138.1896851042214
 51
41.8103148957786
  0
LINE
  5
1C06
330
1FAE
100
AcDbEntity
  8
lazerCut
100
AcDbLine
 10
193.0621322893124
 20
30.95
 30
0.0
 11
190.9378677106876
 21
30.95
 31
0.0
  0
LINE
  5
1C0F
330
1FAE
100
AcDbEntity
  8
lazerCut
100
AcDbLine
 10
173.5
 20
30.7
 30
0.0
 11
178.5
 21
30.7
 31
0.0
  0
LINE
  5
1C10
330
1FAE
100
AcDbEntity
  8
lazerCut
100
AcDbLine
 10
178.5
 20
30.7
 30
0.0
 11
178.5
 21
32.7
 31
0.0
  0
LINE
  5
1C11
330
1FAE
100
AcDbEntity
  8
lazerCut
100
AcDbLine
 10
178.5
 20
32.7
 30
0.0
 11
173.5
 21
32.7
 31
0.0
  0
LINE
  5
1C12
330
1FAE
100
AcDbEntity
  8
lazerCut
100
AcDbLine
 10
173.5
 20
32.7
 30
0.0
 11
173.5
 21
30.7
 31
0.0
  0
LINE
  5
1C13
330
1FAE
100
AcDbEntity
  8
lazerCut
100
AcDbLine
 10
205.5
 20
30.7
 30
0.0
 11
210.5
 21
30.7
 31
0.0
  0
LINE
  5
1C14
330
1FAE
100
AcDbEntity
  8
lazerCut
100
AcDbLine
 10
210.5
 20
30.7
 30
0.0
 11
210.5
 21
32.7
 31
0.0
  0
LINE
  5
1C15
330
1FAE
100
AcDbEntity
  8
lazerCut
100
AcDbLine
 10
210.5
 20
32.7
 30
0.0
 11
205.5
 21
32.7
 31
0.0
  0
LINE
  5
1C16
330
1FAE
100
AcDbEntity
  8
lazerCut
100
AcDbLine
 10
205.5
 20
32.7
 30
0.0
 11
205.5
 21
30.7
 31
0.0
  0
LINE
  5
1C1F
330
1FAE
100
AcDbEntity
  8
lazerCut
100
AcDbLine
 10
126.5
 20
59.00000000000001
 30
0.0
 11
153.5
 21
59.0
 31
0.0
  0
LINE
  5
1C21
330
1FAE
100
AcDbEntity
  8
lazerCut
100
AcDbLine
 10
153.5
 20
61.00000000000001
 30
0.0
 11
126.5
 21
61.0
 31
0.0
  0
LINE
  5
1C27
330
1FAE
100
AcDbEntity
  8
lazerCut
100
AcDbLine
 10
121.5
 20
57.0
 30
0.0
 11
126.5
 21
57.0
 31
0.0
  0
LINE
  5
1C28
330
1FAE
100
AcDbEntity
  8
lazerCut
100
AcDbLine
 10
126.5
 20
57.0
 30
0.0
 11
126.5
 21
58.50000000000001
 31
0.0
  0
LINE
  5
1C2B
330
1FAE
100
AcDbEntity
  8
lazerCut
100
AcDbLine
 10
153.5
 20
56.99999999999999
 30
0.0
 11
158.5
 21
56.99999999999999
 31
0.0
  0
LINE
  5
1C2E
330
1FAE
100
AcDbEntity
  8
lazerCut
100
AcDbLine
 10
153.5
 20
58.50000000000001
 30
0.0
 11
153.5
 21
56.99999999999999
 31
0.0
  0
LINE
  5
1C30
330
1FAE
100
AcDbEntity
  8
lazerCut
100
AcDbLine
 10
126.5
 20
61.49999999999999
 30
0.0
 11
126.5
 21
63.00000000000001
 31
0.0
  0
LINE
  5
1C31
330
1FAE
100
AcDbEntity
  8
lazerCut
100
AcDbLine
 10
126.5
 20
63.00000000000001
 30
0.0
 11
121.5
 21
63.00000000000001
 31
0.0
  0
LINE
  5
1C35
330
1FAE
100
AcDbEntity
  8
lazerCut
100
AcDbLine
 10
158.5
 20
63.0
 30
0.0
 11
153.5
 21
63.0
 31
0.0
  0
LINE
  5
1C36
330
1FAE
100
AcDbEntity
  8
lazerCut
100
AcDbLine
 10
153.5
 20
63.0
 30
0.0
 11
153.5
 21
61.49999999999999
 31
0.0
  0
ARC
  5
1C39
330
1FAE
100
AcDbEntity
  8
lazerCut
100
AcDbCircle
 10
153.5
 20
61.25
 30
0.0
 40
0.2499999999999929
100
AcDbArc
 50
270.0
 51
90.0
  0
ARC
  5
1C3A
330
1FAE
100
AcDbEntity
  8
lazerCut
100
AcDbCircle
 10
153.5
 20
58.75000000000001
 30
0.0
 40
0.2499999999999929
100
AcDbArc
 50
270.0
 51
90.0
  0
ARC
  5
1C3B
330
1FAE
100
AcDbEntity
  8
lazerCut
100
AcDbCircle
 10
126.5
 20
61.24999999999999
 30
0.0
 40
0.2499999999999929
100
AcDbArc
 50
90.00000000000001
 51
270.0
  0
ARC
  5
1C3C
330
1FAE
100
AcDbEntity
  8
lazerCut
100
AcDbCircle
 10
126.5
 20
58.75
 30
0.0
 40
0.2499999999999929
100
AcDbArc
 50
90.00000000000001
 51
270.0
  0
LINE
  5
1C3D
330
1FAE
100
AcDbEntity
  8
lazerCut
100
AcDbLine
 10
178.5
 20
59.00000000000001
 30
0.0
 11
205.5
 21
59.0
 31
0.0
  0
LINE
  5
1C3F
330
1FAE
100
AcDbEntity
  8
lazerCut
100
AcDbLine
 10
205.5
 20
61.00000000000001
 30
0.0
 11
178.5
 21
61.0
 31
0.0
  0
LINE
  5
1C41
330
1FAE
100
AcDbEntity
  8
lazerCut
100
AcDbLine
 10
173.5
 20
57.0
 30
0.0
 11
178.5
 21
57.0
 31
0.0
  0
LINE
  5
1C42
330
1FAE
100
AcDbEntity
  8
lazerCut
100
AcDbLine
 10
178.5
 20
57.0
 30
0.0
 11
178.5
 21
58.50000000000001
 31
0.0
  0
LINE
  5
1C44
330
1FAE
100
AcDbEntity
  8
lazerCut
100
AcDbLine
 10
205.5
 20
56.99999999999999
 30
0.0
 11
210.5
 21
56.99999999999999
 31
0.0
  0
LINE
  5
1C46
330
1FAE
100
AcDbEntity
  8
lazerCut
100
AcDbLine
 10
205.5
 20
58.50000000000001
 30
0.0
 11
205.5
 21
56.99999999999999
 31
0.0
  0
LINE
  5
1C47
330
1FAE
100
AcDbEntity
  8
lazerCut
100
AcDbLine
 10
178.5
 20
61.49999999999999
 30
0.0
 11
178.5
 21
63.00000000000001
 31
0.0
  0
LINE
  5
1C48
330
1FAE
100
AcDbEntity
  8
lazerCut
100
AcDbLine
 10
178.5
 20
63.00000000000001
 30
0.0
 11
173.5
 21
63.00000000000001
 31
0.0
  0
LINE
  5
1C4B
330
1FAE
100
AcDbEntity
  8
lazerCut
100
AcDbLine
 10
210.5
 20
63.0
 30
0.0
 11
205.5
 21
63.0
 31
0.0
  0
LINE
  5
1C4C
330
1FAE
100
AcDbEntity
  8
lazerCut
100
AcDbLine
 10
205.5
 20
63.0
 30
0.0
 11
205.5
 21
61.49999999999999
 31
0.0
  0
ARC
  5
1C4D
330
1FAE
100
AcDbEntity
  8
lazerCut
100
AcDbCircle
 10
205.5
 20
61.25
 30
0.0
 40
0.2499999999999929
100
AcDbArc
 50
270.0
 51
90.0
  0
ARC
  5
1C4E
330
1FAE
100
AcDbEntity
  8
lazerCut
100
AcDbCircle
 10
205.5
 20
58.75000000000001
 30
0.0
 40
0.2499999999999929
100
AcDbArc
 50
270.0
 51
90.0
  0
ARC
  5
1C4F
330
1FAE
100
AcDbEntity
  8
lazerCut
100
AcDbCircle
 10
178.5
 20
61.24999999999999
 30
0.0
 40
0.2499999999999929
100
AcDbArc
 50
90.00000000000001
 51
270.0
  0
ARC
  5
1C50
330
1FAE
100
AcDbEntity
  8
lazerCut
100
AcDbCircle
 10
178.5
 20
58.75
 30
0.0
 40
0.2499999999999929
100
AcDbArc
 50
90.00000000000001
 51
270.0
  0
LINE
  5
1C7A
330
1FAE
100
AcDbEntity
  8
lazerCut
100
AcDbLine
 10
158.5
 20
63.0
 30
0.0
 11
158.5
 21
56.99999999999999
 31
0.0
  0
LINE
  5
1C7B
330
1FAE
100
AcDbEntity
  8
lazerCut
100
AcDbLine
 10
121.5
 20
63.00000000000001
 30
0.0
 11
121.5
 21
57.0
 31
0.0
  0
LINE
  5
1C7C
330
1FAE
100
AcDbEntity
  8
lazerCut
100
AcDbLine
 10
210.5
 20
63.0
 30
0.0
 11
210.5
 21
56.99999999999999
 31
0.0
  0
LINE
  5
1C7D
330
1FAE
100
AcDbEntity
  8
lazerCut
100
AcDbLine
 10
173.5
 20
63.00000000000001
 30
0.0
 11
173.5
 21
57.0
 31
0.0
  0
LINE
  5
1C81
330
1FAE
100
AcDbEntity
  8
lazerCut
100
AcDbLine
 10
212.0
 20
63.0
 30
0.0
 11
217.0
 21
63.0
 31
0.0
  0
LINE
  5
1C82
330
1FAE
100
AcDbEntity
  8
lazerCut
100
AcDbLine
 10
180.0
 20
70.0
 30
0.0
 11
180.0
 21
63.00000000000001
 31
0.0
  0
LINE
  5
1C83
330
1FAE
100
AcDbEntity
  8
lazerCut
100
AcDbLine
 10
185.0
 20
63.00000000000001
 30
0.0
 11
185.0
 21
64.50000000000001
 31
0.0
  0
LINE
  5
1C84
330
1FAE
100
AcDbEntity
  8
lazerCut
100
AcDbLine
 10
180.0
 20
63.00000000000001
 30
0.0
 11
185.0
 21
63.00000000000001
 31
0.0
  0
ARC
  5
1C85
330
1FAE
100
AcDbEntity
  8
lazerCut
100
AcDbCircle
 10
185.0
 20
64.75
 30
0.0
 40
0.2499999999999929
100
AcDbArc
 50
90.00000000000001
 51
270.0
  0
LINE
  5
1C86
330
1FAE
100
AcDbEntity
  8
lazerCut
100
AcDbLine
 10
212.0
 20
68.0
 30
0.0
 11
185.0
 21
67.99999999999999
 31
0.0
  0
ARC
  5
1C87
330
1FAE
100
AcDbEntity
  8
lazerCut
100
AcDbCircle
 10
185.0
 20
68.24999999999999
 30
0.0
 40
0.2499999999999929
100
AcDbArc
 50
90.00000000000001
 51
270.0
  0
ARC
  5
1C88
330
1FAE
100
AcDbEntity
  8
lazerCut
100
AcDbCircle
 10
212.0
 20
64.75000000000001
 30
0.0
 40
0.2499999999999929
100
AcDbArc
 50
270.0
 51
90.0
  0
LINE
  5
1C89
330
1FAE
100
AcDbEntity
  8
lazerCut
100
AcDbLine
 10
185.0
 20
65.00000000000001
 30
0.0
 11
212.0
 21
65.0
 31
0.0
  0
ARC
  5
1C8A
330
1FAE
100
AcDbEntity
  8
lazerCut
100
AcDbCircle
 10
212.0
 20
68.24999999999999
 30
0.0
 40
0.2499999999999929
100
AcDbArc
 50
270.0
 51
90.0
  0
LINE
  5
1C8B
330
1FAE
100
AcDbEntity
  8
lazerCut
100
AcDbLine
 10
212.0
 20
69.99999999999999
 30
0.0
 11
212.0
 21
68.49999999999999
 31
0.0
  0
LINE
  5
1C8C
330
1FAE
100
AcDbEntity
  8
lazerCut
100
AcDbLine
 10
217.0
 20
69.99999999999999
 30
0.0
 11
212.0
 21
69.99999999999999
 31
0.0
  0
LINE
  5
1C8D
330
1FAE
100
AcDbEntity
  8
lazerCut
100
AcDbLine
 10
217.0
 20
63.0
 30
0.0
 11
217.0
 21
69.99999999999999
 31
0.0
  0
LINE
  5
1C8E
330
1FAE
100
AcDbEntity
  8
lazerCut
100
AcDbLine
 10
185.0
 20
70.0
 30
0.0
 11
180.0
 21
70.0
 31
0.0
  0
LINE
  5
1C8F
330
1FAE
100
AcDbEntity
  8
lazerCut
100
AcDbLine
 10
185.0
 20
68.49999999999999
 30
0.0
 11
185.0
 21
70.0
 31
0.0
  0
LINE
  5
1C90
330
1FAE
100
AcDbEntity
  8
lazerCut
100
AcDbLine
 10
212.0
 20
64.50000000000003
 30
0.0
 11
212.0
 21
63.0
 31
0.0
  0
INSERT
  5
1C91
330
1FAE
100
AcDbEntity
  8
lazerCut
370
     0
100
AcDbBlockReference
  2
wheelDisk
 10
36.00000000000011
 20
30.00000000000003
 30
0.0
 50
15.0
  0
ARC
  5
1C92
330
1FAE
100
AcDbEntity
  8
lazerCut
100
AcDbCircle
 10
36.0
 20
30.0
 30
0.0
 40
1.425
100
AcDbArc
 50
138.1896851042214
 51
41.8103148957786
  0
LINE
  5
1C93
330
1FAE
100
AcDbEntity
  8
lazerCut
100
AcDbLine
 10
37.06213228931242
 20
30.95
 30
0.0
 11
34.93786771068761
 21
30.95
 31
0.0
  0
LINE
  5
1C94
330
1FAE
100
AcDbEntity
  8
lazerCut
100
AcDbLine
 10
17.49999999999999
 20
30.59999999999999
 30
0.0
 11
22.49999999999999
 21
30.59999999999999
 31
0.0
  0
LINE
  5
1C95
330
1FAE
100
AcDbEntity
  8
lazerCut
100
AcDbLine
 10
22.49999999999999
 20
30.59999999999999
 30
0.0
 11
22.49999999999999
 21
32.59999999999999
 31
0.0
  0
LINE
  5
1C96
330
1FAE
100
AcDbEntity
  8
lazerCut
100
AcDbLine
 10
22.49999999999999
 20
32.59999999999999
 30
0.0
 11
17.49999999999999
 21
32.59999999999999
 31
0.0
  0
LINE
  5
1C97
330
1FAE
100
AcDbEntity
  8
lazerCut
100
AcDbLine
 10
17.49999999999999
 20
32.59999999999999
 30
0.0
 11
17.49999999999999
 21
30.59999999999999
 31
0.0
  0
LINE
  5
1C98
330
1FAE
100
AcDbEntity
  8
lazerCut
100
AcDbLine
 10
49.49999999999999
 20
30.59999999999999
 30
0.0
 11
54.49999999999999
 21
30.59999999999999
 31
0.0
  0
LINE
  5
1C99
330
1FAE
100
AcDbEntity
  8
lazerCut
100
AcDbLine
 10
54.49999999999999
 20
30.59999999999999
 30
0.0
 11
54.49999999999999
 21
32.59999999999999
 31
0.0
  0
LINE
  5
1C9A
330
1FAE
100
AcDbEntity
  8
lazerCut
100
AcDbLine
 10
54.49999999999999
 20
32.59999999999999
 30
0.0
 11
49.49999999999999
 21
32.59999999999999
 31
0.0
  0
LINE
  5
1C9B
330
1FAE
100
AcDbEntity
  8
lazerCut
100
AcDbLine
 10
49.49999999999999
 20
32.59999999999999
 30
0.0
 11
49.49999999999999
 21
30.59999999999999
 31
0.0
  0
INSERT
  5
1C9E
330
1FAE
100
AcDbEntity
  8
lazerCut
370
     0
100
AcDbBlockReference
  2
wheelDisk
 10
88.00000000000011
 20
30.00000000000003
 30
0.0
 50
15.0
  0
ARC
  5
1C9F
330
1FAE
100
AcDbEntity
  8
lazerCut
100
AcDbCircle
 10
88.0
 20
30.0
 30
0.0
 40
1.425
100
AcDbArc
 50
138.1896851042214
 51
41.8103148957786
  0
LINE
  5
1CA0
330
1FAE
100
AcDbEntity
  8
lazerCut
100
AcDbLine
 10
89.06213228931242
 20
30.95
 30
0.0
 11
86.93786771068761
 21
30.95
 31
0.0
  0
LINE
  5
1CA1
330
1FAE
100
AcDbEntity
  8
lazerCut
100
AcDbLine
 10
69.49999999999999
 20
30.59999999999999
 30
0.0
 11
74.49999999999999
 21
30.59999999999999
 31
0.0
  0
LINE
  5
1CA2
330
1FAE
100
AcDbEntity
  8
lazerCut
100
AcDbLine
 10
74.49999999999999
 20
30.59999999999999
 30
0.0
 11
74.49999999999999
 21
32.59999999999999
 31
0.0
  0
LINE
  5
1CA3
330
1FAE
100
AcDbEntity
  8
lazerCut
100
AcDbLine
 10
74.49999999999999
 20
32.59999999999999
 30
0.0
 11
69.49999999999999
 21
32.59999999999999
 31
0.0
  0
LINE
  5
1CA4
330
1FAE
100
AcDbEntity
  8
lazerCut
100
AcDbLine
 10
69.49999999999999
 20
32.59999999999999
 30
0.0
 11
69.49999999999999
 21
30.59999999999999
 31
0.0
  0
LINE
  5
1CA5
330
1FAE
100
AcDbEntity
  8
lazerCut
100
AcDbLine
 10
101.5
 20
30.59999999999999
 30
0.0
 11
106.5
 21
30.59999999999999
 31
0.0
  0
LINE
  5
1CA6
330
1FAE
100
AcDbEntity
  8
lazerCut
100
AcDbLine
 10
106.5
 20
30.59999999999999
 30
0.0
 11
106.5
 21
32.59999999999999
 31
0.0
  0
LINE
  5
1CA7
330
1FAE
100
AcDbEntity
  8
lazerCut
100
AcDbLine
 10
106.5
 20
32.59999999999999
 30
0.0
 11
101.5
 21
32.59999999999999
 31
0.0
  0
LINE
  5
1CA8
330
1FAE
100
AcDbEntity
  8
lazerCut
100
AcDbLine
 10
101.5
 20
32.59999999999999
 30
0.0
 11
101.5
 21
30.59999999999999
 31
0.0
  0
ARC
  5
1CAB
330
1FAE
100
AcDbEntity
  8
lazerCut
100
AcDbCircle
 10
32.49999999999999
 20
63.75
 30
0.0
 40
0.2499999999999929
100
AcDbArc
 50
90.00000000000001
 51
270.0
  0
ARC
  5
1CAC
330
1FAE
100
AcDbEntity
  8
lazerCut
100
AcDbCircle
 10
32.49999999999999
 20
67.24999999999999
 30
0.0
 40
0.2499999999999929
100
AcDbArc
 50
90.00000000000001
 51
270.0
  0
ARC
  5
1CAD
330
1FAE
100
AcDbEntity
  8
lazerCut
100
AcDbCircle
 10
59.49999999999999
 20
63.75000000000001
 30
0.0
 40
0.2499999999999929
100
AcDbArc
 50
270.0
 51
90.0
  0
ARC
  5
1CAE
330
1FAE
100
AcDbEntity
  8
lazerCut
100
AcDbCircle
 10
59.49999999999999
 20
67.24999999999999
 30
0.0
 40
0.2499999999999929
100
AcDbArc
 50
270.0
 51
90.0
  0
LINE
  5
1CAF
330
1FAE
100
AcDbEntity
  8
lazerCut
100
AcDbLine
 10
59.49999999999999
 20
68.99999999999999
 30
0.0
 11
59.49999999999999
 21
67.49999999999999
 31
0.0
  0
LINE
  5
1CB0
330
1FAE
100
AcDbEntity
  8
lazerCut
100
AcDbLine
 10
64.49999999999999
 20
68.99999999999999
 30
0.0
 11
59.49999999999999
 21
68.99999999999999
 31
0.0
  0
LINE
  5
1CB1
330
1FAE
100
AcDbEntity
  8
lazerCut
100
AcDbLine
 10
64.49999999999999
 20
62.0
 30
0.0
 11
64.49999999999999
 21
68.99999999999999
 31
0.0
  0
LINE
  5
1CB2
330
1FAE
100
AcDbEntity
  8
lazerCut
100
AcDbLine
 10
32.49999999999999
 20
69.0
 30
0.0
 11
27.49999999999999
 21
69.0
 31
0.0
  0
LINE
  5
1CB3
330
1FAE
100
AcDbEntity
  8
lazerCut
100
AcDbLine
 10
32.49999999999999
 20
67.49999999999999
 30
0.0
 11
32.49999999999999
 21
69.0
 31
0.0
  0
LINE
  5
1CB4
330
1FAE
100
AcDbEntity
  8
lazerCut
100
AcDbLine
 10
59.49999999999999
 20
63.50000000000003
 30
0.0
 11
59.49999999999999
 21
62.0
 31
0.0
  0
LINE
  5
1CB5
330
1FAE
100
AcDbEntity
  8
lazerCut
100
AcDbLine
 10
59.49999999999999
 20
62.0
 30
0.0
 11
64.49999999999999
 21
62.0
 31
0.0
  0
LINE
  5
1CB6
330
1FAE
100
AcDbEntity
  8
lazerCut
100
AcDbLine
 10
32.49999999999999
 20
62.00000000000001
 30
0.0
 11
32.49999999999999
 21
63.50000000000001
 31
0.0
  0
LINE
  5
1CB7
330
1FAE
100
AcDbEntity
  8
lazerCut
100
AcDbLine
 10
27.49999999999999
 20
62.00000000000001
 30
0.0
 11
32.49999999999999
 21
62.00000000000001
 31
0.0
  0
LINE
  5
1CB8
330
1FAE
100
AcDbEntity
  8
lazerCut
100
AcDbLine
 10
59.49999999999999
 20
67.0
 30
0.0
 11
32.49999999999999
 21
66.99999999999999
 31
0.0
  0
LINE
  5
1CB9
330
1FAE
100
AcDbEntity
  8
lazerCut
100
AcDbLine
 10
32.49999999999999
 20
64.00000000000001
 30
0.0
 11
59.49999999999999
 21
64.0
 31
0.0
  0
LINE
  5
1CBA
330
1FAE
100
AcDbEntity
  8
lazerCut
100
AcDbLine
 10
27.49999999999999
 20
69.0
 30
0.0
 11
27.49999999999999
 21
62.00000000000001
 31
0.0
  0
LINE
  5
1CBB
330
1FAE
100
AcDbEntity
  8
lazerCut
100
AcDbLine
 10
23.99999999999999
 20
58.00000000000001
 30
0.0
 11
50.99999999999999
 21
58.0
 31
0.0
  0
LINE
  5
1CBC
330
1FAE
100
AcDbEntity
  8
lazerCut
100
AcDbLine
 10
50.99999999999999
 20
60.00000000000001
 30
0.0
 11
23.99999999999999
 21
60.0
 31
0.0
  0
LINE
  5
1CBD
330
1FAE
100
AcDbEntity
  8
lazerCut
100
AcDbLine
 10
18.99999999999999
 20
56.0
 30
0.0
 11
23.99999999999999
 21
56.0
 31
0.0
  0
LINE
  5
1CBE
330
1FAE
100
AcDbEntity
  8
lazerCut
100
AcDbLine
 10
23.99999999999999
 20
56.0
 30
0.0
 11
23.99999999999999
 21
57.50000000000001
 31
0.0
  0
LINE
  5
1CBF
330
1FAE
100
AcDbEntity
  8
lazerCut
100
AcDbLine
 10
50.99999999999999
 20
55.99999999999999
 30
0.0
 11
55.99999999999999
 21
55.99999999999999
 31
0.0
  0
LINE
  5
1CC0
330
1FAE
100
AcDbEntity
  8
lazerCut
100
AcDbLine
 10
50.99999999999999
 20
57.50000000000001
 30
0.0
 11
50.99999999999999
 21
55.99999999999999
 31
0.0
  0
LINE
  5
1CC1
330
1FAE
100
AcDbEntity
  8
lazerCut
100
AcDbLine
 10
23.99999999999999
 20
60.49999999999999
 30
0.0
 11
23.99999999999999
 21
62.00000000000001
 31
0.0
  0
LINE
  5
1CC2
330
1FAE
100
AcDbEntity
  8
lazerCut
100
AcDbLine
 10
23.99999999999999
 20
62.00000000000001
 30
0.0
 11
18.99999999999999
 21
62.00000000000001
 31
0.0
  0
LINE
  5
1CC3
330
1FAE
100
AcDbEntity
  8
lazerCut
100
AcDbLine
 10
55.99999999999999
 20
62.0
 30
0.0
 11
50.99999999999999
 21
62.0
 31
0.0
  0
LINE
  5
1CC4
330
1FAE
100
AcDbEntity
  8
lazerCut
100
AcDbLine
 10
50.99999999999999
 20
62.0
 30
0.0
 11
50.99999999999999
 21
60.49999999999999
 31
0.0
  0
ARC
  5
1CC5
330
1FAE
100
AcDbEntity
  8
lazerCut
100
AcDbCircle
 10
50.99999999999999
 20
60.25
 30
0.0
 40
0.2499999999999929
100
AcDbArc
 50
270.0
 51
90.0
  0
ARC
  5
1CC6
330
1FAE
100
AcDbEntity
  8
lazerCut
100
AcDbCircle
 10
50.99999999999999
 20
57.75000000000001
 30
0.0
 40
0.2499999999999929
100
AcDbArc
 50
270.0
 51
90.0
  0
ARC
  5
1CC7
330
1FAE
100
AcDbEntity
  8
lazerCut
100
AcDbCircle
 10
23.99999999999999
 20
60.24999999999999
 30
0.0
 40
0.2499999999999929
100
AcDbArc
 50
90.00000000000001
 51
270.0
  0
ARC
  5
1CC8
330
1FAE
100
AcDbEntity
  8
lazerCut
100
AcDbCircle
 10
23.99999999999999
 20
57.75
 30
0.0
 40
0.2499999999999929
100
AcDbArc
 50
90.00000000000001
 51
270.0
  0
LINE
  5
1CC9
330
1FAE
100
AcDbEntity
  8
lazerCut
100
AcDbLine
 10
75.99999999999999
 20
58.00000000000001
 30
0.0
 11
103.0
 21
58.0
 31
0.0
  0
LINE
  5
1CCA
330
1FAE
100
AcDbEntity
  8
lazerCut
100
AcDbLine
 10
103.0
 20
60.00000000000001
 30
0.0
 11
75.99999999999999
 21
60.0
 31
0.0
  0
LINE
  5
1CCB
330
1FAE
100
AcDbEntity
  8
lazerCut
100
AcDbLine
 10
70.99999999999999
 20
56.0
 30
0.0
 11
75.99999999999999
 21
56.0
 31
0.0
  0
LINE
  5
1CCC
330
1FAE
100
AcDbEntity
  8
lazerCut
100
AcDbLine
 10
75.99999999999999
 20
56.0
 30
0.0
 11
75.99999999999999
 21
57.50000000000001
 31
0.0
  0
LINE
  5
1CCD
330
1FAE
100
AcDbEntity
  8
lazerCut
100
AcDbLine
 10
103.0
 20
55.99999999999999
 30
0.0
 11
108.0
 21
55.99999999999999
 31
0.0
  0
LINE
  5
1CCE
330
1FAE
100
AcDbEntity
  8
lazerCut
100
AcDbLine
 10
103.0
 20
57.50000000000001
 30
0.0
 11
103.0
 21
55.99999999999999
 31
0.0
  0
LINE
  5
1CCF
330
1FAE
100
AcDbEntity
  8
lazerCut
100
AcDbLine
 10
75.99999999999999
 20
60.49999999999999
 30
0.0
 11
75.99999999999999
 21
62.00000000000001
 31
0.0
  0
LINE
  5
1CD0
330
1FAE
100
AcDbEntity
  8
lazerCut
100
AcDbLine
 10
75.99999999999999
 20
62.00000000000001
 30
0.0
 11
70.99999999999999
 21
62.00000000000001
 31
0.0
  0
LINE
  5
1CD1
330
1FAE
100
AcDbEntity
  8
lazerCut
100
AcDbLine
 10
108.0
 20
62.0
 30
0.0
 11
103.0
 21
62.0
 31
0.0
  0
LINE
  5
1CD2
330
1FAE
100
AcDbEntity
  8
lazerCut
100
AcDbLine
 10
103.0
 20
62.0
 30
0.0
 11
103.0
 21
60.49999999999999
 31
0.0
  0
ARC
  5
1CD3
330
1FAE
100
AcDbEntity
  8
lazerCut
100
AcDbCircle
 10
103.0
 20
60.25
 30
0.0
 40
0.2499999999999929
100
AcDbArc
 50
270.0
 51
90.0
  0
ARC
  5
1CD4
330
1FAE
100
AcDbEntity
  8
lazerCut
100
AcDbCircle
 10
103.0
 20
57.75000000000001
 30
0.0
 40
0.2499999999999929
100
AcDbArc
 50
270.0
 51
90.0
  0
ARC
  5
1CD5
330
1FAE
100
AcDbEntity
  8
lazerCut
100
AcDbCircle
 10
75.99999999999999
 20
60.24999999999999
 30
0.0
 40
0.2499999999999929
100
AcDbArc
 50
90.00000000000001
 51
270.0
  0
ARC
  5
1CD6
330
1FAE
100
AcDbEntity
  8
lazerCut
100
AcDbCircle
 10
75.99999999999999
 20
57.75
 30
0.0
 40
0.2499999999999929
100
AcDbArc
 50
90.00000000000001
 51
270.0
  0
LINE
  5
1CD7
330
1FAE
100
AcDbEntity
  8
lazerCut
100
AcDbLine
 10
55.99999999999999
 20
62.0
 30
0.0
 11
55.99999999999999
 21
55.99999999999999
 31
0.0
  0
LINE
  5
1CD8
330
1FAE
100
AcDbEntity
  8
lazerCut
100
AcDbLine
 10
18.99999999999999
 20
62.00000000000001
 30
0.0
 11
18.99999999999999
 21
56.0
 31
0.0
  0
LINE
  5
1CD9
330
1FAE
100
AcDbEntity
  8
lazerCut
100
AcDbLine
 10
108.0
 20
62.0
 30
0.0
 11
108.0
 21
55.99999999999999
 31
0.0
  0
LINE
  5
1CDA
330
1FAE
100
AcDbEntity
  8
lazerCut
100
AcDbLine
 10
70.99999999999999
 20
62.00000000000001
 30
0.0
 11
70.99999999999999
 21
56.0
 31
0.0
  0
LINE
  5
1CDB
330
1FAE
100
AcDbEntity
  8
lazerCut
100
AcDbLine
 10
109.5
 20
62.0
 30
0.0
 11
114.5
 21
62.0
 31
0.0
  0
LINE
  5
1CDC
330
1FAE
100
AcDbEntity
  8
lazerCut
100
AcDbLine
 10
77.49999999999999
 20
69.0
 30
0.0
 11
77.49999999999999
 21
62.00000000000001
 31
0.0
  0
LINE
  5
1CDD
330
1FAE
100
AcDbEntity
  8
lazerCut
100
AcDbLine
 10
82.49999999999999
 20
62.00000000000001
 30
0.0
 11
82.49999999999999
 21
63.50000000000001
 31
0.0
  0
LINE
  5
1CDE
330
1FAE
100
AcDbEntity
  8
lazerCut
100
AcDbLine
 10
77.49999999999999
 20
62.00000000000001
 30
0.0
 11
82.49999999999999
 21
62.00000000000001
 31
0.0
  0
ARC
  5
1CDF
330
1FAE
100
AcDbEntity
  8
lazerCut
100
AcDbCircle
 10
82.49999999999999
 20
63.75
 30
0.0
 40
0.2499999999999929
100
AcDbArc
 50
90.00000000000001
 51
270.0
  0
LINE
  5
1CE0
330
1FAE
100
AcDbEntity
  8
lazerCut
100
AcDbLine
 10
109.5
 20
67.0
 30
0.0
 11
82.49999999999999
 21
66.99999999999999
 31
0.0
  0
ARC
  5
1CE1
330
1FAE
100
AcDbEntity
  8
lazerCut
100
AcDbCircle
 10
82.49999999999999
 20
67.24999999999999
 30
0.0
 40
0.2499999999999929
100
AcDbArc
 50
90.00000000000001
 51
270.0
  0
ARC
  5
1CE2
330
1FAE
100
AcDbEntity
  8
lazerCut
100
AcDbCircle
 10
109.5
 20
63.75000000000001
 30
0.0
 40
0.2499999999999929
100
AcDbArc
 50
270.0
 51
90.0
  0
LINE
  5
1CE3
330
1FAE
100
AcDbEntity
  8
lazerCut
100
AcDbLine
 10
82.49999999999999
 20
64.00000000000001
 30
0.0
 11
109.5
 21
64.0
 31
0.0
  0
ARC
  5
1CE4
330
1FAE
100
AcDbEntity
  8
lazerCut
100
AcDbCircle
 10
109.5
 20
67.24999999999999
 30
0.0
 40
0.2499999999999929
100
AcDbArc
 50
270.0
 51
90.0
  0
LINE
  5
1CE5
330
1FAE
100
AcDbEntity
  8
lazerCut
100
AcDbLine
 10
109.5
 20
68.99999999999999
 30
0.0
 11
109.5
 21
67.49999999999999
 31
0.0
  0
LINE
  5
1CE6
330
1FAE
100
AcDbEntity
  8
lazerCut
100
AcDbLine
 10
114.5
 20
68.99999999999999
 30
0.0
 11
109.5
 21
68.99999999999999
 31
0.0
  0
LINE
  5
1CE7
330
1FAE
100
AcDbEntity
  8
lazerCut
100
AcDbLine
 10
114.5
 20
62.0
 30
0.0
 11
114.5
 21
68.99999999999999
 31
0.0
  0
LINE
  5
1CE8
330
1FAE
100
AcDbEntity
  8
lazerCut
100
AcDbLine
 10
82.49999999999999
 20
69.0
 30
0.0
 11
77.49999999999999
 21
69.0
 31
0.0
  0
LINE
  5
1CE9
330
1FAE
100
AcDbEntity
  8
lazerCut
100
AcDbLine
 10
82.49999999999999
 20
67.49999999999999
 30
0.0
 11
82.49999999999999
 21
69.0
 31
0.0
  0
LINE
  5
1CEA
330
1FAE
100
AcDbEntity
  8
lazerCut
100
AcDbLine
 10
109.5
 20
63.50000000000003
 30
0.0
 11
109.5
 21
62.0
 31
0.0
  0
CIRCLE
  5
1CEC
330
1FAE
100
AcDbEntity
  8
lazerCut
100
AcDbCircle
 10
40.0
 20
40.0
 30
0.0
 40
1.0
  0
CIRCLE
  5
1CED
330
1FAE
100
AcDbEntity
  8
lazerCut
100
AcDbCircle
 10
90.0
 20
40.0
 30
0.0
 40
1.0
  0
CIRCLE
  5
1CEF
330
1FAE
100
AcDbEntity
  8
lazerCut
100
AcDbCircle
 10
150.0
 20
40.0
 30
0.0
 40
1.0
  0
CIRCLE
  5
1CF0
330
1FAE
100
AcDbEntity
  8
lazerCut
100
AcDbCircle
 10
190.0
 20
40.0
 30
0.0
 40
1.0
  0
CIRCLE
  5
1CF1
330
1FAE
100
AcDbEntity
  8
lazerCut
100
AcDbCircle
 10
200.0
 20
40.0
 30
0.0
 40
1.0
  0
CIRCLE
  5
1CF2
330
1FAE
100
AcDbEntity
  8
lazerCut
100
AcDbCircle
 10
140.0
 20
40.0
 30
0.0
 40
1.0
  0
INSERT
  5
1DE2
330
1FAE
100
AcDbEntity
  8
lazerCut
370
     0
100
AcDbBlockReference
  2
wheelDisk
 10
140.0000000000001
 20
96.00000000000003
 30
0.0
 50
15.0
  0
ARC
  5
1DE3
330
1FAE
100
AcDbEntity
  8
lazerCut
100
AcDbCircle
 10
140.0
 20
96.0
 30
0.0
 40
1.425
100
AcDbArc
 50
138.1896851042214
 51
41.8103148957786
  0
LINE
  5
1DE4
330
1FAE
100
AcDbEntity
  8
lazerCut
100
AcDbLine
 10
141.0621322893124
 20
96.95
 30
0.0
 11
138.9378677106876
 21
96.95
 31
0.0
  0
LINE
  5
1DE5
330
1FAE
100
AcDbEntity
  8
lazerCut
100
AcDbLine
 10
127.0
 20
96.8
 30
0.0
 11
132.0
 21
96.8
 31
0.0
  0
LINE
  5
1DE6
330
1FAE
100
AcDbEntity
  8
lazerCut
100
AcDbLine
 10
132.0
 20
96.8
 30
0.0
 11
132.0
 21
98.8
 31
0.0
  0
LINE
  5
1DE7
330
1FAE
100
AcDbEntity
  8
lazerCut
100
AcDbLine
 10
132.0
 20
98.8
 30
0.0
 11
127.0
 21
98.8
 31
0.0
  0
LINE
  5
1DE8
330
1FAE
100
AcDbEntity
  8
lazerCut
100
AcDbLine
 10
127.0
 20
98.8
 30
0.0
 11
127.0
 21
96.8
 31
0.0
  0
LINE
  5
1DE9
330
1FAE
100
AcDbEntity
  8
lazerCut
100
AcDbLine
 10
148.0
 20
96.8
 30
0.0
 11
153.0
 21
96.8
 31
0.0
  0
LINE
  5
1DEA
330
1FAE
100
AcDbEntity
  8
lazerCut
100
AcDbLine
 10
153.0
 20
96.8
 30
0.0
 11
153.0
 21
98.8
 31
0.0
  0
LINE
  5
1DEB
330
1FAE
100
AcDbEntity
  8
lazerCut
100
AcDbLine
 10
153.0
 20
98.8
 30
0.0
 11
148.0
 21
98.8
 31
0.0
  0
LINE
  5
1DEC
330
1FAE
100
AcDbEntity
  8
lazerCut
100
AcDbLine
 10
148.0
 20
98.8
 30
0.0
 11
148.0
 21
96.8
 31
0.0
  0
INSERT
  5
1DEF
330
1FAE
100
AcDbEntity
  8
lazerCut
370
     0
100
AcDbBlockReference
  2
wheelDisk
 10
192.0000000000001
 20
96.00000000000003
 30
0.0
 50
15.0
  0
ARC
  5
1DF0
330
1FAE
100
AcDbEntity
  8
lazerCut
100
AcDbCircle
 10
192.0
 20
96.0
 30
0.0
 40
1.425
100
AcDbArc
 50
138.1896851042214
 51
41.8103148957786
  0
LINE
  5
1DF1
330
1FAE
100
AcDbEntity
  8
lazerCut
100
AcDbLine
 10
193.0621322893124
 20
96.95
 30
0.0
 11
190.9378677106876
 21
96.95
 31
0.0
  0
LINE
  5
1E0A
330
1FAE
100
AcDbEntity
  8
lazerCut
100
AcDbLine
 10
193.9999999999998
 20
128.0
 30
0.0
 11
193.9999999999998
 21
144.0
 31
0.0
  0
LINE
  5
1E0B
330
1FAE
100
AcDbEntity
  8
lazerCut
100
AcDbLine
 10
192.0000000000005
 20
144.0
 30
0.0
 11
192.0000000000005
 21
128.0
 31
0.0
  0
LINE
  5
1E0C
330
1FAE
100
AcDbEntity
  8
lazerCut
100
AcDbLine
 10
196.0000000000001
 20
123.0
 30
0.0
 11
196.0
 21
128.0
 31
0.0
  0
LINE
  5
1E0D
330
1FAE
100
AcDbEntity
  8
lazerCut
100
AcDbLine
 10
196.0
 20
128.0
 30
0.0
 11
194.5000000000002
 21
128.0
 31
0.0
  0
LINE
  5
1E0E
330
1FAE
100
AcDbEntity
  8
lazerCut
100
AcDbLine
 10
196.0
 20
144.0
 30
0.0
 11
196.0
 21
149.0
 31
0.0
  0
LINE
  5
1E0F
330
1FAE
100
AcDbEntity
  8
lazerCut
100
AcDbLine
 10
194.4999999999999
 20
144.0
 30
0.0
 11
196.0
 21
144.0
 31
0.0
  0
LINE
  5
1E10
330
1FAE
100
AcDbEntity
  8
lazerCut
100
AcDbLine
 10
191.5
 20
128.0
 30
0.0
 11
189.9999999999995
 21
128.0
 31
0.0
  0
LINE
  5
1E11
330
1FAE
100
AcDbEntity
  8
lazerCut
100
AcDbLine
 10
189.9999999999995
 20
128.0
 30
0.0
 11
190.0000000000001
 21
123.0
 31
0.0
  0
LINE
  5
1E12
330
1FAE
100
AcDbEntity
  8
lazerCut
100
AcDbLine
 10
189.9999999999997
 20
149.0
 30
0.0
 11
189.9999999999995
 21
144.0
 31
0.0
  0
LINE
  5
1E13
330
1FAE
100
AcDbEntity
  8
lazerCut
100
AcDbLine
 10
189.9999999999995
 20
144.0
 30
0.0
 11
191.5000000000008
 21
144.0
 31
0.0
  0
ARC
  5
1E14
330
1FAE
100
AcDbEntity
  8
lazerCut
100
AcDbCircle
 10
191.7500000000003
 20
144.0
 30
0.0
 40
0.2499999999999929
100
AcDbArc
 50
0.0
 51
180.0
  0
ARC
  5
1E15
330
1FAE
100
AcDbEntity
  8
lazerCut
100
AcDbCircle
 10
194.2500000000001
 20
144.0
 30
0.0
 40
0.2499999999999929
100
AcDbArc
 50
0.0
 51
180.0
  0
ARC
  5
1E16
330
1FAE
100
AcDbEntity
  8
lazerCut
100
AcDbCircle
 10
191.7500000000005
 20
128.0
 30
0.0
 40
0.2499999999999929
100
AcDbArc
 50
180.0
 51
0.0
  0
ARC
  5
1E17
330
1FAE
100
AcDbEntity
  8
lazerCut
100
AcDbCircle
 10
194.25
 20
128.0
 30
0.0
 40
0.2499999999999929
100
AcDbArc
 50
180.0
 51
0.0
  0
LINE
  5
1E1A
330
1FAE
100
AcDbEntity
  8
lazerCut
100
AcDbLine
 10
189.9999999999997
 20
149.0
 30
0.0
 11
196.0
 21
149.0
 31
0.0
  0
LINE
  5
1E1B
330
1FAE
100
AcDbEntity
  8
lazerCut
100
AcDbLine
 10
190.0000000000001
 20
123.0
 30
0.0
 11
196.0000000000001
 21
123.0
 31
0.0
  0
LINE
  5
1E1C
330
1FAE
100
AcDbEntity
  8
lazerCut
100
AcDbLine
 10
191.0
 20
156.0
 30
0.0
 11
191.0
 21
161.0
 31
0.0
  0
LINE
  5
1E1D
330
1FAE
100
AcDbEntity
  8
lazerCut
100
AcDbLine
 10
183.9999999999999
 20
135.0
 30
0.0
 11
191.0
 21
135.0
 31
0.0
  0
LINE
  5
1E1E
330
1FAE
100
AcDbEntity
  8
lazerCut
100
AcDbLine
 10
191.0
 20
140.0
 30
0.0
 11
189.4999999999999
 21
140.0
 31
0.0
  0
LINE
  5
1E1F
330
1FAE
100
AcDbEntity
  8
lazerCut
100
AcDbLine
 10
191.0
 20
135.0
 30
0.0
 11
191.0
 21
140.0
 31
0.0
  0
ARC
  5
1E20
330
1FAE
100
AcDbEntity
  8
lazerCut
100
AcDbCircle
 10
189.25
 20
140.0
 30
0.0
 40
0.2499999999999929
100
AcDbArc
 50
180.0
 51
0.0
  0
LINE
  5
1E21
330
1FAE
100
AcDbEntity
  8
lazerCut
100
AcDbLine
 10
186.0
 20
156.0
 30
0.0
 11
186.0000000000001
 21
140.0
 31
0.0
  0
ARC
  5
1E22
330
1FAE
100
AcDbEntity
  8
lazerCut
100
AcDbCircle
 10
185.75
 20
140.0
 30
0.0
 40
0.2499999999999929
100
AcDbArc
 50
180.0
 51
0.0
  0
ARC
  5
1E23
330
1FAE
100
AcDbEntity
  8
lazerCut
100
AcDbCircle
 10
189.2500000000002
 20
156.0
 30
0.0
 40
0.2499999999999929
100
AcDbArc
 50
0.0
 51
180.0
  0
LINE
  5
1E24
330
1FAE
100
AcDbEntity
  8
lazerCut
100
AcDbLine
 10
188.9999999999996
 20
140.0
 30
0.0
 11
188.9999999999999
 21
156.0
 31
0.0
  0
ARC
  5
1E25
330
1FAE
100
AcDbEntity
  8
lazerCut
100
AcDbCircle
 10
185.75
 20
156.0
 30
0.0
 40
0.2499999999999929
100
AcDbArc
 50
0.0
 51
180.0
  0
LINE
  5
1E26
330
1FAE
100
AcDbEntity
  8
lazerCut
100
AcDbLine
 10
184.0
 20
156.0
 30
0.0
 11
185.5
 21
156.0
 31
0.0
  0
LINE
  5
1E27
330
1FAE
100
AcDbEntity
  8
lazerCut
100
AcDbLine
 10
184.0
 20
161.0
 30
0.0
 11
184.0
 21
156.0
 31
0.0
  0
LINE
  5
1E28
330
1FAE
100
AcDbEntity
  8
lazerCut
100
AcDbLine
 10
191.0
 20
161.0
 30
0.0
 11
184.0
 21
161.0
 31
0.0
  0
LINE
  5
1E29
330
1FAE
100
AcDbEntity
  8
lazerCut
100
AcDbLine
 10
184.0
 20
140.0
 30
0.0
 11
183.9999999999999
 21
135.0
 31
0.0
  0
LINE
  5
1E2A
330
1FAE
100
AcDbEntity
  8
lazerCut
100
AcDbLine
 10
185.5
 20
140.0
 30
0.0
 11
184.0
 21
140.0
 31
0.0
  0
LINE
  5
1E2B
330
1FAE
100
AcDbEntity
  8
lazerCut
100
AcDbLine
 10
189.5000000000003
 20
156.0
 30
0.0
 11
191.0
 21
156.0
 31
0.0
  0
INSERT
  5
1E2C
330
1FAE
100
AcDbEntity
  8
lazerCut
370
     0
100
AcDbBlockReference
  2
wheelDisk
 10
36.00000000000011
 20
96.00000000000003
 30
0.0
 50
15.0
  0
ARC
  5
1E2D
330
1FAE
100
AcDbEntity
  8
lazerCut
100
AcDbCircle
 10
36.0
 20
96.0
 30
0.0
 40
1.425
100
AcDbArc
 50
138.1896851042214
 51
41.8103148957786
  0
LINE
  5
1E2E
330
1FAE
100
AcDbEntity
  8
lazerCut
100
AcDbLine
 10
37.06213228931242
 20
96.95
 30
0.0
 11
34.93786771068761
 21
96.95
 31
0.0
  0
LINE
  5
1E2F
330
1FAE
100
AcDbEntity
  8
lazerCut
100
AcDbLine
 10
22.99999999999986
 20
96.69999999999999
 30
0.0
 11
27.99999999999986
 21
96.69999999999999
 31
0.0
  0
LINE
  5
1E30
330
1FAE
100
AcDbEntity
  8
lazerCut
100
AcDbLine
 10
27.99999999999986
 20
96.69999999999999
 30
0.0
 11
27.99999999999986
 21
98.69999999999999
 31
0.0
  0
LINE
  5
1E31
330
1FAE
100
AcDbEntity
  8
lazerCut
100
AcDbLine
 10
27.99999999999986
 20
98.69999999999999
 30
0.0
 11
22.99999999999986
 21
98.69999999999999
 31
0.0
  0
LINE
  5
1E32
330
1FAE
100
AcDbEntity
  8
lazerCut
100
AcDbLine
 10
22.99999999999986
 20
98.69999999999999
 30
0.0
 11
22.99999999999986
 21
96.69999999999999
 31
0.0
  0
LINE
  5
1E33
330
1FAE
100
AcDbEntity
  8
lazerCut
100
AcDbLine
 10
43.99999999999986
 20
96.69999999999999
 30
0.0
 11
48.99999999999986
 21
96.69999999999999
 31
0.0
  0
LINE
  5
1E34
330
1FAE
100
AcDbEntity
  8
lazerCut
100
AcDbLine
 10
48.99999999999986
 20
96.69999999999999
 30
0.0
 11
48.99999999999986
 21
98.69999999999999
 31
0.0
  0
LINE
  5
1E35
330
1FAE
100
AcDbEntity
  8
lazerCut
100
AcDbLine
 10
48.99999999999986
 20
98.69999999999999
 30
0.0
 11
43.99999999999986
 21
98.69999999999999
 31
0.0
  0
LINE
  5
1E36
330
1FAE
100
AcDbEntity
  8
lazerCut
100
AcDbLine
 10
43.99999999999986
 20
98.69999999999999
 30
0.0
 11
43.99999999999986
 21
96.69999999999999
 31
0.0
  0
INSERT
  5
1E39
330
1FAE
100
AcDbEntity
  8
lazerCut
370
     0
100
AcDbBlockReference
  2
wheelDisk
 10
88.00000000000011
 20
96.00000000000003
 30
0.0
 50
15.0
  0
ARC
  5
1E3A
330
1FAE
100
AcDbEntity
  8
lazerCut
100
AcDbCircle
 10
88.0
 20
96.0
 30
0.0
 40
1.425
100
AcDbArc
 50
138.1896851042214
 51
41.8103148957786
  0
LINE
  5
1E3B
330
1FAE
100
AcDbEntity
  8
lazerCut
100
AcDbLine
 10
89.06213228931242
 20
96.95
 30
0.0
 11
86.93786771068761
 21
96.95
 31
0.0
  0
CIRCLE
  5
1E86
330
1FAE
100
AcDbEntity
  8
lazerCut
100
AcDbCircle
 10
40.0
 20
106.0
 30
0.0
 40
1.0
  0
CIRCLE
  5
1E87
330
1FAE
100
AcDbEntity
  8
lazerCut
100
AcDbCircle
 10
90.0
 20
106.0
 30
0.0
 40
1.0
  0
CIRCLE
  5
1E88
330
1FAE
100
AcDbEntity
  8
lazerCut
100
AcDbCircle
 10
150.0
 20
106.0
 30
0.0
 40
1.0
  0
CIRCLE
  5
1E89
330
1FAE
100
AcDbEntity
  8
lazerCut
100
AcDbCircle
 10
190.0
 20
106.0
 30
0.0
 40
1.0
  0
CIRCLE
  5
1E8A
330
1FAE
100
AcDbEntity
  8
lazerCut
100
AcDbCircle
 10
200.0
 20
106.0
 30
0.0
 40
1.0
  0
CIRCLE
  5
1E8B
330
1FAE
100
AcDbEntity
  8
lazerCut
100
AcDbCircle
 10
140.0
 20
106.0
 30
0.0
 40
1.0
  0
LINE
  5
1E91
330
1FAE
100
AcDbEntity
  8
0
100
AcDbLine
 10
36.0
 20
96.0
 30
0.0
 11
NaN
 21
NaN
 31
0.0
  0
LINE
  5
1E9D
330
1FAE
100
AcDbEntity
  8
lazerCut
100
AcDbLine
 10
74.99999999999997
 20
96.70000000000002
 30
0.0
 11
79.99999999999997
 21
96.70000000000002
 31
0.0
  0
LINE
  5
1E9E
330
1FAE
100
AcDbEntity
  8
lazerCut
100
AcDbLine
 10
79.99999999999997
 20
96.70000000000002
 30
0.0
 11
79.99999999999997
 21
98.70000000000002
 31
0.0
  0
LINE
  5
1E9F
330
1FAE
100
AcDbEntity
  8
lazerCut
100
AcDbLine
 10
79.99999999999997
 20
98.70000000000002
 30
0.0
 11
74.99999999999997
 21
98.70000000000002
 31
0.0
  0
LINE
  5
1EA0
330
1FAE
100
AcDbEntity
  8
lazerCut
100
AcDbLine
 10
74.99999999999997
 20
98.70000000000002
 30
0.0
 11
74.99999999999997
 21
96.70000000000002
 31
0.0
  0
LINE
  5
1EA1
330
1FAE
100
AcDbEntity
  8
lazerCut
100
AcDbLine
 10
95.99999999999997
 20
96.70000000000002
 30
0.0
 11
101.0
 21
96.70000000000002
 31
0.0
  0
LINE
  5
1EA2
330
1FAE
100
AcDbEntity
  8
lazerCut
100
AcDbLine
 10
101.0
 20
96.70000000000002
 30
0.0
 11
101.0
 21
98.70000000000002
 31
0.0
  0
LINE
  5
1EA3
330
1FAE
100
AcDbEntity
  8
lazerCut
100
AcDbLine
 10
101.0
 20
98.70000000000002
 30
0.0
 11
95.99999999999997
 21
98.70000000000002
 31
0.0
  0
LINE
  5
1EA4
330
1FAE
100
AcDbEntity
  8
lazerCut
100
AcDbLine
 10
95.99999999999997
 20
98.70000000000002
 30
0.0
 11
95.99999999999997
 21
96.70000000000002
 31
0.0
  0
LINE
  5
1EAB
330
1FAE
100
AcDbEntity
  8
lazerCut
100
AcDbLine
 10
179.0
 20
96.8
 30
0.0
 11
184.0
 21
96.8
 31
0.0
  0
LINE
  5
1EAC
330
1FAE
100
AcDbEntity
  8
lazerCut
100
AcDbLine
 10
184.0
 20
96.8
 30
0.0
 11
184.0
 21
98.8
 31
0.0
  0
LINE
  5
1EAD
330
1FAE
100
AcDbEntity
  8
lazerCut
100
AcDbLine
 10
184.0
 20
98.8
 30
0.0
 11
179.0
 21
98.8
 31
0.0
  0
LINE
  5
1EAE
330
1FAE
100
AcDbEntity
  8
lazerCut
100
AcDbLine
 10
179.0
 20
98.8
 30
0.0
 11
179.0
 21
96.8
 31
0.0
  0
LINE
  5
1EAF
330
1FAE
100
AcDbEntity
  8
lazerCut
100
AcDbLine
 10
200.0
 20
96.8
 30
0.0
 11
205.0
 21
96.8
 31
0.0
  0
LINE
  5
1EB0
330
1FAE
100
AcDbEntity
  8
lazerCut
100
AcDbLine
 10
205.0
 20
96.8
 30
0.0
 11
205.0
 21
98.8
 31
0.0
  0
LINE
  5
1EB1
330
1FAE
100
AcDbEntity
  8
lazerCut
100
AcDbLine
 10
205.0
 20
98.8
 30
0.0
 11
200.0
 21
98.8
 31
0.0
  0
LINE
  5
1EB2
330
1FAE
100
AcDbEntity
  8
lazerCut
100
AcDbLine
 10
200.0
 20
98.8
 30
0.0
 11
200.0
 21
96.8
 31
0.0
  0
INSERT
  5
1ED5
330
1FAE
100
AcDbEntity
  8
lazerCut
100
AcDbBlockReference
  2
w-2-47-wide
 10
22.0
 20
143.0
 30
0.0
 42
-1.0
 50
90.0
  0
INSERT
  5
1ED7
330
1FAE
100
AcDbEntity
  8
lazerCut
100
AcDbBlockReference
  2
w-2-47-wide
 10
34.99999999999994
 20
143.0000000000001
 30
0.0
 42
-1.0
 50
90.0
  0
INSERT
  5
1ED9
330
1FAE
100
AcDbEntity
  8
lazerCut
100
AcDbBlockReference
  2
w-2-47-wide
 10
48.0
 20
143.0
 30
0.0
 42
-1.0
 50
90.0
  0
INSERT
  5
1EDB
330
1FAE
100
AcDbEntity
  8
lazerCut
100
AcDbBlockReference
  2
w-2-47-wide
 10
61.0
 20
143.0000000000001
 30
0.0
 42
-1.0
 50
90.0
  0
INSERT
  5
1EDD
330
1FAE
100
AcDbEntity
  8
lazerCut
100
AcDbBlockReference
  2
w-2-47-wide
 10
74.0
 20
143.0
 30
0.0
 42
-1.0
 50
90.0
  0
INSERT
  5
1EDF
330
1FAE
100
AcDbEntity
  8
lazerCut
100
AcDbBlockReference
  2
w-2-47-wide
 10
87.0
 20
143.0
 30
0.0
 42
-1.0
 50
90.0
  0
INSERT
  5
1EE4
330
1FAE
100
AcDbEntity
  8
lazerCut
100
AcDbBlockReference
  2
w-3-47-wide
 10
102.9999999999999
 20
129.9999999999999
 30
0.0
 42
-1.0
 50
90.0
  0
INSERT
  5
1EE5
330
1FAE
100
AcDbEntity
  8
lazerCut
100
AcDbBlockReference
  2
w-2-47-wide
 10
16.0
 20
130.0
 30
0.0
 42
-1.0
 50
90.0
  0
INSERT
  5
1EE6
330
1FAE
100
AcDbEntity
  8
lazerCut
100
AcDbBlockReference
  2
w-3-47-wide
 10
116.0
 20
130.0
 30
0.0
 42
-1.0
 50
90.0
  0
INSERT
  5
1EE7
330
1FAE
100
AcDbEntity
  8
lazerCut
100
AcDbBlockReference
  2
w-2-47-wide
 10
28.99999999999994
 20
130.0
 30
0.0
 42
-1.0
 50
90.0
  0
INSERT
  5
1EE8
330
1FAE
100
AcDbEntity
  8
lazerCut
100
AcDbBlockReference
  2
w-3-47-wide
 10
129.0
 20
129.9999999999999
 30
0.0
 42
-1.0
 50
90.0
  0
INSERT
  5
1EE9
330
1FAE
100
AcDbEntity
  8
lazerCut
100
AcDbBlockReference
  2
w-2-47-wide
 10
42.0
 20
130.0
 30
0.0
 42
-1.0
 50
90.0
  0
INSERT
  5
1EEA
330
1FAE
100
AcDbEntity
  8
lazerCut
100
AcDbBlockReference
  2
w-3-47-wide
 10
142.0
 20
130.0
 30
0.0
 42
-1.0
 50
90.0
  0
INSERT
  5
1EEB
330
1FAE
100
AcDbEntity
  8
lazerCut
100
AcDbBlockReference
  2
w-2-47-wide
 10
55.0
 20
130.0
 30
0.0
 42
-1.0
 50
90.0
  0
INSERT
  5
1EEC
330
1FAE
100
AcDbEntity
  8
lazerCut
100
AcDbBlockReference
  2
w-3-47-wide
 10
154.9999999999999
 20
129.9999999999999
 30
0.0
 42
-1.0
 50
90.0
  0
INSERT
  5
1EED
330
1FAE
100
AcDbEntity
  8
lazerCut
100
AcDbBlockReference
  2
w-2-47-wide
 10
67.99999999999994
 20
129.9999999999999
 30
0.0
 42
-1.0
 50
90.0
  0
INSERT
  5
1EEE
330
1FAE
100
AcDbEntity
  8
lazerCut
100
AcDbBlockReference
  2
w-3-47-wide
 10
168.0
 20
129.9999999999999
 30
0.0
 42
-1.0
 50
90.0
  0
INSERT
  5
1EEF
330
1FAE
100
AcDbEntity
  8
lazerCut
100
AcDbBlockReference
  2
w-2-47-wide
 10
81.0
 20
130.0000000000001
 30
0.0
 42
-1.0
 50
90.0
  0
INSERT
  5
1EF0
330
1FAE
100
AcDbEntity
  8
lazerCut
100
AcDbBlockReference
  2
w-2-47-wide
 10
22.0
 20
169.0
 30
0.0
 42
-1.0
 50
90.0
  0
INSERT
  5
1EF1
330
1FAE
100
AcDbEntity
  8
lazerCut
100
AcDbBlockReference
  2
w-2-47-wide
 10
34.99999999999994
 20
169.0000000000001
 30
0.0
 42
-1.0
 50
90.0
  0
INSERT
  5
1EF2
330
1FAE
100
AcDbEntity
  8
lazerCut
100
AcDbBlockReference
  2
w-2-47-wide
 10
48.0
 20
169.0
 30
0.0
 42
-1.0
 50
90.0
  0
INSERT
  5
1EF3
330
1FAE
100
AcDbEntity
  8
lazerCut
100
AcDbBlockReference
  2
w-2-47-wide
 10
61.0
 20
169.0000000000001
 30
0.0
 42
-1.0
 50
90.0
  0
INSERT
  5
1EF4
330
1FAE
100
AcDbEntity
  8
lazerCut
100
AcDbBlockReference
  2
w-2-47-wide
 10
74.0
 20
169.0
 30
0.0
 42
-1.0
 50
90.0
  0
INSERT
  5
1EF5
330
1FAE
100
AcDbEntity
  8
lazerCut
100
AcDbBlockReference
  2
w-2-47-wide
 10
87.0
 20
169.0
 30
0.0
 42
-1.0
 50
90.0
  0
INSERT
  5
1EF6
330
1FAE
100
AcDbEntity
  8
lazerCut
100
AcDbBlockReference
  2
w-2-47-wide
 10
16.0
 20
156.0
 30
0.0
 42
-1.0
 50
90.0
  0
INSERT
  5
1EF7
330
1FAE
100
AcDbEntity
  8
lazerCut
100
AcDbBlockReference
  2
w-2-47-wide
 10
28.99999999999994
 20
156.0
 30
0.0
 42
-1.0
 50
90.0
  0
INSERT
  5
1EF8
330
1FAE
100
AcDbEntity
  8
lazerCut
100
AcDbBlockReference
  2
w-2-47-wide
 10
42.0
 20
156.0
 30
0.0
 42
-1.0
 50
90.0
  0
INSERT
  5
1EF9
330
1FAE
100
AcDbEntity
  8
lazerCut
100
AcDbBlockReference
  2
w-2-47-wide
 10
55.0
 20
156.0
 30
0.0
 42
-1.0
 50
90.0
  0
INSERT
  5
1EFA
330
1FAE
100
AcDbEntity
  8
lazerCut
100
AcDbBlockReference
  2
w-2-47-wide
 10
67.99999999999994
 20
155.9999999999999
 30
0.0
 42
-1.0
 50
90.0
  0
INSERT
  5
1EFB
330
1FAE
100
AcDbEntity
  8
lazerCut
100
AcDbBlockReference
  2
w-2-47-wide
 10
81.0
 20
156.0000000000001
 30
0.0
 42
-1.0
 50
90.0
  0
INSERT
  5
1EFC
330
1FAE
100
AcDbEntity
  8
lazerCut
100
AcDbBlockReference
  2
w-2-47-wide
 10
22.0
 20
195.0
 30
0.0
 42
-1.0
 50
90.0
  0
INSERT
  5
1EFD
330
1FAE
100
AcDbEntity
  8
lazerCut
100
AcDbBlockReference
  2
w-2-47-wide
 10
34.99999999999994
 20
195.0000000000001
 30
0.0
 42
-1.0
 50
90.0
  0
INSERT
  5
1EFE
330
1FAE
100
AcDbEntity
  8
lazerCut
100
AcDbBlockReference
  2
w-2-47-wide
 10
48.0
 20
195.0
 30
0.0
 42
-1.0
 50
90.0
  0
INSERT
  5
1EFF
330
1FAE
100
AcDbEntity
  8
lazerCut
100
AcDbBlockReference
  2
w-2-47-wide
 10
61.0
 20
195.0000000000001
 30
0.0
 42
-1.0
 50
90.0
  0
INSERT
  5
1F00
330
1FAE
100
AcDbEntity
  8
lazerCut
100
AcDbBlockReference
  2
w-2-47-wide
 10
74.0
 20
195.0
 30
0.0
 42
-1.0
 50
90.0
  0
INSERT
  5
1F01
330
1FAE
100
AcDbEntity
  8
lazerCut
100
AcDbBlockReference
  2
w-2-47-wide
 10
87.0
 20
195.0
 30
0.0
 42
-1.0
 50
90.0
  0
INSERT
  5
1F02
330
1FAE
100
AcDbEntity
  8
lazerCut
100
AcDbBlockReference
  2
w-2-47-wide
 10
16.0
 20
182.0
 30
0.0
 42
-1.0
 50
90.0
  0
INSERT
  5
1F03
330
1FAE
100
AcDbEntity
  8
lazerCut
100
AcDbBlockReference
  2
w-2-47-wide
 10
28.99999999999994
 20
182.0
 30
0.0
 42
-1.0
 50
90.0
  0
INSERT
  5
1F04
330
1FAE
100
AcDbEntity
  8
lazerCut
100
AcDbBlockReference
  2
w-2-47-wide
 10
42.0
 20
182.0
 30
0.0
 42
-1.0
 50
90.0
  0
INSERT
  5
1F05
330
1FAE
100
AcDbEntity
  8
lazerCut
100
AcDbBlockReference
  2
w-2-47-wide
 10
55.0
 20
182.0
 30
0.0
 42
-1.0
 50
90.0
  0
INSERT
  5
1F06
330
1FAE
100
AcDbEntity
  8
lazerCut
100
AcDbBlockReference
  2
w-2-47-wide
 10
67.99999999999994
 20
181.9999999999999
 30
0.0
 42
-1.0
 50
90.0
  0
INSERT
  5
1F07
330
1FAE
100
AcDbEntity
  8
lazerCut
100
AcDbBlockReference
  2
w-2-47-wide
 10
81.0
 20
182.0000000000001
 30
0.0
 42
-1.0
 50
90.0
  0
LINE
  5
1F09
330
1FAE
100
AcDbEntity
  8
lazerCut
100
AcDbLine
 10
95.0
 20
122.0
 30
0.0
 11
10.0
 21
122.0
 31
0.0
  0
LINE
  5
1F0A
330
1FAE
100
AcDbEntity
  8
lazerCut
100
AcDbLine
 10
10.0
 20
122.0
 30
0.0
 11
10.0
 21
203.0
 31
0.0
  0
LINE
  5
1F0B
330
1FAE
100
AcDbEntity
  8
lazerCut
100
AcDbLine
 10
10.0
 20
203.0
 30
0.0
 11
95.0
 21
203.0
 31
0.0
  0
LINE
  5
1F0C
330
1FAE
100
AcDbEntity
  8
lazerCut
100
AcDbLine
 10
95.0
 20
203.0
 30
0.0
 11
95.0
 21
122.0
 31
0.0
  0
INSERT
  5
1F0D
330
1FAE
100
AcDbEntity
  8
lazerCut
100
AcDbBlockReference
  2
w-3-47-wide
 10
109.0
 20
143.0
 30
0.0
 42
-1.0
 50
90.0
  0
INSERT
  5
1F0E
330
1FAE
100
AcDbEntity
  8
lazerCut
100
AcDbBlockReference
  2
w-3-47-wide
 10
122.0000000000001
 20
143.0
 30
0.0
 42
-1.0
 50
90.0
  0
INSERT
  5
1F0F
330
1FAE
100
AcDbEntity
  8
lazerCut
100
AcDbBlockReference
  2
w-3-47-wide
 10
135.0000000000001
 20
143.0
 30
0.0
 42
-1.0
 50
90.0
  0
INSERT
  5
1F10
330
1FAE
100
AcDbEntity
  8
lazerCut
100
AcDbBlockReference
  2
w-3-47-wide
 10
148.0000000000001
 20
143.0000000000001
 30
0.0
 42
-1.0
 50
90.0
  0
INSERT
  5
1F11
330
1FAE
100
AcDbEntity
  8
lazerCut
100
AcDbBlockReference
  2
w-3-47-wide
 10
161.0
 20
143.0
 30
0.0
 42
-1.0
 50
90.0
  0
INSERT
  5
1F12
330
1FAE
100
AcDbEntity
  8
lazerCut
100
AcDbBlockReference
  2
w-3-47-wide
 10
174.0000000000001
 20
143.0
 30
0.0
 42
-1.0
 50
90.0
  0
INSERT
  5
1F13
330
1FAE
100
AcDbEntity
  8
lazerCut
100
AcDbBlockReference
  2
w-3-47-wide
 10
104.0
 20
157.0
 30
0.0
 42
-1.0
 50
90.0
  0
INSERT
  5
1F14
330
1FAE
100
AcDbEntity
  8
lazerCut
100
AcDbBlockReference
  2
w-3-47-wide
 10
117.0000000000001
 20
157.0
 30
0.0
 42
-1.0
 50
90.0
  0
INSERT
  5
1F15
330
1FAE
100
AcDbEntity
  8
lazerCut
100
AcDbBlockReference
  2
w-3-47-wide
 10
130.0000000000001
 20
157.0
 30
0.0
 42
-1.0
 50
90.0
  0
INSERT
  5
1F16
330
1FAE
100
AcDbEntity
  8
lazerCut
100
AcDbBlockReference
  2
w-3-47-wide
 10
143.0000000000001
 20
157.0000000000001
 30
0.0
 42
-1.0
 50
90.0
  0
INSERT
  5
1F17
330
1FAE
100
AcDbEntity
  8
lazerCut
100
AcDbBlockReference
  2
w-3-47-wide
 10
156.0
 20
157.0
 30
0.0
 42
-1.0
 50
90.0
  0
INSERT
  5
1F18
330
1FAE
100
AcDbEntity
  8
lazerCut
100
AcDbBlockReference
  2
w-3-47-wide
 10
169.0000000000001
 20
157.0
 30
0.0
 42
-1.0
 50
90.0
  0
INSERT
  5
1F19
330
1FAE
100
AcDbEntity
  8
lazerCut
100
AcDbBlockReference
  2
w-3-47-wide
 10
110.0000000000001
 20
170.0000000000001
 30
0.0
 42
-1.0
 50
90.0
  0
INSERT
  5
1F1A
330
1FAE
100
AcDbEntity
  8
lazerCut
100
AcDbBlockReference
  2
w-3-47-wide
 10
123.0000000000001
 20
170.0000000000001
 30
0.0
 42
-1.0
 50
90.0
  0
INSERT
  5
1F1B
330
1FAE
100
AcDbEntity
  8
lazerCut
100
AcDbBlockReference
  2
w-3-47-wide
 10
136.0000000000001
 20
170.0000000000001
 30
0.0
 42
-1.0
 50
90.0
  0
INSERT
  5
1F1C
330
1FAE
100
AcDbEntity
  8
lazerCut
100
AcDbBlockReference
  2
w-3-47-wide
 10
149.0000000000001
 20
170.0000000000001
 30
0.0
 42
-1.0
 50
90.0
  0
INSERT
  5
1F1D
330
1FAE
100
AcDbEntity
  8
lazerCut
100
AcDbBlockReference
  2
w-3-47-wide
 10
162.0000000000001
 20
170.0000000000001
 30
0.0
 42
-1.0
 50
90.0
  0
INSERT
  5
1F1E
330
1FAE
100
AcDbEntity
  8
lazerCut
100
AcDbBlockReference
  2
w-3-47-wide
 10
175.0000000000001
 20
170.0000000000001
 30
0.0
 42
-1.0
 50
90.0
  0
INSERT
  5
1F1F
330
1FAE
100
AcDbEntity
  8
lazerCut
100
AcDbBlockReference
  2
w-3-47-wide
 10
104.0
 20
183.0
 30
0.0
 42
-1.0
 50
90.0
  0
INSERT
  5
1F20
330
1FAE
100
AcDbEntity
  8
lazerCut
100
AcDbBlockReference
  2
w-3-47-wide
 10
117.0000000000001
 20
183.0
 30
0.0
 42
-1.0
 50
90.0
  0
INSERT
  5
1F21
330
1FAE
100
AcDbEntity
  8
lazerCut
100
AcDbBlockReference
  2
w-3-47-wide
 10
130.0000000000001
 20
183.0
 30
0.0
 42
-1.0
 50
90.0
  0
INSERT
  5
1F22
330
1FAE
100
AcDbEntity
  8
lazerCut
100
AcDbBlockReference
  2
w-3-47-wide
 10
143.0000000000001
 20
183.0000000000001
 30
0.0
 42
-1.0
 50
90.0
  0
INSERT
  5
1F23
330
1FAE
100
AcDbEntity
  8
lazerCut
100
AcDbBlockReference
  2
w-3-47-wide
 10
156.0
 20
183.0
 30
0.0
 42
-1.0
 50
90.0
  0
INSERT
  5
1F24
330
1FAE
100
AcDbEntity
  8
lazerCut
100
AcDbBlockReference
  2
w-3-47-wide
 10
169.0000000000001
 20
183.0
 30
0.0
 42
-1.0
 50
90.0
  0
INSERT
  5
1F25
330
1FAE
100
AcDbEntity
  8
lazerCut
100
AcDbBlockReference
  2
w-3-47-wide
 10
110.0000000000001
 20
196.0000000000001
 30
0.0
 42
-1.0
 50
90.0
  0
INSERT
  5
1F26
330
1FAE
100
AcDbEntity
  8
lazerCut
100
AcDbBlockReference
  2
w-3-47-wide
 10
123.0000000000001
 20
196.0000000000001
 30
0.0
 42
-1.0
 50
90.0
  0
INSERT
  5
1F27
330
1FAE
100
AcDbEntity
  8
lazerCut
100
AcDbBlockReference
  2
w-3-47-wide
 10
136.0000000000001
 20
196.0000000000001
 30
0.0
 42
-1.0
 50
90.0
  0
INSERT
  5
1F28
330
1FAE
100
AcDbEntity
  8
lazerCut
100
AcDbBlockReference
  2
w-3-47-wide
 10
149.0000000000001
 20
196.0000000000001
 30
0.0
 42
-1.0
 50
90.0
  0
INSERT
  5
1F29
330
1FAE
100
AcDbEntity
  8
lazerCut
100
AcDbBlockReference
  2
w-3-47-wide
 10
162.0000000000001
 20
196.0000000000001
 30
0.0
 42
-1.0
 50
90.0
  0
INSERT
  5
1F2A
330
1FAE
100
AcDbEntity
  8
lazerCut
100
AcDbBlockReference
  2
w-3-47-wide
 10
175.0000000000001
 20
196.0000000000001
 30
0.0
 42
-1.0
 50
90.0
  0
LINE
  5
1F2B
330
1FAE
100
AcDbEntity
  8
lazerCut
100
AcDbLine
 10
182.0
 20
122.0
 30
0.0
 11
97.0
 21
122.0
 31
0.0
  0
LINE
  5
1F2C
330
1FAE
100
AcDbEntity
  8
lazerCut
100
AcDbLine
 10
97.0
 20
122.0
 30
0.0
 11
97.0
 21
204.0
 31
0.0
  0
LINE
  5
1F2D
330
1FAE
100
AcDbEntity
  8
lazerCut
100
AcDbLine
 10
97.0
 20
204.0
 30
0.0
 11
182.0
 21
204.0
 31
0.0
  0
LINE
  5
1F2E
330
1FAE
100
AcDbEntity
  8
lazerCut
100
AcDbLine
 10
182.0
 20
204.0
 30
0.0
 11
182.0
 21
122.0
 31
0.0
  0
LINE
  5
1F30
330
1FAE
100
AcDbEntity
  8
lazerCut
100
AcDbLine
 10
193.9999999999999
 20
155.0
 30
0.0
 11
193.9999999999998
 21
171.0
 31
0.0
  0
LINE
  5
1F31
330
1FAE
100
AcDbEntity
  8
lazerCut
100
AcDbLine
 10
192.0000000000003
 20
171.0
 30
0.0
 11
192.0000000000007
 21
155.0
 31
0.0
  0
LINE
  5
1F32
330
1FAE
100
AcDbEntity
  8
lazerCut
100
AcDbLine
 10
195.9999999999999
 20
150.0
 30
0.0
 11
196.0000000000001
 21
155.0
 31
0.0
  0
LINE
  5
1F33
330
1FAE
100
AcDbEntity
  8
lazerCut
100
AcDbLine
 10
196.0000000000001
 20
155.0
 30
0.0
 11
194.5000000000001
 21
155.0
 31
0.0
  0
LINE
  5
1F34
330
1FAE
100
AcDbEntity
  8
lazerCut
100
AcDbLine
 10
196.0
 20
171.0
 30
0.0
 11
196.0000000000001
 21
176.0
 31
0.0
  0
LINE
  5
1F35
330
1FAE
100
AcDbEntity
  8
lazerCut
100
AcDbLine
 10
194.4999999999999
 20
171.0
 30
0.0
 11
196.0
 21
171.0
 31
0.0
  0
LINE
  5
1F36
330
1FAE
100
AcDbEntity
  8
lazerCut
100
AcDbLine
 10
191.4999999999991
 20
155.0
 30
0.0
 11
189.9999999999993
 21
155.0
 31
0.0
  0
LINE
  5
1F37
330
1FAE
100
AcDbEntity
  8
lazerCut
100
AcDbLine
 10
189.9999999999993
 20
155.0
 30
0.0
 11
189.9999999999997
 21
150.0
 31
0.0
  0
LINE
  5
1F38
330
1FAE
100
AcDbEntity
  8
lazerCut
100
AcDbLine
 10
190.0000000000003
 20
176.0
 30
0.0
 11
189.9999999999997
 21
171.0
 31
0.0
  0
LINE
  5
1F39
330
1FAE
100
AcDbEntity
  8
lazerCut
100
AcDbLine
 10
189.9999999999997
 20
171.0
 30
0.0
 11
191.5000000000003
 21
171.0
 31
0.0
  0
ARC
  5
1F3A
330
1FAE
100
AcDbEntity
  8
lazerCut
100
AcDbCircle
 10
191.7499999999999
 20
171.0
 30
0.0
 40
0.2499999999999929
100
AcDbArc
 50
0.0
 51
180.0
  0
ARC
  5
1F3B
330
1FAE
100
AcDbEntity
  8
lazerCut
100
AcDbCircle
 10
194.2500000000001
 20
171.0
 30
0.0
 40
0.2499999999999929
100
AcDbArc
 50
0.0
 51
180.0
  0
ARC
  5
1F3C
330
1FAE
100
AcDbEntity
  8
lazerCut
100
AcDbCircle
 10
191.7500000000001
 20
155.0
 30
0.0
 40
0.2499999999999929
100
AcDbArc
 50
180.0
 51
0.0
  0
ARC
  5
1F3D
330
1FAE
100
AcDbEntity
  8
lazerCut
100
AcDbCircle
 10
194.2499999999999
 20
155.0
 30
0.0
 40
0.2499999999999929
100
AcDbArc
 50
180.0
 51
0.0
  0
LINE
  5
1F3E
330
1FAE
100
AcDbEntity
  8
lazerCut
100
AcDbLine
 10
190.0000000000003
 20
176.0
 30
0.0
 11
196.0000000000001
 21
176.0
 31
0.0
  0
LINE
  5
1F3F
330
1FAE
100
AcDbEntity
  8
lazerCut
100
AcDbLine
 10
189.9999999999997
 20
150.0
 30
0.0
 11
195.9999999999999
 21
150.0
 31
0.0
  0
LINE
  5
1F40
330
1FAE
100
AcDbEntity
  8
lazerCut
100
AcDbLine
 10
191.0
 20
183.0
 30
0.0
 11
191.0
 21
188.0
 31
0.0
  0
LINE
  5
1F41
330
1FAE
100
AcDbEntity
  8
lazerCut
100
AcDbLine
 10
184.0
 20
162.0
 30
0.0
 11
191.0
 21
162.0
 31
0.0
  0
LINE
  5
1F42
330
1FAE
100
AcDbEntity
  8
lazerCut
100
AcDbLine
 10
191.0
 20
167.0
 30
0.0
 11
189.5
 21
167.0
 31
0.0
  0
LINE
  5
1F43
330
1FAE
100
AcDbEntity
  8
lazerCut
100
AcDbLine
 10
191.0
 20
162.0
 30
0.0
 11
191.0
 21
167.0
 31
0.0
  0
ARC
  5
1F44
330
1FAE
100
AcDbEntity
  8
lazerCut
100
AcDbCircle
 10
189.2500000000001
 20
167.0
 30
0.0
 40
0.2499999999999929
100
AcDbArc
 50
180.0
 51
0.0
  0
LINE
  5
1F45
330
1FAE
100
AcDbEntity
  8
lazerCut
100
AcDbLine
 10
186.0
 20
183.0
 30
0.0
 11
186.0000000000001
 21
167.0
 31
0.0
  0
ARC
  5
1F46
330
1FAE
100
AcDbEntity
  8
lazerCut
100
AcDbCircle
 10
185.75
 20
167.0
 30
0.0
 40
0.2499999999999929
100
AcDbArc
 50
180.0
 51
0.0
  0
ARC
  5
1F47
330
1FAE
100
AcDbEntity
  8
lazerCut
100
AcDbCircle
 10
189.25
 20
183.0
 30
0.0
 40
0.2499999999999929
100
AcDbArc
 50
0.0
 51
180.0
  0
LINE
  5
1F48
330
1FAE
100
AcDbEntity
  8
lazerCut
100
AcDbLine
 10
189.0
 20
167.0
 30
0.0
 11
189.0
 21
183.0
 31
0.0
  0
ARC
  5
1F49
330
1FAE
100
AcDbEntity
  8
lazerCut
100
AcDbCircle
 10
185.75
 20
183.0
 30
0.0
 40
0.2499999999999929
100
AcDbArc
 50
0.0
 51
180.0
  0
LINE
  5
1F4A
330
1FAE
100
AcDbEntity
  8
lazerCut
100
AcDbLine
 10
184.0
 20
183.0
 30
0.0
 11
185.5
 21
183.0
 31
0.0
  0
LINE
  5
1F4B
330
1FAE
100
AcDbEntity
  8
lazerCut
100
AcDbLine
 10
184.0
 20
188.0
 30
0.0
 11
184.0
 21
183.0
 31
0.0
  0
LINE
  5
1F4C
330
1FAE
100
AcDbEntity
  8
lazerCut
100
AcDbLine
 10
191.0
 20
188.0
 30
0.0
 11
184.0
 21
188.0
 31
0.0
  0
LINE
  5
1F4D
330
1FAE
100
AcDbEntity
  8
lazerCut
100
AcDbLine
 10
184.0
 20
167.0
 30
0.0
 11
184.0
 21
162.0
 31
0.0
  0
LINE
  5
1F4E
330
1FAE
100
AcDbEntity
  8
lazerCut
100
AcDbLine
 10
185.5
 20
167.0
 30
0.0
 11
184.0
 21
167.0
 31
0.0
  0
LINE
  5
1F4F
330
1FAE
100
AcDbEntity
  8
lazerCut
100
AcDbLine
 10
189.5
 20
183.0
 30
0.0
 11
191.0
 21
183.0
 31
0.0
  0
LINE
  5
1F50
330
1FAE
100
AcDbEntity
  8
lazerCut
100
AcDbLine
 10
205.0
 20
128.0
 30
0.0
 11
205.0
 21
144.0
 31
0.0
  0
LINE
  5
1F51
330
1FAE
100
AcDbEntity
  8
lazerCut
100
AcDbLine
 10
202.9999999999999
 20
144.0
 30
0.0
 11
202.9999999999997
 21
128.0
 31
0.0
  0
LINE
  5
1F52
330
1FAE
100
AcDbEntity
  8
lazerCut
100
AcDbLine
 10
207.0
 20
123.0
 30
0.0
 11
207.0
 21
128.0
 31
0.0
  0
LINE
  5
1F53
330
1FAE
100
AcDbEntity
  8
lazerCut
100
AcDbLine
 10
207.0
 20
128.0
 30
0.0
 11
205.5
 21
128.0
 31
0.0
  0
LINE
  5
1F54
330
1FAE
100
AcDbEntity
  8
lazerCut
100
AcDbLine
 10
207.0
 20
144.0
 30
0.0
 11
207.0
 21
149.0
 31
0.0
  0
LINE
  5
1F55
330
1FAE
100
AcDbEntity
  8
lazerCut
100
AcDbLine
 10
205.5
 20
144.0
 30
0.0
 11
207.0
 21
144.0
 31
0.0
  0
LINE
  5
1F56
330
1FAE
100
AcDbEntity
  8
lazerCut
100
AcDbLine
 10
202.4999999999997
 20
128.0
 30
0.0
 11
201.0000000000003
 21
128.0
 31
0.0
  0
LINE
  5
1F57
330
1FAE
100
AcDbEntity
  8
lazerCut
100
AcDbLine
 10
201.0000000000003
 20
128.0
 30
0.0
 11
201.0000000000005
 21
123.0
 31
0.0
  0
LINE
  5
1F58
330
1FAE
100
AcDbEntity
  8
lazerCut
100
AcDbLine
 10
201.0000000000001
 20
149.0
 30
0.0
 11
201.0000000000001
 21
144.0
 31
0.0
  0
LINE
  5
1F59
330
1FAE
100
AcDbEntity
  8
lazerCut
100
AcDbLine
 10
201.0000000000001
 20
144.0
 30
0.0
 11
202.5000000000003
 21
144.0
 31
0.0
  0
ARC
  5
1F5A
330
1FAE
100
AcDbEntity
  8
lazerCut
100
AcDbCircle
 10
202.75
 20
144.0
 30
0.0
 40
0.2499999999999929
100
AcDbArc
 50
0.0
 51
180.0
  0
ARC
  5
1F5B
330
1FAE
100
AcDbEntity
  8
lazerCut
100
AcDbCircle
 10
205.25
 20
144.0
 30
0.0
 40
0.2499999999999929
100
AcDbArc
 50
0.0
 51
180.0
  0
ARC
  5
1F5C
330
1FAE
100
AcDbEntity
  8
lazerCut
100
AcDbCircle
 10
202.7500000000003
 20
128.0
 30
0.0
 40
0.2499999999999929
100
AcDbArc
 50
180.0
 51
0.0
  0
ARC
  5
1F5D
330
1FAE
100
AcDbEntity
  8
lazerCut
100
AcDbCircle
 10
205.2500000000001
 20
128.0
 30
0.0
 40
0.2499999999999929
100
AcDbArc
 50
180.0
 51
0.0
  0
LINE
  5
1F5E
330
1FAE
100
AcDbEntity
  8
lazerCut
100
AcDbLine
 10
201.0000000000001
 20
149.0
 30
0.0
 11
207.0
 21
149.0
 31
0.0
  0
LINE
  5
1F5F
330
1FAE
100
AcDbEntity
  8
lazerCut
100
AcDbLine
 10
201.0000000000005
 20
123.0
 30
0.0
 11
207.0
 21
123.0
 31
0.0
  0
LINE
  5
1F60
330
1FAE
100
AcDbEntity
  8
lazerCut
100
AcDbLine
 10
202.0
 20
156.0
 30
0.0
 11
202.0
 21
161.0
 31
0.0
  0
LINE
  5
1F61
330
1FAE
100
AcDbEntity
  8
lazerCut
100
AcDbLine
 10
195.0
 20
135.0
 30
0.0
 11
202.0
 21
135.0
 31
0.0
  0
LINE
  5
1F62
330
1FAE
100
AcDbEntity
  8
lazerCut
100
AcDbLine
 10
202.0
 20
140.0
 30
0.0
 11
200.5
 21
140.0
 31
0.0
  0
LINE
  5
1F63
330
1FAE
100
AcDbEntity
  8
lazerCut
100
AcDbLine
 10
202.0
 20
135.0
 30
0.0
 11
202.0
 21
140.0
 31
0.0
  0
ARC
  5
1F64
330
1FAE
100
AcDbEntity
  8
lazerCut
100
AcDbCircle
 10
200.2500000000001
 20
140.0
 30
0.0
 40
0.2499999999999929
100
AcDbArc
 50
180.0
 51
0.0
  0
LINE
  5
1F65
330
1FAE
100
AcDbEntity
  8
lazerCut
100
AcDbLine
 10
197.0
 20
156.0
 30
0.0
 11
197.0
 21
140.0
 31
0.0
  0
ARC
  5
1F66
330
1FAE
100
AcDbEntity
  8
lazerCut
100
AcDbCircle
 10
196.7500000000001
 20
140.0
 30
0.0
 40
0.2499999999999929
100
AcDbArc
 50
180.0
 51
0.0
  0
ARC
  5
1F67
330
1FAE
100
AcDbEntity
  8
lazerCut
100
AcDbCircle
 10
200.2500000000001
 20
156.0
 30
0.0
 40
0.2499999999999929
100
AcDbArc
 50
0.0
 51
180.0
  0
LINE
  5
1F68
330
1FAE
100
AcDbEntity
  8
lazerCut
100
AcDbLine
 10
200.0000000000001
 20
140.0
 30
0.0
 11
200.0
 21
156.0
 31
0.0
  0
ARC
  5
1F69
330
1FAE
100
AcDbEntity
  8
lazerCut
100
AcDbCircle
 10
196.75
 20
156.0
 30
0.0
 40
0.2499999999999929
100
AcDbArc
 50
0.0
 51
180.0
  0
LINE
  5
1F6A
330
1FAE
100
AcDbEntity
  8
lazerCut
100
AcDbLine
 10
195.0
 20
156.0
 30
0.0
 11
196.5
 21
156.0
 31
0.0
  0
LINE
  5
1F6B
330
1FAE
100
AcDbEntity
  8
lazerCut
100
AcDbLine
 10
195.0
 20
161.0
 30
0.0
 11
195.0
 21
156.0
 31
0.0
  0
LINE
  5
1F6C
330
1FAE
100
AcDbEntity
  8
lazerCut
100
AcDbLine
 10
202.0
 20
161.0
 30
0.0
 11
195.0
 21
161.0
 31
0.0
  0
LINE
  5
1F6D
330
1FAE
100
AcDbEntity
  8
lazerCut
100
AcDbLine
 10
195.0000000000001
 20
140.0
 30
0.0
 11
195.0
 21
135.0
 31
0.0
  0
LINE
  5
1F6E
330
1FAE
100
AcDbEntity
  8
lazerCut
100
AcDbLine
 10
196.5
 20
140.0
 30
0.0
 11
195.0000000000001
 21
140.0
 31
0.0
  0
LINE
  5
1F6F
330
1FAE
100
AcDbEntity
  8
lazerCut
100
AcDbLine
 10
200.5
 20
156.0
 30
0.0
 11
202.0
 21
156.0
 31
0.0
  0
LINE
  5
1F70
330
1FAE
100
AcDbEntity
  8
lazerCut
100
AcDbLine
 10
205.0
 20
155.0
 30
0.0
 11
205.0
 21
171.0
 31
0.0
  0
LINE
  5
1F71
330
1FAE
100
AcDbEntity
  8
lazerCut
100
AcDbLine
 10
203.0
 20
171.0
 30
0.0
 11
203.0
 21
155.0
 31
0.0
  0
LINE
  5
1F72
330
1FAE
100
AcDbEntity
  8
lazerCut
100
AcDbLine
 10
207.0
 20
150.0
 30
0.0
 11
207.0
 21
155.0
 31
0.0
  0
LINE
  5
1F73
330
1FAE
100
AcDbEntity
  8
lazerCut
100
AcDbLine
 10
207.0
 20
155.0
 30
0.0
 11
205.5
 21
155.0
 31
0.0
  0
LINE
  5
1F74
330
1FAE
100
AcDbEntity
  8
lazerCut
100
AcDbLine
 10
207.0
 20
171.0
 30
0.0
 11
207.0
 21
176.0
 31
0.0
  0
LINE
  5
1F75
330
1FAE
100
AcDbEntity
  8
lazerCut
100
AcDbLine
 10
205.5
 20
171.0
 30
0.0
 11
207.0
 21
171.0
 31
0.0
  0
LINE
  5
1F76
330
1FAE
100
AcDbEntity
  8
lazerCut
100
AcDbLine
 10
202.4999999999999
 20
155.0
 30
0.0
 11
201.0000000000001
 21
155.0
 31
0.0
  0
LINE
  5
1F77
330
1FAE
100
AcDbEntity
  8
lazerCut
100
AcDbLine
 10
201.0000000000001
 20
155.0
 30
0.0
 11
201.0000000000001
 21
150.0
 31
0.0
  0
LINE
  5
1F78
330
1FAE
100
AcDbEntity
  8
lazerCut
100
AcDbLine
 10
201.0
 20
176.0
 30
0.0
 11
201.0
 21
171.0
 31
0.0
  0
LINE
  5
1F79
330
1FAE
100
AcDbEntity
  8
lazerCut
100
AcDbLine
 10
201.0
 20
171.0
 30
0.0
 11
202.5000000000001
 21
171.0
 31
0.0
  0
ARC
  5
1F7A
330
1FAE
100
AcDbEntity
  8
lazerCut
100
AcDbCircle
 10
202.75
 20
171.0
 30
0.0
 40
0.2499999999999929
100
AcDbArc
 50
0.0
 51
180.0
  0
ARC
  5
1F7B
330
1FAE
100
AcDbEntity
  8
lazerCut
100
AcDbCircle
 10
205.25
 20
171.0
 30
0.0
 40
0.2499999999999929
100
AcDbArc
 50
0.0
 51
180.0
  0
ARC
  5
1F7C
330
1FAE
100
AcDbEntity
  8
lazerCut
100
AcDbCircle
 10
202.7500000000001
 20
155.0
 30
0.0
 40
0.2499999999999929
100
AcDbArc
 50
180.0
 51
0.0
  0
ARC
  5
1F7D
330
1FAE
100
AcDbEntity
  8
lazerCut
100
AcDbCircle
 10
205.2500000000001
 20
155.0
 30
0.0
 40
0.2499999999999929
100
AcDbArc
 50
180.0
 51
0.0
  0
LINE
  5
1F7E
330
1FAE
100
AcDbEntity
  8
lazerCut
100
AcDbLine
 10
201.0
 20
176.0
 30
0.0
 11
207.0
 21
176.0
 31
0.0
  0
LINE
  5
1F7F
330
1FAE
100
AcDbEntity
  8
lazerCut
100
AcDbLine
 10
201.0000000000001
 20
150.0
 30
0.0
 11
207.0
 21
150.0
 31
0.0
  0
LINE
  5
1F80
330
1FAE
100
AcDbEntity
  8
lazerCut
100
AcDbLine
 10
202.0
 20
183.0
 30
0.0
 11
202.0
 21
188.0
 31
0.0
  0
LINE
  5
1F81
330
1FAE
100
AcDbEntity
  8
lazerCut
100
AcDbLine
 10
195.0
 20
162.0
 30
0.0
 11
202.0
 21
162.0
 31
0.0
  0
LINE
  5
1F82
330
1FAE
100
AcDbEntity
  8
lazerCut
100
AcDbLine
 10
202.0
 20
167.0
 30
0.0
 11
200.5
 21
167.0
 31
0.0
  0
LINE
  5
1F83
330
1FAE
100
AcDbEntity
  8
lazerCut
100
AcDbLine
 10
202.0
 20
162.0
 30
0.0
 11
202.0
 21
167.0
 31
0.0
  0
ARC
  5
1F84
330
1FAE
100
AcDbEntity
  8
lazerCut
100
AcDbCircle
 10
200.25
 20
167.0
 30
0.0
 40
0.2499999999999929
100
AcDbArc
 50
180.0
 51
0.0
  0
LINE
  5
1F85
330
1FAE
100
AcDbEntity
  8
lazerCut
100
AcDbLine
 10
197.0
 20
183.0
 30
0.0
 11
197.0
 21
167.0
 31
0.0
  0
ARC
  5
1F86
330
1FAE
100
AcDbEntity
  8
lazerCut
100
AcDbCircle
 10
196.75
 20
167.0
 30
0.0
 40
0.2499999999999929
100
AcDbArc
 50
180.0
 51
0.0
  0
ARC
  5
1F87
330
1FAE
100
AcDbEntity
  8
lazerCut
100
AcDbCircle
 10
200.25
 20
183.0
 30
0.0
 40
0.2499999999999929
100
AcDbArc
 50
0.0
 51
180.0
  0
LINE
  5
1F88
330
1FAE
100
AcDbEntity
  8
lazerCut
100
AcDbLine
 10
200.0
 20
167.0
 30
0.0
 11
200.0
 21
183.0
 31
0.0
  0
ARC
  5
1F89
330
1FAE
100
AcDbEntity
  8
lazerCut
100
AcDbCircle
 10
196.75
 20
183.0
 30
0.0
 40
0.2499999999999929
100
AcDbArc
 50
0.0
 51
180.0
  0
LINE
  5
1F8A
330
1FAE
100
AcDbEntity
  8
lazerCut
100
AcDbLine
 10
195.0
 20
183.0
 30
0.0
 11
196.5
 21
183.0
 31
0.0
  0
LINE
  5
1F8B
330
1FAE
100
AcDbEntity
  8
lazerCut
100
AcDbLine
 10
195.0
 20
188.0
 30
0.0
 11
195.0
 21
183.0
 31
0.0
  0
LINE
  5
1F8C
330
1FAE
100
AcDbEntity
  8
lazerCut
100
AcDbLine
 10
202.0
 20
188.0
 30
0.0
 11
195.0
 21
188.0
 31
0.0
  0
LINE
  5
1F8D
330
1FAE
100
AcDbEntity
  8
lazerCut
100
AcDbLine
 10
195.0
 20
167.0
 30
0.0
 11
195.0
 21
162.0
 31
0.0
  0
LINE
  5
1F8E
330
1FAE
100
AcDbEntity
  8
lazerCut
100
AcDbLine
 10
196.5
 20
167.0
 30
0.0
 11
195.0
 21
167.0
 31
0.0
  0
LINE
  5
1F8F
330
1FAE
100
AcDbEntity
  8
lazerCut
100
AcDbLine
 10
200.5
 20
183.0
 30
0.0
 11
202.0
 21
183.0
 31
0.0
  0
ENDSEC
  0
SECTION
  2
OBJECTS
  0
DICTIONARY
  5
1F9C
330
0
100
AcDbDictionary
281
     1
  3
ACAD_DETAILVIEWSTYLE
350
207D
  3
ACAD_GROUP
350
1F9D
  3
ACAD_LAYOUT
350
1FA9
  3
ACAD_MATERIAL
350
1FD2
  3
ACAD_MLEADERSTYLE
350
1FFA
  3
ACAD_MLINESTYLE
350
1FA6
  3
ACAD_PLOTSETTINGS
350
1FA8
  3
ACAD_PLOTSTYLENAME
350
1F9E
  3
ACAD_SCALELIST
350
1FD6
  3
ACAD_SECTIONVIEWSTYLE
350
207E
  3
ACAD_TABLESTYLE
350
1FF8
  3
ACAD_VISUALSTYLE
350
1FB9
  3
ACDB_RECOMPOSE_DATA
350
207A
  3
AcDbVariableDictionary
350
2076
  3
QCAD_OBJECTS
350
1FFE
  0
SUN
  5
1FFC
330
1FB8
100
AcDbSun
 90
        1
290
     0
 63
     7
421
 16777215
 40
1.0
291
     1
 91
  2455826
 92
 54000000
292
     0
 70
     2
 71
   256
280
     1
  0
DICTIONARY
  5
207D
102
{ACAD_REACTORS
330
1F9C
102
}
330
1F9C
100
AcDbDictionary
281
     1
  0
DICTIONARY
  5
1F9D
102
{ACAD_REACTORS
330
1F9C
102
}
330
1F9C
100
AcDbDictionary
281
     1
  0
DICTIONARY
  5
1FA9
102
{ACAD_REACTORS
330
1F9C
102
}
330
1F9C
100
AcDbDictionary
281
     1
  3
Layout1
350
1FAD
  3
Layout2
350
1FB5
  3
Model
350
1FB1
  0
DICTIONARY
  5
1FD2
102
{ACAD_REACTORS
330
1F9C
102
}
330
1F9C
100
AcDbDictionary
281
     1
  3
ByBlock
350
1FD4
  3
ByLayer
350
1FD3
  3
Global
350
1FD5
  0
DICTIONARY
  5
1FFA
102
{ACAD_REACTORS
330
1F9C
102
}
330
1F9C
100
AcDbDictionary
281
     1
  3
Standard
350
1FFB
  0
DICTIONARY
  5
1FA6
102
{ACAD_REACTORS
330
1F9C
102
}
330
1F9C
100
AcDbDictionary
281
     1
  3
Standard
350
1FA7
  0
DICTIONARY
  5
1FA8
102
{ACAD_REACTORS
330
1F9C
102
}
330
1F9C
100
AcDbDictionary
281
     1
  0
ACDBDICTIONARYWDFLT
  5
1F9E
102
{ACAD_REACTORS
330
1F9C
102
}
330
1F9C
100
AcDbDictionary
281
     1
  3
Normal
350
1F9F
100
AcDbDictionaryWithDefault
340
1F9F
  0
DICTIONARY
  5
1FD6
102
{ACAD_REACTORS
330
1F9C
102
}
330
1F9C
100
AcDbDictionary
281
     1
  3
A0
350
1FD7
  3
A1
350
1FD8
  3
A2
350
1FD9
  3
A3
350
1FDA
  3
A4
350
1FDB
  3
A5
350
1FDC
  3
A6
350
1FDD
  3
A7
350
1FDE
  3
A8
350
1FDF
  3
A9
350
1FE0
  3
B0
350
1FE1
  3
B1
350
1FE2
  3
B2
350
1FE3
  3
B3
350
1FE4
  3
B4
350
1FE5
  3
B5
350
1FE6
  3
B6
350
1FE7
  3
B7
350
1FE8
  3
B8
350
1FE9
  3
B9
350
1FEA
  3
C0
350
1FEB
  3
C1
350
1FEC
  3
C2
350
1FED
  3
C3
350
1FEE
  3
C4
350
1FEF
  3
C5
350
1FF0
  3
C6
350
1FF1
  3
C7
350
1FF2
  3
C8
350
1FF3
  3
C9
350
1FF4
  3
D0
350
1FF5
  3
D1
350
1FF6
  3
D2
350
1FF7
  0
DICTIONARY
  5
207E
102
{ACAD_REACTORS
330
1F9C
102
}
330
1F9C
100
AcDbDictionary
281
     1
  0
DICTIONARY
  5
1FF8
102
{ACAD_REACTORS
330
1F9C
102
}
330
1F9C
100
AcDbDictionary
281
     1
  3
Standard
350
1FF9
  0
DICTIONARY
  5
1FB9
102
{ACAD_REACTORS
330
1F9C
102
}
330
1F9C
100
AcDbDictionary
281
     1
  3
2dWireframe
350
1FBE
  3
Basic
350
1FC1
  3
Brighten
350
1FC5
  3
ColorChange
350
1FC9
  3
Conceptual
350
1FC3
  3
Dim
350
1FC4
  3
EdgeColorOff
350
1FCC
  3
Facepattern
350
1FC8
  3
Flat
350
1FBA
  3
FlatWithEdges
350
1FBB
  3
Gouraud
350
1FBC
  3
GouraudWithEdges
350
1FBD
  3
Hidden
350
1FC0
  3
JitterOff
350
1FCA
  3
Linepattern
350
1FC7
  3
OverhangOff
350
1FCB
  3
Realistic
350
1FC2
  3
Shaded
350
1FD1
  3
Shaded with edges
350
1FD0
  3
Shades of Gray
350
1FCD
  3
Sketchy
350
1FCE
  3
Thicken
350
1FC6
  3
Wireframe
350
1FBF
  3
X-Ray
350
1FCF
  0
XRECORD
  5
207A
102
{ACAD_REACTORS
330
1F9C
102
}
330
1F9C
100
AcDbXrecord
280
     1
 90
        1
330
1FF9
  0
DICTIONARY
  5
2076
102
{ACAD_REACTORS
330
1F9C
102
}
330
1F9C
100
AcDbDictionary
281
     1
  3
CANNOSCALE
350
2077
  3
CMLEADERSTYLE
350
207C
  3
CTABLESTYLE
350
207B
  0
DICTIONARY
  5
1FFE
102
{ACAD_REACTORS
330
1F9C
102
}
330
1F9C
100
AcDbDictionary
281
     1
  3
Grid/DisplayGrid00
350
2000
  3
Grid/DisplayGrid01
350
2001
  3
Grid/DisplayGrid02
350
2002
  3
Grid/DisplayGrid03
350
2003
  3
Grid/GridSpacingX00
350
2004
  3
Grid/GridSpacingX01
350
2005
  3
Grid/GridSpacingX02
350
2006
  3
Grid/GridSpacingX03
350
2007
  3
Grid/GridSpacingY00
350
2008
  3
Grid/GridSpacingY01
350
2009
  3
Grid/GridSpacingY02
350
200A
  3
Grid/GridSpacingY03
350
200B
  3
Grid/IsometricGrid00
350
200C
  3
Grid/IsometricGrid01
350
200D
  3
Grid/IsometricGrid02
350
200E
  3
Grid/IsometricGrid03
350
200F
  3
Grid/IsometricProjection00
350
2010
  3
Grid/IsometricProjection01
350
2011
  3
Grid/IsometricProjection02
350
2012
  3
Grid/IsometricProjection03
350
2013
  3
Grid/MetaGridSpacingX00
350
2014
  3
Grid/MetaGridSpacingX01
350
2015
  3
Grid/MetaGridSpacingX02
350
2016
  3
Grid/MetaGridSpacingX03
350
2017
  3
Grid/MetaGridSpacingY00
350
2018
  3
Grid/MetaGridSpacingY01
350
2019
  3
Grid/MetaGridSpacingY02
350
201A
  3
Grid/MetaGridSpacingY03
350
201B
  3
MultiPageSettings/Columns
350
201C
  3
MultiPageSettings/GlueMarginsBottom
350
201D
  3
MultiPageSettings/GlueMarginsLeft
350
201E
  3
MultiPageSettings/GlueMarginsRight
350
201F
  3
MultiPageSettings/GlueMarginsTop
350
2020
  3
MultiPageSettings/PrintCropMarks
350
2021
  3
MultiPageSettings/Rows
350
2022
  3
PageSettings/OffsetX
350
2023
  3
PageSettings/OffsetY
350
2024
  3
PageSettings/PageOrientation
350
2025
  3
PageSettings/PaperHeight
350
2026
  3
PageSettings/PaperSizeName
350
2027
  3
PageSettings/PaperWidth
350
2028
  3
PageSettings/Scale
350
2029
  3
PageSettings/ShowPaperBorders
350
202A
  3
QCADVersion
350
202B
  3
UnitSettings/PaperUnit
350
202C
  0
LAYOUT
  5
1FAD
102
{ACAD_REACTORS
330
1FA9
102
}
330
1FA9
100
AcDbPlotSettings
  1

  2
none_device
  4

  6

 40
0.0
 41
0.0
 42
0.0
 43
0.0
 44
0.0
 45
0.0
 46
0.0
 47
0.0
 48
0.0
 49
0.0
140
0.0
141
0.0
142
1.0
143
1.0
 70
   688
 72
     0
 73
     0
 74
     5
  7

 75
    16
 76
     0
 77
     2
 78
   300
147
1.0
148
0.0
149
0.0
100
AcDbLayout
  1
Layout1
 70
     1
 71
     1
 10
0.0
 20
0.0
 11
12.0
 21
9.0
 12
0.0
 22
0.0
 32
0.0
 14
1.000000000000000E+20
 24
1.000000000000000E+20
 34
1.000000000000000E+20
 15
-1.000000000000000E+20
 25
-1.000000000000000E+20
 35
-1.000000000000000E+20
146
0.0
 13
0.0
 23
0.0
 33
0.0
 16
1.0
 26
0.0
 36
0.0
 17
0.0
 27
1.0
 37
0.0
 76
     0
330
1FAA
  0
LAYOUT
  5
1FB5
102
{ACAD_REACTORS
330
1FA9
102
}
330
1FA9
100
AcDbPlotSettings
  1

  2
none_device
  4

  6

 40
0.0
 41
0.0
 42
0.0
 43
0.0
 44
0.0
 45
0.0
 46
0.0
 47
0.0
 48
0.0
 49
0.0
140
0.0
141
0.0
142
1.0
143
1.0
 70
   688
 72
     0
 73
     0
 74
     5
  7

 75
    16
 76
     0
 77
     2
 78
   300
147
1.0
148
0.0
149
0.0
100
AcDbLayout
  1
Layout2
 70
     1
 71
     2
 10
0.0
 20
0.0
 11
0.0
 21
0.0
 12
0.0
 22
0.0
 32
0.0
 14
0.0
 24
0.0
 34
0.0
 15
0.0
 25
0.0
 35
0.0
146
0.0
 13
0.0
 23
0.0
 33
0.0
 16
1.0
 26
0.0
 36
0.0
 17
0.0
 27
1.0
 37
0.0
 76
     0
330
1FB2
  0
LAYOUT
  5
1FB1
102
{ACAD_REACTORS
330
1FA9
102
}
330
1FA9
100
AcDbPlotSettings
  1

  2
none_device
  4
Letter_(8.50_x_11.00_Inches)
  6

 40
6.35
 41
6.35
 42
6.35000508
 43
6.35000508
 44
215.9
 45
279.4
 46
0.0
 47
0.0
 48
0.0
 49
0.0
140
0.0
141
0.0
142
1.0
143
1.0
 70
  1712
 72
     0
 73
     0
 74
     0
  7

 75
     0
 76
     0
 77
     2
 78
   300
147
1.0
148
0.0
149
0.0
100
AcDbLayout
  1
Model
 70
     1
 71
     0
 10
0.0
 20
0.0
 11
12.0
 21
9.0
 12
0.0
 22
0.0
 32
0.0
 14
1.000000000000000E+20
 24
1.000000000000000E+20
 34
1.000000000000000E+20
 15
-1.000000000000000E+20
 25
-1.000000000000000E+20
 35
-1.000000000000000E+20
146
0.0
 13
0.0
 23
0.0
 33
0.0
 16
1.0
 26
0.0
 36
0.0
 17
0.0
 27
1.0
 37
0.0
 76
     0
330
1FAE
331
1FB8
  0
MATERIAL
  5
1FD4
102
{ACAD_REACTORS
330
1FD2
102
}
330
1FD2
100
AcDbMaterial
  1
ByBlock
 72
     1
 94
      127
  0
MATERIAL
  5
1FD3
102
{ACAD_REACTORS
330
1FD2
102
}
330
1FD2
100
AcDbMaterial
  1
ByLayer
 72
     1
 94
      127
  0
MATERIAL
  5
1FD5
102
{ACAD_REACTORS
330
1FD2
102
}
330
1FD2
100
AcDbMaterial
  1
Global
 72
     1
 94
      127
  0
MLEADERSTYLE
  5
1FFB
102
{ACAD_REACTORS
330
1FFA
102
}
330
1FFA
100
AcDbMLeaderStyle
179
     2
170
     2
171
     1
172
     0
 90
        2
 40
0.0
 41
0.0
173
     1
 91
-1056964608
340
1FA3
 92
       -2
290
     1
 42
0.09
291
     1
 43
0.36
  3
Standard
341
0
 44
0.18
300

342
1FA1
174
     1
178
     6
175
     1
176
     0
 93
-1056964608
 45
0.18
292
     0
297
     0
 46
0.18
343
0
 94
-1056964608
 47
1.0
 49
1.0
140
1.0
293
     1
141
0.0
294
     1
177
     0
142
1.0
295
     0
296
     0
143
0.125
271
     0
272
     9
273
     9
298
     0
  0
MLINESTYLE
  5
1FA7
102
{ACAD_REACTORS
330
1FA6
102
}
330
1FA6
100
AcDbMlineStyle
  2
Standard
 70
     0
  3

 62
   256
 51
90.0
 52
90.0
 71
     2
 49
0.5
 62
   256
  6
BYLAYER
 49
-0.5
 62
   256
  6
BYLAYER
  0
ACDBPLACEHOLDER
  5
1F9F
102
{ACAD_REACTORS
330
1F9E
102
}
330
1F9E
  0
SCALE
  5
1FD7
102
{ACAD_REACTORS
330
1FD6
102
}
330
1FD6
100
AcDbScale
 70
     0
300
1:1
140
1.0
141
1.0
290
     1
  0
SCALE
  5
1FD8
102
{ACAD_REACTORS
330
1FD6
102
}
330
1FD6
100
AcDbScale
 70
     0
300
1:2
140
1.0
141
2.0
290
     0
  0
SCALE
  5
1FD9
102
{ACAD_REACTORS
330
1FD6
102
}
330
1FD6
100
AcDbScale
 70
     0
300
1:4
140
1.0
141
4.0
290
     0
  0
SCALE
  5
1FDA
102
{ACAD_REACTORS
330
1FD6
102
}
330
1FD6
100
AcDbScale
 70
     0
300
1:5
140
1.0
141
5.0
290
     0
  0
SCALE
  5
1FDB
102
{ACAD_REACTORS
330
1FD6
102
}
330
1FD6
100
AcDbScale
 70
     0
300
1:8
140
1.0
141
8.0
290
     0
  0
SCALE
  5
1FDC
102
{ACAD_REACTORS
330
1FD6
102
}
330
1FD6
100
AcDbScale
 70
     0
300
1:10
140
1.0
141
10.0
290
     0
  0
SCALE
  5
1FDD
102
{ACAD_REACTORS
330
1FD6
102
}
330
1FD6
100
AcDbScale
 70
     0
300
1:16
140
1.0
141
16.0
290
     0
  0
SCALE
  5
1FDE
102
{ACAD_REACTORS
330
1FD6
102
}
330
1FD6
100
AcDbScale
 70
     0
300
1:20
140
1.0
141
20.0
290
     0
  0
SCALE
  5
1FDF
102
{ACAD_REACTORS
330
1FD6
102
}
330
1FD6
100
AcDbScale
 70
     0
300
1:30
140
1.0
141
30.0
290
     0
  0
SCALE
  5
1FE0
102
{ACAD_REACTORS
330
1FD6
102
}
330
1FD6
100
AcDbScale
 70
     0
300
1:40
140
1.0
141
40.0
290
     0
  0
SCALE
  5
1FE1
102
{ACAD_REACTORS
330
1FD6
102
}
330
1FD6
100
AcDbScale
 70
     0
300
1:50
140
1.0
141
50.0
290
     0
  0
SCALE
  5
1FE2
102
{ACAD_REACTORS
330
1FD6
102
}
330
1FD6
100
AcDbScale
 70
     0
300
1:100
140
1.0
141
100.0
290
     0
  0
SCALE
  5
1FE3
102
{ACAD_REACTORS
330
1FD6
102
}
330
1FD6
100
AcDbScale
 70
     0
300
2:1
140
2.0
141
1.0
290
     0
  0
SCALE
  5
1FE4
102
{ACAD_REACTORS
330
1FD6
102
}
330
1FD6
100
AcDbScale
 70
     0
300
4:1
140
4.0
141
1.0
290
     0
  0
SCALE
  5
1FE5
102
{ACAD_REACTORS
330
1FD6
102
}
330
1FD6
100
AcDbScale
 70
     0
300
8:1
140
8.0
141
1.0
290
     0
  0
SCALE
  5
1FE6
102
{ACAD_REACTORS
330
1FD6
102
}
330
1FD6
100
AcDbScale
 70
     0
300
10:1
140
10.0
141
1.0
290
     0
  0
SCALE
  5
1FE7
102
{ACAD_REACTORS
330
1FD6
102
}
330
1FD6
100
AcDbScale
 70
     0
300
100:1
140
100.0
141
1.0
290
     0
  0
SCALE
  5
1FE8
102
{ACAD_REACTORS
330
1FD6
102
}
330
1FD6
100
AcDbScale
 70
     0
300
1/128" = 1'-0"
140
0.0078125
141
12.0
290
     0
  0
SCALE
  5
1FE9
102
{ACAD_REACTORS
330
1FD6
102
}
330
1FD6
100
AcDbScale
 70
     0
300
1/64" = 1'-0"
140
0.015625
141
12.0
290
     0
  0
SCALE
  5
1FEA
102
{ACAD_REACTORS
330
1FD6
102
}
330
1FD6
100
AcDbScale
 70
     0
300
1/32" = 1'-0"
140
0.03125
141
12.0
290
     0
  0
SCALE
  5
1FEB
102
{ACAD_REACTORS
330
1FD6
102
}
330
1FD6
100
AcDbScale
 70
     0
300
1/16" = 1'-0"
140
0.0625
141
12.0
290
     0
  0
SCALE
  5
1FEC
102
{ACAD_REACTORS
330
1FD6
102
}
330
1FD6
100
AcDbScale
 70
     0
300
3/32" = 1'-0"
140
0.09375
141
12.0
290
     0
  0
SCALE
  5
1FED
102
{ACAD_REACTORS
330
1FD6
102
}
330
1FD6
100
AcDbScale
 70
     0
300
1/8" = 1'-0"
140
0.125
141
12.0
290
     0
  0
SCALE
  5
1FEE
102
{ACAD_REACTORS
330
1FD6
102
}
330
1FD6
100
AcDbScale
 70
     0
300
3/16" = 1'-0"
140
0.1875
141
12.0
290
     0
  0
SCALE
  5
1FEF
102
{ACAD_REACTORS
330
1FD6
102
}
330
1FD6
100
AcDbScale
 70
     0
300
1/4" = 1'-0"
140
0.25
141
12.0
290
     0
  0
SCALE
  5
1FF0
102
{ACAD_REACTORS
330
1FD6
102
}
330
1FD6
100
AcDbScale
 70
     0
300
3/8" = 1'-0"
140
0.375
141
12.0
290
     0
  0
SCALE
  5
1FF1
102
{ACAD_REACTORS
330
1FD6
102
}
330
1FD6
100
AcDbScale
 70
     0
300
1/2" = 1'-0"
140
0.5
141
12.0
290
     0
  0
SCALE
  5
1FF2
102
{ACAD_REACTORS
330
1FD6
102
}
330
1FD6
100
AcDbScale
 70
     0
300
3/4" = 1'-0"
140
0.75
141
12.0
290
     0
  0
SCALE
  5
1FF3
102
{ACAD_REACTORS
330
1FD6
102
}
330
1FD6
100
AcDbScale
 70
     0
300
1" = 1'-0"
140
1.0
141
12.0
290
     0
  0
SCALE
  5
1FF4
102
{ACAD_REACTORS
330
1FD6
102
}
330
1FD6
100
AcDbScale
 70
     0
300
1-1/2" = 1'-0"
140
1.5
141
12.0
290
     0
  0
SCALE
  5
1FF5
102
{ACAD_REACTORS
330
1FD6
102
}
330
1FD6
100
AcDbScale
 70
     0
300
3" = 1'-0"
140
3.0
141
12.0
290
     0
  0
SCALE
  5
1FF6
102
{ACAD_REACTORS
330
1FD6
102
}
330
1FD6
100
AcDbScale
 70
     0
300
6" = 1'-0"
140
6.0
141
12.0
290
     0
  0
SCALE
  5
1FF7
102
{ACAD_REACTORS
330
1FD6
102
}
330
1FD6
100
AcDbScale
 70
     0
300
1'-0" = 1'-0"
140
12.0
141
12.0
290
     0
  0
TABLESTYLE
  5
1FF9
102
{ACAD_REACTORS
330
1FF8
102
}
102
{ACAD_XDICTIONARY
360
2078
102
}
330
1FF8
100
AcDbTableStyle
  3
Standard
 70
     0
 71
     0
 40
0.06
 41
0.06
280
     0
281
     0
  7
Standard
140
0.18
170
     2
 62
     0
 63
   257
283
     0
 90
        4
 91
        0
  1

274
    -2
284
     1
 64
     0
275
    -2
285
     1
 65
     0
276
    -2
286
     1
 66
     0
277
    -2
287
     1
 67
     0
278
    -2
288
     1
 68
     0
279
    -2
289
     1
 69
     0
  7
Standard
140
0.25
170
     5
 62
     0
 63
   257
283
     0
 90
        4
 91
        0
  1

274
    -2
284
     1
 64
     0
275
    -2
285
     1
 65
     0
276
    -2
286
     1
 66
     0
277
    -2
287
     1
 67
     0
278
    -2
288
     1
 68
     0
279
    -2
289
     1
 69
     0
  7
Standard
140
0.18
170
     5
 62
     0
 63
   257
283
     0
 90
        4
 91
        0
  1

274
    -2
284
     1
 64
     0
275
    -2
285
     1
 65
     0
276
    -2
286
     1
 66
     0
277
    -2
287
     1
 67
     0
278
    -2
288
     1
 68
     0
279
    -2
289
     1
 69
     0
  0
VISUALSTYLE
  5
1FBE
102
{ACAD_REACTORS
330
1FB9
102
}
330
1FB9
100
AcDbVisualStyle
  2
2dWireframe
 70
     4
177
     3
291
     0
 70
    58
 90
        0
176
     1
 90
        2
176
     1
 90
        0
176
     1
 90
        0
176
     1
 40
0.6
176
     1
 40
30.0
176
     1
 62
     7
420
 16777215
176
     1
 90
        1
176
     1
 90
        4
176
     1
 62
     7
176
     1
 62
   257
176
     1
 90
        1
176
     1
 90
        1
176
     1
 40
1.0
176
     1
 90
        0
176
     1
 62
   257
176
     1
 40
1.0
176
     1
 90
        1
176
     1
 90
        6
176
     1
 90
        2
176
     1
 62
     7
176
     1
 90
        5
176
     1
 90
        0
176
     1
 90
        0
176
     1
290
     0
176
     1
 90
        1
176
     1
 40
0.0
176
     1
 90
        0
176
     1
290
     1
176
     1
290
     1
176
     1
290
     0
176
     1
290
     0
176
     1
290
     0
176
     1
290
     0
176
     1
290
     0
176
     1
290
     0
176
     1
290
     0
176
     1
 90
       50
176
     1
 40
0.0
176
     1
 40
1.0
176
     1
 90
        0
176
     1
 62
    18
420
        0
176
     1
 90
       50
176
     1
 90
        3
176
     1
 62
     5
420
      255
176
     1
290
     0
176
     1
 90
       50
176
     1
 90
       50
176
     1
 90
       50
176
     1
290
     0
176
     1
 90
       50
176
     1
 62
   256
176
     0
 40
1.0
176
     0
 90
        2
176
     1
  1
strokes_ogs.tif
176
     1
290
     0
176
     1
 40
1.0
176
     1
 40
1.0
176
     1
  0
VISUALSTYLE
  5
1FC1
102
{ACAD_REACTORS
330
1FB9
102
}
330
1FB9
100
AcDbVisualStyle
  2
Basic
 70
     7
177
     3
291
     1
 70
    58
 90
        1
176
     1
 90
        0
176
     1
 90
        1
176
     1
 90
        0
176
     1
 40
0.6
176
     1
 40
30.0
176
     1
 62
     7
420
 16777215
176
     1
 90
        0
176
     1
 90
        4
176
     1
 62
     7
176
     1
 62
   257
176
     1
 90
        1
176
     1
 90
        1
176
     1
 40
1.0
176
     1
 90
        8
176
     1
 62
     7
176
     1
 40
1.0
176
     1
 90
        1
176
     1
 90
        6
176
     1
 90
        2
176
     1
 62
     7
176
     1
 90
        5
176
     1
 90
        0
176
     1
 90
        0
176
     1
290
     0
176
     1
 90
        1
176
     1
 40
0.0
176
     1
 90
        0
176
     1
290
     0
176
     1
290
     1
176
     1
290
     1
176
     1
290
     0
176
     1
290
     0
176
     1
290
     0
176
     1
290
     0
176
     1
290
     0
176
     1
290
     0
176
     1
 90
       50
176
     1
 40
0.0
176
     1
 40
1.0
176
     1
 90
        0
176
     1
 62
    18
420
        0
176
     1
 90
       50
176
     1
 90
        3
176
     1
 62
     5
420
      255
176
     1
290
     0
176
     1
 90
       50
176
     1
 90
       50
176
     1
 90
       50
176
     1
290
     0
176
     1
 90
       50
176
     1
 62
   256
176
     0
 40
1.0
176
     0
 90
        2
176
     1
  1
strokes_ogs.tif
176
     1
290
     0
176
     1
 40
1.0
176
     1
 40
1.0
176
     1
  0
VISUALSTYLE
  5
1FC5
102
{ACAD_REACTORS
330
1FB9
102
}
330
1FB9
100
AcDbVisualStyle
  2
Brighten
 70
    12
177
     3
291
     1
 70
    58
 90
        2
176
     1
 90
        2
176
     1
 90
        0
176
     1
 90
        0
176
     1
 40
0.6
176
     1
 40
30.0
176
     1
 62
     7
420
 16777215
176
     1
 90
        1
176
     1
 90
        4
176
     1
 62
     7
176
     1
 62
   257
176
     1
 90
        1
176
     1
 90
        1
176
     1
 40
1.0
176
     1
 90
        8
176
     1
 62
     7
176
     1
 40
1.0
176
     1
 90
        1
176
     1
 90
        6
176
     1
 90
        2
176
     1
 62
     7
176
     1
 90
        5
176
     1
 90
        0
176
     1
 90
        0
176
     1
290
     0
176
     1
 90
        1
176
     1
 40
50.0
176
     1
 90
        0
176
     1
290
     0
176
     1
290
     1
176
     1
290
     1
176
     1
290
     0
176
     1
290
     0
176
     1
290
     0
176
     1
290
     0
176
     1
290
     0
176
     1
290
     0
176
     1
 90
       50
176
     1
 40
0.0
176
     1
 40
1.0
176
     1
 90
        0
176
     1
 62
    18
420
        0
176
     1
 90
       50
176
     1
 90
        3
176
     1
 62
     5
420
      255
176
     1
290
     0
176
     1
 90
       50
176
     1
 90
       50
176
     1
 90
       50
176
     1
290
     0
176
     1
 90
       50
176
     1
 62
   256
176
     0
 40
1.0
176
     0
 90
        2
176
     1
  1
strokes_ogs.tif
176
     1
290
     0
176
     1
 40
1.0
176
     1
 40
1.0
176
     1
  0
VISUALSTYLE
  5
1FC9
102
{ACAD_REACTORS
330
1FB9
102
}
330
1FB9
100
AcDbVisualStyle
  2
ColorChange
 70
    16
177
     3
291
     1
 70
    58
 90
        2
176
     1
 90
        2
176
     1
 90
        3
176
     1
 90
        0
176
     1
 40
0.6
176
     1
 40
30.0
176
     1
 62
     8
420
  8421504
176
     1
 90
        1
176
     1
 90
        4
176
     1
 62
     7
176
     1
 62
   257
176
     1
 90
        1
176
     1
 90
        1
176
     1
 40
1.0
176
     1
 90
        8
176
     1
 62
     8
420
  8421504
176
     1
 40
1.0
176
     1
 90
        1
176
     1
 90
        6
176
     1
 90
        2
176
     1
 62
     7
176
     1
 90
        5
176
     1
 90
        0
176
     1
 90
        0
176
     1
290
     0
176
     1
 90
        1
176
     1
 40
0.0
176
     1
 90
        0
176
     1
290
     0
176
     1
290
     1
176
     1
290
     1
176
     1
290
     0
176
     1
290
     0
176
     1
290
     0
176
     1
290
     0
176
     1
290
     0
176
     1
290
     0
176
     1
 90
       50
176
     1
 40
0.0
176
     1
 40
1.0
176
     1
 90
        0
176
     1
 62
    18
420
        0
176
     1
 90
       50
176
     1
 90
        3
176
     1
 62
     5
420
      255
176
     1
290
     0
176
     1
 90
       50
176
     1
 90
       50
176
     1
 90
       50
176
     1
290
     0
176
     1
 90
       50
176
     1
 62
   256
176
     0
 40
1.0
176
     0
 90
        2
176
     1
  1
strokes_ogs.tif
176
     1
290
     0
176
     1
 40
1.0
176
     1
 40
1.0
176
     1
  0
VISUALSTYLE
  5
1FC3
102
{ACAD_REACTORS
330
1FB9
102
}
330
1FB9
100
AcDbVisualStyle
  2
Conceptual
 70
     9
177
     3
291
     0
 70
    58
 90
        3
176
     1
 90
        2
176
     1
 90
        0
176
     1
 90
        0
176
     1
 40
0.6
176
     1
 40
30.0
176
     1
 62
     7
420
 16777215
176
     1
 90
        2
176
     1
 90
        2
176
     1
 62
     7
176
     1
 62
   257
176
     1
 90
        1
176
     1
 90
        1
176
     1
 40
179.0
176
     1
 90
        8
176
     1
 62
     7
176
     1
 40
1.0
176
     1
 90
        1
176
     1
 90
        6
176
     1
 90
        2
176
     1
 62
     7
176
     1
 90
        3
176
     1
 90
        0
176
     1
 90
        0
176
     1
290
     0
176
     1
 90
        1
176
     1
 40
0.0
176
     1
 90
        0
176
     1
290
     0
176
     1
290
     1
176
     1
290
     1
176
     1
290
     0
176
     1
290
     0
176
     1
290
     0
176
     1
290
     0
176
     1
290
     0
176
     1
290
     0
176
     1
 90
       50
176
     1
 40
0.0
176
     1
 40
1.0
176
     1
 90
        0
176
     1
 62
    18
420
        0
176
     1
 90
       50
176
     1
 90
        3
176
     1
 62
     5
420
      255
176
     1
290
     0
176
     1
 90
       50
176
     1
 90
       50
176
     1
 90
       50
176
     1
290
     0
176
     1
 90
       50
176
     1
 62
   256
176
     0
 40
1.0
176
     0
 90
        2
176
     1
  1
strokes_ogs.tif
176
     1
290
     0
176
     1
 40
1.0
176
     1
 40
1.0
176
     1
  0
VISUALSTYLE
  5
1FC4
102
{ACAD_REACTORS
330
1FB9
102
}
330
1FB9
100
AcDbVisualStyle
  2
Dim
 70
    11
177
     3
291
     1
 70
    58
 90
        2
176
     1
 90
        2
176
     1
 90
        0
176
     1
 90
        0
176
     1
 40
0.6
176
     1
 40
30.0
176
     1
 62
     7
420
 16777215
176
     1
 90
        1
176
     1
 90
        4
176
     1
 62
     7
176
     1
 62
   257
176
     1
 90
        1
176
     1
 90
        1
176
     1
 40
1.0
176
     1
 90
        8
176
     1
 62
     7
176
     1
 40
1.0
176
     1
 90
        1
176
     1
 90
        6
176
     1
 90
        2
176
     1
 62
     7
176
     1
 90
        5
176
     1
 90
        0
176
     1
 90
        0
176
     1
290
     0
176
     1
 90
        1
176
     1
 40
-50.0
176
     1
 90
        0
176
     1
290
     0
176
     1
290
     1
176
     1
290
     1
176
     1
290
     0
176
     1
290
     0
176
     1
290
     0
176
     1
290
     0
176
     1
290
     0
176
     1
290
     0
176
     1
 90
       50
176
     1
 40
0.0
176
     1
 40
1.0
176
     1
 90
        0
176
     1
 62
    18
420
        0
176
     1
 90
       50
176
     1
 90
        3
176
     1
 62
     5
420
      255
176
     1
290
     0
176
     1
 90
       50
176
     1
 90
       50
176
     1
 90
       50
176
     1
290
     0
176
     1
 90
       50
176
     1
 62
   256
176
     0
 40
1.0
176
     0
 90
        2
176
     1
  1
strokes_ogs.tif
176
     1
290
     0
176
     1
 40
1.0
176
     1
 40
1.0
176
     1
  0
VISUALSTYLE
  5
1FCC
102
{ACAD_REACTORS
330
1FB9
102
}
330
1FB9
100
AcDbVisualStyle
  2
EdgeColorOff
 70
    22
177
     3
291
     1
 70
    58
 90
        2
176
     0
 90
        2
176
     0
 90
        0
176
     0
 90
        0
176
     0
 40
0.6
176
     0
 40
30.0
176
     0
 62
     7
420
 16777215
176
     0
 90
        1
176
     0
 90
        4
176
     0
 62
     7
176
     0
 62
   257
176
     0
 90
        1
176
     0
 90
        1
176
     0
 40
1.0
176
     0
 90
        8
176
     2
 62
     7
176
     0
 40
1.0
176
     0
 90
        1
176
     0
 90
        6
176
     0
 90
        2
176
     0
 62
     7
176
     0
 90
        5
176
     0
 90
        0
176
     0
 90
        0
176
     0
290
     0
176
     0
 90
        1
176
     0
 40
0.0
176
     0
 90
        0
176
     0
290
     0
176
     0
290
     1
176
     0
290
     1
176
     0
290
     0
176
     0
290
     0
176
     0
290
     0
176
     0
290
     0
176
     0
290
     0
176
     0
290
     0
176
     0
 90
       50
176
     0
 40
0.0
176
     0
 40
1.0
176
     0
 90
        0
176
     0
 62
    18
420
        0
176
     0
 90
       50
176
     0
 90
        3
176
     0
 62
     5
420
      255
176
     0
290
     0
176
     0
 90
       50
176
     0
 90
       50
176
     0
 90
       50
176
     0
290
     0
176
     0
 90
       50
176
     0
 62
   256
176
     0
 40
1.0
176
     0
 90
        2
176
     0
  1
strokes_ogs.tif
176
     0
290
     0
176
     0
 40
1.0
176
     0
 40
1.0
176
     0
  0
VISUALSTYLE
  5
1FC8
102
{ACAD_REACTORS
330
1FB9
102
}
330
1FB9
100
AcDbVisualStyle
  2
Facepattern
 70
    15
177
     3
291
     1
 70
    58
 90
        2
176
     1
 90
        2
176
     1
 90
        0
176
     1
 90
        0
176
     1
 40
0.6
176
     1
 40
30.0
176
     1
 62
     7
420
 16777215
176
     1
 90
        1
176
     1
 90
        4
176
     1
 62
     7
176
     1
 62
   257
176
     1
 90
        1
176
     1
 90
        1
176
     1
 40
1.0
176
     1
 90
        8
176
     1
 62
     7
176
     1
 40
1.0
176
     1
 90
        1
176
     1
 90
        6
176
     1
 90
        2
176
     1
 62
     7
176
     1
 90
        5
176
     1
 90
        0
176
     1
 90
        0
176
     1
290
     0
176
     1
 90
        1
176
     1
 40
0.0
176
     1
 90
        0
176
     1
290
     0
176
     1
290
     1
176
     1
290
     1
176
     1
290
     0
176
     1
290
     0
176
     1
290
     0
176
     1
290
     0
176
     1
290
     0
176
     1
290
     0
176
     1
 90
       50
176
     1
 40
0.0
176
     1
 40
1.0
176
     1
 90
        0
176
     1
 62
    18
420
        0
176
     1
 90
       50
176
     1
 90
        3
176
     1
 62
     5
420
      255
176
     1
290
     0
176
     1
 90
       50
176
     1
 90
       50
176
     1
 90
       50
176
     1
290
     0
176
     1
 90
       50
176
     1
 62
   256
176
     0
 40
1.0
176
     0
 90
        2
176
     1
  1
strokes_ogs.tif
176
     1
290
     0
176
     1
 40
1.0
176
     1
 40
1.0
176
     1
  0
VISUALSTYLE
  5
1FBA
102
{ACAD_REACTORS
330
1FB9
102
}
330
1FB9
100
AcDbVisualStyle
  2
Flat
 70
     0
177
     3
291
     1
 70
    58
 90
        2
176
     1
 90
        1
176
     1
 90
        1
176
     1
 90
        2
176
     1
 40
0.6
176
     1
 40
30.0
176
     1
 62
     7
420
 16777215
176
     1
 90
        0
176
     1
 90
        0
176
     1
 62
     7
176
     1
 62
   257
176
     1
 90
        1
176
     1
 90
        1
176
     1
 40
1.0
176
     1
 90
        8
176
     1
 62
     7
176
     1
 40
1.0
176
     1
 90
        1
176
     1
 90
        6
176
     1
 90
        2
176
     1
 62
     7
176
     1
 90
        5
176
     1
 90
        0
176
     1
 90
        0
176
     1
290
     0
176
     1
 90
       13
176
     1
 40
0.0
176
     1
 90
        0
176
     1
290
     0
176
     1
290
     1
176
     1
290
     1
176
     1
290
     0
176
     1
290
     0
176
     1
290
     0
176
     1
290
     0
176
     1
290
     0
176
     1
290
     0
176
     1
 90
       50
176
     1
 40
0.0
176
     1
 40
1.0
176
     1
 90
        0
176
     1
 62
    18
420
        0
176
     1
 90
       50
176
     1
 90
        3
176
     1
 62
     5
420
      255
176
     1
290
     0
176
     1
 90
       50
176
     1
 90
       50
176
     1
 90
       50
176
     1
290
     0
176
     1
 90
       50
176
     1
 62
   256
176
     0
 40
1.0
176
     0
 90
        2
176
     1
  1
strokes_ogs.tif
176
     1
290
     0
176
     1
 40
1.0
176
     1
 40
1.0
176
     1
  0
VISUALSTYLE
  5
1FBB
102
{ACAD_REACTORS
330
1FB9
102
}
330
1FB9
100
AcDbVisualStyle
  2
FlatWithEdges
 70
     1
177
     3
291
     1
 70
    58
 90
        2
176
     1
 90
        1
176
     1
 90
        1
176
     1
 90
        2
176
     1
 40
0.6
176
     1
 40
30.0
176
     1
 62
     7
420
 16777215
176
     1
 90
        1
176
     1
 90
        0
176
     1
 62
     7
176
     1
 62
   257
176
     1
 90
        1
176
     1
 90
        1
176
     1
 40
1.0
176
     1
 90
        0
176
     1
 62
   257
176
     1
 40
1.0
176
     1
 90
        1
176
     1
 90
        6
176
     1
 90
        2
176
     1
 62
     7
176
     1
 90
        5
176
     1
 90
        0
176
     1
 90
        0
176
     1
290
     0
176
     1
 90
       13
176
     1
 40
0.0
176
     1
 90
        0
176
     1
290
     0
176
     1
290
     1
176
     1
290
     1
176
     1
290
     0
176
     1
290
     0
176
     1
290
     0
176
     1
290
     0
176
     1
290
     0
176
     1
290
     0
176
     1
 90
       50
176
     1
 40
0.0
176
     1
 40
1.0
176
     1
 90
        0
176
     1
 62
    18
420
        0
176
     1
 90
       50
176
     1
 90
        3
176
     1
 62
     5
420
      255
176
     1
290
     0
176
     1
 90
       50
176
     1
 90
       50
176
     1
 90
       50
176
     1
290
     0
176
     1
 90
       50
176
     1
 62
   256
176
     0
 40
1.0
176
     0
 90
        2
176
     1
  1
strokes_ogs.tif
176
     1
290
     0
176
     1
 40
1.0
176
     1
 40
1.0
176
     1
  0
VISUALSTYLE
  5
1FBC
102
{ACAD_REACTORS
330
1FB9
102
}
330
1FB9
100
AcDbVisualStyle
  2
Gouraud
 70
     2
177
     3
291
     1
 70
    58
 90
        2
176
     1
 90
        2
176
     1
 90
        1
176
     1
 90
        2
176
     1
 40
0.6
176
     1
 40
30.0
176
     1
 62
     7
420
 16777215
176
     1
 90
        0
176
     1
 90
        0
176
     1
 62
     7
176
     1
 62
   257
176
     1
 90
        1
176
     1
 90
        1
176
     1
 40
1.0
176
     1
 90
        0
176
     1
 62
     7
176
     1
 40
1.0
176
     1
 90
        1
176
     1
 90
        6
176
     1
 90
        2
176
     1
 62
     7
176
     1
 90
        5
176
     1
 90
        0
176
     1
 90
        0
176
     1
290
     0
176
     1
 90
       13
176
     1
 40
0.0
176
     1
 90
        0
176
     1
290
     0
176
     1
290
     1
176
     1
290
     1
176
     1
290
     0
176
     1
290
     0
176
     1
290
     0
176
     1
290
     0
176
     1
290
     0
176
     1
290
     0
176
     1
 90
       50
176
     1
 40
0.0
176
     1
 40
1.0
176
     1
 90
        0
176
     1
 62
    18
420
        0
176
     1
 90
       50
176
     1
 90
        3
176
     1
 62
     5
420
      255
176
     1
290
     0
176
     1
 90
       50
176
     1
 90
       50
176
     1
 90
       50
176
     1
290
     0
176
     1
 90
       50
176
     1
 62
   256
176
     0
 40
1.0
176
     0
 90
        2
176
     1
  1
strokes_ogs.tif
176
     1
290
     0
176
     1
 40
1.0
176
     1
 40
1.0
176
     1
  0
VISUALSTYLE
  5
1FBD
102
{ACAD_REACTORS
330
1FB9
102
}
330
1FB9
100
AcDbVisualStyle
  2
GouraudWithEdges
 70
     3
177
     3
291
     1
 70
    58
 90
        2
176
     1
 90
        2
176
     1
 90
        1
176
     1
 90
        2
176
     1
 40
0.6
176
     1
 40
30.0
176
     1
 62
     7
420
 16777215
176
     1
 90
        1
176
     1
 90
        0
176
     1
 62
     7
176
     1
 62
   257
176
     1
 90
        1
176
     1
 90
        1
176
     1
 40
1.0
176
     1
 90
        0
176
     1
 62
   257
176
     1
 40
1.0
176
     1
 90
        1
176
     1
 90
        6
176
     1
 90
        2
176
     1
 62
     7
176
     1
 90
        5
176
     1
 90
        0
176
     1
 90
        0
176
     1
290
     0
176
     1
 90
       13
176
     1
 40
0.0
176
     1
 90
        0
176
     1
290
     0
176
     1
290
     1
176
     1
290
     1
176
     1
290
     0
176
     1
290
     0
176
     1
290
     0
176
     1
290
     0
176
     1
290
     0
176
     1
290
     0
176
     1
 90
       50
176
     1
 40
0.0
176
     1
 40
1.0
176
     1
 90
        0
176
     1
 62
    18
420
        0
176
     1
 90
       50
176
     1
 90
        3
176
     1
 62
     5
420
      255
176
     1
290
     0
176
     1
 90
       50
176
     1
 90
       50
176
     1
 90
       50
176
     1
290
     0
176
     1
 90
       50
176
     1
 62
   256
176
     0
 40
1.0
176
     0
 90
        2
176
     1
  1
strokes_ogs.tif
176
     1
290
     0
176
     1
 40
1.0
176
     1
 40
1.0
176
     1
  0
VISUALSTYLE
  5
1FC0
102
{ACAD_REACTORS
330
1FB9
102
}
330
1FB9
100
AcDbVisualStyle
  2
Hidden
 70
     6
177
     3
291
     0
 70
    58
 90
        1
176
     1
 90
        2
176
     1
 90
        2
176
     1
 90
        0
176
     1
 40
0.6
176
     1
 40
30.0
176
     1
 62
     7
420
 16777215
176
     1
 90
        2
176
     1
 90
        2
176
     1
 62
     7
176
     1
 62
   257
176
     1
 90
        2
176
     1
 90
        1
176
     1
 40
40.0
176
     1
 90
        0
176
     1
 62
   257
176
     1
 40
1.0
176
     1
 90
        1
176
     1
 90
        6
176
     1
 90
        2
176
     1
 62
     7
176
     1
 90
        3
176
     1
 90
        0
176
     1
 90
        0
176
     1
290
     0
176
     1
 90
        1
176
     1
 40
0.0
176
     1
 90
        0
176
     1
290
     0
176
     1
290
     1
176
     1
290
     1
176
     1
290
     0
176
     1
290
     0
176
     1
290
     0
176
     1
290
     0
176
     1
290
     0
176
     1
290
     0
176
     1
 90
       50
176
     1
 40
0.0
176
     1
 40
1.0
176
     1
 90
        0
176
     1
 62
    18
420
        0
176
     1
 90
       50
176
     1
 90
        3
176
     1
 62
     5
420
      255
176
     1
290
     0
176
     1
 90
       50
176
     1
 90
       50
176
     1
 90
       50
176
     1
290
     0
176
     1
 90
       50
176
     1
 62
   256
176
     0
 40
1.0
176
     0
 90
        2
176
     1
  1
strokes_ogs.tif
176
     1
290
     0
176
     1
 40
1.0
176
     1
 40
1.0
176
     1
  0
VISUALSTYLE
  5
1FCA
102
{ACAD_REACTORS
330
1FB9
102
}
330
1FB9
100
AcDbVisualStyle
  2
JitterOff
 70
    20
177
     3
291
     1
 70
    58
 90
        2
176
     0
 90
        2
176
     0
 90
        0
176
     0
 90
        0
176
     0
 40
0.6
176
     0
 40
30.0
176
     0
 62
     7
420
 16777215
176
     0
 90
        1
176
     0
 90
        4
176
     0
 62
     7
176
     0
 62
   257
176
     0
 90
        1
176
     0
 90
        1
176
     0
 40
1.0
176
     0
 90
       10
176
     2
 62
     7
176
     0
 40
1.0
176
     0
 90
        1
176
     0
 90
        6
176
     0
 90
        2
176
     0
 62
     7
176
     0
 90
        5
176
     0
 90
        0
176
     0
 90
        0
176
     0
290
     0
176
     0
 90
        1
176
     0
 40
0.0
176
     0
 90
        0
176
     0
290
     0
176
     0
290
     1
176
     0
290
     1
176
     0
290
     0
176
     0
290
     0
176
     0
290
     0
176
     0
290
     0
176
     0
290
     0
176
     0
290
     0
176
     0
 90
       50
176
     0
 40
0.0
176
     0
 40
1.0
176
     0
 90
        0
176
     0
 62
    18
420
        0
176
     0
 90
       50
176
     0
 90
        3
176
     0
 62
     5
420
      255
176
     0
290
     0
176
     0
 90
       50
176
     0
 90
       50
176
     0
 90
       50
176
     0
290
     0
176
     0
 90
       50
176
     0
 62
   256
176
     0
 40
1.0
176
     0
 90
        2
176
     0
  1
strokes_ogs.tif
176
     0
290
     0
176
     0
 40
1.0
176
     0
 40
1.0
176
     0
  0
VISUALSTYLE
  5
1FC7
102
{ACAD_REACTORS
330
1FB9
102
}
330
1FB9
100
AcDbVisualStyle
  2
Linepattern
 70
    14
177
     3
291
     1
 70
    58
 90
        2
176
     1
 90
        2
176
     1
 90
        0
176
     1
 90
        0
176
     1
 40
0.6
176
     1
 40
30.0
176
     1
 62
     7
420
 16777215
176
     1
 90
        1
176
     1
 90
        4
176
     1
 62
     7
176
     1
 62
   257
176
     1
 90
        7
176
     1
 90
        7
176
     1
 40
1.0
176
     1
 90
        8
176
     1
 62
     7
176
     1
 40
1.0
176
     1
 90
        1
176
     1
 90
        6
176
     1
 90
        2
176
     1
 62
     7
176
     1
 90
        5
176
     1
 90
        0
176
     1
 90
        0
176
     1
290
     0
176
     1
 90
        1
176
     1
 40
0.0
176
     1
 90
        0
176
     1
290
     0
176
     1
290
     1
176
     1
290
     1
176
     1
290
     0
176
     1
290
     0
176
     1
290
     0
176
     1
290
     0
176
     1
290
     0
176
     1
290
     0
176
     1
 90
       50
176
     1
 40
0.0
176
     1
 40
1.0
176
     1
 90
        0
176
     1
 62
    18
420
        0
176
     1
 90
       50
176
     1
 90
        3
176
     1
 62
     5
420
      255
176
     1
290
     0
176
     1
 90
       50
176
     1
 90
       50
176
     1
 90
       50
176
     1
290
     0
176
     1
 90
       50
176
     1
 62
   256
176
     0
 40
1.0
176
     0
 90
        2
176
     1
  1
strokes_ogs.tif
176
     1
290
     0
176
     1
 40
1.0
176
     1
 40
1.0
176
     1
  0
VISUALSTYLE
  5
1FCB
102
{ACAD_REACTORS
330
1FB9
102
}
330
1FB9
100
AcDbVisualStyle
  2
OverhangOff
 70
    21
177
     3
291
     1
 70
    58
 90
        2
176
     0
 90
        2
176
     0
 90
        0
176
     0
 90
        0
176
     0
 40
0.6
176
     0
 40
30.0
176
     0
 62
     7
420
 16777215
176
     0
 90
        1
176
     0
 90
        4
176
     0
 62
     7
176
     0
 62
   257
176
     0
 90
        1
176
     0
 90
        1
176
     0
 40
1.0
176
     0
 90
        9
176
     2
 62
     7
176
     0
 40
1.0
176
     0
 90
        1
176
     0
 90
        6
176
     0
 90
        2
176
     0
 62
     7
176
     0
 90
        5
176
     0
 90
        0
176
     0
 90
        0
176
     0
290
     0
176
     0
 90
        1
176
     0
 40
0.0
176
     0
 90
        0
176
     0
290
     0
176
     0
290
     1
176
     0
290
     1
176
     0
290
     0
176
     0
290
     0
176
     0
290
     0
176
     0
290
     0
176
     0
290
     0
176
     0
290
     0
176
     0
 90
       50
176
     0
 40
0.0
176
     0
 40
1.0
176
     0
 90
        0
176
     0
 62
    18
420
        0
176
     0
 90
       50
176
     0
 90
        3
176
     0
 62
     5
420
      255
176
     0
290
     0
176
     0
 90
       50
176
     0
 90
       50
176
     0
 90
       50
176
     0
290
     0
176
     0
 90
       50
176
     0
 62
   256
176
     0
 40
1.0
176
     0
 90
        2
176
     0
  1
strokes_ogs.tif
176
     0
290
     0
176
     0
 40
1.0
176
     0
 40
1.0
176
     0
  0
VISUALSTYLE
  5
1FC2
102
{ACAD_REACTORS
330
1FB9
102
}
330
1FB9
100
AcDbVisualStyle
  2
Realistic
 70
     8
177
     3
291
     0
 70
    58
 90
        2
176
     1
 90
        3
176
     1
 90
        0
176
     1
 90
        2
176
     1
 40
0.6
176
     1
 40
30.0
176
     1
 62
     7
420
 16777215
176
     1
 90
        0
176
     1
 90
        0
176
     1
 62
     7
176
     1
 62
   257
176
     1
 90
        1
176
     1
 90
        1
176
     1
 40
1.0
176
     1
 90
        8
176
     1
 62
   257
176
     1
 40
1.0
176
     1
 90
        1
176
     1
 90
        6
176
     1
 90
        2
176
     1
 62
     7
176
     1
 90
        3
176
     1
 90
        0
176
     1
 90
        0
176
     1
290
     0
176
     1
 90
       13
176
     1
 40
0.0
176
     1
 90
        0
176
     1
290
     0
176
     1
290
     1
176
     1
290
     1
176
     1
290
     0
176
     1
290
     0
176
     1
290
     0
176
     1
290
     0
176
     1
290
     0
176
     1
290
     0
176
     1
 90
       50
176
     1
 40
0.0
176
     1
 40
1.0
176
     1
 90
        0
176
     1
 62
    18
420
        0
176
     1
 90
       50
176
     1
 90
        3
176
     1
 62
     5
420
      255
176
     1
290
     0
176
     1
 90
       50
176
     1
 90
       50
176
     1
 90
       50
176
     1
290
     0
176
     1
 90
       50
176
     1
 62
   256
176
     0
 40
1.0
176
     0
 90
        2
176
     1
  1
strokes_ogs.tif
176
     1
290
     0
176
     1
 40
1.0
176
     1
 40
1.0
176
     1
  0
VISUALSTYLE
  5
1FD1
102
{ACAD_REACTORS
330
1FB9
102
}
330
1FB9
100
AcDbVisualStyle
  2
Shaded
 70
    27
177
     3
291
     0
 70
    58
 90
        2
176
     1
 90
        2
176
     1
 90
        1
176
     1
 90
        2
176
     1
 40
0.6
176
     1
 40
30.0
176
     1
 62
     7
420
 16777215
176
     1
 90
        0
176
     1
 90
        4
176
     1
 62
     7
176
     1
 62
   257
176
     1
 90
        1
176
     1
 90
        1
176
     1
 40
1.0
176
     1
 90
        8
176
     1
 62
   257
176
     1
 40
1.0
176
     1
 90
        1
176
     1
 90
        6
176
     1
 90
        2
176
     1
 62
     8
420
  7895160
176
     1
 90
        3
176
     1
 90
        0
176
     1
 90
        0
176
     1
290
     0
176
     1
 90
        5
176
     1
 40
0.0
176
     1
 90
        0
176
     1
290
     0
176
     1
290
     1
176
     1
290
     1
176
     1
290
     0
176
     1
290
     0
176
     1
290
     0
176
     1
290
     0
176
     1
290
     0
176
     1
290
     0
176
     1
 90
       50
176
     1
 40
0.0
176
     1
 40
1.0
176
     1
 90
        0
176
     1
 62
    18
420
        0
176
     1
 90
       50
176
     1
 90
        3
176
     1
 62
     5
420
      255
176
     1
290
     0
176
     1
 90
       50
176
     1
 90
       50
176
     1
 90
       50
176
     1
290
     0
176
     1
 90
       50
176
     1
 62
   256
176
     0
 40
1.0
176
     0
 90
        2
176
     1
  1
strokes_ogs.tif
176
     1
290
     0
176
     1
 40
1.0
176
     1
 40
1.0
176
     1
  0
VISUALSTYLE
  5
1FD0
102
{ACAD_REACTORS
330
1FB9
102
}
330
1FB9
100
AcDbVisualStyle
  2
Shaded with edges
 70
    26
177
     3
291
     0
 70
    58
 90
        2
176
     1
 90
        2
176
     1
 90
        1
176
     1
 90
        2
176
     1
 40
0.6
176
     1
 40
30.0
176
     1
 62
     7
420
 16777215
176
     1
 90
        1
176
     1
 90
       10
176
     1
 62
     7
176
     1
 62
   257
176
     1
 90
        2
176
     1
 90
        1
176
     1
 40
1.0
176
     1
 90
        8
176
     1
 62
   257
176
     1
 40
1.0
176
     1
 90
        1
176
     1
 90
        6
176
     1
 90
        2
176
     1
 62
     7
176
     1
 90
        3
176
     1
 90
        0
176
     1
 90
        0
176
     1
290
     0
176
     1
 90
        5
176
     1
 40
0.0
176
     1
 90
        0
176
     1
290
     0
176
     1
290
     1
176
     1
290
     1
176
     1
290
     0
176
     1
290
     0
176
     1
290
     0
176
     1
290
     0
176
     1
290
     0
176
     1
290
     0
176
     1
 90
       50
176
     1
 40
0.0
176
     1
 40
1.0
176
     1
 90
        0
176
     1
 62
    18
420
        0
176
     1
 90
       50
176
     1
 90
        3
176
     1
 62
     5
420
      255
176
     1
290
     0
176
     1
 90
       50
176
     1
 90
       50
176
     1
 90
       50
176
     1
290
     0
176
     1
 90
       50
176
     1
 62
   256
176
     0
 40
1.0
176
     0
 90
        2
176
     1
  1
strokes_ogs.tif
176
     1
290
     0
176
     1
 40
1.0
176
     1
 40
1.0
176
     1
  0
VISUALSTYLE
  5
1FCD
102
{ACAD_REACTORS
330
1FB9
102
}
330
1FB9
100
AcDbVisualStyle
  2
Shades of Gray
 70
    23
177
     3
291
     0
 70
    58
 90
        2
176
     1
 90
        2
176
     1
 90
        3
176
     1
 90
        0
176
     1
 40
0.6
176
     1
 40
30.0
176
     1
 62
     7
420
 16777215
176
     1
 90
        2
176
     1
 90
        2
176
     1
 62
     7
176
     1
 62
     7
176
     1
 90
        1
176
     1
 90
        1
176
     1
 40
40.0
176
     1
 90
        8
176
     1
 62
     7
176
     1
 40
1.0
176
     1
 90
        1
176
     1
 90
        6
176
     1
 90
        2
176
     1
 62
     7
176
     1
 90
        3
176
     1
 90
        0
176
     1
 90
        0
176
     1
290
     0
176
     1
 90
        1
176
     1
 40
0.0
176
     1
 90
        0
176
     1
290
     0
176
     1
290
     1
176
     1
290
     1
176
     1
290
     0
176
     1
290
     0
176
     1
290
     0
176
     1
290
     0
176
     1
290
     0
176
     1
290
     0
176
     1
 90
       50
176
     1
 40
0.0
176
     1
 40
1.0
176
     1
 90
        0
176
     1
 62
    18
420
        0
176
     1
 90
       50
176
     1
 90
        3
176
     1
 62
     5
420
      255
176
     1
290
     0
176
     1
 90
       50
176
     1
 90
       50
176
     1
 90
       50
176
     1
290
     0
176
     1
 90
       50
176
     1
 62
   256
176
     0
 40
1.0
176
     0
 90
        2
176
     1
  1
strokes_ogs.tif
176
     1
290
     0
176
     1
 40
1.0
176
     1
 40
1.0
176
     1
  0
VISUALSTYLE
  5
1FCE
102
{ACAD_REACTORS
330
1FB9
102
}
330
1FB9
100
AcDbVisualStyle
  2
Sketchy
 70
    24
177
     3
291
     0
 70
    58
 90
        1
176
     1
 90
        2
176
     1
 90
        2
176
     1
 90
        0
176
     1
 40
0.6
176
     1
 40
30.0
176
     1
 62
     7
420
 16777215
176
     1
 90
        2
176
     1
 90
        2
176
     1
 62
     7
176
     1
 62
     7
176
     1
 90
        1
176
     1
 90
        1
176
     1
 40
40.0
176
     1
 90
       11
176
     1
 62
     7
176
     1
 40
1.0
176
     1
 90
        1
176
     1
 90
        6
176
     1
 90
        2
176
     1
 62
     7
176
     1
 90
        6
176
     1
 90
        0
176
     1
 90
        0
176
     1
290
     0
176
     1
 90
        1
176
     1
 40
0.0
176
     1
 90
        0
176
     1
290
     0
176
     1
290
     1
176
     1
290
     1
176
     1
290
     0
176
     1
290
     0
176
     1
290
     0
176
     1
290
     0
176
     1
290
     0
176
     1
290
     0
176
     1
 90
       50
176
     1
 40
0.0
176
     1
 40
1.0
176
     1
 90
        0
176
     1
 62
    18
420
        0
176
     1
 90
       50
176
     1
 90
        3
176
     1
 62
     5
420
      255
176
     1
290
     0
176
     1
 90
       50
176
     1
 90
       50
176
     1
 90
       50
176
     1
290
     0
176
     1
 90
       50
176
     1
 62
   256
176
     0
 40
1.0
176
     0
 90
        2
176
     1
  1
strokes_ogs.tif
176
     1
290
     0
176
     1
 40
1.0
176
     1
 40
1.0
176
     1
  0
VISUALSTYLE
  5
1FC6
102
{ACAD_REACTORS
330
1FB9
102
}
330
1FB9
100
AcDbVisualStyle
  2
Thicken
 70
    13
177
     3
291
     1
 70
    58
 90
        2
176
     1
 90
        2
176
     1
 90
        0
176
     1
 90
        0
176
     1
 40
0.6
176
     1
 40
30.0
176
     1
 62
     7
420
 16777215
176
     1
 90
        1
176
     1
 90
        4
176
     1
 62
     7
176
     1
 62
   257
176
     1
 90
        1
176
     1
 90
        1
176
     1
 40
1.0
176
     1
 90
       12
176
     1
 62
     7
176
     1
 40
1.0
176
     1
 90
        1
176
     1
 90
        6
176
     1
 90
        2
176
     1
 62
     7
176
     1
 90
        5
176
     1
 90
        0
176
     1
 90
        0
176
     1
290
     0
176
     1
 90
        1
176
     1
 40
0.0
176
     1
 90
        0
176
     1
290
     0
176
     1
290
     1
176
     1
290
     1
176
     1
290
     0
176
     1
290
     0
176
     1
290
     0
176
     1
290
     0
176
     1
290
     0
176
     1
290
     0
176
     1
 90
       50
176
     1
 40
0.0
176
     1
 40
1.0
176
     1
 90
        0
176
     1
 62
    18
420
        0
176
     1
 90
       50
176
     1
 90
        3
176
     1
 62
     5
420
      255
176
     1
290
     0
176
     1
 90
       50
176
     1
 90
       50
176
     1
 90
       50
176
     1
290
     0
176
     1
 90
       50
176
     1
 62
   256
176
     0
 40
1.0
176
     0
 90
        2
176
     1
  1
strokes_ogs.tif
176
     1
290
     0
176
     1
 40
1.0
176
     1
 40
1.0
176
     1
  0
VISUALSTYLE
  5
1FBF
102
{ACAD_REACTORS
330
1FB9
102
}
330
1FB9
100
AcDbVisualStyle
  2
Wireframe
 70
     5
177
     3
291
     0
 70
    58
 90
        0
176
     1
 90
        2
176
     1
 90
        0
176
     1
 90
        0
176
     1
 40
0.6
176
     1
 40
30.0
176
     1
 62
     7
420
 16777215
176
     1
 90
        1
176
     1
 90
        4
176
     1
 62
     7
176
     1
 62
   257
176
     1
 90
        1
176
     1
 90
        1
176
     1
 40
1.0
176
     1
 90
        0
176
     1
 62
   257
176
     1
 40
1.0
176
     1
 90
        1
176
     1
 90
        6
176
     1
 90
        2
176
     1
 62
     7
176
     1
 90
        3
176
     1
 90
        0
176
     1
 90
        0
176
     1
290
     0
176
     1
 90
        1
176
     1
 40
0.0
176
     1
 90
        0
176
     1
290
     0
176
     1
290
     1
176
     1
290
     1
176
     1
290
     0
176
     1
290
     0
176
     1
290
     0
176
     1
290
     0
176
     1
290
     0
176
     1
290
     0
176
     1
 90
       50
176
     1
 40
0.0
176
     1
 40
1.0
176
     1
 90
        0
176
     1
 62
    18
420
        0
176
     1
 90
       50
176
     1
 90
        3
176
     1
 62
     5
420
      255
176
     1
290
     0
176
     1
 90
       50
176
     1
 90
       50
176
     1
 90
       50
176
     1
290
     0
176
     1
 90
       50
176
     1
 62
   256
176
     0
 40
1.0
176
     0
 90
        2
176
     1
  1
strokes_ogs.tif
176
     1
290
     0
176
     1
 40
1.0
176
     1
 40
1.0
176
     1
  0
VISUALSTYLE
  5
1FCF
102
{ACAD_REACTORS
330
1FB9
102
}
330
1FB9
100
AcDbVisualStyle
  2
X-Ray
 70
    25
177
     3
291
     0
 70
    58
 90
        2
176
     1
 90
        2
176
     1
 90
        1
176
     1
 90
        1
176
     1
 40
0.5
176
     1
 40
30.0
176
     1
 62
     7
420
 16777215
176
     1
 90
        1
176
     1
 90
        0
176
     1
 62
     7
176
     1
 62
   257
176
     1
 90
        1
176
     1
 90
        1
176
     1
 40
1.0
176
     1
 90
        8
176
     1
 62
     7
176
     1
 40
1.0
176
     1
 90
        1
176
     1
 90
        6
176
     1
 90
        2
176
     1
 62
     7
176
     1
 90
        3
176
     1
 90
        0
176
     1
 90
        0
176
     1
290
     0
176
     1
 90
       13
176
     1
 40
0.0
176
     1
 90
        0
176
     1
290
     0
176
     1
290
     1
176
     1
290
     1
176
     1
290
     0
176
     1
290
     0
176
     1
290
     0
176
     1
290
     0
176
     1
290
     0
176
     1
290
     0
176
     1
 90
       50
176
     1
 40
0.0
176
     1
 40
1.0
176
     1
 90
        0
176
     1
 62
    18
420
        0
176
     1
 90
       50
176
     1
 90
        3
176
     1
 62
     5
420
      255
176
     1
290
     0
176
     1
 90
       50
176
     1
 90
       50
176
     1
 90
       50
176
     1
290
     0
176
     1
 90
       50
176
     1
 62
   256
176
     0
 40
1.0
176
     0
 90
        2
176
     1
  1
strokes_ogs.tif
176
     1
290
     0
176
     1
 40
1.0
176
     1
 40
1.0
176
     1
  0
DICTIONARYVAR
  5
2077
102
{ACAD_REACTORS
330
2076
102
}
330
2076
100
DictionaryVariables
280
     0
  1
1:1
  0
DICTIONARYVAR
  5
207C
102
{ACAD_REACTORS
330
2076
102
}
330
2076
100
DictionaryVariables
280
     0
  1
Standard
  0
DICTIONARYVAR
  5
207B
102
{ACAD_REACTORS
330
2076
102
}
330
2076
100
DictionaryVariables
280
     0
  1
Standard
  0
XRECORD
  5
2000
102
{ACAD_REACTORS
330
1FFE
102
}
330
1FFE
100
AcDbXrecord
280
     1
290
     1
  0
XRECORD
  5
2001
102
{ACAD_REACTORS
330
1FFE
102
}
330
1FFE
100
AcDbXrecord
280
     1
290
     1
  0
XRECORD
  5
2002
102
{ACAD_REACTORS
330
1FFE
102
}
330
1FFE
100
AcDbXrecord
280
     1
290
     1
  0
XRECORD
  5
2003
102
{ACAD_REACTORS
330
1FFE
102
}
330
1FFE
100
AcDbXrecord
280
     1
290
     1
  0
XRECORD
  5
2004
102
{ACAD_REACTORS
330
1FFE
102
}
330
1FFE
100
AcDbXrecord
280
     1
1000
auto
  0
XRECORD
  5
2005
102
{ACAD_REACTORS
330
1FFE
102
}
330
1FFE
100
AcDbXrecord
280
     1
1000
auto
  0
XRECORD
  5
2006
102
{ACAD_REACTORS
330
1FFE
102
}
330
1FFE
100
AcDbXrecord
280
     1
1000
auto
  0
XRECORD
  5
2007
102
{ACAD_REACTORS
330
1FFE
102
}
330
1FFE
100
AcDbXrecord
280
     1
1000
auto
  0
XRECORD
  5
2008
102
{ACAD_REACTORS
330
1FFE
102
}
330
1FFE
100
AcDbXrecord
280
     1
1000
auto
  0
XRECORD
  5
2009
102
{ACAD_REACTORS
330
1FFE
102
}
330
1FFE
100
AcDbXrecord
280
     1
1000
auto
  0
XRECORD
  5
200A
102
{ACAD_REACTORS
330
1FFE
102
}
330
1FFE
100
AcDbXrecord
280
     1
1000
auto
  0
XRECORD
  5
200B
102
{ACAD_REACTORS
330
1FFE
102
}
330
1FFE
100
AcDbXrecord
280
     1
1000
auto
  0
XRECORD
  5
200C
102
{ACAD_REACTORS
330
1FFE
102
}
330
1FFE
100
AcDbXrecord
280
     1
290
     0
  0
XRECORD
  5
200D
102
{ACAD_REACTORS
330
1FFE
102
}
330
1FFE
100
AcDbXrecord
280
     1
290
     0
  0
XRECORD
  5
200E
102
{ACAD_REACTORS
330
1FFE
102
}
330
1FFE
100
AcDbXrecord
280
     1
290
     0
  0
XRECORD
  5
200F
102
{ACAD_REACTORS
330
1FFE
102
}
330
1FFE
100
AcDbXrecord
280
     1
290
     0
  0
XRECORD
  5
2010
102
{ACAD_REACTORS
330
1FFE
102
}
330
1FFE
100
AcDbXrecord
280
     1
 90
        0
  0
XRECORD
  5
2011
102
{ACAD_REACTORS
330
1FFE
102
}
330
1FFE
100
AcDbXrecord
280
     1
 90
        0
  0
XRECORD
  5
2012
102
{ACAD_REACTORS
330
1FFE
102
}
330
1FFE
100
AcDbXrecord
280
     1
 90
        0
  0
XRECORD
  5
2013
102
{ACAD_REACTORS
330
1FFE
102
}
330
1FFE
100
AcDbXrecord
280
     1
 90
        0
  0
XRECORD
  5
2014
102
{ACAD_REACTORS
330
1FFE
102
}
330
1FFE
100
AcDbXrecord
280
     1
1000
auto
  0
XRECORD
  5
2015
102
{ACAD_REACTORS
330
1FFE
102
}
330
1FFE
100
AcDbXrecord
280
     1
1000
auto
  0
XRECORD
  5
2016
102
{ACAD_REACTORS
330
1FFE
102
}
330
1FFE
100
AcDbXrecord
280
     1
1000
auto
  0
XRECORD
  5
2017
102
{ACAD_REACTORS
330
1FFE
102
}
330
1FFE
100
AcDbXrecord
280
     1
1000
auto
  0
XRECORD
  5
2018
102
{ACAD_REACTORS
330
1FFE
102
}
330
1FFE
100
AcDbXrecord
280
     1
1000
auto
  0
XRECORD
  5
2019
102
{ACAD_REACTORS
330
1FFE
102
}
330
1FFE
100
AcDbXrecord
280
     1
1000
auto
  0
XRECORD
  5
201A
102
{ACAD_REACTORS
330
1FFE
102
}
330
1FFE
100
AcDbXrecord
280
     1
1000
auto
  0
XRECORD
  5
201B
102
{ACAD_REACTORS
330
1FFE
102
}
330
1FFE
100
AcDbXrecord
280
     1
1000
auto
  0
XRECORD
  5
201C
102
{ACAD_REACTORS
330
1FFE
102
}
330
1FFE
100
AcDbXrecord
280
     1
 90
        1
  0
XRECORD
  5
201D
102
{ACAD_REACTORS
330
1FFE
102
}
330
1FFE
100
AcDbXrecord
280
     1
 40
10.0
  0
XRECORD
  5
201E
102
{ACAD_REACTORS
330
1FFE
102
}
330
1FFE
100
AcDbXrecord
280
     1
 40
10.0
  0
XRECORD
  5
201F
102
{ACAD_REACTORS
330
1FFE
102
}
330
1FFE
100
AcDbXrecord
280
     1
 40
10.0
  0
XRECORD
  5
2020
102
{ACAD_REACTORS
330
1FFE
102
}
330
1FFE
100
AcDbXrecord
280
     1
 40
10.0
  0
XRECORD
  5
2021
102
{ACAD_REACTORS
330
1FFE
102
}
330
1FFE
100
AcDbXrecord
280
     1
290
     0
  0
XRECORD
  5
2022
102
{ACAD_REACTORS
330
1FFE
102
}
330
1FFE
100
AcDbXrecord
280
     1
 90
        1
  0
XRECORD
  5
2023
102
{ACAD_REACTORS
330
1FFE
102
}
330
1FFE
100
AcDbXrecord
280
     1
 40
-96.49999999999994
  0
XRECORD
  5
2024
102
{ACAD_REACTORS
330
1FFE
102
}
330
1FFE
100
AcDbXrecord
280
     1
 40
-43.99999999999999
  0
XRECORD
  5
2025
102
{ACAD_REACTORS
330
1FFE
102
}
330
1FFE
100
AcDbXrecord
280
     1
1000
Landscape
  0
XRECORD
  5
2026
102
{ACAD_REACTORS
330
1FFE
102
}
330
1FFE
100
AcDbXrecord
280
     1
1000
420
  0
XRECORD
  5
2027
102
{ACAD_REACTORS
330
1FFE
102
}
330
1FFE
100
AcDbXrecord
280
     1
1000
ISO A3
  0
XRECORD
  5
2028
102
{ACAD_REACTORS
330
1FFE
102
}
330
1FFE
100
AcDbXrecord
280
     1
1000
297
  0
XRECORD
  5
2029
102
{ACAD_REACTORS
330
1FFE
102
}
330
1FFE
100
AcDbXrecord
280
     1
1000
1:1
  0
XRECORD
  5
202A
102
{ACAD_REACTORS
330
1FFE
102
}
330
1FFE
100
AcDbXrecord
280
     1
290
     1
  0
XRECORD
  5
202B
102
{ACAD_REACTORS
330
1FFE
102
}
330
1FFE
100
AcDbXrecord
280
     1
1000
3.7.7
  0
XRECORD
  5
202C
102
{ACAD_REACTORS
330
1FFE
102
}
330
1FFE
100
AcDbXrecord
280
     1
 90
        4
  0
DICTIONARY
  5
2078
330
1FF9
100
AcDbDictionary
280
     1
281
     1
  3
ACAD_ROUNDTRIP_2008_TABLESTYLE_CELLSTYLEMAP
360
2079
  0
CELLSTYLEMAP
  5
2079
102
{ACAD_REACTORS
330
2078
102
}
330
2078
100
AcDbCellStyleMap
 90
        3
300
CELLSTYLE
  1
TABLEFORMAT_BEGIN
 90
        5
170
     1
 91
        0
 92
    32768
 62
   257
 93
        1
300
CONTENTFORMAT
  1
CONTENTFORMAT_BEGIN
 90
        0
 91
        0
 92
        4
 93
        0
300

 40
0.0
140
1.0
 94
        5
 62
     0
340
1FA1
144
0.25
309
CONTENTFORMAT_END
171
     1
301
MARGIN
  1
CELLMARGIN_BEGIN
 40
0.06
 40
0.06
 40
0.06
 40
0.06
 40
0.06
 40
0.06
309
CELLMARGIN_END
 94
        6
 95
        1
302
GRIDFORMAT
  1
GRIDFORMAT_BEGIN
 90
        0
 91
        1
 62
     0
 92
       -2
340
1FA3
 93
        0
 40
0.045
309
GRIDFORMAT_END
 95
        2
302
GRIDFORMAT
  1
GRIDFORMAT_BEGIN
 90
        0
 91
        1
 62
     0
 92
       -2
340
1FA3
 93
        0
 40
0.045
309
GRIDFORMAT_END
 95
        4
302
GRIDFORMAT
  1
GRIDFORMAT_BEGIN
 90
        0
 91
        1
 62
     0
 92
       -2
340
1FA3
 93
        0
 40
0.045
309
GRIDFORMAT_END
 95
        8
302
GRIDFORMAT
  1
GRIDFORMAT_BEGIN
 90
        0
 91
        1
 62
     0
 92
       -2
340
1FA3
 93
        0
 40
0.045
309
GRIDFORMAT_END
 95
       16
302
GRIDFORMAT
  1
GRIDFORMAT_BEGIN
 90
        0
 91
        1
 62
     0
 92
       -2
340
1FA3
 93
        0
 40
0.045
309
GRIDFORMAT_END
 95
       32
302
GRIDFORMAT
  1
GRIDFORMAT_BEGIN
 90
        0
 91
        1
 62
     0
 92
       -2
340
1FA3
 93
        0
 40
0.045
309
GRIDFORMAT_END
309
TABLEFORMAT_END
  1
CELLSTYLE_BEGIN
 90
        1
 91
        1
300
_TITLE
309
CELLSTYLE_END
300
CELLSTYLE
  1
TABLEFORMAT_BEGIN
 90
        5
170
     1
 91
        0
 92
        0
 62
   257
 93
        1
300
CONTENTFORMAT
  1
CONTENTFORMAT_BEGIN
 90
        0
 91
        0
 92
        4
 93
        0
300

 40
0.0
140
1.0
 94
        5
 62
     0
340
1FA1
144
0.18
309
CONTENTFORMAT_END
171
     1
301
MARGIN
  1
CELLMARGIN_BEGIN
 40
0.06
 40
0.06
 40
0.06
 40
0.06
 40
0.06
 40
0.06
309
CELLMARGIN_END
 94
        6
 95
        1
302
GRIDFORMAT
  1
GRIDFORMAT_BEGIN
 90
        0
 91
        1
 62
     0
 92
       -2
340
1FA3
 93
        0
 40
0.045
309
GRIDFORMAT_END
 95
        2
302
GRIDFORMAT
  1
GRIDFORMAT_BEGIN
 90
        0
 91
        1
 62
     0
 92
       -2
340
1FA3
 93
        0
 40
0.045
309
GRIDFORMAT_END
 95
        4
302
GRIDFORMAT
  1
GRIDFORMAT_BEGIN
 90
        0
 91
        1
 62
     0
 92
       -2
340
1FA3
 93
        0
 40
0.045
309
GRIDFORMAT_END
 95
        8
302
GRIDFORMAT
  1
GRIDFORMAT_BEGIN
 90
        0
 91
        1
 62
     0
 92
       -2
340
1FA3
 93
        0
 40
0.045
309
GRIDFORMAT_END
 95
       16
302
GRIDFORMAT
  1
GRIDFORMAT_BEGIN
 90
        0
 91
        1
 62
     0
 92
       -2
340
1FA3
 93
        0
 40
0.045
309
GRIDFORMAT_END
 95
       32
302
GRIDFORMAT
  1
GRIDFORMAT_BEGIN
 90
        0
 91
        1
 62
     0
 92
       -2
340
1FA3
 93
        0
 40
0.045
309
GRIDFORMAT_END
309
TABLEFORMAT_END
  1
CELLSTYLE_BEGIN
 90
        2
 91
        1
300
_HEADER
309
CELLSTYLE_END
300
CELLSTYLE
  1
TABLEFORMAT_BEGIN
 90
        5
170
     1
 91
        0
 92
        0
 62
   257
 93
        1
300
CONTENTFORMAT
  1
CONTENTFORMAT_BEGIN
 90
        0
 91
        0
 92
        4
 93
        0
300

 40
0.0
140
1.0
 94
        2
 62
     0
340
1FA1
144
0.18
309
CONTENTFORMAT_END
171
     1
301
MARGIN
  1
CELLMARGIN_BEGIN
 40
0.06
 40
0.06
 40
0.06
 40
0.06
 40
0.06
 40
0.06
309
CELLMARGIN_END
 94
        6
 95
        1
302
GRIDFORMAT
  1
GRIDFORMAT_BEGIN
 90
        0
 91
        1
 62
     0
 92
       -2
340
1FA3
 93
        0
 40
0.045
309
GRIDFORMAT_END
 95
        2
302
GRIDFORMAT
  1
GRIDFORMAT_BEGIN
 90
        0
 91
        1
 62
     0
 92
       -2
340
1FA3
 93
        0
 40
0.045
309
GRIDFORMAT_END
 95
        4
302
GRIDFORMAT
  1
GRIDFORMAT_BEGIN
 90
        0
 91
        1
 62
     0
 92
       -2
340
1FA3
 93
        0
 40
0.045
309
GRIDFORMAT_END
 95
        8
302
GRIDFORMAT
  1
GRIDFORMAT_BEGIN
 90
        0
 91
        1
 62
     0
 92
       -2
340
1FA3
 93
        0
 40
0.045
309
GRIDFORMAT_END
 95
       16
302
GRIDFORMAT
  1
GRIDFORMAT_BEGIN
 90
        0
 91
        1
 62
     0
 92
       -2
340
1FA3
 93
        0
 40
0.045
309
GRIDFORMAT_END
 95
       32
302
GRIDFORMAT
  1
GRIDFORMAT_BEGIN
 90
        0
 91
        1
 62
     0
 92
       -2
340
1FA3
 93
        0
 40
0.045
309
GRIDFORMAT_END
309
TABLEFORMAT_END
  1
CELLSTYLE_BEGIN
 90
        3
 91
        2
300
_DATA
309
CELLSTYLE_END
  0
ENDSEC
  0
EOF
