  0
SECTION
  2
HEADER
  9
$ACADVER
  1
AC1027
  9
$ACADMAINTVER
 70
     8
  9
$DWGCODEPAGE
  3
ANSI_1252
  9
$REQUIREDVERSIONS
160
                 0
  9
$INSBASE
 10
0.0
 20
0.0
 30
0.0
  9
$EXTMIN
 10
1.000000000000000E+20
 20
1.000000000000000E+20
 30
1.000000000000000E+20
  9
$EXTMAX
 10
-1.000000000000000E+20
 20
-1.000000000000000E+20
 30
-1.000000000000000E+20
  9
$LIMMIN
 10
0.0
 20
0.0
  9
$LIMMAX
 10
12.0
 20
9.0
  9
$ORTHOMODE
 70
     0
  9
$REGENMODE
 70
     1
  9
$FILLMODE
 70
     1
  9
$QTEXTMODE
 70
     0
  9
$MIRRTEXT
 70
     1
  9
$LTSCALE
 40
1.0
  9
$ATTMODE
 70
     1
  9
$TEXTSIZE
 40
0.2
  9
$TRACEWID
 40
0.05
  9
$TEXTSTYLE
  7
Standard
  9
$CLAYER
  8
0
  9
$CELTYPE
  6
ByLayer
  9
$CECOLOR
 62
   256
  9
$CELTSCALE
 40
1.0
  9
$DISPSILH
 70
     0
  9
$DIMSCALE
 40
1.0
  9
$DIMASZ
 40
2.5
  9
$DIMEXO
 40
0.625
  9
$DIMDLI
 40
0.38
  9
$DIMRND
 40
0.0
  9
$DIMDLE
 40
0.0
  9
$DIMEXE
 40
1.25
  9
$DIMTP
 40
0.0
  9
$DIMTM
 40
0.0
  9
$DIMTXT
 40
2.5
  9
$DIMCEN
 40
0.09
  9
$DIMTSZ
 40
0.0
  9
$DIMTOL
 70
     0
  9
$DIMLIM
 70
     0
  9
$DIMTIH
 70
     1
  9
$DIMTOH
 70
     1
  9
$DIMSE1
 70
     0
  9
$DIMSE2
 70
     0
  9
$DIMTAD
 70
     0
  9
$DIMZIN
 70
     8
  9
$DIMBLK
  1

  9
$DIMASO
 70
     1
  9
$DIMSHO
 70
     1
  9
$DIMPOST
  1

  9
$DIMAPOST
  1

  9
$DIMALT
 70
     0
  9
$DIMALTD
 70
     2
  9
$DIMALTF
 40
25.4
  9
$DIMLFAC
 40
1.0
  9
$DIMTOFL
 70
     0
  9
$DIMTVP
 40
0.0
  9
$DIMTIX
 70
     0
  9
$DIMSOXD
 70
     0
  9
$DIMSAH
 70
     0
  9
$DIMBLK1
  1

  9
$DIMBLK2
  1

  9
$DIMSTYLE
  2
Standard
  9
$DIMCLRD
 70
     0
  9
$DIMCLRE
 70
     0
  9
$DIMCLRT
 70
     0
  9
$DIMTFAC
 40
1.0
  9
$DIMGAP
 40
0.625
  9
$DIMJUST
 70
     0
  9
$DIMSD1
 70
     0
  9
$DIMSD2
 70
     0
  9
$DIMTOLJ
 70
     1
  9
$DIMTZIN
 70
     0
  9
$DIMALTZ
 70
     0
  9
$DIMALTTZ
 70
     0
  9
$DIMUPT
 70
     0
  9
$DIMDEC
 70
     4
  9
$DIMTDEC
 70
     4
  9
$DIMALTU
 70
     2
  9
$DIMALTTD
 70
     2
  9
$DIMTXSTY
  7
Standard
  9
$DIMAUNIT
 70
     0
  9
$DIMADEC
 70
     0
  9
$DIMALTRND
 40
0.0
  9
$DIMAZIN
 70
     2
  9
$DIMDSEP
 70
    46
  9
$DIMATFIT
 70
     3
  9
$DIMFRAC
 70
     0
  9
$DIMLDRBLK
  1

  9
$DIMLUNIT
 70
     2
  9
$DIMLWD
 70
    -2
  9
$DIMLWE
 70
    -2
  9
$DIMTMOVE
 70
     0
  9
$DIMFXL
 40
1.0
  9
$DIMFXLON
 70
     0
  9
$DIMJOGANG
 40
0.7853981633974483
  9
$DIMTFILL
 70
     0
  9
$DIMTFILLCLR
 70
     0
  9
$DIMARCSYM
 70
     0
  9
$DIMLTYPE
  6

  9
$DIMLTEX1
  6

  9
$DIMLTEX2
  6

  9
$DIMTXTDIRECTION
 70
     0
  9
$LUNITS
 70
     2
  9
$LUPREC
 70
     4
  9
$SKETCHINC
 40
0.1
  9
$FILLETRAD
 40
0.5
  9
$AUNITS
 70
     0
  9
$AUPREC
 70
     0
  9
$MENU
  1
.
  9
$ELEVATION
 40
0.0
  9
$PELEVATION
 40
0.0
  9
$THICKNESS
 40
0.0
  9
$LIMCHECK
 70
     0
  9
$CHAMFERA
 40
0.0
  9
$CHAMFERB
 40
0.0
  9
$CHAMFERC
 40
0.0
  9
$CHAMFERD
 40
0.0
  9
$SKPOLY
 70
     0
  9
$TDCREATE
 40
2457060.73834478
  9
$TDUCREATE
 40
2457060.61334478
  9
$TDUPDATE
 40
2457060.738344966
  9
$TDUUPDATE
 40
2457060.613344966
  9
$TDINDWG
 40
0.0000000116
  9
$TDUSRTIMER
 40
0.0000000116
  9
$USRTIMER
 70
     1
  9
$ANGBASE
 50
0.0
  9
$ANGDIR
 70
     0
  9
$PDMODE
 70
     0
  9
$PDSIZE
 40
0.0
  9
$PLINEWID
 40
0.0
  9
$SPLFRAME
 70
     0
  9
$SPLINETYPE
 70
     6
  9
$SPLINESEGS
 70
     8
  9
$HANDSEED
  5
395
  9
$SURFTAB1
 70
     6
  9
$SURFTAB2
 70
     6
  9
$SURFTYPE
 70
     6
  9
$SURFU
 70
     6
  9
$SURFV
 70
     6
  9
$UCSBASE
  2

  9
$UCSNAME
  2

  9
$UCSORG
 10
0.0
 20
0.0
 30
0.0
  9
$UCSXDIR
 10
1.0
 20
0.0
 30
0.0
  9
$UCSYDIR
 10
0.0
 20
1.0
 30
0.0
  9
$UCSORTHOREF
  2

  9
$UCSORTHOVIEW
 70
     0
  9
$UCSORGTOP
 10
0.0
 20
0.0
 30
0.0
  9
$UCSORGBOTTOM
 10
0.0
 20
0.0
 30
0.0
  9
$UCSORGLEFT
 10
0.0
 20
0.0
 30
0.0
  9
$UCSORGRIGHT
 10
0.0
 20
0.0
 30
0.0
  9
$UCSORGFRONT
 10
0.0
 20
0.0
 30
0.0
  9
$UCSORGBACK
 10
0.0
 20
0.0
 30
0.0
  9
$PUCSBASE
  2

  9
$PUCSNAME
  2

  9
$PUCSORG
 10
0.0
 20
0.0
 30
0.0
  9
$PUCSXDIR
 10
1.0
 20
0.0
 30
0.0
  9
$PUCSYDIR
 10
0.0
 20
1.0
 30
0.0
  9
$PUCSORTHOREF
  2

  9
$PUCSORTHOVIEW
 70
     0
  9
$PUCSORGTOP
 10
0.0
 20
0.0
 30
0.0
  9
$PUCSORGBOTTOM
 10
0.0
 20
0.0
 30
0.0
  9
$PUCSORGLEFT
 10
0.0
 20
0.0
 30
0.0
  9
$PUCSORGRIGHT
 10
0.0
 20
0.0
 30
0.0
  9
$PUCSORGFRONT
 10
0.0
 20
0.0
 30
0.0
  9
$PUCSORGBACK
 10
0.0
 20
0.0
 30
0.0
  9
$USERI1
 70
     0
  9
$USERI2
 70
     0
  9
$USERI3
 70
     0
  9
$USERI4
 70
     0
  9
$USERI5
 70
     0
  9
$USERR1
 40
0.0
  9
$USERR2
 40
0.0
  9
$USERR3
 40
0.0
  9
$USERR4
 40
0.0
  9
$USERR5
 40
0.0
  9
$WORLDVIEW
 70
     1
  9
$SHADEDGE
 70
     3
  9
$SHADEDIF
 70
    70
  9
$TILEMODE
 70
     1
  9
$MAXACTVP
 70
    64
  9
$PINSBASE
 10
0.0
 20
0.0
 30
0.0
  9
$PLIMCHECK
 70
     0
  9
$PEXTMIN
 10
1.000000000000000E+20
 20
1.000000000000000E+20
 30
1.000000000000000E+20
  9
$PEXTMAX
 10
-1.000000000000000E+20
 20
-1.000000000000000E+20
 30
-1.000000000000000E+20
  9
$PLIMMIN
 10
0.0
 20
0.0
  9
$PLIMMAX
 10
12.0
 20
9.0
  9
$UNITMODE
 70
     0
  9
$VISRETAIN
 70
     1
  9
$PLINEGEN
 70
     0
  9
$PSLTSCALE
 70
     1
  9
$TREEDEPTH
 70
  3020
  9
$CMLSTYLE
  2
Standard
  9
$CMLJUST
 70
     0
  9
$CMLSCALE
 40
1.0
  9
$PROXYGRAPHICS
 70
     1
  9
$MEASUREMENT
 70
     1
  9
$CELWEIGHT
370
    -1
  9
$ENDCAPS
280
     0
  9
$JOINSTYLE
280
     0
  9
$LWDISPLAY
290
     0
  9
$INSUNITS
 70
     4
  9
$HYPERLINKBASE
  1

  9
$STYLESHEET
  1

  9
$XEDIT
290
     1
  9
$CEPSNTYPE
380
     0
  9
$PSTYLEMODE
290
     1
  9
$FINGERPRINTGUID
  2
{7CCFB868-56B3-4CFE-B03E-781B1552C852}
  9
$VERSIONGUID
  2
{FAEB1C32-E019-11D5-929B-00C0DF256EC4}
  9
$EXTNAMES
290
     1
  9
$PSVPSCALE
 40
0.0
  9
$OLESTARTUP
290
     0
  9
$SORTENTS
280
   127
  9
$INDEXCTL
280
     0
  9
$HIDETEXT
280
     1
  9
$XCLIPFRAME
280
     2
  9
$HALOGAP
280
     0
  9
$OBSCOLOR
 70
   257
  9
$OBSLTYPE
280
     0
  9
$INTERSECTIONDISPLAY
280
     0
  9
$INTERSECTIONCOLOR
 70
   257
  9
$DIMASSOC
280
     2
  9
$PROJECTNAME
  1

  9
$CAMERADISPLAY
290
     0
  9
$LENSLENGTH
 40
50.0
  9
$CAMERAHEIGHT
 40
0.0
  9
$STEPSPERSEC
 40
2.0
  9
$STEPSIZE
 40
6.0
  9
$3DDWFPREC
 40
2.0
  9
$PSOLWIDTH
 40
0.25
  9
$PSOLHEIGHT
 40
4.0
  9
$LOFTANG1
 40
1.570796326794897
  9
$LOFTANG2
 40
1.570796326794897
  9
$LOFTMAG1
 40
0.0
  9
$LOFTMAG2
 40
0.0
  9
$LOFTPARAM
 70
     7
  9
$LOFTNORMALS
280
     1
  9
$LATITUDE
 40
37.795
  9
$LONGITUDE
 40
-122.394
  9
$NORTHDIRECTION
 40
0.0
  9
$TIMEZONE
 70
 -8000
  9
$LIGHTGLYPHDISPLAY
280
     1
  9
$TILEMODELIGHTSYNCH
280
     1
  9
$CMATERIAL
347
2F8
  9
$SOLIDHIST
280
     0
  9
$SHOWHIST
280
     1
  9
$DWFFRAME
280
     2
  9
$DGNFRAME
280
     2
  9
$REALWORLDSCALE
290
     1
  9
$INTERFERECOLOR
 62
   256
  9
$CSHADOW
280
     0
  9
$SHADOWPLANELOCATION
 40
0.0
  0
ENDSEC
  0
SECTION
  2
CLASSES
  0
CLASS
  1
ACDBDICTIONARYWDFLT
  2
AcDbDictionaryWithDefault
  3
ObjectDBX Classes
 90
        0
 91
        4
280
     0
281
     0
  0
CLASS
  1
VISUALSTYLE
  2
AcDbVisualStyle
  3
ObjectDBX Classes
 90
     4095
 91
        4
280
     0
281
     0
  0
CLASS
  1
MATERIAL
  2
AcDbMaterial
  3
ObjectDBX Classes
 90
     1153
 91
        4
280
     0
281
     0
  0
CLASS
  1
SCALE
  2
AcDbScale
  3
ObjectDBX Classes
 90
     1153
 91
        4
280
     0
281
     0
  0
CLASS
  1
TABLESTYLE
  2
AcDbTableStyle
  3
ObjectDBX Classes
 90
     4095
 91
        4
280
     0
281
     0
  0
CLASS
  1
MLEADERSTYLE
  2
AcDbMLeaderStyle
  3
ACDB_MLEADERSTYLE_CLASS
 90
     4095
 91
        4
280
     0
281
     0
  0
CLASS
  1
SUN
  2
AcDbSun
  3
SCENEOE
 90
     1153
 91
        4
280
     0
281
     0
  0
CLASS
  1
DICTIONARYVAR
  2
AcDbDictionaryVar
  3
ObjectDBX Classes
 90
        0
 91
        4
280
     0
281
     0
  0
CLASS
  1
CELLSTYLEMAP
  2
AcDbCellStyleMap
  3
ObjectDBX Classes
 90
     1152
 91
        4
280
     0
281
     0
  0
ENDSEC
  0
SECTION
  2
TABLES
  0
TABLE
  2
VPORT
  5
2BD
330
0
100
AcDbSymbolTable
 70
     1
  0
VPORT
  5
2DD
330
2BD
100
AcDbSymbolTableRecord
100
AcDbViewportTableRecord
  2
*Active
 70
     0
 10
0.0
 20
0.0
 11
1.0
 21
1.0
 12
10.42990654205607
 22
4.5
 13
0.0
 23
0.0
 14
0.5
 24
0.5
 15
0.5
 25
0.5
 16
0.0
 26
0.0
 36
1.0
 17
0.0
 27
0.0
 37
0.0
 40
9.0
 41
1.972972972850329
 42
50.0
 43
0.0
 44
0.0
 50
0.0
 51
0.0
 71
     0
 72
   100
 73
     1
 74
     3
 75
     0
 76
     0
 77
     0
 78
     0
281
     0
 65
     1
110
0.0
120
0.0
130
0.0
111
1.0
121
0.0
131
0.0
112
0.0
122
1.0
132
0.0
 79
     0
146
0.0
 60
     3
 61
     5
292
     1
282
     1
141
0.0
142
0.0
 63
   250
361
321
  0
ENDTAB
  0
TABLE
  2
LTYPE
  5
2BA
330
0
100
AcDbSymbolTable
 70
    48
  0
LTYPE
  5
2C8
330
2BA
100
AcDbSymbolTableRecord
100
AcDbLinetypeTableRecord
  2
ByBlock
 70
     0
  3

 72
    65
 73
     0
 40
0.0
  0
LTYPE
  5
2C9
330
2BA
100
AcDbSymbolTableRecord
100
AcDbLinetypeTableRecord
  2
ByLayer
 70
     0
  3

 72
    65
 73
     0
 40
0.0
  0
LTYPE
  5
2CA
330
2BA
100
AcDbSymbolTableRecord
100
AcDbLinetypeTableRecord
  2
Continuous
 70
     0
  3
Solid line
 72
    65
 73
     0
 40
0.0
  0
LTYPE
  5
351
330
2BA
100
AcDbSymbolTableRecord
100
AcDbLinetypeTableRecord
  2
ACAD_ISO02W100
 70
     0
  3
ISO dash __ __ __ __ __ __ __ __ __ __ __ __ __
 72
    65
 73
     2
 40
15.0
 49
12.0
 74
     0
 49
-3.0
 74
     0
  0
LTYPE
  5
352
330
2BA
100
AcDbSymbolTableRecord
100
AcDbLinetypeTableRecord
  2
ACAD_ISO03W100
 70
     0
  3
ISO dash space __    __    __    __    __    __
 72
    65
 73
     2
 40
30.0
 49
12.0
 74
     0
 49
-18.0
 74
     0
  0
LTYPE
  5
353
330
2BA
100
AcDbSymbolTableRecord
100
AcDbLinetypeTableRecord
  2
ACAD_ISO04W100
 70
     0
  3
ISO long-dash dot ____ . ____ . ____ . ____ . _
 72
    65
 73
     4
 40
30.0
 49
24.0
 74
     0
 49
-3.0
 74
     0
 49
0.0
 74
     0
 49
-3.0
 74
     0
  0
LTYPE
  5
354
330
2BA
100
AcDbSymbolTableRecord
100
AcDbLinetypeTableRecord
  2
ACAD_ISO05W100
 70
     0
  3
ISO long-dash double-dot ____ .. ____ .. ____ . 
 72
    65
 73
     6
 40
33.0
 49
24.0
 74
     0
 49
-3.0
 74
     0
 49
0.0
 74
     0
 49
-3.0
 74
     0
 49
0.0
 74
     0
 49
-3.0
 74
     0
  0
LTYPE
  5
355
330
2BA
100
AcDbSymbolTableRecord
100
AcDbLinetypeTableRecord
  2
ACAD_ISO06W100
 70
     0
  3
ISO long-dash triple-dot ____ ... ____ ... ____
 72
    65
 73
     8
 40
36.0
 49
24.0
 74
     0
 49
-3.0
 74
     0
 49
0.0
 74
     0
 49
-3.0
 74
     0
 49
0.0
 74
     0
 49
-3.0
 74
     0
 49
0.0
 74
     0
 49
-3.0
 74
     0
  0
LTYPE
  5
356
330
2BA
100
AcDbSymbolTableRecord
100
AcDbLinetypeTableRecord
  2
ACAD_ISO07W100
 70
     0
  3
ISO dot . . . . . . . . . . . . . . . . . . . . 
 72
    65
 73
     2
 40
3.0
 49
0.0
 74
     0
 49
-3.0
 74
     0
  0
LTYPE
  5
357
330
2BA
100
AcDbSymbolTableRecord
100
AcDbLinetypeTableRecord
  2
ACAD_ISO08W100
 70
     0
  3
ISO long-dash short-dash ____ __ ____ __ ____ _
 72
    65
 73
     4
 40
36.0
 49
24.0
 74
     0
 49
-3.0
 74
     0
 49
6.0
 74
     0
 49
-3.0
 74
     0
  0
LTYPE
  5
358
330
2BA
100
AcDbSymbolTableRecord
100
AcDbLinetypeTableRecord
  2
ACAD_ISO09W100
 70
     0
  3
ISO long-dash double-short-dash ____ __ __ ____
 72
    65
 73
     6
 40
45.0
 49
24.0
 74
     0
 49
-3.0
 74
     0
 49
6.0
 74
     0
 49
-3.0
 74
     0
 49
6.0
 74
     0
 49
-3.0
 74
     0
  0
LTYPE
  5
359
330
2BA
100
AcDbSymbolTableRecord
100
AcDbLinetypeTableRecord
  2
ACAD_ISO10W100
 70
     0
  3
ISO dash dot __ . __ . __ . __ . __ . __ . __ . 
 72
    65
 73
     4
 40
18.0
 49
12.0
 74
     0
 49
-3.0
 74
     0
 49
0.0
 74
     0
 49
-3.0
 74
     0
  0
LTYPE
  5
35A
330
2BA
100
AcDbSymbolTableRecord
100
AcDbLinetypeTableRecord
  2
ACAD_ISO11W100
 70
     0
  3
ISO double-dash dot __ __ . __ __ . __ __ . __ _
 72
    65
 73
     6
 40
33.0
 49
12.0
 74
     0
 49
-3.0
 74
     0
 49
12.0
 74
     0
 49
-3.0
 74
     0
 49
0.0
 74
     0
 49
-3.0
 74
     0
  0
LTYPE
  5
35B
330
2BA
100
AcDbSymbolTableRecord
100
AcDbLinetypeTableRecord
  2
ACAD_ISO12W100
 70
     0
  3
ISO dash double-dot __ . . __ . . __ . . __ . . 
 72
    65
 73
     6
 40
21.0
 49
12.0
 74
     0
 49
-3.0
 74
     0
 49
0.0
 74
     0
 49
-3.0
 74
     0
 49
0.0
 74
     0
 49
-3.0
 74
     0
  0
LTYPE
  5
35C
330
2BA
100
AcDbSymbolTableRecord
100
AcDbLinetypeTableRecord
  2
ACAD_ISO13W100
 70
     0
  3
ISO double-dash double-dot __ __ . . __ __ . . _
 72
    65
 73
     8
 40
36.0
 49
12.0
 74
     0
 49
-3.0
 74
     0
 49
12.0
 74
     0
 49
-3.0
 74
     0
 49
0.0
 74
     0
 49
-3.0
 74
     0
 49
0.0
 74
     0
 49
-3.0
 74
     0
  0
LTYPE
  5
35D
330
2BA
100
AcDbSymbolTableRecord
100
AcDbLinetypeTableRecord
  2
ACAD_ISO14W100
 70
     0
  3
ISO dash triple-dot __ . . . __ . . . __ . . . _
 72
    65
 73
     8
 40
24.0
 49
12.0
 74
     0
 49
-3.0
 74
     0
 49
0.0
 74
     0
 49
-3.0
 74
     0
 49
0.0
 74
     0
 49
-3.0
 74
     0
 49
0.0
 74
     0
 49
-3.0
 74
     0
  0
LTYPE
  5
35E
330
2BA
100
AcDbSymbolTableRecord
100
AcDbLinetypeTableRecord
  2
ACAD_ISO15W100
 70
     0
  3
ISO double-dash triple-dot __ __ . . . __ __ . .
 72
    65
 73
    10
 40
39.0
 49
12.0
 74
     0
 49
-3.0
 74
     0
 49
12.0
 74
     0
 49
-3.0
 74
     0
 49
0.0
 74
     0
 49
-3.0
 74
     0
 49
0.0
 74
     0
 49
-3.0
 74
     0
 49
0.0
 74
     0
 49
-3.0
 74
     0
  0
LTYPE
  5
361
330
2BA
100
AcDbSymbolTableRecord
100
AcDbLinetypeTableRecord
  2
BATTING
 70
     0
  3
Batting SSSSSSSSSSSSSSSSSSSSSSSSSSSSSSSSSSSSSSSSSSSSSSS
 72
    65
 73
     4
 40
10.16254
 49
0.00254
 74
     0
 49
-2.54
 74
     2
 75
     0
340
35F
 46
2.54
 50
0.0
 44
-2.54
 45
0.0
  9
BAT
 49
-5.08
 74
     2
 75
     0
340
360
 46
2.54
 50
180.0
 44
2.54
 45
0.0
  9
BAT
 49
-2.54
 74
     0
  0
LTYPE
  5
362
330
2BA
100
AcDbSymbolTableRecord
100
AcDbLinetypeTableRecord
  2
BORDER
 70
     0
  3
Border __ __ . __ __ . __ __ . __ __ . __ __ .
 72
    65
 73
     6
 40
44.45
 49
12.7
 74
     0
 49
-6.35
 74
     0
 49
12.7
 74
     0
 49
-6.35
 74
     0
 49
0.0
 74
     0
 49
-6.35
 74
     0
  0
LTYPE
  5
363
330
2BA
100
AcDbSymbolTableRecord
100
AcDbLinetypeTableRecord
  2
BORDER2
 70
     0
  3
Border (.5x) __.__.__.__.__.__.__.__.__.__.__.
 72
    65
 73
     6
 40
22.225
 49
6.35
 74
     0
 49
-3.175
 74
     0
 49
6.35
 74
     0
 49
-3.175
 74
     0
 49
0.0
 74
     0
 49
-3.175
 74
     0
  0
LTYPE
  5
364
330
2BA
100
AcDbSymbolTableRecord
100
AcDbLinetypeTableRecord
  2
BORDERX2
 70
     0
  3
Border (2x) ____  ____  .  ____  ____  .  ___
 72
    65
 73
     6
 40
88.89999999999999
 49
25.4
 74
     0
 49
-12.7
 74
     0
 49
25.4
 74
     0
 49
-12.7
 74
     0
 49
0.0
 74
     0
 49
-12.7
 74
     0
  0
LTYPE
  5
365
330
2BA
100
AcDbSymbolTableRecord
100
AcDbLinetypeTableRecord
  2
CENTER
 70
     0
  3
Center ____ _ ____ _ ____ _ ____ _ ____ _ ____
 72
    65
 73
     4
 40
50.8
 49
31.75
 74
     0
 49
-6.35
 74
     0
 49
6.35
 74
     0
 49
-6.35
 74
     0
  0
LTYPE
  5
366
330
2BA
100
AcDbSymbolTableRecord
100
AcDbLinetypeTableRecord
  2
CENTER2
 70
     0
  3
Center (.5x) ___ _ ___ _ ___ _ ___ _ ___ _ ___
 72
    65
 73
     4
 40
28.575
 49
19.05
 74
     0
 49
-3.175
 74
     0
 49
3.175
 74
     0
 49
-3.175
 74
     0
  0
LTYPE
  5
367
330
2BA
100
AcDbSymbolTableRecord
100
AcDbLinetypeTableRecord
  2
CENTERX2
 70
     0
  3
Center (2x) ________  __  ________  __  _____
 72
    65
 73
     4
 40
101.6
 49
63.5
 74
     0
 49
-12.7
 74
     0
 49
12.7
 74
     0
 49
-12.7
 74
     0
  0
LTYPE
  5
368
330
2BA
100
AcDbSymbolTableRecord
100
AcDbLinetypeTableRecord
  2
DASHDOT
 70
     0
  3
Dash dot __ . __ . __ . __ . __ . __ . __ . __
 72
    65
 73
     4
 40
25.4
 49
12.7
 74
     0
 49
-6.35
 74
     0
 49
0.0
 74
     0
 49
-6.35
 74
     0
  0
LTYPE
  5
369
330
2BA
100
AcDbSymbolTableRecord
100
AcDbLinetypeTableRecord
  2
DASHDOT2
 70
     0
  3
Dash dot (.5x) _._._._._._._._._._._._._._._.
 72
    65
 73
     4
 40
12.7
 49
6.35
 74
     0
 49
-3.175
 74
     0
 49
0.0
 74
     0
 49
-3.175
 74
     0
  0
LTYPE
  5
36A
330
2BA
100
AcDbSymbolTableRecord
100
AcDbLinetypeTableRecord
  2
DASHDOTX2
 70
     0
  3
Dash dot (2x) ____  .  ____  .  ____  .  ___
 72
    65
 73
     4
 40
50.8
 49
25.4
 74
     0
 49
-12.7
 74
     0
 49
0.0
 74
     0
 49
-12.7
 74
     0
  0
LTYPE
  5
36B
330
2BA
100
AcDbSymbolTableRecord
100
AcDbLinetypeTableRecord
  2
DASHED
 70
     0
  3
Dashed __ __ __ __ __ __ __ __ __ __ __ __ __ _
 72
    65
 73
     2
 40
19.05
 49
12.7
 74
     0
 49
-6.35
 74
     0
  0
LTYPE
  5
36C
330
2BA
100
AcDbSymbolTableRecord
100
AcDbLinetypeTableRecord
  2
DASHED2
 70
     0
  3
Dashed (.5x) _ _ _ _ _ _ _ _ _ _ _ _ _ _ _ _ _ 
 72
    65
 73
     2
 40
9.524999999999999
 49
6.35
 74
     0
 49
-3.175
 74
     0
  0
LTYPE
  5
36D
330
2BA
100
AcDbSymbolTableRecord
100
AcDbLinetypeTableRecord
  2
DASHEDX2
 70
     0
  3
Dashed (2x) ____  ____  ____  ____  ____  ___
 72
    65
 73
     2
 40
38.09999999999999
 49
25.4
 74
     0
 49
-12.7
 74
     0
  0
LTYPE
  5
36E
330
2BA
100
AcDbSymbolTableRecord
100
AcDbLinetypeTableRecord
  2
DIVIDE
 70
     0
  3
Divide ____ . . ____ . . ____ . . ____ . . ____
 72
    65
 73
     6
 40
31.75
 49
12.7
 74
     0
 49
-6.35
 74
     0
 49
0.0
 74
     0
 49
-6.35
 74
     0
 49
0.0
 74
     0
 49
-6.35
 74
     0
  0
LTYPE
  5
36F
330
2BA
100
AcDbSymbolTableRecord
100
AcDbLinetypeTableRecord
  2
DIVIDE2
 70
     0
  3
Divide (.5x) __..__..__..__..__..__..__..__.._
 72
    65
 73
     6
 40
15.875
 49
6.35
 74
     0
 49
-3.175
 74
     0
 49
0.0
 74
     0
 49
-3.175
 74
     0
 49
0.0
 74
     0
 49
-3.175
 74
     0
  0
LTYPE
  5
370
330
2BA
100
AcDbSymbolTableRecord
100
AcDbLinetypeTableRecord
  2
DIVIDEX2
 70
     0
  3
Divide (2x) ________  .  .  ________  .  .  _
 72
    65
 73
     6
 40
63.5
 49
25.4
 74
     0
 49
-12.7
 74
     0
 49
0.0
 74
     0
 49
-12.7
 74
     0
 49
0.0
 74
     0
 49
-12.7
 74
     0
  0
LTYPE
  5
371
330
2BA
100
AcDbSymbolTableRecord
100
AcDbLinetypeTableRecord
  2
DOT
 70
     0
  3
Dot . . . . . . . . . . . . . . . . . . . . . . . .
 72
    65
 73
     2
 40
6.35
 49
0.0
 74
     0
 49
-6.35
 74
     0
  0
LTYPE
  5
372
330
2BA
100
AcDbSymbolTableRecord
100
AcDbLinetypeTableRecord
  2
DOT2
 70
     0
  3
Dot (.5x) ........................................
 72
    65
 73
     2
 40
3.175
 49
0.0
 74
     0
 49
-3.175
 74
     0
  0
LTYPE
  5
373
330
2BA
100
AcDbSymbolTableRecord
100
AcDbLinetypeTableRecord
  2
DOTX2
 70
     0
  3
Dot (2x) .  .  .  .  .  .  .  .  .  .  .  .  .  .
 72
    65
 73
     2
 40
12.7
 49
0.0
 74
     0
 49
-12.7
 74
     0
  0
LTYPE
  5
375
330
2BA
100
AcDbSymbolTableRecord
100
AcDbLinetypeTableRecord
  2
DRAINAGE
 70
     0
  3
Drainage ---->---->---->----
 72
    65
 73
     2
 40
10.16
 49
5.08
 74
     2
 75
     0
340
374
 46
2.54
 50
180.0
 44
0.0
 45
0.0
  9
RIGHT_ARROW
 49
5.08
 74
     0
  0
LTYPE
  5
377
330
2BA
100
AcDbSymbolTableRecord
100
AcDbLinetypeTableRecord
  2
DRAINAGE2
 70
     0
  3
Drainage reversed----<----<----<----
 72
    65
 73
     2
 40
10.16
 49
5.08
 74
     2
 75
     0
340
376
 46
2.54
 50
0.0
 44
0.0
 45
0.0
  9
RIGHT_ARROW
 49
5.08
 74
     0
  0
LTYPE
  5
379
330
2BA
100
AcDbSymbolTableRecord
100
AcDbLinetypeTableRecord
  2
FENCELINE1
 70
     0
  3
Fenceline circle ----0-----0----0-----0----0-----0--
 72
    65
 73
     4
 40
36.83
 49
6.35
 74
     0
 49
-2.54
 74
     2
 75
     0
340
378
 46
2.54
 50
0.0
 44
-2.54
 45
0.0
  9
CIRC1
 49
-2.54
 74
     0
 49
25.4
 74
     0
  0
LTYPE
  5
37B
330
2BA
100
AcDbSymbolTableRecord
100
AcDbLinetypeTableRecord
  2
FENCELINE2
 70
     0
  3
Fenceline square ----[]-----[]----[]-----[]----[]---
 72
    65
 73
     4
 40
36.83
 49
6.35
 74
     0
 49
-2.54
 74
     2
 75
     0
340
37A
 46
2.54
 50
0.0
 44
-2.54
 45
0.0
  9
BOX
 49
-2.54
 74
     0
 49
25.4
 74
     0
  0
LTYPE
  5
37D
330
2BA
100
AcDbSymbolTableRecord
100
AcDbLinetypeTableRecord
  2
GAS_LINE
 70
     0
  3
Gas line ----GAS----GAS----GAS----GAS----GAS----GAS--
 72
    65
 73
     3
 40
24.13
 49
12.7
 74
     0
 49
-5.08
 74
     2
 75
     0
340
37C
 46
2.54
 50
0.0
 44
-2.54
 45
-1.27
  9
GAS
 49
-6.35
 74
     0
  0
LTYPE
  5
37E
330
2BA
100
AcDbSymbolTableRecord
100
AcDbLinetypeTableRecord
  2
HIDDEN
 70
     0
  3
Hidden __ __ __ __ __ __ __ __ __ __ __ __ __ __
 72
    65
 73
     2
 40
9.524999999999999
 49
6.35
 74
     0
 49
-3.175
 74
     0
  0
LTYPE
  5
37F
330
2BA
100
AcDbSymbolTableRecord
100
AcDbLinetypeTableRecord
  2
HIDDEN2
 70
     0
  3
Hidden (.5x) _ _ _ _ _ _ _ _ _ _ _ _ _ _ _ _ _ 
 72
    65
 73
     2
 40
4.762499999999999
 49
3.175
 74
     0
 49
-1.5875
 74
     0
  0
LTYPE
  5
380
330
2BA
100
AcDbSymbolTableRecord
100
AcDbLinetypeTableRecord
  2
HIDDENX2
 70
     0
  3
Hidden (2x) ____ ____ ____ ____ ____ ____ ____ 
 72
    65
 73
     2
 40
19.05
 49
12.7
 74
     0
 49
-6.35
 74
     0
  0
LTYPE
  5
382
330
2BA
100
AcDbSymbolTableRecord
100
AcDbLinetypeTableRecord
  2
HOT_WATER_SUPPLY
 70
     0
  3
Hot water supply ---- HW ---- HW ---- HW ----
 72
    65
 73
     3
 40
22.86
 49
12.7
 74
     0
 49
-5.08
 74
     2
 75
     0
340
381
 46
2.54
 50
0.0
 44
-2.54
 45
-1.27
  9
HW
 49
-5.08
 74
     0
  0
LTYPE
  5
383
330
2BA
100
AcDbSymbolTableRecord
100
AcDbLinetypeTableRecord
  2
PHANTOM
 70
     0
  3
Phantom ______  __  __  ______  __  __  ______ 
 72
    65
 73
     6
 40
63.50000000000001
 49
31.75
 74
     0
 49
-6.35
 74
     0
 49
6.35
 74
     0
 49
-6.35
 74
     0
 49
6.35
 74
     0
 49
-6.35
 74
     0
  0
LTYPE
  5
384
330
2BA
100
AcDbSymbolTableRecord
100
AcDbLinetypeTableRecord
  2
PHANTOM2
 70
     0
  3
Phantom (.5x) ___ _ _ ___ _ _ ___ _ _ ___ _ _
 72
    65
 73
     6
 40
31.75
 49
15.875
 74
     0
 49
-3.175
 74
     0
 49
3.175
 74
     0
 49
-3.175
 74
     0
 49
3.175
 74
     0
 49
-3.175
 74
     0
  0
LTYPE
  5
385
330
2BA
100
AcDbSymbolTableRecord
100
AcDbLinetypeTableRecord
  2
PHANTOMX2
 70
     0
  3
Phantom (2x) ____________    ____    ____   _
 72
    65
 73
     6
 40
127.0
 49
63.5
 74
     0
 49
-12.7
 74
     0
 49
12.7
 74
     0
 49
-12.7
 74
     0
 49
12.7
 74
     0
 49
-12.7
 74
     0
  0
LTYPE
  5
387
330
2BA
100
AcDbSymbolTableRecord
100
AcDbLinetypeTableRecord
  2
TRACKS
 70
     0
  3
Tracks -|-|-|-|-|-|-|-|-|-|-|-|-|-|-|-|-|-|-|-|-|-|-|-|-
 72
    65
 73
     2
 40
7.62
 49
3.81
 74
     2
 75
     0
340
386
 46
6.35
 50
0.0
 44
0.0
 45
0.0
  9
TRACK1
 49
3.81
 74
     0
  0
LTYPE
  5
38A
330
2BA
100
AcDbSymbolTableRecord
100
AcDbLinetypeTableRecord
  2
ZIGZAG
 70
     0
  3
Zig zag /\/\/\/\/\/\/\/\/\/\/\/\/\/\/\/\/\/\/\/\/\/\/\/
 72
    65
 73
     4
 40
20.32254
 49
0.00254
 74
     0
 49
-5.08
 74
     2
 75
     0
340
388
 46
5.08
 50
0.0
 44
-5.08
 45
0.0
  9
ZIG
 49
-10.16
 74
     2
 75
     0
340
389
 46
5.08
 50
180.0
 44
5.08
 45
0.0
  9
ZIG
 49
-5.08
 74
     0
  0
ENDTAB
  0
TABLE
  2
LAYER
  5
2B7
330
0
100
AcDbSymbolTable
 70
     2
  0
LAYER
  5
2C5
330
2B7
100
AcDbSymbolTableRecord
100
AcDbLayerTableRecord
  2
0
 70
     0
 62
     7
420
 16777215
  6
Continuous
370
    25
390
2C4
347
2FA
348
0
  0
LAYER
  5
38B
330
2B7
100
AcDbSymbolTableRecord
100
AcDbLayerTableRecord
  2
lazerCut
 70
     0
 62
     1
420
 16711680
  6
Continuous
370
     0
390
2C4
347
2FA
348
0
  0
ENDTAB
  0
TABLE
  2
STYLE
  5
2B8
330
0
100
AcDbSymbolTable
 70
    12
  0
STYLE
  5
2C6
330
2B8
100
AcDbSymbolTableRecord
100
AcDbTextStyleTableRecord
  2
Standard
 70
     0
 40
0.0
 41
1.0
 50
0.0
 71
     0
 42
0.2
  3
txt
  4

  0
STYLE
  5
35F
330
2B8
100
AcDbSymbolTableRecord
100
AcDbTextStyleTableRecord
  2
textstyle0
 70
     0
 40
0.0
 41
1.0
 50
0.0
 71
     0
 42
0.2
  3
ltypeshp.shx
  4

  0
STYLE
  5
360
330
2B8
100
AcDbSymbolTableRecord
100
AcDbTextStyleTableRecord
  2
textstyle1
 70
     0
 40
0.0
 41
1.0
 50
0.0
 71
     0
 42
0.2
  3
ltypeshp.shx
  4

  0
STYLE
  5
374
330
2B8
100
AcDbSymbolTableRecord
100
AcDbTextStyleTableRecord
  2
textstyle2
 70
     0
 40
0.0
 41
1.0
 50
0.0
 71
     0
 42
0.2
  3
qcadshp.shx
  4

  0
STYLE
  5
376
330
2B8
100
AcDbSymbolTableRecord
100
AcDbTextStyleTableRecord
  2
textstyle3
 70
     0
 40
0.0
 41
1.0
 50
0.0
 71
     0
 42
0.2
  3
qcadshp.shx
  4

  0
STYLE
  5
378
330
2B8
100
AcDbSymbolTableRecord
100
AcDbTextStyleTableRecord
  2
textstyle4
 70
     0
 40
0.0
 41
1.0
 50
0.0
 71
     0
 42
0.2
  3
ltypeshp.shx
  4

  0
STYLE
  5
37A
330
2B8
100
AcDbSymbolTableRecord
100
AcDbTextStyleTableRecord
  2
textstyle5
 70
     0
 40
0.0
 41
1.0
 50
0.0
 71
     0
 42
0.2
  3
ltypeshp.shx
  4

  0
STYLE
  5
37C
330
2B8
100
AcDbSymbolTableRecord
100
AcDbTextStyleTableRecord
  2
textstyle6
 70
     0
 40
0.0
 41
1.0
 50
0.0
 71
     0
 42
0.2
  3
STANDARD
  4

  0
STYLE
  5
381
330
2B8
100
AcDbSymbolTableRecord
100
AcDbTextStyleTableRecord
  2
textstyle7
 70
     0
 40
0.0
 41
1.0
 50
0.0
 71
     0
 42
0.2
  3
STANDARD
  4

  0
STYLE
  5
386
330
2B8
100
AcDbSymbolTableRecord
100
AcDbTextStyleTableRecord
  2
textstyle8
 70
     0
 40
0.0
 41
1.0
 50
0.0
 71
     0
 42
0.2
  3
ltypeshp.shx
  4

  0
STYLE
  5
388
330
2B8
100
AcDbSymbolTableRecord
100
AcDbTextStyleTableRecord
  2
textstyle9
 70
     0
 40
0.0
 41
1.0
 50
0.0
 71
     0
 42
0.2
  3
ltypeshp.shx
  4

  0
STYLE
  5
389
330
2B8
100
AcDbSymbolTableRecord
100
AcDbTextStyleTableRecord
  2
textstyle10
 70
     0
 40
0.0
 41
1.0
 50
0.0
 71
     0
 42
0.2
  3
ltypeshp.shx
  4

  0
ENDTAB
  0
TABLE
  2
VIEW
  5
2BB
330
0
100
AcDbSymbolTable
 70
     0
  0
ENDTAB
  0
TABLE
  2
UCS
  5
2BC
330
0
100
AcDbSymbolTable
 70
     0
  0
ENDTAB
  0
TABLE
  2
APPID
  5
2BE
330
0
100
AcDbSymbolTable
 70
     2
  0
APPID
  5
2C7
330
2BE
100
AcDbSymbolTableRecord
100
AcDbRegAppTableRecord
  2
ACAD
 70
     0
  0
APPID
  5
322
330
2BE
100
AcDbSymbolTableRecord
100
AcDbRegAppTableRecord
  2
QCAD
 70
     0
  0
ENDTAB
  0
TABLE
  2
DIMSTYLE
  5
2BF
330
0
100
AcDbSymbolTable
 70
     2
100
AcDbDimStyleTable
  0
DIMSTYLE
105
2DB
330
2BF
100
AcDbSymbolTableRecord
100
AcDbDimStyleTableRecord
  2
Standard
 70
     0
178
     0
340
2C6
  0
DIMSTYLE
105
350
330
2BF
100
AcDbSymbolTableRecord
100
AcDbDimStyleTableRecord
  2
QCADDimStyle
 70
     0
 41
2.5
 42
0.625
 44
1.25
 73
     0
 77
     1
140
2.5
147
0.625
178
     0
340
2C6
  0
ENDTAB
  0
TABLE
  2
BLOCK_RECORD
  5
2B6
330
0
100
AcDbSymbolTable
 70
     1
  0
BLOCK_RECORD
  5
2D3
330
2B6
100
AcDbSymbolTableRecord
100
AcDbBlockTableRecord
  2
*Model_Space
340
2D6
 70
     0
280
     1
281
     0
  0
BLOCK_RECORD
  5
2CF
330
2B6
100
AcDbSymbolTableRecord
100
AcDbBlockTableRecord
  2
*Paper_Space
340
2D2
 70
     0
280
     1
281
     0
  0
BLOCK_RECORD
  5
2D7
330
2B6
100
AcDbSymbolTableRecord
100
AcDbBlockTableRecord
  2
*Paper_Space0
340
2DA
 70
     0
280
     1
281
     0
  0
ENDTAB
  0
ENDSEC
  0
SECTION
  2
BLOCKS
  0
BLOCK
  5
2D4
330
2D3
100
AcDbEntity
  8
0
100
AcDbBlockBegin
  2
*Model_Space
 70
     0
 10
0.0
 20
0.0
 30
0.0
  3
*Model_Space
  1
*Model_Space
  0
ENDBLK
  5
2D5
330
2D3
100
AcDbEntity
  8
0
100
AcDbBlockEnd
  0
BLOCK
  5
2D0
330
2CF
100
AcDbEntity
 67
     1
  8
0
100
AcDbBlockBegin
  2
*Paper_Space
 70
     0
 10
0.0
 20
0.0
 30
0.0
  3
*Paper_Space
  1
*Paper_Space
  0
ENDBLK
  5
2D1
330
2CF
100
AcDbEntity
 67
     1
  8
0
100
AcDbBlockEnd
  0
BLOCK
  5
2D8
330
2D7
100
AcDbEntity
  8
0
100
AcDbBlockBegin
  2
*Paper_Space0
 70
     0
 10
0.0
 20
0.0
 30
0.0
  3
*Paper_Space0
  1
*Paper_Space0
  0
ENDBLK
  5
2D9
330
2D7
100
AcDbEntity
  8
0
100
AcDbBlockEnd
  0
ENDSEC
  0
SECTION
  2
ENTITIES
  0
CIRCLE
  5
36
330
2D3
100
AcDbEntity
  8
lazerCut
370
     0
100
AcDbCircle
 10
64.99999999999946
 20
154.9999999999999
 30
0.0
 40
1.5
  0
LINE
  5
37
330
2D3
100
AcDbEntity
  8
lazerCut
370
     0
100
AcDbLine
 10
66.50000000000009
 20
134.9999999999999
 30
0.0
 11
66.50000000000009
 21
144.9999999999999
 31
0.0
  0
LINE
  5
38
330
2D3
100
AcDbEntity
  8
lazerCut
370
     0
100
AcDbLine
 10
63.50000000000023
 20
144.9999999999999
 30
0.0
 11
63.50000000000037
 21
134.9999999999999
 31
0.0
  0
LINE
  5
39
330
2D3
100
AcDbEntity
  8
lazerCut
370
     0
100
AcDbLine
 10
75.0000000000002
 20
153.4999999999999
 30
0.0
 11
84.99999999999997
 21
153.4999999999999
 31
0.0
  0
LINE
  5
3A
330
2D3
100
AcDbEntity
  8
lazerCut
370
     0
100
AcDbLine
 10
85.00000000000009
 20
156.4999999999999
 30
0.0
 11
74.99999999999997
 21
156.4999999999999
 31
0.0
  0
LINE
  5
3B
330
2D3
100
AcDbEntity
  8
lazerCut
370
     0
100
AcDbLine
 10
45.00000000000009
 20
153.4999999999999
 30
0.0
 11
54.99999999999997
 21
153.4999999999999
 31
0.0
  0
LINE
  5
3C
330
2D3
100
AcDbEntity
  8
lazerCut
370
     0
100
AcDbLine
 10
55.00000000000003
 20
156.5
 30
0.0
 11
45.0
 21
156.4999999999999
 31
0.0
  0
ARC
  5
3D
330
2D3
100
AcDbEntity
  8
lazerCut
370
     0
100
AcDbCircle
 10
45.00000000000003
 20
154.9999999999999
 30
0.0
 40
1.5
100
AcDbArc
 50
90.00000000000001
 51
270.0
  0
ARC
  5
3E
330
2D3
100
AcDbEntity
  8
lazerCut
370
     0
100
AcDbCircle
 10
55.00000000000009
 20
154.9999999999999
 30
0.0
 40
1.5
100
AcDbArc
 50
270.0
 51
90.00000000000001
  0
ARC
  5
3F
330
2D3
100
AcDbEntity
  8
lazerCut
370
     0
100
AcDbCircle
 10
64.99999999999952
 20
144.9999999999999
 30
0.0
 40
1.5
100
AcDbArc
 50
0.0
 51
180.0
  0
ARC
  5
40
330
2D3
100
AcDbEntity
  8
lazerCut
370
     0
100
AcDbCircle
 10
64.99999999999969
 20
134.9999999999999
 30
0.0
 40
1.5
100
AcDbArc
 50
180.0
 51
0.0
  0
ARC
  5
41
330
2D3
100
AcDbEntity
  8
lazerCut
370
     0
100
AcDbCircle
 10
84.99999999999991
 20
154.9999999999999
 30
0.0
 40
1.5
100
AcDbArc
 50
270.0
 51
90.00000000000001
  0
ARC
  5
42
330
2D3
100
AcDbEntity
  8
lazerCut
370
     0
100
AcDbCircle
 10
74.99999999999986
 20
154.9999999999999
 30
0.0
 40
1.5
100
AcDbArc
 50
90.00000000000001
 51
270.0
  0
LINE
  5
43
330
2D3
100
AcDbEntity
  8
lazerCut
370
     0
100
AcDbLine
 10
75.00000000000003
 20
123.4999999999999
 30
0.0
 11
85.00000000000003
 21
123.5
 31
0.0
  0
LINE
  5
44
330
2D3
100
AcDbEntity
  8
lazerCut
370
     0
100
AcDbLine
 10
85.00000000000003
 20
126.5
 30
0.0
 11
74.99999999999997
 21
126.5
 31
0.0
  0
ARC
  5
45
330
2D3
100
AcDbEntity
  8
lazerCut
370
     0
100
AcDbCircle
 10
74.99999999999991
 20
125.0
 30
0.0
 40
1.5
100
AcDbArc
 50
90.00000000000001
 51
270.0
  0
ARC
  5
46
330
2D3
100
AcDbEntity
  8
lazerCut
370
     0
100
AcDbCircle
 10
85.00000000000009
 20
125.0
 30
0.0
 40
1.5
100
AcDbArc
 50
270.0
 51
90.00000000000001
  0
CIRCLE
  5
47
330
2D3
100
AcDbEntity
  8
lazerCut
370
     0
100
AcDbCircle
 10
74.99999999999997
 20
134.9999999999999
 30
0.0
 40
1.5
  0
CIRCLE
  5
48
330
2D3
100
AcDbEntity
  8
lazerCut
370
     0
100
AcDbCircle
 10
84.99999999999991
 20
134.9999999999999
 30
0.0
 40
1.5
  0
CIRCLE
  5
49
330
2D3
100
AcDbEntity
  8
lazerCut
370
     0
100
AcDbCircle
 10
84.99999999999997
 20
144.9999999999999
 30
0.0
 40
1.5
  0
CIRCLE
  5
4A
330
2D3
100
AcDbEntity
  8
lazerCut
370
     0
100
AcDbCircle
 10
75.00000000000003
 20
144.9999999999999
 30
0.0
 40
1.5
  0
LINE
  5
4B
330
2D3
100
AcDbEntity
  8
lazerCut
370
     0
100
AcDbLine
 10
15.00000000000006
 20
93.49999999999997
 30
0.0
 11
25.00000000000009
 21
93.49999999999987
 31
0.0
  0
LINE
  5
4C
330
2D3
100
AcDbEntity
  8
lazerCut
370
     0
100
AcDbLine
 10
25.00000000000003
 20
96.49999999999993
 30
0.0
 11
15.00000000000009
 21
96.49999999999986
 31
0.0
  0
ARC
  5
4D
330
2D3
100
AcDbEntity
  8
lazerCut
370
     0
100
AcDbCircle
 10
25.00000000000009
 20
94.99999999999994
 30
0.0
 40
1.5
100
AcDbArc
 50
270.0
 51
90.00000000000001
  0
ARC
  5
4E
330
2D3
100
AcDbEntity
  8
lazerCut
370
     0
100
AcDbCircle
 10
15.00000000000006
 20
95.0
 30
0.0
 40
1.5
100
AcDbArc
 50
90.00000000000001
 51
270.0
  0
LINE
  5
4F
330
2D3
100
AcDbEntity
  8
lazerCut
370
     0
100
AcDbLine
 10
15.0
 20
153.4999999999999
 30
0.0
 11
25.00000000000006
 21
153.4999999999999
 31
0.0
  0
LINE
  5
50
330
2D3
100
AcDbEntity
  8
lazerCut
370
     0
100
AcDbLine
 10
25.0
 20
156.4999999999998
 30
0.0
 11
15.00000000000003
 21
156.4999999999999
 31
0.0
  0
ARC
  5
51
330
2D3
100
AcDbEntity
  8
lazerCut
370
     0
100
AcDbCircle
 10
25.0
 20
154.9999999999999
 30
0.0
 40
1.5
100
AcDbArc
 50
270.0
 51
90.00000000000001
  0
ARC
  5
52
330
2D3
100
AcDbEntity
  8
lazerCut
370
     0
100
AcDbCircle
 10
15.00000000000003
 20
154.9999999999999
 30
0.0
 40
1.5
100
AcDbArc
 50
90.00000000000001
 51
270.0
  0
CIRCLE
  5
53
330
2D3
100
AcDbEntity
  8
lazerCut
370
     0
100
AcDbCircle
 10
35.0
 20
125.0
 30
0.0
 40
1.5
  0
LINE
  5
54
330
2D3
100
AcDbEntity
  8
lazerCut
370
     0
100
AcDbLine
 10
36.49999999999997
 20
104.9999999999999
 30
0.0
 11
36.50000000000009
 21
114.9999999999999
 31
0.0
  0
LINE
  5
55
330
2D3
100
AcDbEntity
  8
lazerCut
370
     0
100
AcDbLine
 10
33.50000000000003
 20
114.9999999999999
 30
0.0
 11
33.50000000000003
 21
104.9999999999999
 31
0.0
  0
LINE
  5
56
330
2D3
100
AcDbEntity
  8
lazerCut
370
     0
100
AcDbLine
 10
33.50000000000009
 20
144.9999999999999
 30
0.0
 11
33.50000000000009
 21
134.9999999999999
 31
0.0
  0
LINE
  5
57
330
2D3
100
AcDbEntity
  8
lazerCut
370
     0
100
AcDbLine
 10
36.50000000000009
 20
134.9999999999999
 30
0.0
 11
36.50000000000009
 21
144.9999999999999
 31
0.0
  0
LINE
  5
58
330
2D3
100
AcDbEntity
  8
lazerCut
370
     0
100
AcDbLine
 10
45.0
 20
123.4999999999999
 30
0.0
 11
55.00000000000009
 21
123.4999999999999
 31
0.0
  0
LINE
  5
59
330
2D3
100
AcDbEntity
  8
lazerCut
370
     0
100
AcDbLine
 10
55.00000000000009
 20
126.4999999999999
 30
0.0
 11
45.00000000000003
 21
126.4999999999999
 31
0.0
  0
LINE
  5
5A
330
2D3
100
AcDbEntity
  8
lazerCut
370
     0
100
AcDbLine
 10
15.00000000000003
 20
123.4999999999999
 30
0.0
 11
25.00000000000009
 21
123.4999999999999
 31
0.0
  0
LINE
  5
5B
330
2D3
100
AcDbEntity
  8
lazerCut
370
     0
100
AcDbLine
 10
25.00000000000009
 20
126.4999999999999
 30
0.0
 11
15.00000000000003
 21
126.5
 31
0.0
  0
ARC
  5
5C
330
2D3
100
AcDbEntity
  8
lazerCut
370
     0
100
AcDbCircle
 10
15.00000000000006
 20
124.9999999999999
 30
0.0
 40
1.5
100
AcDbArc
 50
90.00000000000001
 51
270.0
  0
ARC
  5
5D
330
2D3
100
AcDbEntity
  8
lazerCut
370
     0
100
AcDbCircle
 10
25.0
 20
124.9999999999999
 30
0.0
 40
1.5
100
AcDbArc
 50
270.0
 51
90.00000000000001
  0
ARC
  5
5E
330
2D3
100
AcDbEntity
  8
lazerCut
370
     0
100
AcDbCircle
 10
35.00000000000006
 20
114.9999999999998
 30
0.0
 40
1.5
100
AcDbArc
 50
0.0
 51
180.0
  0
ARC
  5
5F
330
2D3
100
AcDbEntity
  8
lazerCut
370
     0
100
AcDbCircle
 10
35.00000000000003
 20
104.9999999999999
 30
0.0
 40
1.5
100
AcDbArc
 50
180.0
 51
0.0
  0
ARC
  5
60
330
2D3
100
AcDbEntity
  8
lazerCut
370
     0
100
AcDbCircle
 10
55.00000000000014
 20
124.9999999999999
 30
0.0
 40
1.5
100
AcDbArc
 50
270.0
 51
90.00000000000001
  0
ARC
  5
61
330
2D3
100
AcDbEntity
  8
lazerCut
370
     0
100
AcDbCircle
 10
45.00000000000003
 20
124.9999999999999
 30
0.0
 40
1.5
100
AcDbArc
 50
90.00000000000001
 51
270.0
  0
ARC
  5
62
330
2D3
100
AcDbEntity
  8
lazerCut
370
     0
100
AcDbCircle
 10
35.00000000000009
 20
134.9999999999999
 30
0.0
 40
1.5
100
AcDbArc
 50
180.0
 51
0.0
  0
ARC
  5
63
330
2D3
100
AcDbEntity
  8
lazerCut
370
     0
100
AcDbCircle
 10
35.00000000000003
 20
144.9999999999999
 30
0.0
 40
1.5
100
AcDbArc
 50
0.0
 51
180.0
  0
CIRCLE
  5
64
330
2D3
100
AcDbEntity
  8
lazerCut
370
     0
100
AcDbCircle
 10
14.99999999999997
 20
105.0
 30
0.0
 40
1.5
  0
CIRCLE
  5
65
330
2D3
100
AcDbEntity
  8
lazerCut
370
     0
100
AcDbCircle
 10
25.00000000000006
 20
105.0
 30
0.0
 40
1.5
  0
CIRCLE
  5
66
330
2D3
100
AcDbEntity
  8
lazerCut
370
     0
100
AcDbCircle
 10
25.00000000000003
 20
114.9999999999999
 30
0.0
 40
1.5
  0
CIRCLE
  5
67
330
2D3
100
AcDbEntity
  8
lazerCut
370
     0
100
AcDbCircle
 10
15.00000000000003
 20
114.9999999999998
 30
0.0
 40
1.5
  0
CIRCLE
  5
68
330
2D3
100
AcDbEntity
  8
lazerCut
370
     0
100
AcDbCircle
 10
15.00000000000009
 20
134.9999999999999
 30
0.0
 40
1.5
  0
CIRCLE
  5
69
330
2D3
100
AcDbEntity
  8
lazerCut
370
     0
100
AcDbCircle
 10
25.00000000000003
 20
134.9999999999999
 30
0.0
 40
1.5
  0
CIRCLE
  5
6A
330
2D3
100
AcDbEntity
  8
lazerCut
370
     0
100
AcDbCircle
 10
24.99999999999991
 20
144.9999999999999
 30
0.0
 40
1.5
  0
CIRCLE
  5
6B
330
2D3
100
AcDbEntity
  8
lazerCut
370
     0
100
AcDbCircle
 10
15.00000000000009
 20
144.9999999999999
 30
0.0
 40
1.5
  0
CIRCLE
  5
6C
330
2D3
100
AcDbEntity
  8
lazerCut
370
     0
100
AcDbCircle
 10
65.0000000000002
 20
94.99999999999987
 30
0.0
 40
1.5
  0
LINE
  5
6D
330
2D3
100
AcDbEntity
  8
lazerCut
370
     0
100
AcDbLine
 10
63.49999999999991
 20
114.9999999999999
 30
0.0
 11
63.50000000000011
 21
105.0
 31
0.0
  0
LINE
  5
6E
330
2D3
100
AcDbEntity
  8
lazerCut
370
     0
100
AcDbLine
 10
66.50000000000009
 20
104.9999999999999
 30
0.0
 11
66.50000000000009
 21
115.0
 31
0.0
  0
LINE
  5
6F
330
2D3
100
AcDbEntity
  8
lazerCut
370
     0
100
AcDbLine
 10
75.00000000000003
 20
93.49999999999996
 30
0.0
 11
85.00000000000003
 21
93.49999999999993
 31
0.0
  0
LINE
  5
70
330
2D3
100
AcDbEntity
  8
lazerCut
370
     0
100
AcDbLine
 10
85.00000000000003
 20
96.49999999999996
 30
0.0
 11
75.00000000000003
 21
96.49999999999989
 31
0.0
  0
LINE
  5
71
330
2D3
100
AcDbEntity
  8
lazerCut
370
     0
100
AcDbLine
 10
45.00000000000009
 20
93.4999999999999
 30
0.0
 11
55.00000000000009
 21
93.49999999999996
 31
0.0
  0
LINE
  5
72
330
2D3
100
AcDbEntity
  8
lazerCut
370
     0
100
AcDbLine
 10
55.00000000000009
 20
96.49999999999999
 30
0.0
 11
45.00000000000003
 21
96.49999999999999
 31
0.0
  0
ARC
  5
73
330
2D3
100
AcDbEntity
  8
lazerCut
370
     0
100
AcDbCircle
 10
45.0
 20
94.9999999999999
 30
0.0
 40
1.5
100
AcDbArc
 50
90.00000000000001
 51
270.0
  0
ARC
  5
74
330
2D3
100
AcDbEntity
  8
lazerCut
370
     0
100
AcDbCircle
 10
55.00000000000009
 20
94.99999999999996
 30
0.0
 40
1.5
100
AcDbArc
 50
270.0
 51
90.00000000000001
  0
ARC
  5
75
330
2D3
100
AcDbEntity
  8
lazerCut
370
     0
100
AcDbCircle
 10
85.00000000000009
 20
94.99999999999996
 30
0.0
 40
1.5
100
AcDbArc
 50
270.0
 51
90.00000000000001
  0
ARC
  5
76
330
2D3
100
AcDbEntity
  8
lazerCut
370
     0
100
AcDbCircle
 10
75.00000000000003
 20
94.99999999999994
 30
0.0
 40
1.5
100
AcDbArc
 50
90.00000000000001
 51
270.0
  0
ARC
  5
77
330
2D3
100
AcDbEntity
  8
lazerCut
370
     0
100
AcDbCircle
 10
65.00000000000014
 20
104.9999999999999
 30
0.0
 40
1.5
100
AcDbArc
 50
180.0
 51
0.0
  0
ARC
  5
78
330
2D3
100
AcDbEntity
  8
lazerCut
370
     0
100
AcDbCircle
 10
64.99999999999986
 20
114.9999999999999
 30
0.0
 40
1.5
100
AcDbArc
 50
0.0
 51
180.0
  0
CIRCLE
  5
79
330
2D3
100
AcDbEntity
  8
lazerCut
370
     0
100
AcDbCircle
 10
35.00000000000006
 20
94.99999999999986
 30
0.0
 40
1.5
  0
CIRCLE
  5
7A
330
2D3
100
AcDbEntity
  8
lazerCut
370
     0
100
AcDbCircle
 10
45.00000000000006
 20
105.0
 30
0.0
 40
1.5
  0
CIRCLE
  5
7B
330
2D3
100
AcDbEntity
  8
lazerCut
370
     0
100
AcDbCircle
 10
55.0
 20
104.9999999999999
 30
0.0
 40
1.5
  0
CIRCLE
  5
7C
330
2D3
100
AcDbEntity
  8
lazerCut
370
     0
100
AcDbCircle
 10
55.00000000000006
 20
115.0
 30
0.0
 40
1.5
  0
CIRCLE
  5
7D
330
2D3
100
AcDbEntity
  8
lazerCut
370
     0
100
AcDbCircle
 10
45.00000000000003
 20
114.9999999999999
 30
0.0
 40
1.5
  0
CIRCLE
  5
7E
330
2D3
100
AcDbEntity
  8
lazerCut
370
     0
100
AcDbCircle
 10
35.00000000000009
 20
154.9999999999999
 30
0.0
 40
1.5
  0
CIRCLE
  5
7F
330
2D3
100
AcDbEntity
  8
lazerCut
370
     0
100
AcDbCircle
 10
64.9999999999998
 20
124.9999999999999
 30
0.0
 40
1.5
  0
CIRCLE
  5
80
330
2D3
100
AcDbEntity
  8
lazerCut
370
     0
100
AcDbCircle
 10
55.0000000000002
 20
134.9999999999999
 30
0.0
 40
1.5
  0
CIRCLE
  5
81
330
2D3
100
AcDbEntity
  8
lazerCut
370
     0
100
AcDbCircle
 10
55.00000000000009
 20
144.9999999999999
 30
0.0
 40
1.5
  0
CIRCLE
  5
82
330
2D3
100
AcDbEntity
  8
lazerCut
370
     0
100
AcDbCircle
 10
44.99999999999997
 20
144.9999999999999
 30
0.0
 40
1.5
  0
CIRCLE
  5
83
330
2D3
100
AcDbEntity
  8
lazerCut
370
     0
100
AcDbCircle
 10
45.00000000000009
 20
134.9999999999999
 30
0.0
 40
1.5
  0
CIRCLE
  5
84
330
2D3
100
AcDbEntity
  8
lazerCut
370
     0
100
AcDbCircle
 10
74.99999999999997
 20
104.9999999999999
 30
0.0
 40
1.5
  0
CIRCLE
  5
85
330
2D3
100
AcDbEntity
  8
lazerCut
370
     0
100
AcDbCircle
 10
85.00000000000003
 20
104.9999999999999
 30
0.0
 40
1.5
  0
CIRCLE
  5
86
330
2D3
100
AcDbEntity
  8
lazerCut
370
     0
100
AcDbCircle
 10
85.00000000000003
 20
114.9999999999999
 30
0.0
 40
1.5
  0
CIRCLE
  5
87
330
2D3
100
AcDbEntity
  8
lazerCut
370
     0
100
AcDbCircle
 10
75.00000000000003
 20
114.9999999999999
 30
0.0
 40
1.5
  0
LINE
  5
88
330
2D3
100
AcDbEntity
  8
lazerCut
370
     0
100
AcDbLine
 10
10.00000000000006
 20
89.9999999999996
 30
0.0
 11
90.00000000000009
 21
89.99999999999997
 31
0.0
  0
LINE
  5
89
330
2D3
100
AcDbEntity
  8
lazerCut
370
     0
100
AcDbLine
 10
90.00000000000009
 20
89.99999999999997
 30
0.0
 11
90.00000000000009
 21
159.9999999999999
 31
0.0
  0
LINE
  5
8A
330
2D3
100
AcDbEntity
  8
lazerCut
370
     0
100
AcDbLine
 10
90.00000000000009
 20
159.9999999999999
 30
0.0
 11
9.999999999999886
 21
159.9999999999998
 31
0.0
  0
LINE
  5
8B
330
2D3
100
AcDbEntity
  8
lazerCut
370
     0
100
AcDbLine
 10
9.999999999999886
 20
159.9999999999998
 30
0.0
 11
10.00000000000006
 21
89.9999999999996
 31
0.0
  0
LINE
  5
8C
330
2D3
100
AcDbEntity
  8
lazerCut
370
     0
100
AcDbLine
 10
95.00000000000009
 20
19.99999999999997
 30
0.0
 11
100.0000000000001
 21
20.0
 31
0.0
  0
LINE
  5
8D
330
2D3
100
AcDbEntity
  8
lazerCut
370
     0
100
AcDbLine
 10
175.0000000000001
 20
20.00000000000004
 30
0.0
 11
175.0000000000001
 21
35.00000000000016
 31
0.0
  0
LINE
  5
8E
330
2D3
100
AcDbEntity
  8
lazerCut
370
     0
100
AcDbLine
 10
95.00000000000009
 20
19.99999999999997
 30
0.0
 11
98.50000000000014
 21
23.49999999999995
 31
0.0
  0
LINE
  5
8F
330
2D3
100
AcDbEntity
  8
lazerCut
370
     0
100
AcDbLine
 10
151.5000000000001
 20
65.00000000000001
 30
0.0
 11
151.5
 21
76.49999999999999
 31
0.0
  0
LINE
  5
90
330
2D3
100
AcDbEntity
  8
lazerCut
370
     0
100
AcDbLine
 10
148.5
 20
73.49999999999999
 30
0.0
 11
148.5000000000001
 21
65.00000000000001
 31
0.0
  0
LINE
  5
91
330
2D3
100
AcDbEntity
  8
lazerCut
370
     0
100
AcDbLine
 10
158.6421356237311
 20
83.49999999999996
 30
0.0
 11
170.0000000000001
 21
83.5
 31
0.0
  0
LINE
  5
92
330
2D3
100
AcDbEntity
  8
lazerCut
370
     0
100
AcDbLine
 10
170.0
 20
86.50000000000018
 30
0.0
 11
161.5
 21
86.50000000000011
 31
0.0
  0
ARC
  5
93
330
2D3
100
AcDbEntity
  8
lazerCut
370
     0
100
AcDbCircle
 10
150.0000000000001
 20
64.99999999999999
 30
0.0
 40
1.5
100
AcDbArc
 50
180.0
 51
0.0
  0
ARC
  5
94
330
2D3
100
AcDbEntity
  8
lazerCut
370
     0
100
AcDbCircle
 10
170.0
 20
85.00000000000023
 30
0.0
 40
1.5
100
AcDbArc
 50
270.0
 51
90.00000000000001
  0
LINE
  5
95
330
2D3
100
AcDbEntity
  8
lazerCut
370
     0
100
AcDbLine
 10
160.0
 20
53.49999999999994
 30
0.0
 11
170.0000000000001
 21
53.50000000000001
 31
0.0
  0
LINE
  5
96
330
2D3
100
AcDbEntity
  8
lazerCut
370
     0
100
AcDbLine
 10
170.0
 20
56.49999999999996
 30
0.0
 11
160.0000000000001
 21
56.50000000000007
 31
0.0
  0
ARC
  5
97
330
2D3
100
AcDbEntity
  8
lazerCut
370
     0
100
AcDbCircle
 10
160.0000000000001
 20
55.00000000000001
 30
0.0
 40
1.5
100
AcDbArc
 50
90.00000000000001
 51
270.0
  0
ARC
  5
98
330
2D3
100
AcDbEntity
  8
lazerCut
370
     0
100
AcDbCircle
 10
170.0
 20
54.99999999999989
 30
0.0
 40
1.5
100
AcDbArc
 50
270.0
 51
90.00000000000001
  0
LINE
  5
99
330
2D3
100
AcDbEntity
  8
lazerCut
370
     0
100
AcDbLine
 10
98.50000000000014
 20
23.49999999999995
 30
0.0
 11
110.0000000000001
 21
23.49999999999996
 31
0.0
  0
LINE
  5
9A
330
2D3
100
AcDbEntity
  8
lazerCut
370
     0
100
AcDbLine
 10
110.0000000000001
 20
26.49999999999996
 30
0.0
 11
101.5000000000001
 21
26.49999999999993
 31
0.0
  0
ARC
  5
9B
330
2D3
100
AcDbEntity
  8
lazerCut
370
     0
100
AcDbCircle
 10
110.0000000000001
 20
24.99999999999993
 30
0.0
 40
1.5
100
AcDbArc
 50
270.0
 51
90.00000000000001
  0
LINE
  5
9C
330
2D3
100
AcDbEntity
  8
lazerCut
370
     0
100
AcDbLine
 10
121.5000000000001
 20
34.99999999999993
 30
0.0
 11
121.5
 21
46.49999999999999
 31
0.0
  0
LINE
  5
9D
330
2D3
100
AcDbEntity
  8
lazerCut
370
     0
100
AcDbLine
 10
118.5000000000001
 20
43.49999999999996
 30
0.0
 11
118.5000000000001
 21
34.99999999999993
 31
0.0
  0
LINE
  5
9E
330
2D3
100
AcDbEntity
  8
lazerCut
370
     0
100
AcDbLine
 10
128.5000000000001
 20
53.49999999999999
 30
0.0
 11
140.0000000000001
 21
53.49999999999996
 31
0.0
  0
LINE
  5
9F
330
2D3
100
AcDbEntity
  8
lazerCut
370
     0
100
AcDbLine
 10
140.0000000000001
 20
56.50000000000001
 30
0.0
 11
129.0735931288072
 21
56.49999999999996
 31
0.0
  0
ARC
  5
A0
330
2D3
100
AcDbEntity
  8
lazerCut
370
     0
100
AcDbCircle
 10
120.0000000000001
 20
34.99999999999993
 30
0.0
 40
1.5
100
AcDbArc
 50
180.0
 51
0.0
  0
ARC
  5
A1
330
2D3
100
AcDbEntity
  8
lazerCut
370
     0
100
AcDbCircle
 10
140.0
 20
54.99999999999999
 30
0.0
 40
1.5
100
AcDbArc
 50
270.0
 51
90.00000000000001
  0
LINE
  5
A2
330
2D3
100
AcDbEntity
  8
lazerCut
370
     0
100
AcDbLine
 10
148.5000000000001
 20
45.00000000000004
 30
0.0
 11
148.5000000000001
 21
34.99999999999996
 31
0.0
  0
LINE
  5
A3
330
2D3
100
AcDbEntity
  8
lazerCut
370
     0
100
AcDbLine
 10
151.5000000000001
 20
35.00000000000001
 30
0.0
 11
151.5000000000001
 21
45.00000000000001
 31
0.0
  0
LINE
  5
A4
330
2D3
100
AcDbEntity
  8
lazerCut
370
     0
100
AcDbLine
 10
160.0
 20
23.49999999999999
 30
0.0
 11
170.0000000000001
 21
23.50000000000002
 31
0.0
  0
LINE
  5
A5
330
2D3
100
AcDbEntity
  8
lazerCut
370
     0
100
AcDbLine
 10
170.0000000000001
 20
26.50000000000004
 30
0.0
 11
160.0000000000001
 21
26.5000000000001
 31
0.0
  0
LINE
  5
A6
330
2D3
100
AcDbEntity
  8
lazerCut
370
     0
100
AcDbLine
 10
130.0000000000001
 20
23.49999999999993
 30
0.0
 11
140.0000000000001
 21
23.49999999999996
 31
0.0
  0
LINE
  5
A7
330
2D3
100
AcDbEntity
  8
lazerCut
370
     0
100
AcDbLine
 10
140.0000000000001
 20
26.49999999999999
 30
0.0
 11
130.0000000000001
 21
26.50000000000001
 31
0.0
  0
ARC
  5
A8
330
2D3
100
AcDbEntity
  8
lazerCut
370
     0
100
AcDbCircle
 10
130.0
 20
24.99999999999996
 30
0.0
 40
1.5
100
AcDbArc
 50
90.00000000000001
 51
270.0
  0
ARC
  5
A9
330
2D3
100
AcDbEntity
  8
lazerCut
370
     0
100
AcDbCircle
 10
140.0000000000001
 20
25.00000000000001
 30
0.0
 40
1.5
100
AcDbArc
 50
270.0
 51
90.00000000000001
  0
ARC
  5
AA
330
2D3
100
AcDbEntity
  8
lazerCut
370
     0
100
AcDbCircle
 10
170.0000000000001
 20
24.99999999999995
 30
0.0
 40
1.5
100
AcDbArc
 50
270.0
 51
90.00000000000001
  0
ARC
  5
AB
330
2D3
100
AcDbEntity
  8
lazerCut
370
     0
100
AcDbCircle
 10
160.0000000000001
 20
25.00000000000005
 30
0.0
 40
1.5
100
AcDbArc
 50
90.00000000000001
 51
270.0
  0
ARC
  5
AC
330
2D3
100
AcDbEntity
  8
lazerCut
370
     0
100
AcDbCircle
 10
150.0000000000001
 20
35.00000000000001
 30
0.0
 40
1.5
100
AcDbArc
 50
180.0
 51
0.0
  0
ARC
  5
AD
330
2D3
100
AcDbEntity
  8
lazerCut
370
     0
100
AcDbCircle
 10
150.0
 20
44.99999999999999
 30
0.0
 40
1.5
100
AcDbArc
 50
0.0
 51
180.0
  0
CIRCLE
  5
AE
330
2D3
100
AcDbEntity
  8
lazerCut
370
     0
100
AcDbCircle
 10
150.0
 20
55.00000000000001
 30
0.0
 40
1.5
  0
CIRCLE
  5
AF
330
2D3
100
AcDbEntity
  8
lazerCut
370
     0
100
AcDbCircle
 10
105.0000000000001
 20
14.20000000000006
 30
0.0
 40
1.5
  0
LINE
  5
B0
330
2D3
100
AcDbEntity
  8
lazerCut
370
     0
100
AcDbLine
 10
110.0000000000001
 20
19.99999999999996
 30
0.0
 11
110.0000000000001
 21
14.1999999999999
 31
0.0
  0
LINE
  5
B1
330
2D3
100
AcDbEntity
  8
lazerCut
370
     0
100
AcDbLine
 10
100.0000000000001
 20
20.0
 30
0.0
 11
100.0000000000001
 21
14.2
 31
0.0
  0
ARC
  5
B2
330
2D3
100
AcDbEntity
  8
lazerCut
370
     0
100
AcDbCircle
 10
105.0000000000001
 20
14.20000000000006
 30
0.0
 40
5.0
100
AcDbArc
 50
180.0
 51
0.0
  0
CIRCLE
  5
B3
330
2D3
100
AcDbEntity
  8
lazerCut
370
     0
100
AcDbCircle
 10
135.0000000000001
 20
14.2
 30
0.0
 40
1.5
  0
LINE
  5
B4
330
2D3
100
AcDbEntity
  8
lazerCut
370
     0
100
AcDbLine
 10
140.0000000000001
 20
19.99999999999999
 30
0.0
 11
140.0000000000001
 21
14.19999999999989
 31
0.0
  0
LINE
  5
B5
330
2D3
100
AcDbEntity
  8
lazerCut
370
     0
100
AcDbLine
 10
130.0000000000001
 20
19.99999999999999
 30
0.0
 11
130.0000000000001
 21
14.2
 31
0.0
  0
ARC
  5
B6
330
2D3
100
AcDbEntity
  8
lazerCut
370
     0
100
AcDbCircle
 10
135.0000000000001
 20
14.2
 30
0.0
 40
5.0
100
AcDbArc
 50
180.0
 51
0.0
  0
CIRCLE
  5
B7
330
2D3
100
AcDbEntity
  8
lazerCut
370
     0
100
AcDbCircle
 10
165.0000000000001
 20
14.20000000000003
 30
0.0
 40
1.5
  0
LINE
  5
B8
330
2D3
100
AcDbEntity
  8
lazerCut
370
     0
100
AcDbLine
 10
170.0000000000001
 20
20.00000000000001
 30
0.0
 11
170.0000000000001
 21
14.19999999999992
 31
0.0
  0
LINE
  5
B9
330
2D3
100
AcDbEntity
  8
lazerCut
370
     0
100
AcDbLine
 10
160.0000000000001
 20
19.99999999999996
 30
0.0
 11
160.0
 21
14.2
 31
0.0
  0
ARC
  5
BA
330
2D3
100
AcDbEntity
  8
lazerCut
370
     0
100
AcDbCircle
 10
165.0000000000001
 20
14.20000000000003
 30
0.0
 40
5.0
100
AcDbArc
 50
180.0
 51
0.0
  0
CIRCLE
  5
BB
330
2D3
100
AcDbEntity
  8
lazerCut
370
     0
100
AcDbCircle
 10
180.8
 20
40.00000000000006
 30
0.0
 40
1.5
  0
LINE
  5
BC
330
2D3
100
AcDbEntity
  8
lazerCut
370
     0
100
AcDbLine
 10
175.0
 20
44.99999999999996
 30
0.0
 11
180.8000000000002
 21
45.00000000000001
 31
0.0
  0
LINE
  5
BD
330
2D3
100
AcDbEntity
  8
lazerCut
370
     0
100
AcDbLine
 10
175.0000000000001
 20
34.99999999999996
 30
0.0
 11
180.8
 21
35.00000000000007
 31
0.0
  0
ARC
  5
BE
330
2D3
100
AcDbEntity
  8
lazerCut
370
     0
100
AcDbCircle
 10
180.8
 20
40.00000000000006
 30
0.0
 40
5.0
100
AcDbArc
 50
270.0
 51
90.00000000000001
  0
CIRCLE
  5
BF
330
2D3
100
AcDbEntity
  8
lazerCut
370
     0
100
AcDbCircle
 10
180.8
 20
70.00000000000003
 30
0.0
 40
1.5
  0
LINE
  5
C0
330
2D3
100
AcDbEntity
  8
lazerCut
370
     0
100
AcDbLine
 10
175.0000000000001
 20
74.99999999999999
 30
0.0
 11
180.8
 21
75.00000000000013
 31
0.0
  0
LINE
  5
C1
330
2D3
100
AcDbEntity
  8
lazerCut
370
     0
100
AcDbLine
 10
175.0000000000001
 20
65.00000000000001
 30
0.0
 11
180.7999999999999
 21
65.00000000000006
 31
0.0
  0
ARC
  5
C2
330
2D3
100
AcDbEntity
  8
lazerCut
370
     0
100
AcDbCircle
 10
180.8
 20
70.00000000000003
 30
0.0
 40
5.0
100
AcDbArc
 50
270.0
 51
90.00000000000001
  0
LINE
  5
C3
330
2D3
100
AcDbEntity
  8
lazerCut
370
     0
100
AcDbLine
 10
110.0000000000001
 20
19.99999999999996
 30
0.0
 11
130.0000000000001
 21
19.99999999999999
 31
0.0
  0
LINE
  5
C4
330
2D3
100
AcDbEntity
  8
lazerCut
370
     0
100
AcDbLine
 10
140.0000000000001
 20
19.99999999999999
 30
0.0
 11
160.0000000000001
 21
19.99999999999996
 31
0.0
  0
LINE
  5
C5
330
2D3
100
AcDbEntity
  8
lazerCut
370
     0
100
AcDbLine
 10
170.0000000000001
 20
20.00000000000001
 30
0.0
 11
175.0000000000001
 21
20.00000000000004
 31
0.0
  0
LINE
  5
C6
330
2D3
100
AcDbEntity
  8
lazerCut
370
     0
100
AcDbLine
 10
175.0
 20
44.99999999999996
 30
0.0
 11
175.0000000000001
 21
65.00000000000001
 31
0.0
  0
LINE
  5
C7
330
2D3
100
AcDbEntity
  8
lazerCut
370
     0
100
AcDbLine
 10
121.5
 20
46.49999999999999
 30
0.0
 11
128.5000000000001
 21
53.49999999999999
 31
0.0
  0
LINE
  5
C8
330
2D3
100
AcDbEntity
  8
lazerCut
370
     0
100
AcDbLine
 10
137.3578643762691
 20
62.35786437626903
 30
0.0
 11
148.5
 21
73.49999999999999
 31
0.0
  0
LINE
  5
C9
330
2D3
100
AcDbEntity
  8
lazerCut
370
     0
100
AcDbLine
 10
161.5
 20
86.50000000000011
 30
0.0
 11
175.0000000000001
 21
100.0
 31
0.0
  0
LINE
  5
CA
330
2D3
100
AcDbEntity
  8
lazerCut
370
     0
100
AcDbLine
 10
101.5000000000001
 20
26.49999999999993
 30
0.0
 11
109.0735931288072
 21
34.07359312880722
 31
0.0
  0
LINE
  5
CB
330
2D3
100
AcDbEntity
  8
lazerCut
370
     0
100
AcDbLine
 10
175.0000000000001
 20
74.99999999999999
 30
0.0
 11
175.0000000000001
 21
100.0
 31
0.0
  0
CIRCLE
  5
CC
330
2D3
100
AcDbEntity
  8
lazerCut
370
     0
100
AcDbCircle
 10
108.507907703858
 20
41.71034636562182
 30
0.0
 40
1.5
  0
LINE
  5
CD
330
2D3
100
AcDbEntity
  8
lazerCut
370
     0
100
AcDbLine
 10
116.1446609406727
 20
41.14466094067267
 30
0.0
 11
112.0434416097906
 21
45.2458802715547
 31
0.0
  0
LINE
  5
CE
330
2D3
100
AcDbEntity
  8
lazerCut
370
     0
100
AcDbLine
 10
109.0735931288072
 20
34.07359312880725
 30
0.0
 11
104.9723737979253
 21
38.17481245968911
 31
0.0
  0
ARC
  5
CF
330
2D3
100
AcDbEntity
  8
lazerCut
370
     0
100
AcDbCircle
 10
108.507907703858
 20
41.71034636562182
 30
0.0
 40
5.0
100
AcDbArc
 50
44.99999999999996
 51
225.0
  0
CIRCLE
  5
D0
330
2D3
100
AcDbEntity
  8
lazerCut
370
     0
100
AcDbCircle
 10
129.7211111394544
 20
62.92354980121833
 30
0.0
 40
1.5
  0
LINE
  5
D1
330
2D3
100
AcDbEntity
  8
lazerCut
370
     0
100
AcDbLine
 10
137.3578643762691
 20
62.35786437626918
 30
0.0
 11
133.2566450453871
 21
66.4590837071511
 31
0.0
  0
LINE
  5
D2
330
2D3
100
AcDbEntity
  8
lazerCut
370
     0
100
AcDbLine
 10
129.0735931288072
 20
56.49999999999999
 30
0.0
 11
126.1855772335217
 21
59.38801589528551
 31
0.0
  0
ARC
  5
D3
330
2D3
100
AcDbEntity
  8
lazerCut
370
     0
100
AcDbCircle
 10
129.7211111394544
 20
62.92354980121833
 30
0.0
 40
5.0
100
AcDbArc
 50
44.99999999999996
 51
225.0
  0
CIRCLE
  5
D4
330
2D3
100
AcDbEntity
  8
lazerCut
370
     0
100
AcDbCircle
 10
150.9343145750508
 20
84.13675323681457
 30
0.0
 40
1.5
  0
LINE
  5
D5
330
2D3
100
AcDbEntity
  8
lazerCut
370
     0
100
AcDbLine
 10
158.642135623731
 20
83.49999999999996
 30
0.0
 11
154.4698484809835
 21
87.6722871427476
 31
0.0
  0
LINE
  5
D6
330
2D3
100
AcDbEntity
  8
lazerCut
370
     0
100
AcDbLine
 10
151.5
 20
76.49999999999999
 30
0.0
 11
147.3987806691181
 21
80.60121933088203
 31
0.0
  0
ARC
  5
D7
330
2D3
100
AcDbEntity
  8
lazerCut
370
     0
100
AcDbCircle
 10
150.9343145750508
 20
84.13675323681457
 30
0.0
 40
5.0
100
AcDbArc
 50
44.99999999999996
 51
225.0
  0
LINE
  5
D8
330
2D3
100
AcDbEntity
  8
lazerCut
370
     0
100
AcDbLine
 10
116.1446609406727
 20
41.14466094067267
 30
0.0
 11
118.5000000000001
 21
43.49999999999996
 31
0.0
  0
CIRCLE
  5
D9
330
2D3
100
AcDbEntity
  8
lazerCut
370
     0
100
AcDbCircle
 10
65.00000000000003
 20
74.99999999999986
 30
0.0
 40
1.5
  0
LINE
  5
DA
330
2D3
100
AcDbEntity
  8
lazerCut
370
     0
100
AcDbLine
 10
66.50000000000009
 20
54.99999999999999
 30
0.0
 11
66.50000000000009
 21
64.9999999999999
 31
0.0
  0
LINE
  5
DB
330
2D3
100
AcDbEntity
  8
lazerCut
370
     0
100
AcDbLine
 10
63.5
 20
65.00000000000001
 30
0.0
 11
63.50000000000009
 21
54.99999999999993
 31
0.0
  0
LINE
  5
DC
330
2D3
100
AcDbEntity
  8
lazerCut
370
     0
100
AcDbLine
 10
75.00000000000009
 20
73.49999999999996
 30
0.0
 11
85.00000000000003
 21
73.49999999999997
 31
0.0
  0
LINE
  5
DD
330
2D3
100
AcDbEntity
  8
lazerCut
370
     0
100
AcDbLine
 10
85.00000000000003
 20
76.49999999999994
 30
0.0
 11
75.00000000000003
 21
76.4999999999999
 31
0.0
  0
LINE
  5
DE
330
2D3
100
AcDbEntity
  8
lazerCut
370
     0
100
AcDbLine
 10
45.00000000000003
 20
73.4999999999998
 30
0.0
 11
55.00000000000003
 21
73.49999999999982
 31
0.0
  0
LINE
  5
DF
330
2D3
100
AcDbEntity
  8
lazerCut
370
     0
100
AcDbLine
 10
55.00000000000003
 20
76.49999999999996
 30
0.0
 11
45.00000000000006
 21
76.49999999999987
 31
0.0
  0
ARC
  5
E0
330
2D3
100
AcDbEntity
  8
lazerCut
370
     0
100
AcDbCircle
 10
45.00000000000003
 20
74.99999999999989
 30
0.0
 40
1.5
100
AcDbArc
 50
90.00000000000001
 51
270.0
  0
ARC
  5
E1
330
2D3
100
AcDbEntity
  8
lazerCut
370
     0
100
AcDbCircle
 10
55.00000000000006
 20
74.99999999999996
 30
0.0
 40
1.5
100
AcDbArc
 50
270.0
 51
90.00000000000001
  0
ARC
  5
E2
330
2D3
100
AcDbEntity
  8
lazerCut
370
     0
100
AcDbCircle
 10
65.00000000000009
 20
64.9999999999999
 30
0.0
 40
1.5
100
AcDbArc
 50
0.0
 51
180.0
  0
ARC
  5
E3
330
2D3
100
AcDbEntity
  8
lazerCut
370
     0
100
AcDbCircle
 10
65.00000000000003
 20
55.0
 30
0.0
 40
1.5
100
AcDbArc
 50
180.0
 51
0.0
  0
ARC
  5
E4
330
2D3
100
AcDbEntity
  8
lazerCut
370
     0
100
AcDbCircle
 10
85.00000000000003
 20
74.99999999999994
 30
0.0
 40
1.5
100
AcDbArc
 50
270.0
 51
90.00000000000001
  0
ARC
  5
E5
330
2D3
100
AcDbEntity
  8
lazerCut
370
     0
100
AcDbCircle
 10
75.00000000000009
 20
75.00000000000004
 30
0.0
 40
1.5
100
AcDbArc
 50
90.00000000000001
 51
270.0
  0
LINE
  5
E6
330
2D3
100
AcDbEntity
  8
lazerCut
370
     0
100
AcDbLine
 10
75.00000000000003
 20
43.49999999999997
 30
0.0
 11
85.00000000000009
 21
43.4999999999999
 31
0.0
  0
LINE
  5
E7
330
2D3
100
AcDbEntity
  8
lazerCut
370
     0
100
AcDbLine
 10
85.00000000000003
 20
46.49999999999999
 30
0.0
 11
75.00000000000003
 21
46.50000000000001
 31
0.0
  0
ARC
  5
E8
330
2D3
100
AcDbEntity
  8
lazerCut
370
     0
100
AcDbCircle
 10
75.00000000000014
 20
44.99999999999987
 30
0.0
 40
1.5
100
AcDbArc
 50
90.00000000000001
 51
270.0
  0
ARC
  5
E9
330
2D3
100
AcDbEntity
  8
lazerCut
370
     0
100
AcDbCircle
 10
85.00000000000009
 20
44.99999999999993
 30
0.0
 40
1.5
100
AcDbArc
 50
270.0
 51
90.00000000000001
  0
LINE
  5
EA
330
2D3
100
AcDbEntity
  8
lazerCut
370
     0
100
AcDbLine
 10
15.00000000000003
 20
13.50000000000003
 30
0.0
 11
25.00000000000014
 21
13.49999999999987
 31
0.0
  0
LINE
  5
EB
330
2D3
100
AcDbEntity
  8
lazerCut
370
     0
100
AcDbLine
 10
24.99999999999997
 20
16.5000000000001
 30
0.0
 11
15.00000000000009
 21
16.49999999999989
 31
0.0
  0
ARC
  5
EC
330
2D3
100
AcDbEntity
  8
lazerCut
370
     0
100
AcDbCircle
 10
25.00000000000006
 20
14.99999999999994
 30
0.0
 40
1.5
100
AcDbArc
 50
270.0
 51
90.00000000000001
  0
ARC
  5
ED
330
2D3
100
AcDbEntity
  8
lazerCut
370
     0
100
AcDbCircle
 10
15.00000000000014
 20
14.99999999999986
 30
0.0
 40
1.5
100
AcDbArc
 50
90.00000000000001
 51
270.0
  0
LINE
  5
EE
330
2D3
100
AcDbEntity
  8
lazerCut
370
     0
100
AcDbLine
 10
15.00000000000006
 20
73.49999999999991
 30
0.0
 11
25.00000000000006
 21
73.50000000000011
 31
0.0
  0
LINE
  5
EF
330
2D3
100
AcDbEntity
  8
lazerCut
370
     0
100
AcDbLine
 10
25.00000000000003
 20
76.50000000000016
 30
0.0
 11
15.00000000000006
 21
76.49999999999999
 31
0.0
  0
ARC
  5
F0
330
2D3
100
AcDbEntity
  8
lazerCut
370
     0
100
AcDbCircle
 10
25.00000000000006
 20
75.0000000000001
 30
0.0
 40
1.5
100
AcDbArc
 50
270.0
 51
90.00000000000001
  0
ARC
  5
F1
330
2D3
100
AcDbEntity
  8
lazerCut
370
     0
100
AcDbCircle
 10
15.00000000000006
 20
75.00000000000004
 30
0.0
 40
1.5
100
AcDbArc
 50
90.00000000000001
 51
270.0
  0
CIRCLE
  5
F2
330
2D3
100
AcDbEntity
  8
lazerCut
370
     0
100
AcDbCircle
 10
35.00000000000006
 20
44.99999999999993
 30
0.0
 40
1.5
  0
LINE
  5
F3
330
2D3
100
AcDbEntity
  8
lazerCut
370
     0
100
AcDbLine
 10
36.5000000000002
 20
24.99999999999986
 30
0.0
 11
36.50000000000003
 21
35.00000000000001
 31
0.0
  0
LINE
  5
F4
330
2D3
100
AcDbEntity
  8
lazerCut
370
     0
100
AcDbLine
 10
33.50000000000006
 20
34.99999999999993
 30
0.0
 11
33.50000000000003
 21
24.99999999999999
 31
0.0
  0
LINE
  5
F5
330
2D3
100
AcDbEntity
  8
lazerCut
370
     0
100
AcDbLine
 10
33.50000000000006
 20
64.99999999999987
 30
0.0
 11
33.50000000000006
 21
54.99999999999989
 31
0.0
  0
LINE
  5
F6
330
2D3
100
AcDbEntity
  8
lazerCut
370
     0
100
AcDbLine
 10
36.50000000000009
 20
54.99999999999994
 30
0.0
 11
36.50000000000009
 21
64.9999999999999
 31
0.0
  0
LINE
  5
F7
330
2D3
100
AcDbEntity
  8
lazerCut
370
     0
100
AcDbLine
 10
45.00000000000009
 20
43.49999999999993
 30
0.0
 11
55.00000000000006
 21
43.49999999999997
 31
0.0
  0
LINE
  5
F8
330
2D3
100
AcDbEntity
  8
lazerCut
370
     0
100
AcDbLine
 10
55.00000000000003
 20
46.50000000000001
 30
0.0
 11
45.00000000000006
 21
46.4999999999999
 31
0.0
  0
LINE
  5
F9
330
2D3
100
AcDbEntity
  8
lazerCut
370
     0
100
AcDbLine
 10
15.00000000000006
 20
43.49999999999993
 30
0.0
 11
25.00000000000006
 21
43.49999999999999
 31
0.0
  0
LINE
  5
FA
330
2D3
100
AcDbEntity
  8
lazerCut
370
     0
100
AcDbLine
 10
25.00000000000003
 20
46.49999999999989
 30
0.0
 11
15.00000000000003
 21
46.49999999999996
 31
0.0
  0
ARC
  5
FB
330
2D3
100
AcDbEntity
  8
lazerCut
370
     0
100
AcDbCircle
 10
15.00000000000006
 20
44.99999999999994
 30
0.0
 40
1.5
100
AcDbArc
 50
90.00000000000001
 51
270.0
  0
ARC
  5
FC
330
2D3
100
AcDbEntity
  8
lazerCut
370
     0
100
AcDbCircle
 10
25.00000000000009
 20
45.00000000000004
 30
0.0
 40
1.5
100
AcDbArc
 50
270.0
 51
90.00000000000001
  0
ARC
  5
FD
330
2D3
100
AcDbEntity
  8
lazerCut
370
     0
100
AcDbCircle
 10
35.0
 20
35.00000000000003
 30
0.0
 40
1.5
100
AcDbArc
 50
0.0
 51
180.0
  0
ARC
  5
FE
330
2D3
100
AcDbEntity
  8
lazerCut
370
     0
100
AcDbCircle
 10
35.00000000000006
 20
24.99999999999999
 30
0.0
 40
1.5
100
AcDbArc
 50
180.0
 51
0.0
  0
ARC
  5
FF
330
2D3
100
AcDbEntity
  8
lazerCut
370
     0
100
AcDbCircle
 10
55.00000000000003
 20
45.00000000000001
 30
0.0
 40
1.5
100
AcDbArc
 50
270.0
 51
90.00000000000001
  0
ARC
  5
100
330
2D3
100
AcDbEntity
  8
lazerCut
370
     0
100
AcDbCircle
 10
45.00000000000006
 20
44.99999999999997
 30
0.0
 40
1.5
100
AcDbArc
 50
90.00000000000001
 51
270.0
  0
ARC
  5
101
330
2D3
100
AcDbEntity
  8
lazerCut
370
     0
100
AcDbCircle
 10
35.00000000000006
 20
54.99999999999993
 30
0.0
 40
1.5
100
AcDbArc
 50
180.0
 51
0.0
  0
ARC
  5
102
330
2D3
100
AcDbEntity
  8
lazerCut
370
     0
100
AcDbCircle
 10
35.00000000000006
 20
64.99999999999994
 30
0.0
 40
1.5
100
AcDbArc
 50
0.0
 51
180.0
  0
CIRCLE
  5
103
330
2D3
100
AcDbEntity
  8
lazerCut
370
     0
100
AcDbCircle
 10
25.00000000000006
 20
34.99999999999986
 30
0.0
 40
1.5
  0
CIRCLE
  5
104
330
2D3
100
AcDbEntity
  8
lazerCut
370
     0
100
AcDbCircle
 10
25.00000000000006
 20
64.9999999999999
 30
0.0
 40
1.5
  0
CIRCLE
  5
105
330
2D3
100
AcDbEntity
  8
lazerCut
370
     0
100
AcDbCircle
 10
65.00000000000003
 20
14.99999999999991
 30
0.0
 40
1.5
  0
LINE
  5
106
330
2D3
100
AcDbEntity
  8
lazerCut
370
     0
100
AcDbLine
 10
63.50000000000006
 20
34.99999999999993
 30
0.0
 11
63.50000000000009
 21
24.99999999999995
 31
0.0
  0
LINE
  5
107
330
2D3
100
AcDbEntity
  8
lazerCut
370
     0
100
AcDbLine
 10
66.50000000000009
 20
24.99999999999994
 30
0.0
 11
66.50000000000009
 21
34.99999999999993
 31
0.0
  0
LINE
  5
108
330
2D3
100
AcDbEntity
  8
lazerCut
370
     0
100
AcDbLine
 10
75.00000000000014
 20
13.49999999999991
 30
0.0
 11
85.00000000000014
 21
13.49999999999991
 31
0.0
  0
LINE
  5
109
330
2D3
100
AcDbEntity
  8
lazerCut
370
     0
100
AcDbLine
 10
85.00000000000014
 20
16.49999999999993
 30
0.0
 11
75.00000000000009
 21
16.49999999999991
 31
0.0
  0
LINE
  5
10A
330
2D3
100
AcDbEntity
  8
lazerCut
370
     0
100
AcDbLine
 10
45.00000000000003
 20
13.49999999999993
 30
0.0
 11
55.00000000000003
 21
13.49999999999999
 31
0.0
  0
LINE
  5
10B
330
2D3
100
AcDbEntity
  8
lazerCut
370
     0
100
AcDbLine
 10
55.00000000000006
 20
16.49999999999993
 30
0.0
 11
44.99999999999997
 21
16.50000000000009
 31
0.0
  0
ARC
  5
10C
330
2D3
100
AcDbEntity
  8
lazerCut
370
     0
100
AcDbCircle
 10
45.0000000000002
 20
14.99999999999984
 30
0.0
 40
1.5
100
AcDbArc
 50
90.00000000000001
 51
270.0
  0
ARC
  5
10D
330
2D3
100
AcDbEntity
  8
lazerCut
370
     0
100
AcDbCircle
 10
55.00000000000009
 20
14.99999999999991
 30
0.0
 40
1.5
100
AcDbArc
 50
270.0
 51
90.00000000000001
  0
ARC
  5
10E
330
2D3
100
AcDbEntity
  8
lazerCut
370
     0
100
AcDbCircle
 10
85.00000000000009
 20
14.99999999999993
 30
0.0
 40
1.5
100
AcDbArc
 50
270.0
 51
90.00000000000001
  0
ARC
  5
10F
330
2D3
100
AcDbEntity
  8
lazerCut
370
     0
100
AcDbCircle
 10
75.00000000000009
 20
14.99999999999993
 30
0.0
 40
1.5
100
AcDbArc
 50
90.00000000000001
 51
270.0
  0
ARC
  5
110
330
2D3
100
AcDbEntity
  8
lazerCut
370
     0
100
AcDbCircle
 10
65.00000000000009
 20
24.99999999999991
 30
0.0
 40
1.5
100
AcDbArc
 50
180.0
 51
0.0
  0
ARC
  5
111
330
2D3
100
AcDbEntity
  8
lazerCut
370
     0
100
AcDbCircle
 10
65.00000000000009
 20
34.99999999999993
 30
0.0
 40
1.5
100
AcDbArc
 50
0.0
 51
180.0
  0
CIRCLE
  5
112
330
2D3
100
AcDbEntity
  8
lazerCut
370
     0
100
AcDbCircle
 10
34.99999999999991
 20
15.00000000000013
 30
0.0
 40
1.5
  0
CIRCLE
  5
113
330
2D3
100
AcDbEntity
  8
lazerCut
370
     0
100
AcDbCircle
 10
35.00000000000003
 20
75.00000000000011
 30
0.0
 40
1.5
  0
CIRCLE
  5
114
330
2D3
100
AcDbEntity
  8
lazerCut
370
     0
100
AcDbCircle
 10
65.00000000000009
 20
44.99999999999999
 30
0.0
 40
1.5
  0
LINE
  5
115
330
2D3
100
AcDbEntity
  8
lazerCut
370
     0
100
AcDbLine
 10
10.0
 20
10.0
 30
0.0
 11
90.00000000000014
 21
9.999999999999929
 31
0.0
  0
LINE
  5
116
330
2D3
100
AcDbEntity
  8
lazerCut
370
     0
100
AcDbLine
 10
90.00000000000014
 20
9.999999999999929
 30
0.0
 11
90.00000000000003
 21
79.99999999999997
 31
0.0
  0
LINE
  5
117
330
2D3
100
AcDbEntity
  8
lazerCut
370
     0
100
AcDbLine
 10
90.00000000000003
 20
79.99999999999997
 30
0.0
 11
10.00000000000009
 21
79.99999999999953
 31
0.0
  0
LINE
  5
118
330
2D3
100
AcDbEntity
  8
lazerCut
370
     0
100
AcDbLine
 10
10.00000000000009
 20
79.99999999999953
 30
0.0
 11
10.0
 21
10.0
 31
0.0
  0
CIRCLE
  5
119
330
2D3
100
AcDbEntity
  8
lazerCut
370
     0
100
AcDbCircle
 10
76.05000000000004
 20
20.89999999999973
 30
0.0
 40
1.5
  0
CIRCLE
  5
11A
330
2D3
100
AcDbEntity
  8
lazerCut
370
     0
100
AcDbCircle
 10
74.75000000000003
 20
69.10000000000002
 30
0.0
 40
1.5
  0
CIRCLE
  5
11B
330
2D3
100
AcDbEntity
  8
lazerCut
370
     0
100
AcDbCircle
 10
23.95000000000007
 20
25.99999999999996
 30
0.0
 40
1.5
  0
CIRCLE
  5
11C
330
2D3
100
AcDbEntity
  8
lazerCut
370
     0
100
AcDbCircle
 10
23.95000000000005
 20
53.89999999999991
 30
0.0
 40
1.5
  0
LINE
  5
11D
330
2D3
100
AcDbEntity
  8
lazerCut
370
     0
100
AcDbLine
 10
185.0
 20
140.0
 30
0.0
 11
180.0000000000001
 21
140.0
 31
0.0
  0
LINE
  5
11E
330
2D3
100
AcDbEntity
  8
lazerCut
370
     0
100
AcDbLine
 10
105.0000000000001
 20
139.9999999999999
 30
0.0
 11
105.0
 21
124.9999999999998
 31
0.0
  0
LINE
  5
11F
330
2D3
100
AcDbEntity
  8
lazerCut
370
     0
100
AcDbLine
 10
185.0
 20
140.0
 30
0.0
 11
181.5
 21
136.5000000000001
 31
0.0
  0
LINE
  5
120
330
2D3
100
AcDbEntity
  8
lazerCut
370
     0
100
AcDbLine
 10
128.5
 20
94.99999999999999
 30
0.0
 11
128.5000000000001
 21
83.49999999999993
 31
0.0
  0
LINE
  5
121
330
2D3
100
AcDbEntity
  8
lazerCut
370
     0
100
AcDbLine
 10
131.5
 20
86.5
 30
0.0
 11
131.5
 21
94.99999999999999
 31
0.0
  0
LINE
  5
122
330
2D3
100
AcDbEntity
  8
lazerCut
370
     0
100
AcDbLine
 10
121.357864376269
 20
76.49999999999996
 30
0.0
 11
110.0
 21
76.49999999999996
 31
0.0
  0
LINE
  5
123
330
2D3
100
AcDbEntity
  8
lazerCut
370
     0
100
AcDbLine
 10
110.0000000000001
 20
73.49999999999996
 30
0.0
 11
118.5000000000001
 21
73.49999999999994
 31
0.0
  0
ARC
  5
124
330
2D3
100
AcDbEntity
  8
lazerCut
370
     0
100
AcDbCircle
 10
130.0000000000001
 20
94.99999999999999
 30
0.0
 40
1.5
100
AcDbArc
 50
0.0
 51
180.0
  0
ARC
  5
125
330
2D3
100
AcDbEntity
  8
lazerCut
370
     0
100
AcDbCircle
 10
110.0000000000001
 20
74.99999999999996
 30
0.0
 40
1.5
100
AcDbArc
 50
90.00000000000001
 51
270.0
  0
LINE
  5
126
330
2D3
100
AcDbEntity
  8
lazerCut
370
     0
100
AcDbLine
 10
120.0
 20
106.5
 30
0.0
 11
110.0
 21
106.5
 31
0.0
  0
LINE
  5
127
330
2D3
100
AcDbEntity
  8
lazerCut
370
     0
100
AcDbLine
 10
110.0
 20
103.4999999999998
 30
0.0
 11
120.0
 21
103.5
 31
0.0
  0
ARC
  5
128
330
2D3
100
AcDbEntity
  8
lazerCut
370
     0
100
AcDbCircle
 10
120.0
 20
105.0
 30
0.0
 40
1.5
100
AcDbArc
 50
270.0
 51
90.00000000000001
  0
ARC
  5
129
330
2D3
100
AcDbEntity
  8
lazerCut
370
     0
100
AcDbCircle
 10
110.0
 20
105.0
 30
0.0
 40
1.5
100
AcDbArc
 50
90.00000000000001
 51
270.0
  0
LINE
  5
12A
330
2D3
100
AcDbEntity
  8
lazerCut
370
     0
100
AcDbLine
 10
181.5
 20
136.5000000000001
 30
0.0
 11
170.0
 21
136.5
 31
0.0
  0
LINE
  5
12B
330
2D3
100
AcDbEntity
  8
lazerCut
370
     0
100
AcDbLine
 10
170.0
 20
133.5000000000001
 30
0.0
 11
178.5000000000001
 21
133.5
 31
0.0
  0
ARC
  5
12C
330
2D3
100
AcDbEntity
  8
lazerCut
370
     0
100
AcDbCircle
 10
169.9999999999999
 20
135.0000000000001
 30
0.0
 40
1.5
100
AcDbArc
 50
90.00000000000001
 51
270.0
  0
LINE
  5
12D
330
2D3
100
AcDbEntity
  8
lazerCut
370
     0
100
AcDbLine
 10
158.5
 20
125.0
 30
0.0
 11
158.5000000000001
 21
113.5
 31
0.0
  0
LINE
  5
12E
330
2D3
100
AcDbEntity
  8
lazerCut
370
     0
100
AcDbLine
 10
161.5
 20
116.5
 30
0.0
 11
161.5
 21
125.0
 31
0.0
  0
LINE
  5
12F
330
2D3
100
AcDbEntity
  8
lazerCut
370
     0
100
AcDbLine
 10
151.5000000000001
 20
106.5
 30
0.0
 11
140.0000000000001
 21
106.4999999999999
 31
0.0
  0
LINE
  5
130
330
2D3
100
AcDbEntity
  8
lazerCut
370
     0
100
AcDbLine
 10
140.0
 20
103.5
 30
0.0
 11
150.9264068711928
 21
103.5
 31
0.0
  0
ARC
  5
131
330
2D3
100
AcDbEntity
  8
lazerCut
370
     0
100
AcDbCircle
 10
160.0
 20
125.0
 30
0.0
 40
1.5
100
AcDbArc
 50
0.0
 51
180.0
  0
ARC
  5
132
330
2D3
100
AcDbEntity
  8
lazerCut
370
     0
100
AcDbCircle
 10
140.0000000000001
 20
104.9999999999999
 30
0.0
 40
1.5
100
AcDbArc
 50
90.00000000000001
 51
270.0
  0
LINE
  5
133
330
2D3
100
AcDbEntity
  8
lazerCut
370
     0
100
AcDbLine
 10
131.5
 20
115.0
 30
0.0
 11
131.5
 21
125.0
 31
0.0
  0
LINE
  5
134
330
2D3
100
AcDbEntity
  8
lazerCut
370
     0
100
AcDbLine
 10
128.5
 20
125.0
 30
0.0
 11
128.5
 21
115.0
 31
0.0
  0
LINE
  5
135
330
2D3
100
AcDbEntity
  8
lazerCut
370
     0
100
AcDbLine
 10
120.0
 20
136.5
 30
0.0
 11
110.0
 21
136.4999999999999
 31
0.0
  0
LINE
  5
136
330
2D3
100
AcDbEntity
  8
lazerCut
370
     0
100
AcDbLine
 10
110.0
 20
133.5
 30
0.0
 11
120.0
 21
133.5
 31
0.0
  0
LINE
  5
137
330
2D3
100
AcDbEntity
  8
lazerCut
370
     0
100
AcDbLine
 10
150.0
 20
136.5
 30
0.0
 11
140.0
 21
136.5
 31
0.0
  0
LINE
  5
138
330
2D3
100
AcDbEntity
  8
lazerCut
370
     0
100
AcDbLine
 10
140.0
 20
133.5
 30
0.0
 11
150.0
 21
133.5
 31
0.0
  0
ARC
  5
139
330
2D3
100
AcDbEntity
  8
lazerCut
370
     0
100
AcDbCircle
 10
150.0000000000001
 20
135.0
 30
0.0
 40
1.5
100
AcDbArc
 50
270.0
 51
90.00000000000001
  0
ARC
  5
13A
330
2D3
100
AcDbEntity
  8
lazerCut
370
     0
100
AcDbCircle
 10
140.0000000000001
 20
134.9999999999999
 30
0.0
 40
1.5
100
AcDbArc
 50
90.00000000000001
 51
270.0
  0
ARC
  5
13B
330
2D3
100
AcDbEntity
  8
lazerCut
370
     0
100
AcDbCircle
 10
110.0000000000001
 20
134.9999999999999
 30
0.0
 40
1.5
100
AcDbArc
 50
90.00000000000001
 51
270.0
  0
ARC
  5
13C
330
2D3
100
AcDbEntity
  8
lazerCut
370
     0
100
AcDbCircle
 10
120.0
 20
134.9999999999999
 30
0.0
 40
1.5
100
AcDbArc
 50
270.0
 51
90.00000000000001
  0
ARC
  5
13D
330
2D3
100
AcDbEntity
  8
lazerCut
370
     0
100
AcDbCircle
 10
130.0
 20
125.0
 30
0.0
 40
1.5
100
AcDbArc
 50
0.0
 51
180.0
  0
ARC
  5
13E
330
2D3
100
AcDbEntity
  8
lazerCut
370
     0
100
AcDbCircle
 10
130.0
 20
115.0
 30
0.0
 40
1.5
100
AcDbArc
 50
180.0
 51
0.0
  0
CIRCLE
  5
13F
330
2D3
100
AcDbEntity
  8
lazerCut
370
     0
100
AcDbCircle
 10
130.0
 20
105.0
 30
0.0
 40
1.5
  0
CIRCLE
  5
140
330
2D3
100
AcDbEntity
  8
lazerCut
370
     0
100
AcDbCircle
 10
175.0
 20
145.8
 30
0.0
 40
1.5
  0
LINE
  5
141
330
2D3
100
AcDbEntity
  8
lazerCut
370
     0
100
AcDbLine
 10
170.0000000000001
 20
139.9999999999999
 30
0.0
 11
169.9999999999997
 21
145.8000000000005
 31
0.0
  0
LINE
  5
142
330
2D3
100
AcDbEntity
  8
lazerCut
370
     0
100
AcDbLine
 10
180.0000000000001
 20
140.0
 30
0.0
 11
180.0
 21
145.8
 31
0.0
  0
ARC
  5
143
330
2D3
100
AcDbEntity
  8
lazerCut
370
     0
100
AcDbCircle
 10
175.0
 20
145.8
 30
0.0
 40
5.0
100
AcDbArc
 50
0.0
 51
180.0
  0
CIRCLE
  5
144
330
2D3
100
AcDbEntity
  8
lazerCut
370
     0
100
AcDbCircle
 10
145.0
 20
145.7999999999999
 30
0.0
 40
1.5
  0
LINE
  5
145
330
2D3
100
AcDbEntity
  8
lazerCut
370
     0
100
AcDbLine
 10
140.0000000000001
 20
139.9999999999999
 30
0.0
 11
140.0
 21
145.8000000000001
 31
0.0
  0
LINE
  5
146
330
2D3
100
AcDbEntity
  8
lazerCut
370
     0
100
AcDbLine
 10
150.0
 20
140.0
 30
0.0
 11
150.0
 21
145.8
 31
0.0
  0
ARC
  5
147
330
2D3
100
AcDbEntity
  8
lazerCut
370
     0
100
AcDbCircle
 10
145.0
 20
145.7999999999999
 30
0.0
 40
5.0
100
AcDbArc
 50
0.0
 51
180.0
  0
CIRCLE
  5
148
330
2D3
100
AcDbEntity
  8
lazerCut
370
     0
100
AcDbCircle
 10
115.0
 20
145.7999999999999
 30
0.0
 40
1.5
  0
LINE
  5
149
330
2D3
100
AcDbEntity
  8
lazerCut
370
     0
100
AcDbLine
 10
110.0
 20
140.0
 30
0.0
 11
110.0
 21
145.8000000000001
 31
0.0
  0
LINE
  5
14A
330
2D3
100
AcDbEntity
  8
lazerCut
370
     0
100
AcDbLine
 10
120.0
 20
140.0
 30
0.0
 11
120.0
 21
145.8
 31
0.0
  0
ARC
  5
14B
330
2D3
100
AcDbEntity
  8
lazerCut
370
     0
100
AcDbCircle
 10
115.0
 20
145.7999999999999
 30
0.0
 40
5.0
100
AcDbArc
 50
0.0
 51
180.0
  0
CIRCLE
  5
14C
330
2D3
100
AcDbEntity
  8
lazerCut
370
     0
100
AcDbCircle
 10
99.20000000000007
 20
120.0
 30
0.0
 40
1.5
  0
LINE
  5
14D
330
2D3
100
AcDbEntity
  8
lazerCut
370
     0
100
AcDbLine
 10
105.0
 20
115.0
 30
0.0
 11
99.1999999999999
 21
115.0
 31
0.0
  0
LINE
  5
14E
330
2D3
100
AcDbEntity
  8
lazerCut
370
     0
100
AcDbLine
 10
105.0
 20
125.0
 30
0.0
 11
99.20000000000002
 21
124.9999999999999
 31
0.0
  0
ARC
  5
14F
330
2D3
100
AcDbEntity
  8
lazerCut
370
     0
100
AcDbCircle
 10
99.20000000000007
 20
120.0
 30
0.0
 40
5.0
100
AcDbArc
 50
90.00000000000001
 51
270.0
  0
CIRCLE
  5
150
330
2D3
100
AcDbEntity
  8
lazerCut
370
     0
100
AcDbCircle
 10
99.20000000000002
 20
89.99999999999997
 30
0.0
 40
1.5
  0
LINE
  5
151
330
2D3
100
AcDbEntity
  8
lazerCut
370
     0
100
AcDbLine
 10
105.0
 20
84.99999999999993
 30
0.0
 11
99.19999999999996
 21
84.9999999999999
 31
0.0
  0
LINE
  5
152
330
2D3
100
AcDbEntity
  8
lazerCut
370
     0
100
AcDbLine
 10
105.0
 20
94.99999999999996
 30
0.0
 11
99.20000000000007
 21
94.99999999999991
 31
0.0
  0
ARC
  5
153
330
2D3
100
AcDbEntity
  8
lazerCut
370
     0
100
AcDbCircle
 10
99.20000000000002
 20
89.99999999999997
 30
0.0
 40
5.0
100
AcDbArc
 50
90.00000000000001
 51
270.0
  0
LINE
  5
154
330
2D3
100
AcDbEntity
  8
lazerCut
370
     0
100
AcDbLine
 10
170.0000000000001
 20
139.9999999999999
 30
0.0
 11
150.0
 21
140.0
 31
0.0
  0
LINE
  5
155
330
2D3
100
AcDbEntity
  8
lazerCut
370
     0
100
AcDbLine
 10
140.0000000000001
 20
139.9999999999999
 30
0.0
 11
120.0
 21
140.0
 31
0.0
  0
LINE
  5
156
330
2D3
100
AcDbEntity
  8
lazerCut
370
     0
100
AcDbLine
 10
110.0
 20
140.0
 30
0.0
 11
105.0000000000001
 21
139.9999999999999
 31
0.0
  0
LINE
  5
157
330
2D3
100
AcDbEntity
  8
lazerCut
370
     0
100
AcDbLine
 10
105.0
 20
115.0
 30
0.0
 11
105.0
 21
94.99999999999996
 31
0.0
  0
LINE
  5
158
330
2D3
100
AcDbEntity
  8
lazerCut
370
     0
100
AcDbLine
 10
158.5000000000001
 20
113.5
 30
0.0
 11
151.5000000000001
 21
106.5
 31
0.0
  0
LINE
  5
159
330
2D3
100
AcDbEntity
  8
lazerCut
370
     0
100
AcDbLine
 10
142.6421356237309
 20
97.64213562373092
 30
0.0
 11
131.5
 21
86.5
 31
0.0
  0
LINE
  5
15A
330
2D3
100
AcDbEntity
  8
lazerCut
370
     0
100
AcDbLine
 10
118.5000000000001
 20
73.49999999999994
 30
0.0
 11
105.0
 21
59.99999999999999
 31
0.0
  0
LINE
  5
15B
330
2D3
100
AcDbEntity
  8
lazerCut
370
     0
100
AcDbLine
 10
178.5000000000001
 20
133.5
 30
0.0
 11
170.9264068711928
 21
125.9264068711928
 31
0.0
  0
LINE
  5
15C
330
2D3
100
AcDbEntity
  8
lazerCut
370
     0
100
AcDbLine
 10
105.0
 20
84.99999999999993
 30
0.0
 11
105.0
 21
59.99999999999999
 31
0.0
  0
CIRCLE
  5
15D
330
2D3
100
AcDbEntity
  8
lazerCut
370
     0
100
AcDbCircle
 10
171.4920922961421
 20
118.2896536343782
 30
0.0
 40
1.5
  0
LINE
  5
15E
330
2D3
100
AcDbEntity
  8
lazerCut
370
     0
100
AcDbLine
 10
163.8553390593273
 20
118.8553390593274
 30
0.0
 11
167.9565583902095
 21
114.7541197284453
 31
0.0
  0
LINE
  5
15F
330
2D3
100
AcDbEntity
  8
lazerCut
370
     0
100
AcDbLine
 10
170.9264068711928
 20
125.9264068711928
 30
0.0
 11
175.0276262020748
 21
121.8251875403108
 31
0.0
  0
ARC
  5
160
330
2D3
100
AcDbEntity
  8
lazerCut
370
     0
100
AcDbCircle
 10
171.4920922961421
 20
118.2896536343782
 30
0.0
 40
5.0
100
AcDbArc
 50
225.0
 51
44.99999999999996
  0
CIRCLE
  5
161
330
2D3
100
AcDbEntity
  8
lazerCut
370
     0
100
AcDbCircle
 10
150.2788888605457
 20
97.07645019878164
 30
0.0
 40
1.5
  0
LINE
  5
162
330
2D3
100
AcDbEntity
  8
lazerCut
370
     0
100
AcDbLine
 10
142.642135623731
 20
97.64213562373085
 30
0.0
 11
146.743354954613
 21
93.54091629284895
 31
0.0
  0
LINE
  5
163
330
2D3
100
AcDbEntity
  8
lazerCut
370
     0
100
AcDbLine
 10
150.9264068711928
 20
103.5
 30
0.0
 11
153.8144227664784
 21
100.6119841047144
 31
0.0
  0
ARC
  5
164
330
2D3
100
AcDbEntity
  8
lazerCut
370
     0
100
AcDbCircle
 10
150.2788888605457
 20
97.07645019878164
 30
0.0
 40
5.0
100
AcDbArc
 50
225.0
 51
44.99999999999996
  0
CIRCLE
  5
165
330
2D3
100
AcDbEntity
  8
lazerCut
370
     0
100
AcDbCircle
 10
129.0656854249492
 20
75.86324676318529
 30
0.0
 40
1.5
  0
LINE
  5
166
330
2D3
100
AcDbEntity
  8
lazerCut
370
     0
100
AcDbLine
 10
121.357864376269
 20
76.49999999999999
 30
0.0
 11
125.5301515190166
 21
72.32771285725242
 31
0.0
  0
LINE
  5
167
330
2D3
100
AcDbEntity
  8
lazerCut
370
     0
100
AcDbLine
 10
128.5000000000001
 20
83.49999999999993
 30
0.0
 11
132.601219330882
 21
79.39878066911795
 31
0.0
  0
ARC
  5
168
330
2D3
100
AcDbEntity
  8
lazerCut
370
     0
100
AcDbCircle
 10
129.0656854249492
 20
75.86324676318529
 30
0.0
 40
5.0
100
AcDbArc
 50
225.0
 51
44.99999999999996
  0
LINE
  5
169
330
2D3
100
AcDbEntity
  8
lazerCut
370
     0
100
AcDbLine
 10
163.8553390593273
 20
118.8553390593274
 30
0.0
 11
161.5
 21
116.5
 31
0.0
  0
LINE
  5
16A
330
2D3
100
AcDbEntity
  8
lazerCut
370
     0
100
AcDbLine
 10
230.0000000000001
 20
35.00000000000013
 30
0.0
 11
230.0000000000001
 21
50.00000000000007
 31
0.0
  0
LINE
  5
16B
330
2D3
100
AcDbEntity
  8
lazerCut
370
     0
100
AcDbLine
 10
16.5
 20
25.00000000000011
 30
0.0
 11
16.5
 21
35.00000000000007
 31
0.0
  0
LINE
  5
16C
330
2D3
100
AcDbEntity
  8
lazerCut
370
     0
100
AcDbLine
 10
13.50000000000006
 20
34.99999999999996
 30
0.0
 11
13.50000000000009
 21
24.99999999999989
 31
0.0
  0
ARC
  5
16D
330
2D3
100
AcDbEntity
  8
lazerCut
370
     0
100
AcDbCircle
 10
15.00000000000011
 20
34.99999999999994
 30
0.0
 40
1.5
100
AcDbArc
 50
0.0
 51
180.0
  0
ARC
  5
16E
330
2D3
100
AcDbEntity
  8
lazerCut
370
     0
100
AcDbCircle
 10
15.00000000000011
 20
24.99999999999987
 30
0.0
 40
1.5
100
AcDbArc
 50
180.0
 51
0.0
  0
LINE
  5
16F
330
2D3
100
AcDbEntity
  8
lazerCut
370
     0
100
AcDbLine
 10
46.50000000000031
 20
24.99999999999971
 30
0.0
 11
46.50000000000009
 21
34.9999999999999
 31
0.0
  0
LINE
  5
170
330
2D3
100
AcDbEntity
  8
lazerCut
370
     0
100
AcDbLine
 10
43.50000000000006
 20
34.99999999999993
 30
0.0
 11
43.50000000000009
 21
24.99999999999994
 31
0.0
  0
ARC
  5
171
330
2D3
100
AcDbEntity
  8
lazerCut
370
     0
100
AcDbCircle
 10
44.99999999999994
 20
35.00000000000004
 30
0.0
 40
1.5
100
AcDbArc
 50
0.0
 51
180.0
  0
ARC
  5
172
330
2D3
100
AcDbEntity
  8
lazerCut
370
     0
100
AcDbCircle
 10
45.0000000000004
 20
24.99999999999959
 30
0.0
 40
1.5
100
AcDbArc
 50
180.0
 51
0.0
  0
LINE
  5
173
330
2D3
100
AcDbEntity
  8
lazerCut
370
     0
100
AcDbLine
 10
56.50000000000011
 20
24.99999999999992
 30
0.0
 11
56.49999999999986
 21
35.00000000000016
 31
0.0
  0
LINE
  5
174
330
2D3
100
AcDbEntity
  8
lazerCut
370
     0
100
AcDbLine
 10
53.5000000000002
 20
34.99999999999982
 30
0.0
 11
53.50000000000009
 21
24.99999999999995
 31
0.0
  0
ARC
  5
175
330
2D3
100
AcDbEntity
  8
lazerCut
370
     0
100
AcDbCircle
 10
55.0
 20
35.00000000000003
 30
0.0
 40
1.5
100
AcDbArc
 50
0.0
 51
180.0
  0
ARC
  5
176
330
2D3
100
AcDbEntity
  8
lazerCut
370
     0
100
AcDbCircle
 10
55.00000000000006
 20
24.99999999999999
 30
0.0
 40
1.5
100
AcDbArc
 50
180.0
 51
0.0
  0
LINE
  5
177
330
2D3
100
AcDbEntity
  8
lazerCut
370
     0
100
AcDbLine
 10
83.50000000000009
 20
34.99999999999994
 30
0.0
 11
83.50000000000014
 21
24.99999999999994
 31
0.0
  0
LINE
  5
178
330
2D3
100
AcDbEntity
  8
lazerCut
370
     0
100
AcDbLine
 10
86.50000000000009
 20
24.99999999999997
 30
0.0
 11
86.50000000000009
 21
34.99999999999994
 31
0.0
  0
ARC
  5
179
330
2D3
100
AcDbEntity
  8
lazerCut
370
     0
100
AcDbCircle
 10
85.00000000000009
 20
24.99999999999994
 30
0.0
 40
1.5
100
AcDbArc
 50
180.0
 51
0.0
  0
ARC
  5
17A
330
2D3
100
AcDbEntity
  8
lazerCut
370
     0
100
AcDbCircle
 10
85.00000000000009
 20
34.99999999999993
 30
0.0
 40
1.5
100
AcDbArc
 50
0.0
 51
180.0
  0
LINE
  5
17B
330
2D3
100
AcDbEntity
  8
lazerCut
370
     0
100
AcDbLine
 10
83.50000000000003
 20
64.99999999999993
 30
0.0
 11
83.49999999999997
 21
54.99999999999999
 31
0.0
  0
LINE
  5
17C
330
2D3
100
AcDbEntity
  8
lazerCut
370
     0
100
AcDbLine
 10
86.50000000000009
 20
54.99999999999993
 30
0.0
 11
86.49999999999997
 21
65.00000000000001
 31
0.0
  0
ARC
  5
17D
330
2D3
100
AcDbEntity
  8
lazerCut
370
     0
100
AcDbCircle
 10
85.00000000000009
 20
54.99999999999999
 30
0.0
 40
1.5
100
AcDbArc
 50
180.0
 51
0.0
  0
ARC
  5
17E
330
2D3
100
AcDbEntity
  8
lazerCut
370
     0
100
AcDbCircle
 10
85.00000000000003
 20
64.99999999999999
 30
0.0
 40
1.5
100
AcDbArc
 50
0.0
 51
180.0
  0
LINE
  5
17F
330
2D3
100
AcDbEntity
  8
lazerCut
370
     0
100
AcDbLine
 10
73.50000000000009
 20
34.99999999999993
 30
0.0
 11
73.50000000000009
 21
24.99999999999992
 31
0.0
  0
LINE
  5
180
330
2D3
100
AcDbEntity
  8
lazerCut
370
     0
100
AcDbLine
 10
76.50000000000003
 20
24.99999999999998
 30
0.0
 11
76.50000000000009
 21
34.99999999999993
 31
0.0
  0
ARC
  5
181
330
2D3
100
AcDbEntity
  8
lazerCut
370
     0
100
AcDbCircle
 10
75.00000000000009
 20
24.99999999999993
 30
0.0
 40
1.5
100
AcDbArc
 50
180.0
 51
0.0
  0
ARC
  5
182
330
2D3
100
AcDbEntity
  8
lazerCut
370
     0
100
AcDbCircle
 10
75.00000000000003
 20
34.99999999999999
 30
0.0
 40
1.5
100
AcDbArc
 50
0.0
 51
180.0
  0
LINE
  5
183
330
2D3
100
AcDbEntity
  8
lazerCut
370
     0
100
AcDbLine
 10
73.50000000000003
 20
64.99999999999997
 30
0.0
 11
73.50000000000003
 21
54.99999999999999
 31
0.0
  0
LINE
  5
184
330
2D3
100
AcDbEntity
  8
lazerCut
370
     0
100
AcDbLine
 10
76.50000000000009
 20
54.99999999999993
 30
0.0
 11
76.50000000000003
 21
65.0
 31
0.0
  0
ARC
  5
185
330
2D3
100
AcDbEntity
  8
lazerCut
370
     0
100
AcDbCircle
 10
75.00000000000003
 20
54.99999999999997
 30
0.0
 40
1.5
100
AcDbArc
 50
180.0
 51
0.0
  0
ARC
  5
186
330
2D3
100
AcDbEntity
  8
lazerCut
370
     0
100
AcDbCircle
 10
75.00000000000003
 20
64.99999999999997
 30
0.0
 40
1.5
100
AcDbArc
 50
0.0
 51
180.0
  0
LINE
  5
187
330
2D3
100
AcDbEntity
  8
lazerCut
370
     0
100
AcDbLine
 10
56.50000000000011
 20
54.99999999999989
 30
0.0
 11
56.50000000000006
 21
64.99999999999996
 31
0.0
  0
LINE
  5
188
330
2D3
100
AcDbEntity
  8
lazerCut
370
     0
100
AcDbLine
 10
53.50000000000009
 20
64.99999999999987
 30
0.0
 11
53.50000000000009
 21
54.99999999999997
 31
0.0
  0
ARC
  5
189
330
2D3
100
AcDbEntity
  8
lazerCut
370
     0
100
AcDbCircle
 10
55.00000000000006
 20
64.99999999999997
 30
0.0
 40
1.5
100
AcDbArc
 50
0.0
 51
180.0
  0
ARC
  5
18A
330
2D3
100
AcDbEntity
  8
lazerCut
370
     0
100
AcDbCircle
 10
55.00000000000006
 20
54.99999999999987
 30
0.0
 40
1.5
100
AcDbArc
 50
180.0
 51
0.0
  0
LINE
  5
18B
330
2D3
100
AcDbEntity
  8
lazerCut
370
     0
100
AcDbLine
 10
46.50000000000006
 20
54.99999999999997
 30
0.0
 11
46.50000000000003
 21
64.99999999999996
 31
0.0
  0
LINE
  5
18C
330
2D3
100
AcDbEntity
  8
lazerCut
370
     0
100
AcDbLine
 10
43.50000000000006
 20
65.00000000000006
 30
0.0
 11
43.50000000000006
 21
54.99999999999987
 31
0.0
  0
ARC
  5
18D
330
2D3
100
AcDbEntity
  8
lazerCut
370
     0
100
AcDbCircle
 10
45.00000000000011
 20
64.99999999999986
 30
0.0
 40
1.5
100
AcDbArc
 50
0.0
 51
180.0
  0
ARC
  5
18E
330
2D3
100
AcDbEntity
  8
lazerCut
370
     0
100
AcDbCircle
 10
45.00000000000006
 20
54.99999999999991
 30
0.0
 40
1.5
100
AcDbArc
 50
180.0
 51
0.0
  0
LINE
  5
18F
330
2D3
100
AcDbEntity
  8
lazerCut
370
     0
100
AcDbLine
 10
13.50000000000006
 20
64.99999999999979
 30
0.0
 11
13.50000000000003
 21
54.99999999999991
 31
0.0
  0
LINE
  5
190
330
2D3
100
AcDbEntity
  8
lazerCut
370
     0
100
AcDbLine
 10
16.50000000000009
 20
54.9999999999999
 30
0.0
 11
16.50000000000006
 21
65.00000000000009
 31
0.0
  0
ARC
  5
191
330
2D3
100
AcDbEntity
  8
lazerCut
370
     0
100
AcDbCircle
 10
15.00000000000006
 20
54.99999999999993
 30
0.0
 40
1.5
100
AcDbArc
 50
180.0
 51
0.0
  0
ARC
  5
192
330
2D3
100
AcDbEntity
  8
lazerCut
370
     0
100
AcDbCircle
 10
15.00000000000009
 20
64.99999999999974
 30
0.0
 40
1.5
100
AcDbArc
 50
0.0
 51
180.0
  0
LINE
  5
193
330
2D3
100
AcDbEntity
  8
lazerCut
370
     0
100
AcDbLine
 10
158.5000000000001
 20
45.00000000000001
 30
0.0
 11
158.5000000000001
 21
35.00000000000004
 31
0.0
  0
LINE
  5
194
330
2D3
100
AcDbEntity
  8
lazerCut
370
     0
100
AcDbLine
 10
161.5000000000001
 20
35.00000000000004
 30
0.0
 11
161.5000000000001
 21
44.99999999999996
 31
0.0
  0
ARC
  5
195
330
2D3
100
AcDbEntity
  8
lazerCut
370
     0
100
AcDbCircle
 10
160.0000000000001
 20
35.00000000000004
 30
0.0
 40
1.5
100
AcDbArc
 50
180.0
 51
0.0
  0
ARC
  5
196
330
2D3
100
AcDbEntity
  8
lazerCut
370
     0
100
AcDbCircle
 10
160.0000000000001
 20
45.00000000000001
 30
0.0
 40
1.5
100
AcDbArc
 50
0.0
 51
180.0
  0
LINE
  5
197
330
2D3
100
AcDbEntity
  8
lazerCut
370
     0
100
AcDbLine
 10
168.5000000000001
 20
44.99999999999993
 30
0.0
 11
168.5000000000001
 21
35.00000000000004
 31
0.0
  0
LINE
  5
198
330
2D3
100
AcDbEntity
  8
lazerCut
370
     0
100
AcDbLine
 10
171.5000000000001
 20
35.00000000000004
 30
0.0
 11
171.5000000000001
 21
45.0000000000001
 31
0.0
  0
ARC
  5
199
330
2D3
100
AcDbEntity
  8
lazerCut
370
     0
100
AcDbCircle
 10
170.0000000000001
 20
35.00000000000004
 30
0.0
 40
1.5
100
AcDbArc
 50
180.0
 51
0.0
  0
ARC
  5
19A
330
2D3
100
AcDbEntity
  8
lazerCut
370
     0
100
AcDbCircle
 10
170.0
 20
44.99999999999993
 30
0.0
 40
1.5
100
AcDbArc
 50
0.0
 51
180.0
  0
LINE
  5
19B
330
2D3
100
AcDbEntity
  8
lazerCut
370
     0
100
AcDbLine
 10
138.5000000000001
 20
45.00000000000001
 30
0.0
 11
138.5
 21
35.00000000000001
 31
0.0
  0
LINE
  5
19C
330
2D3
100
AcDbEntity
  8
lazerCut
370
     0
100
AcDbLine
 10
141.5000000000001
 20
35.00000000000001
 30
0.0
 11
141.5000000000001
 21
44.99999999999999
 31
0.0
  0
ARC
  5
19D
330
2D3
100
AcDbEntity
  8
lazerCut
370
     0
100
AcDbCircle
 10
140.0000000000001
 20
35.00000000000001
 30
0.0
 40
1.5
100
AcDbArc
 50
180.0
 51
0.0
  0
ARC
  5
19E
330
2D3
100
AcDbEntity
  8
lazerCut
370
     0
100
AcDbCircle
 10
140.0000000000001
 20
45.00000000000001
 30
0.0
 40
1.5
100
AcDbArc
 50
0.0
 51
180.0
  0
LINE
  5
19F
330
2D3
100
AcDbEntity
  8
lazerCut
370
     0
100
AcDbLine
 10
128.5000000000001
 20
44.99999999999999
 30
0.0
 11
128.5000000000001
 21
34.99999999999996
 31
0.0
  0
LINE
  5
1A0
330
2D3
100
AcDbEntity
  8
lazerCut
370
     0
100
AcDbLine
 10
131.5000000000001
 20
34.99999999999996
 30
0.0
 11
131.5
 21
44.99999999999999
 31
0.0
  0
ARC
  5
1A1
330
2D3
100
AcDbEntity
  8
lazerCut
370
     0
100
AcDbCircle
 10
130.0
 20
34.99999999999996
 30
0.0
 40
1.5
100
AcDbArc
 50
180.0
 51
0.0
  0
ARC
  5
1A2
330
2D3
100
AcDbEntity
  8
lazerCut
370
     0
100
AcDbCircle
 10
130.0000000000001
 20
44.99999999999999
 30
0.0
 40
1.5
100
AcDbArc
 50
0.0
 51
180.0
  0
LINE
  5
1A3
330
2D3
100
AcDbEntity
  8
lazerCut
370
     0
100
AcDbLine
 10
168.5
 20
75.00000000000006
 30
0.0
 11
168.5000000000001
 21
65.00000000000007
 31
0.0
  0
LINE
  5
1A4
330
2D3
100
AcDbEntity
  8
lazerCut
370
     0
100
AcDbLine
 10
171.5000000000001
 20
65.00000000000007
 30
0.0
 11
171.5
 21
74.99999999999994
 31
0.0
  0
ARC
  5
1A5
330
2D3
100
AcDbEntity
  8
lazerCut
370
     0
100
AcDbCircle
 10
170.0
 20
65.00000000000009
 30
0.0
 40
1.5
100
AcDbArc
 50
180.0
 51
0.0
  0
ARC
  5
1A6
330
2D3
100
AcDbEntity
  8
lazerCut
370
     0
100
AcDbCircle
 10
170.0000000000001
 20
74.99999999999994
 30
0.0
 40
1.5
100
AcDbArc
 50
0.0
 51
180.0
  0
LINE
  5
1A7
330
2D3
100
AcDbEntity
  8
lazerCut
370
     0
100
AcDbLine
 10
158.5000000000001
 20
74.99999999999996
 30
0.0
 11
158.5000000000001
 21
65.00000000000001
 31
0.0
  0
LINE
  5
1A8
330
2D3
100
AcDbEntity
  8
lazerCut
370
     0
100
AcDbLine
 10
161.5000000000001
 20
64.99999999999996
 30
0.0
 11
161.5
 21
75.00000000000001
 31
0.0
  0
ARC
  5
1A9
330
2D3
100
AcDbEntity
  8
lazerCut
370
     0
100
AcDbCircle
 10
160.0000000000001
 20
65.00000000000004
 30
0.0
 40
1.5
100
AcDbArc
 50
180.0
 51
0.0
  0
ARC
  5
1AA
330
2D3
100
AcDbEntity
  8
lazerCut
370
     0
100
AcDbCircle
 10
160.0
 20
74.99999999999999
 30
0.0
 40
1.5
100
AcDbArc
 50
0.0
 51
180.0
  0
LINE
  5
1AB
330
2D3
100
AcDbEntity
  8
lazerCut
370
     0
100
AcDbLine
 10
138.5000000000001
 20
125.0
 30
0.0
 11
138.5
 21
115.0
 31
0.0
  0
LINE
  5
1AC
330
2D3
100
AcDbEntity
  8
lazerCut
370
     0
100
AcDbLine
 10
141.5
 20
115.0
 30
0.0
 11
141.5
 21
125.0
 31
0.0
  0
ARC
  5
1AD
330
2D3
100
AcDbEntity
  8
lazerCut
370
     0
100
AcDbCircle
 10
140.0
 20
115.0000000000001
 30
0.0
 40
1.5
100
AcDbArc
 50
180.0
 51
0.0
  0
ARC
  5
1AE
330
2D3
100
AcDbEntity
  8
lazerCut
370
     0
100
AcDbCircle
 10
140.0
 20
125.0
 30
0.0
 40
1.5
100
AcDbArc
 50
0.0
 51
180.0
  0
LINE
  5
1AF
330
2D3
100
AcDbEntity
  8
lazerCut
370
     0
100
AcDbLine
 10
148.5
 20
125.0
 30
0.0
 11
148.5
 21
115.0
 31
0.0
  0
LINE
  5
1B0
330
2D3
100
AcDbEntity
  8
lazerCut
370
     0
100
AcDbLine
 10
151.5
 20
115.0
 30
0.0
 11
151.5
 21
125.0
 31
0.0
  0
ARC
  5
1B1
330
2D3
100
AcDbEntity
  8
lazerCut
370
     0
100
AcDbCircle
 10
150.0
 20
115.0
 30
0.0
 40
1.5
100
AcDbArc
 50
180.0
 51
0.0
  0
ARC
  5
1B2
330
2D3
100
AcDbEntity
  8
lazerCut
370
     0
100
AcDbCircle
 10
150.0000000000001
 20
124.9999999999999
 30
0.0
 40
1.5
100
AcDbArc
 50
0.0
 51
180.0
  0
LINE
  5
1B3
330
2D3
100
AcDbEntity
  8
lazerCut
370
     0
100
AcDbLine
 10
108.5
 20
125.0
 30
0.0
 11
108.5
 21
115.0
 31
0.0
  0
LINE
  5
1B4
330
2D3
100
AcDbEntity
  8
lazerCut
370
     0
100
AcDbLine
 10
111.5000000000001
 20
114.9999999999999
 30
0.0
 11
111.5
 21
125.0
 31
0.0
  0
ARC
  5
1B5
330
2D3
100
AcDbEntity
  8
lazerCut
370
     0
100
AcDbCircle
 10
110.0000000000001
 20
115.0
 30
0.0
 40
1.5
100
AcDbArc
 50
180.0
 51
0.0
  0
ARC
  5
1B6
330
2D3
100
AcDbEntity
  8
lazerCut
370
     0
100
AcDbCircle
 10
110.0000000000001
 20
124.9999999999999
 30
0.0
 40
1.5
100
AcDbArc
 50
0.0
 51
180.0
  0
LINE
  5
1B7
330
2D3
100
AcDbEntity
  8
lazerCut
370
     0
100
AcDbLine
 10
118.5000000000001
 20
125.0
 30
0.0
 11
118.5
 21
115.0
 31
0.0
  0
LINE
  5
1B8
330
2D3
100
AcDbEntity
  8
lazerCut
370
     0
100
AcDbLine
 10
121.5
 20
115.0
 30
0.0
 11
121.5
 21
125.0
 31
0.0
  0
ARC
  5
1B9
330
2D3
100
AcDbEntity
  8
lazerCut
370
     0
100
AcDbCircle
 10
120.0
 20
114.9999999999999
 30
0.0
 40
1.5
100
AcDbArc
 50
180.0
 51
0.0
  0
ARC
  5
1BA
330
2D3
100
AcDbEntity
  8
lazerCut
370
     0
100
AcDbCircle
 10
120.0
 20
125.0
 30
0.0
 40
1.5
100
AcDbArc
 50
0.0
 51
180.0
  0
LINE
  5
1BB
330
2D3
100
AcDbEntity
  8
lazerCut
370
     0
100
AcDbLine
 10
108.5
 20
94.99999999999999
 30
0.0
 11
108.5000000000001
 21
84.99999999999999
 31
0.0
  0
LINE
  5
1BC
330
2D3
100
AcDbEntity
  8
lazerCut
370
     0
100
AcDbLine
 10
111.5
 20
84.99999999999993
 30
0.0
 11
111.5000000000001
 21
94.99999999999994
 31
0.0
  0
ARC
  5
1BD
330
2D3
100
AcDbEntity
  8
lazerCut
370
     0
100
AcDbCircle
 10
110.0000000000001
 20
84.99999999999974
 30
0.0
 40
1.5
100
AcDbArc
 50
180.0
 51
0.0
  0
ARC
  5
1BE
330
2D3
100
AcDbEntity
  8
lazerCut
370
     0
100
AcDbCircle
 10
110.0
 20
94.99999999999996
 30
0.0
 40
1.5
100
AcDbArc
 50
0.0
 51
180.0
  0
LINE
  5
1BF
330
2D3
100
AcDbEntity
  8
lazerCut
370
     0
100
AcDbLine
 10
118.5
 20
94.99999999999993
 30
0.0
 11
118.5
 21
84.99999999999996
 31
0.0
  0
LINE
  5
1C0
330
2D3
100
AcDbEntity
  8
lazerCut
370
     0
100
AcDbLine
 10
121.5
 20
85.00000000000001
 30
0.0
 11
121.5
 21
94.99999999999999
 31
0.0
  0
ARC
  5
1C1
330
2D3
100
AcDbEntity
  8
lazerCut
370
     0
100
AcDbCircle
 10
120.0
 20
84.99999999999997
 30
0.0
 40
1.5
100
AcDbArc
 50
180.0
 51
0.0
  0
ARC
  5
1C2
330
2D3
100
AcDbEntity
  8
lazerCut
370
     0
100
AcDbCircle
 10
120.0
 20
94.99999999999996
 30
0.0
 40
1.5
100
AcDbArc
 50
0.0
 51
180.0
  0
CIRCLE
  5
1C4
330
2D3
100
AcDbEntity
  8
lazerCut
370
     0
100
AcDbCircle
 10
150.0000000000001
 20
24.99999999999998
 30
0.0
 40
2.0
  0
CIRCLE
  5
1C5
330
2D3
100
AcDbEntity
  8
lazerCut
370
     0
100
AcDbCircle
 10
145.5000000000001
 20
24.99999999999999
 30
0.0
 40
0.8
  0
CIRCLE
  5
1C6
330
2D3
100
AcDbEntity
  8
lazerCut
370
     0
100
AcDbCircle
 10
154.5000000000001
 20
24.99999999999996
 30
0.0
 40
0.8
  0
CIRCLE
  5
1C7
330
2D3
100
AcDbEntity
  8
lazerCut
370
     0
100
AcDbCircle
 10
120.0000000000001
 20
24.99999999999996
 30
0.0
 40
2.0
  0
CIRCLE
  5
1C8
330
2D3
100
AcDbEntity
  8
lazerCut
370
     0
100
AcDbCircle
 10
115.5
 20
25.00000000000002
 30
0.0
 40
0.8
  0
CIRCLE
  5
1C9
330
2D3
100
AcDbEntity
  8
lazerCut
370
     0
100
AcDbCircle
 10
124.5000000000001
 20
24.99999999999999
 30
0.0
 40
0.8
  0
CIRCLE
  5
1CA
330
2D3
100
AcDbEntity
  8
lazerCut
370
     0
100
AcDbCircle
 10
130.0
 20
135.0
 30
0.0
 40
2.0
  0
CIRCLE
  5
1CB
330
2D3
100
AcDbEntity
  8
lazerCut
370
     0
100
AcDbCircle
 10
125.5
 20
134.9999999999999
 30
0.0
 40
0.8
  0
CIRCLE
  5
1CC
330
2D3
100
AcDbEntity
  8
lazerCut
370
     0
100
AcDbCircle
 10
134.5
 20
135.0
 30
0.0
 40
0.8
  0
CIRCLE
  5
1CD
330
2D3
100
AcDbEntity
  8
lazerCut
370
     0
100
AcDbCircle
 10
159.9999999999999
 20
135.0000000000001
 30
0.0
 40
2.0
  0
CIRCLE
  5
1CE
330
2D3
100
AcDbEntity
  8
lazerCut
370
     0
100
AcDbCircle
 10
155.5000000000001
 20
134.9999999999999
 30
0.0
 40
0.8
  0
CIRCLE
  5
1CF
330
2D3
100
AcDbEntity
  8
lazerCut
370
     0
100
AcDbCircle
 10
164.5
 20
135.0
 30
0.0
 40
0.8
  0
CIRCLE
  5
1D0
330
2D3
100
AcDbEntity
  8
lazerCut
370
     0
100
AcDbCircle
 10
235.8
 20
55.00000000000011
 30
0.0
 40
1.5
  0
LINE
  5
1D1
330
2D3
100
AcDbEntity
  8
lazerCut
370
     0
100
AcDbLine
 10
230.0
 20
60.00000000000003
 30
0.0
 11
235.8000000000002
 21
60.00000000000007
 31
0.0
  0
LINE
  5
1D2
330
2D3
100
AcDbEntity
  8
lazerCut
370
     0
100
AcDbLine
 10
230.0000000000001
 20
50.00000000000007
 30
0.0
 11
235.8
 21
50.00000000000013
 31
0.0
  0
ARC
  5
1D3
330
2D3
100
AcDbEntity
  8
lazerCut
370
     0
100
AcDbCircle
 10
235.8
 20
55.00000000000011
 30
0.0
 40
5.0
100
AcDbArc
 50
270.0
 51
90.00000000000001
  0
CIRCLE
  5
1D4
330
2D3
100
AcDbEntity
  8
lazerCut
370
     0
100
AcDbCircle
 10
235.8
 20
84.99999999999756
 30
0.0
 40
1.5
  0
LINE
  5
1D5
330
2D3
100
AcDbEntity
  8
lazerCut
370
     0
100
AcDbLine
 10
230.0
 20
89.99999999999984
 30
0.0
 11
235.8
 21
90.00000000000041
 31
0.0
  0
LINE
  5
1D6
330
2D3
100
AcDbEntity
  8
lazerCut
370
     0
100
AcDbLine
 10
230.0
 20
79.99999999999999
 30
0.0
 11
235.7999999999999
 21
79.99999999999986
 31
0.0
  0
ARC
  5
1D7
330
2D3
100
AcDbEntity
  8
lazerCut
370
     0
100
AcDbCircle
 10
235.8
 20
84.99999999999756
 30
0.0
 40
5.0
100
AcDbArc
 50
270.0
 51
90.00000000000001
  0
LINE
  5
1D8
330
2D3
100
AcDbEntity
  8
lazerCut
370
     0
100
AcDbLine
 10
230.0
 20
89.99999999999984
 30
0.0
 11
230.0
 21
105.0
 31
0.0
  0
LINE
  5
1D9
330
2D3
100
AcDbEntity
  8
lazerCut
370
     0
100
AcDbLine
 10
230.0
 20
60.00000000000018
 30
0.0
 11
230.0
 21
79.99999999999999
 31
0.0
  0
LINE
  5
1DA
330
2D3
100
AcDbEntity
  8
lazerCut
370
     0
100
AcDbLine
 10
230.0000000000001
 20
35.00000000000013
 30
0.0
 11
215.0000000000001
 21
35.0000000000001
 31
0.0
  0
LINE
  5
1DB
330
2D3
100
AcDbEntity
  8
lazerCut
370
     0
100
AcDbLine
 10
190.0000000000001
 20
34.99999999999997
 30
0.0
 11
190.0000000000001
 21
50.00000000000007
 31
0.0
  0
CIRCLE
  5
1DC
330
2D3
100
AcDbEntity
  8
lazerCut
370
     0
100
AcDbCircle
 10
184.2000000000001
 20
54.99999999999996
 30
0.0
 40
1.5
  0
LINE
  5
1DD
330
2D3
100
AcDbEntity
  8
lazerCut
370
     0
100
AcDbLine
 10
190.0000000000001
 20
60.00000000000001
 30
0.0
 11
184.2
 21
60.00000000000001
 31
0.0
  0
LINE
  5
1DE
330
2D3
100
AcDbEntity
  8
lazerCut
370
     0
100
AcDbLine
 10
190.0000000000001
 20
50.00000000000007
 30
0.0
 11
184.2000000000001
 21
49.99999999999999
 31
0.0
  0
ARC
  5
1DF
330
2D3
100
AcDbEntity
  8
lazerCut
370
     0
100
AcDbCircle
 10
184.2000000000001
 20
54.99999999999996
 30
0.0
 40
5.0
100
AcDbArc
 50
90.00000000000001
 51
270.0
  0
CIRCLE
  5
1E0
330
2D3
100
AcDbEntity
  8
lazerCut
370
     0
100
AcDbCircle
 10
184.2
 20
84.99999999999993
 30
0.0
 40
1.5
  0
LINE
  5
1E1
330
2D3
100
AcDbEntity
  8
lazerCut
370
     0
100
AcDbLine
 10
190.0
 20
90.0000000000002
 30
0.0
 11
184.2
 21
90.00000000000014
 31
0.0
  0
LINE
  5
1E2
330
2D3
100
AcDbEntity
  8
lazerCut
370
     0
100
AcDbLine
 10
190.0
 20
80.0000000000002
 30
0.0
 11
184.2000000000001
 21
80.00000000000006
 31
0.0
  0
ARC
  5
1E3
330
2D3
100
AcDbEntity
  8
lazerCut
370
     0
100
AcDbCircle
 10
184.2
 20
84.99999999999993
 30
0.0
 40
5.0
100
AcDbArc
 50
90.00000000000001
 51
270.0
  0
LINE
  5
1E4
330
2D3
100
AcDbEntity
  8
lazerCut
370
     0
100
AcDbLine
 10
190.0
 20
90.0000000000002
 30
0.0
 11
190.0000000000001
 21
104.9999999999999
 31
0.0
  0
LINE
  5
1E5
330
2D3
100
AcDbEntity
  8
lazerCut
370
     0
100
AcDbLine
 10
190.0000000000001
 20
60.00000000000014
 30
0.0
 11
190.0
 21
80.0000000000002
 31
0.0
  0
CIRCLE
  5
1E6
330
2D3
100
AcDbEntity
  8
lazerCut
370
     0
100
AcDbCircle
 10
210.0000000000001
 20
29.20000000000002
 30
0.0
 40
1.5
  0
LINE
  5
1E7
330
2D3
100
AcDbEntity
  8
lazerCut
370
     0
100
AcDbLine
 10
215.0000000000001
 20
35.0000000000001
 30
0.0
 11
215.0000000000001
 21
29.20000000000002
 31
0.0
  0
LINE
  5
1E8
330
2D3
100
AcDbEntity
  8
lazerCut
370
     0
100
AcDbLine
 10
205.0000000000001
 20
34.99999999999996
 30
0.0
 11
205.0
 21
29.20000000000005
 31
0.0
  0
ARC
  5
1E9
330
2D3
100
AcDbEntity
  8
lazerCut
370
     0
100
AcDbCircle
 10
210.0000000000001
 20
29.20000000000002
 30
0.0
 40
5.0
100
AcDbArc
 50
180.0
 51
0.0
  0
LINE
  5
1EA
330
2D3
100
AcDbEntity
  8
lazerCut
370
     0
100
AcDbLine
 10
190.0000000000001
 20
34.99999999999997
 30
0.0
 11
205.0000000000001
 21
34.99999999999996
 31
0.0
  0
LINE
  5
1EB
330
2D3
100
AcDbEntity
  8
lazerCut
370
     0
100
AcDbLine
 10
230.0
 20
105.0
 30
0.0
 11
215.0000000000001
 21
105.0
 31
0.0
  0
CIRCLE
  5
1EC
330
2D3
100
AcDbEntity
  8
lazerCut
370
     0
100
AcDbCircle
 10
210.0000000000001
 20
110.8
 30
0.0
 40
1.5
  0
LINE
  5
1ED
330
2D3
100
AcDbEntity
  8
lazerCut
370
     0
100
AcDbLine
 10
215.0000000000001
 20
105.0
 30
0.0
 11
215.0
 21
110.8000000000001
 31
0.0
  0
LINE
  5
1EE
330
2D3
100
AcDbEntity
  8
lazerCut
370
     0
100
AcDbLine
 10
205.0
 20
105.0
 30
0.0
 11
205.0
 21
110.8
 31
0.0
  0
ARC
  5
1EF
330
2D3
100
AcDbEntity
  8
lazerCut
370
     0
100
AcDbCircle
 10
210.0000000000001
 20
110.8
 30
0.0
 40
5.0
100
AcDbArc
 50
0.0
 51
180.0
  0
LINE
  5
1F0
330
2D3
100
AcDbEntity
  8
lazerCut
370
     0
100
AcDbLine
 10
190.0
 20
105.0000000000001
 30
0.0
 11
205.0
 21
105.0
 31
0.0
  0
LINE
  5
1F1
330
2D3
100
AcDbEntity
  8
lazerCut
370
     0
100
AcDbLine
 10
215.0000000000001
 20
98.49999999999996
 30
0.0
 11
225.0
 21
98.50000000000018
 31
0.0
  0
LINE
  5
1F2
330
2D3
100
AcDbEntity
  8
lazerCut
370
     0
100
AcDbLine
 10
225.0
 20
101.4999999999999
 30
0.0
 11
215.0000000000001
 21
101.5
 31
0.0
  0
ARC
  5
1F3
330
2D3
100
AcDbEntity
  8
lazerCut
370
     0
100
AcDbCircle
 10
215.0
 20
100.0000000000001
 30
0.0
 40
1.5
100
AcDbArc
 50
90.00000000000001
 51
270.0
  0
ARC
  5
1F4
330
2D3
100
AcDbEntity
  8
lazerCut
370
     0
100
AcDbCircle
 10
225.0
 20
100.0000000000002
 30
0.0
 40
1.5
100
AcDbArc
 50
270.0
 51
90.00000000000001
  0
LINE
  5
1F5
330
2D3
100
AcDbEntity
  8
lazerCut
370
     0
100
AcDbLine
 10
215.0000000000001
 20
68.5000000000001
 30
0.0
 11
225.0000000000001
 21
68.5000000000001
 31
0.0
  0
LINE
  5
1F6
330
2D3
100
AcDbEntity
  8
lazerCut
370
     0
100
AcDbLine
 10
225.0000000000001
 20
71.50000000000013
 30
0.0
 11
215.0000000000001
 21
71.4999999999999
 31
0.0
  0
ARC
  5
1F7
330
2D3
100
AcDbEntity
  8
lazerCut
370
     0
100
AcDbCircle
 10
225.0000000000001
 20
69.9999999999999
 30
0.0
 40
1.5
100
AcDbArc
 50
270.0
 51
90.00000000000001
  0
ARC
  5
1F8
330
2D3
100
AcDbEntity
  8
lazerCut
370
     0
100
AcDbCircle
 10
215.0000000000001
 20
70.00000000000018
 30
0.0
 40
1.5
100
AcDbArc
 50
90.00000000000001
 51
270.0
  0
LINE
  5
1F9
330
2D3
100
AcDbEntity
  8
lazerCut
370
     0
100
AcDbLine
 10
215.0
 20
38.4999999999999
 30
0.0
 11
225.0000000000001
 21
38.50000000000006
 31
0.0
  0
LINE
  5
1FA
330
2D3
100
AcDbEntity
  8
lazerCut
370
     0
100
AcDbLine
 10
225.0000000000001
 20
41.50000000000007
 30
0.0
 11
215.0000000000001
 21
41.49999999999997
 31
0.0
  0
ARC
  5
1FB
330
2D3
100
AcDbEntity
  8
lazerCut
370
     0
100
AcDbCircle
 10
215.0000000000001
 20
40.00000000000007
 30
0.0
 40
1.5
100
AcDbArc
 50
90.00000000000001
 51
270.0
  0
ARC
  5
1FC
330
2D3
100
AcDbEntity
  8
lazerCut
370
     0
100
AcDbCircle
 10
225.0000000000001
 20
40.00000000000004
 30
0.0
 40
1.5
100
AcDbArc
 50
270.0
 51
90.00000000000001
  0
LINE
  5
1FD
330
2D3
100
AcDbEntity
  8
lazerCut
370
     0
100
AcDbLine
 10
216.5000000000001
 20
50.00000000000004
 30
0.0
 11
216.5000000000001
 21
60.0000000000001
 31
0.0
  0
LINE
  5
1FE
330
2D3
100
AcDbEntity
  8
lazerCut
370
     0
100
AcDbLine
 10
213.5
 20
59.99999999999999
 30
0.0
 11
213.5000000000001
 21
49.99999999999997
 31
0.0
  0
ARC
  5
1FF
330
2D3
100
AcDbEntity
  8
lazerCut
370
     0
100
AcDbCircle
 10
215.0000000000001
 20
60.00000000000024
 30
0.0
 40
1.5
100
AcDbArc
 50
0.0
 51
180.0
  0
ARC
  5
200
330
2D3
100
AcDbEntity
  8
lazerCut
370
     0
100
AcDbCircle
 10
215.0
 20
49.99999999999996
 30
0.0
 40
1.5
100
AcDbArc
 50
180.0
 51
0.0
  0
LINE
  5
201
330
2D3
100
AcDbEntity
  8
lazerCut
370
     0
100
AcDbLine
 10
226.5000000000001
 20
50.00000000000007
 30
0.0
 11
226.5000000000001
 21
59.99999999999987
 31
0.0
  0
LINE
  5
202
330
2D3
100
AcDbEntity
  8
lazerCut
370
     0
100
AcDbLine
 10
223.5000000000001
 20
60.00000000000001
 30
0.0
 11
223.5000000000001
 21
49.99999999999999
 31
0.0
  0
ARC
  5
203
330
2D3
100
AcDbEntity
  8
lazerCut
370
     0
100
AcDbCircle
 10
225.0000000000001
 20
59.99999999999994
 30
0.0
 40
1.5
100
AcDbArc
 50
0.0
 51
180.0
  0
ARC
  5
204
330
2D3
100
AcDbEntity
  8
lazerCut
370
     0
100
AcDbCircle
 10
225.0000000000001
 20
50.0000000000001
 30
0.0
 40
1.5
100
AcDbArc
 50
180.0
 51
0.0
  0
LINE
  5
205
330
2D3
100
AcDbEntity
  8
lazerCut
370
     0
100
AcDbLine
 10
226.5000000000001
 20
79.99999999999974
 30
0.0
 11
226.5
 21
90.00000000000027
 31
0.0
  0
LINE
  5
206
330
2D3
100
AcDbEntity
  8
lazerCut
370
     0
100
AcDbLine
 10
223.5
 20
90.00000000000051
 30
0.0
 11
223.5
 21
79.99999999999969
 31
0.0
  0
ARC
  5
207
330
2D3
100
AcDbEntity
  8
lazerCut
370
     0
100
AcDbCircle
 10
225.0
 20
90.00000000000027
 30
0.0
 40
1.5
100
AcDbArc
 50
0.0
 51
180.0
  0
ARC
  5
208
330
2D3
100
AcDbEntity
  8
lazerCut
370
     0
100
AcDbCircle
 10
225.0000000000001
 20
79.99999999999993
 30
0.0
 40
1.5
100
AcDbArc
 50
180.0
 51
0.0
  0
LINE
  5
209
330
2D3
100
AcDbEntity
  8
lazerCut
370
     0
100
AcDbLine
 10
216.5000000000001
 20
80.00000000000018
 30
0.0
 11
216.5
 21
89.99999999999986
 31
0.0
  0
LINE
  5
20A
330
2D3
100
AcDbEntity
  8
lazerCut
370
     0
100
AcDbLine
 10
213.5
 20
89.99999999999996
 30
0.0
 11
213.5
 21
79.99999999999984
 31
0.0
  0
ARC
  5
20B
330
2D3
100
AcDbEntity
  8
lazerCut
370
     0
100
AcDbCircle
 10
215.0000000000001
 20
89.99999999999997
 30
0.0
 40
1.5
100
AcDbArc
 50
0.0
 51
180.0
  0
ARC
  5
20C
330
2D3
100
AcDbEntity
  8
lazerCut
370
     0
100
AcDbCircle
 10
215.0
 20
80.00000000000024
 30
0.0
 40
1.5
100
AcDbArc
 50
180.0
 51
0.0
  0
LINE
  5
20D
330
2D3
100
AcDbEntity
  8
lazerCut
370
     0
100
AcDbLine
 10
195.0
 20
98.49999999999993
 30
0.0
 11
205.0
 21
98.49999999999996
 31
0.0
  0
LINE
  5
20E
330
2D3
100
AcDbEntity
  8
lazerCut
370
     0
100
AcDbLine
 10
205.0000000000001
 20
101.4999999999999
 30
0.0
 11
195.0000000000001
 21
101.5
 31
0.0
  0
ARC
  5
20F
330
2D3
100
AcDbEntity
  8
lazerCut
370
     0
100
AcDbCircle
 10
195.0
 20
100.0
 30
0.0
 40
1.5
100
AcDbArc
 50
90.00000000000001
 51
270.0
  0
ARC
  5
210
330
2D3
100
AcDbEntity
  8
lazerCut
370
     0
100
AcDbCircle
 10
205.0000000000001
 20
99.9999999999999
 30
0.0
 40
1.5
100
AcDbArc
 50
270.0
 51
90.00000000000001
  0
LINE
  5
211
330
2D3
100
AcDbEntity
  8
lazerCut
370
     0
100
AcDbLine
 10
195.0
 20
68.50000000000004
 30
0.0
 11
205.0000000000001
 21
68.50000000000001
 31
0.0
  0
LINE
  5
212
330
2D3
100
AcDbEntity
  8
lazerCut
370
     0
100
AcDbLine
 10
205.0000000000001
 20
71.50000000000004
 30
0.0
 11
195.0000000000001
 21
71.50000000000009
 31
0.0
  0
ARC
  5
213
330
2D3
100
AcDbEntity
  8
lazerCut
370
     0
100
AcDbCircle
 10
205.0000000000001
 20
70.0
 30
0.0
 40
1.5
100
AcDbArc
 50
270.0
 51
90.00000000000001
  0
ARC
  5
214
330
2D3
100
AcDbEntity
  8
lazerCut
370
     0
100
AcDbCircle
 10
195.0000000000001
 20
70.00000000000001
 30
0.0
 40
1.5
100
AcDbArc
 50
90.00000000000001
 51
270.0
  0
LINE
  5
215
330
2D3
100
AcDbEntity
  8
lazerCut
370
     0
100
AcDbLine
 10
195.0
 20
38.49999999999996
 30
0.0
 11
205.0000000000001
 21
38.50000000000013
 31
0.0
  0
LINE
  5
216
330
2D3
100
AcDbEntity
  8
lazerCut
370
     0
100
AcDbLine
 10
205.0000000000001
 20
41.50000000000017
 30
0.0
 11
195.0000000000001
 21
41.50000000000013
 31
0.0
  0
ARC
  5
217
330
2D3
100
AcDbEntity
  8
lazerCut
370
     0
100
AcDbCircle
 10
195.0000000000001
 20
40.00000000000013
 30
0.0
 40
1.5
100
AcDbArc
 50
90.00000000000001
 51
270.0
  0
ARC
  5
218
330
2D3
100
AcDbEntity
  8
lazerCut
370
     0
100
AcDbCircle
 10
205.0
 20
40.0
 30
0.0
 40
1.5
100
AcDbArc
 50
270.0
 51
90.00000000000001
  0
LINE
  5
219
330
2D3
100
AcDbEntity
  8
lazerCut
370
     0
100
AcDbLine
 10
196.5000000000001
 20
50.00000000000001
 30
0.0
 11
196.5000000000001
 21
60.00000000000001
 31
0.0
  0
LINE
  5
21A
330
2D3
100
AcDbEntity
  8
lazerCut
370
     0
100
AcDbLine
 10
193.5000000000001
 20
60.00000000000003
 30
0.0
 11
193.5000000000001
 21
50.00000000000001
 31
0.0
  0
ARC
  5
21B
330
2D3
100
AcDbEntity
  8
lazerCut
370
     0
100
AcDbCircle
 10
195.0000000000001
 20
60.00000000000001
 30
0.0
 40
1.5
100
AcDbArc
 50
0.0
 51
180.0
  0
ARC
  5
21C
330
2D3
100
AcDbEntity
  8
lazerCut
370
     0
100
AcDbCircle
 10
195.0000000000001
 20
50.00000000000013
 30
0.0
 40
1.5
100
AcDbArc
 50
180.0
 51
0.0
  0
LINE
  5
21D
330
2D3
100
AcDbEntity
  8
lazerCut
370
     0
100
AcDbLine
 10
206.5000000000001
 20
50.00000000000013
 30
0.0
 11
206.5000000000001
 21
60.00000000000009
 31
0.0
  0
LINE
  5
21E
330
2D3
100
AcDbEntity
  8
lazerCut
370
     0
100
AcDbLine
 10
203.5000000000001
 20
60.00000000000009
 30
0.0
 11
203.5000000000001
 21
50.00000000000007
 31
0.0
  0
ARC
  5
21F
330
2D3
100
AcDbEntity
  8
lazerCut
370
     0
100
AcDbCircle
 10
205.0
 20
60.00000000000003
 30
0.0
 40
1.5
100
AcDbArc
 50
0.0
 51
180.0
  0
ARC
  5
220
330
2D3
100
AcDbEntity
  8
lazerCut
370
     0
100
AcDbCircle
 10
205.0000000000001
 20
50.00000000000006
 30
0.0
 40
1.5
100
AcDbArc
 50
180.0
 51
0.0
  0
LINE
  5
221
330
2D3
100
AcDbEntity
  8
lazerCut
370
     0
100
AcDbLine
 10
206.5000000000001
 20
80.00000000000003
 30
0.0
 11
206.5000000000001
 21
90.00000000000003
 31
0.0
  0
LINE
  5
222
330
2D3
100
AcDbEntity
  8
lazerCut
370
     0
100
AcDbLine
 10
203.5
 20
90.00000000000001
 30
0.0
 11
203.5000000000001
 21
80.00000000000033
 31
0.0
  0
ARC
  5
223
330
2D3
100
AcDbEntity
  8
lazerCut
370
     0
100
AcDbCircle
 10
205.0
 20
90.0000000000001
 30
0.0
 40
1.5
100
AcDbArc
 50
0.0
 51
180.0
  0
ARC
  5
224
330
2D3
100
AcDbEntity
  8
lazerCut
370
     0
100
AcDbCircle
 10
205.0
 20
80.00000000000016
 30
0.0
 40
1.5
100
AcDbArc
 50
180.0
 51
0.0
  0
LINE
  5
225
330
2D3
100
AcDbEntity
  8
lazerCut
370
     0
100
AcDbLine
 10
196.5000000000001
 20
80.00000000000014
 30
0.0
 11
196.5000000000001
 21
90.00000000000013
 31
0.0
  0
LINE
  5
226
330
2D3
100
AcDbEntity
  8
lazerCut
370
     0
100
AcDbLine
 10
193.5000000000001
 20
90.0000000000001
 30
0.0
 11
193.5000000000001
 21
80.0
 31
0.0
  0
ARC
  5
227
330
2D3
100
AcDbEntity
  8
lazerCut
370
     0
100
AcDbCircle
 10
195.0
 20
89.99999999999991
 30
0.0
 40
1.5
100
AcDbArc
 50
0.0
 51
180.0
  0
ARC
  5
228
330
2D3
100
AcDbEntity
  8
lazerCut
370
     0
100
AcDbCircle
 10
195.0
 20
80.00000000000011
 30
0.0
 40
1.5
100
AcDbArc
 50
180.0
 51
0.0
  0
LINE
  5
229
330
2D3
100
AcDbEntity
  8
lazerCut
370
     0
100
AcDbLine
 10
285.0
 20
20.00000000000016
 30
0.0
 11
284.9999999999999
 21
35.0000000000001
 31
0.0
  0
CIRCLE
  5
22A
330
2D3
100
AcDbEntity
  8
lazerCut
370
     0
100
AcDbCircle
 10
290.7999999999999
 20
40.00000000000014
 30
0.0
 40
1.5
  0
LINE
  5
22B
330
2D3
100
AcDbEntity
  8
lazerCut
370
     0
100
AcDbLine
 10
284.9999999999999
 20
45.00000000000006
 30
0.0
 11
290.8000000000001
 21
45.0000000000001
 31
0.0
  0
LINE
  5
22C
330
2D3
100
AcDbEntity
  8
lazerCut
370
     0
100
AcDbLine
 10
284.9999999999999
 20
35.0000000000001
 30
0.0
 11
290.8
 21
35.00000000000016
 31
0.0
  0
ARC
  5
22D
330
2D3
100
AcDbEntity
  8
lazerCut
370
     0
100
AcDbCircle
 10
290.7999999999999
 20
40.00000000000014
 30
0.0
 40
5.0
100
AcDbArc
 50
270.0
 51
90.00000000000001
  0
CIRCLE
  5
22E
330
2D3
100
AcDbEntity
  8
lazerCut
370
     0
100
AcDbCircle
 10
290.7999999999999
 20
69.99999999999758
 30
0.0
 40
1.5
  0
LINE
  5
22F
330
2D3
100
AcDbEntity
  8
lazerCut
370
     0
100
AcDbLine
 10
284.9999999999999
 20
74.99999999999994
 30
0.0
 11
290.8
 21
75.00000000000044
 31
0.0
  0
LINE
  5
230
330
2D3
100
AcDbEntity
  8
lazerCut
370
     0
100
AcDbLine
 10
284.9999999999999
 20
65.00000000000001
 30
0.0
 11
290.7999999999998
 21
64.99999999999989
 31
0.0
  0
ARC
  5
231
330
2D3
100
AcDbEntity
  8
lazerCut
370
     0
100
AcDbCircle
 10
290.7999999999999
 20
69.99999999999758
 30
0.0
 40
5.0
100
AcDbArc
 50
270.0
 51
90.00000000000001
  0
LINE
  5
232
330
2D3
100
AcDbEntity
  8
lazerCut
370
     0
100
AcDbLine
 10
284.9999999999999
 20
74.99999999999994
 30
0.0
 11
284.9999999999999
 21
90.00000000000004
 31
0.0
  0
LINE
  5
233
330
2D3
100
AcDbEntity
  8
lazerCut
370
     0
100
AcDbLine
 10
284.9999999999999
 20
45.00000000000021
 30
0.0
 11
284.9999999999999
 21
65.00000000000001
 31
0.0
  0
LINE
  5
234
330
2D3
100
AcDbEntity
  8
lazerCut
370
     0
100
AcDbLine
 10
285.0
 20
20.00000000000016
 30
0.0
 11
270.0
 21
20.00000000000013
 31
0.0
  0
LINE
  5
235
330
2D3
100
AcDbEntity
  8
lazerCut
370
     0
100
AcDbLine
 10
245.0
 20
20.0
 30
0.0
 11
245.0
 21
34.99999999999999
 31
0.0
  0
CIRCLE
  5
236
330
2D3
100
AcDbEntity
  8
lazerCut
370
     0
100
AcDbCircle
 10
239.2
 20
39.99999999999999
 30
0.0
 40
1.5
  0
LINE
  5
237
330
2D3
100
AcDbEntity
  8
lazerCut
370
     0
100
AcDbLine
 10
245.0
 20
45.00000000000004
 30
0.0
 11
239.1999999999999
 21
45.00000000000004
 31
0.0
  0
LINE
  5
238
330
2D3
100
AcDbEntity
  8
lazerCut
370
     0
100
AcDbLine
 10
245.0
 20
34.99999999999999
 30
0.0
 11
239.2
 21
35.00000000000001
 31
0.0
  0
ARC
  5
239
330
2D3
100
AcDbEntity
  8
lazerCut
370
     0
100
AcDbCircle
 10
239.2
 20
39.99999999999999
 30
0.0
 40
5.0
100
AcDbArc
 50
90.00000000000001
 51
270.0
  0
CIRCLE
  5
23A
330
2D3
100
AcDbEntity
  8
lazerCut
370
     0
100
AcDbCircle
 10
239.1999999999999
 20
69.99999999999996
 30
0.0
 40
1.5
  0
LINE
  5
23B
330
2D3
100
AcDbEntity
  8
lazerCut
370
     0
100
AcDbLine
 10
244.9999999999998
 20
75.00000000000023
 30
0.0
 11
239.1999999999999
 21
75.00000000000017
 31
0.0
  0
LINE
  5
23C
330
2D3
100
AcDbEntity
  8
lazerCut
370
     0
100
AcDbLine
 10
244.9999999999999
 20
65.00000000000023
 30
0.0
 11
239.2
 21
65.00000000000009
 31
0.0
  0
ARC
  5
23D
330
2D3
100
AcDbEntity
  8
lazerCut
370
     0
100
AcDbCircle
 10
239.1999999999999
 20
69.99999999999996
 30
0.0
 40
5.0
100
AcDbArc
 50
90.00000000000001
 51
270.0
  0
LINE
  5
23E
330
2D3
100
AcDbEntity
  8
lazerCut
370
     0
100
AcDbLine
 10
244.9999999999998
 20
75.00000000000023
 30
0.0
 11
245.0
 21
89.99999999999993
 31
0.0
  0
LINE
  5
23F
330
2D3
100
AcDbEntity
  8
lazerCut
370
     0
100
AcDbLine
 10
245.0
 20
45.00000000000017
 30
0.0
 11
244.9999999999999
 21
65.00000000000023
 31
0.0
  0
CIRCLE
  5
240
330
2D3
100
AcDbEntity
  8
lazerCut
370
     0
100
AcDbCircle
 10
265.0
 20
14.20000000000005
 30
0.0
 40
1.5
  0
LINE
  5
241
330
2D3
100
AcDbEntity
  8
lazerCut
370
     0
100
AcDbLine
 10
270.0
 20
20.00000000000013
 30
0.0
 11
270.0
 21
14.20000000000005
 31
0.0
  0
LINE
  5
242
330
2D3
100
AcDbEntity
  8
lazerCut
370
     0
100
AcDbLine
 10
260.0
 20
19.99999999999999
 30
0.0
 11
259.9999999999999
 21
14.20000000000007
 31
0.0
  0
ARC
  5
243
330
2D3
100
AcDbEntity
  8
lazerCut
370
     0
100
AcDbCircle
 10
265.0
 20
14.20000000000005
 30
0.0
 40
5.0
100
AcDbArc
 50
180.0
 51
0.0
  0
LINE
  5
244
330
2D3
100
AcDbEntity
  8
lazerCut
370
     0
100
AcDbLine
 10
245.0
 20
20.0
 30
0.0
 11
260.0
 21
19.99999999999999
 31
0.0
  0
LINE
  5
245
330
2D3
100
AcDbEntity
  8
lazerCut
370
     0
100
AcDbLine
 10
284.9999999999999
 20
90.00000000000004
 30
0.0
 11
270.0
 21
90.00000000000004
 31
0.0
  0
CIRCLE
  5
246
330
2D3
100
AcDbEntity
  8
lazerCut
370
     0
100
AcDbCircle
 10
265.0
 20
95.8
 30
0.0
 40
1.5
  0
LINE
  5
247
330
2D3
100
AcDbEntity
  8
lazerCut
370
     0
100
AcDbLine
 10
270.0
 20
90.00000000000004
 30
0.0
 11
269.9999999999999
 21
95.80000000000011
 31
0.0
  0
LINE
  5
248
330
2D3
100
AcDbEntity
  8
lazerCut
370
     0
100
AcDbLine
 10
259.9999999999999
 20
90.00000000000007
 30
0.0
 11
259.9999999999999
 21
95.8
 31
0.0
  0
ARC
  5
249
330
2D3
100
AcDbEntity
  8
lazerCut
370
     0
100
AcDbCircle
 10
265.0
 20
95.8
 30
0.0
 40
5.0
100
AcDbArc
 50
0.0
 51
180.0
  0
LINE
  5
24A
330
2D3
100
AcDbEntity
  8
lazerCut
370
     0
100
AcDbLine
 10
244.9999999999999
 20
90.00000000000016
 30
0.0
 11
259.9999999999999
 21
90.00000000000007
 31
0.0
  0
LINE
  5
24B
330
2D3
100
AcDbEntity
  8
lazerCut
370
     0
100
AcDbLine
 10
260.0
 20
83.49999999999999
 30
0.0
 11
269.9999999999999
 21
83.50000000000021
 31
0.0
  0
LINE
  5
24C
330
2D3
100
AcDbEntity
  8
lazerCut
370
     0
100
AcDbLine
 10
269.9999999999999
 20
86.49999999999996
 30
0.0
 11
260.0
 21
86.50000000000001
 31
0.0
  0
ARC
  5
24D
330
2D3
100
AcDbEntity
  8
lazerCut
370
     0
100
AcDbCircle
 10
259.9999999999999
 20
85.0000000000001
 30
0.0
 40
1.5
100
AcDbArc
 50
90.00000000000001
 51
270.0
  0
ARC
  5
24E
330
2D3
100
AcDbEntity
  8
lazerCut
370
     0
100
AcDbCircle
 10
269.9999999999999
 20
85.00000000000027
 30
0.0
 40
1.5
100
AcDbArc
 50
270.0
 51
90.00000000000001
  0
LINE
  5
24F
330
2D3
100
AcDbEntity
  8
lazerCut
370
     0
100
AcDbLine
 10
260.0
 20
53.50000000000013
 30
0.0
 11
270.0
 21
53.50000000000013
 31
0.0
  0
LINE
  5
250
330
2D3
100
AcDbEntity
  8
lazerCut
370
     0
100
AcDbLine
 10
270.0
 20
56.50000000000016
 30
0.0
 11
260.0
 21
56.49999999999993
 31
0.0
  0
ARC
  5
251
330
2D3
100
AcDbEntity
  8
lazerCut
370
     0
100
AcDbCircle
 10
270.0
 20
54.99999999999993
 30
0.0
 40
1.5
100
AcDbArc
 50
270.0
 51
90.00000000000001
  0
ARC
  5
252
330
2D3
100
AcDbEntity
  8
lazerCut
370
     0
100
AcDbCircle
 10
260.0
 20
55.00000000000021
 30
0.0
 40
1.5
100
AcDbArc
 50
90.00000000000001
 51
270.0
  0
LINE
  5
253
330
2D3
100
AcDbEntity
  8
lazerCut
370
     0
100
AcDbLine
 10
259.9999999999999
 20
23.49999999999993
 30
0.0
 11
270.0
 21
23.50000000000009
 31
0.0
  0
LINE
  5
254
330
2D3
100
AcDbEntity
  8
lazerCut
370
     0
100
AcDbLine
 10
270.0
 20
26.5000000000001
 30
0.0
 11
260.0
 21
26.5
 31
0.0
  0
ARC
  5
255
330
2D3
100
AcDbEntity
  8
lazerCut
370
     0
100
AcDbCircle
 10
260.0000000000001
 20
25.0000000000001
 30
0.0
 40
1.5
100
AcDbArc
 50
90.00000000000001
 51
270.0
  0
ARC
  5
256
330
2D3
100
AcDbEntity
  8
lazerCut
370
     0
100
AcDbCircle
 10
270.0
 20
25.00000000000007
 30
0.0
 40
1.5
100
AcDbArc
 50
270.0
 51
90.00000000000001
  0
LINE
  5
257
330
2D3
100
AcDbEntity
  8
lazerCut
370
     0
100
AcDbLine
 10
261.5
 20
35.00000000000007
 30
0.0
 11
261.5
 21
45.00000000000013
 31
0.0
  0
LINE
  5
258
330
2D3
100
AcDbEntity
  8
lazerCut
370
     0
100
AcDbLine
 10
258.4999999999999
 20
45.00000000000001
 30
0.0
 11
258.5
 21
35.0
 31
0.0
  0
ARC
  5
259
330
2D3
100
AcDbEntity
  8
lazerCut
370
     0
100
AcDbCircle
 10
260.0
 20
45.00000000000027
 30
0.0
 40
1.5
100
AcDbArc
 50
0.0
 51
180.0
  0
ARC
  5
25A
330
2D3
100
AcDbEntity
  8
lazerCut
370
     0
100
AcDbCircle
 10
259.9999999999999
 20
34.99999999999999
 30
0.0
 40
1.5
100
AcDbArc
 50
180.0
 51
0.0
  0
LINE
  5
25B
330
2D3
100
AcDbEntity
  8
lazerCut
370
     0
100
AcDbLine
 10
271.5
 20
35.0000000000001
 30
0.0
 11
271.5
 21
44.9999999999999
 31
0.0
  0
LINE
  5
25C
330
2D3
100
AcDbEntity
  8
lazerCut
370
     0
100
AcDbLine
 10
268.5
 20
45.00000000000004
 30
0.0
 11
268.5
 21
35.00000000000001
 31
0.0
  0
ARC
  5
25D
330
2D3
100
AcDbEntity
  8
lazerCut
370
     0
100
AcDbCircle
 10
270.0
 20
44.99999999999997
 30
0.0
 40
1.5
100
AcDbArc
 50
0.0
 51
180.0
  0
ARC
  5
25E
330
2D3
100
AcDbEntity
  8
lazerCut
370
     0
100
AcDbCircle
 10
270.0
 20
35.00000000000013
 30
0.0
 40
1.5
100
AcDbArc
 50
180.0
 51
0.0
  0
LINE
  5
25F
330
2D3
100
AcDbEntity
  8
lazerCut
370
     0
100
AcDbLine
 10
271.5
 20
64.99999999999977
 30
0.0
 11
271.4999999999999
 21
75.0000000000003
 31
0.0
  0
LINE
  5
260
330
2D3
100
AcDbEntity
  8
lazerCut
370
     0
100
AcDbLine
 10
268.4999999999999
 20
75.00000000000054
 30
0.0
 11
268.4999999999999
 21
64.99999999999972
 31
0.0
  0
ARC
  5
261
330
2D3
100
AcDbEntity
  8
lazerCut
370
     0
100
AcDbCircle
 10
269.9999999999999
 20
75.0000000000003
 30
0.0
 40
1.5
100
AcDbArc
 50
0.0
 51
180.0
  0
ARC
  5
262
330
2D3
100
AcDbEntity
  8
lazerCut
370
     0
100
AcDbCircle
 10
270.0
 20
64.99999999999996
 30
0.0
 40
1.5
100
AcDbArc
 50
180.0
 51
0.0
  0
LINE
  5
263
330
2D3
100
AcDbEntity
  8
lazerCut
370
     0
100
AcDbLine
 10
261.5
 20
65.00000000000021
 30
0.0
 11
261.4999999999999
 21
74.99999999999989
 31
0.0
  0
LINE
  5
264
330
2D3
100
AcDbEntity
  8
lazerCut
370
     0
100
AcDbLine
 10
258.4999999999999
 20
74.99999999999999
 30
0.0
 11
258.4999999999999
 21
64.99999999999987
 31
0.0
  0
ARC
  5
265
330
2D3
100
AcDbEntity
  8
lazerCut
370
     0
100
AcDbCircle
 10
260.0
 20
75.0
 30
0.0
 40
1.5
100
AcDbArc
 50
0.0
 51
180.0
  0
ARC
  5
266
330
2D3
100
AcDbEntity
  8
lazerCut
370
     0
100
AcDbCircle
 10
259.9999999999999
 20
65.00000000000027
 30
0.0
 40
1.5
100
AcDbArc
 50
180.0
 51
0.0
  0
LINE
  5
283
330
2D3
100
AcDbEntity
  8
lazerCut
370
     0
100
AcDbLine
 10
281.5
 20
34.99999999999997
 30
0.0
 11
281.5
 21
44.99999999999977
 31
0.0
  0
LINE
  5
284
330
2D3
100
AcDbEntity
  8
lazerCut
370
     0
100
AcDbLine
 10
278.5
 20
44.99999999999991
 30
0.0
 11
278.5
 21
34.99999999999989
 31
0.0
  0
ARC
  5
285
330
2D3
100
AcDbEntity
  8
lazerCut
370
     0
100
AcDbCircle
 10
280.0
 20
44.99999999999984
 30
0.0
 40
1.5
100
AcDbArc
 50
0.0
 51
180.0
  0
ARC
  5
286
330
2D3
100
AcDbEntity
  8
lazerCut
370
     0
100
AcDbCircle
 10
280.0
 20
35.0
 30
0.0
 40
1.5
100
AcDbArc
 50
180.0
 51
0.0
  0
LINE
  5
287
330
2D3
100
AcDbEntity
  8
lazerCut
370
     0
100
AcDbLine
 10
251.5
 20
34.99999999999997
 30
0.0
 11
251.5
 21
44.99999999999977
 31
0.0
  0
LINE
  5
288
330
2D3
100
AcDbEntity
  8
lazerCut
370
     0
100
AcDbLine
 10
248.5
 20
44.99999999999991
 30
0.0
 11
248.5
 21
34.99999999999989
 31
0.0
  0
ARC
  5
289
330
2D3
100
AcDbEntity
  8
lazerCut
370
     0
100
AcDbCircle
 10
250.0
 20
44.99999999999984
 30
0.0
 40
1.5
100
AcDbArc
 50
0.0
 51
180.0
  0
ARC
  5
28A
330
2D3
100
AcDbEntity
  8
lazerCut
370
     0
100
AcDbCircle
 10
250.0
 20
35.0
 30
0.0
 40
1.5
100
AcDbArc
 50
180.0
 51
0.0
  0
LINE
  5
28B
330
2D3
100
AcDbEntity
  8
lazerCut
370
     0
100
AcDbLine
 10
281.5
 20
64.99999999999997
 30
0.0
 11
281.5
 21
74.99999999999977
 31
0.0
  0
LINE
  5
28C
330
2D3
100
AcDbEntity
  8
lazerCut
370
     0
100
AcDbLine
 10
278.5
 20
74.99999999999991
 30
0.0
 11
278.5
 21
64.99999999999989
 31
0.0
  0
ARC
  5
28D
330
2D3
100
AcDbEntity
  8
lazerCut
370
     0
100
AcDbCircle
 10
280.0
 20
74.99999999999984
 30
0.0
 40
1.5
100
AcDbArc
 50
0.0
 51
180.0
  0
ARC
  5
28E
330
2D3
100
AcDbEntity
  8
lazerCut
370
     0
100
AcDbCircle
 10
280.0
 20
65.0
 30
0.0
 40
1.5
100
AcDbArc
 50
180.0
 51
0.0
  0
LINE
  5
28F
330
2D3
100
AcDbEntity
  8
lazerCut
370
     0
100
AcDbLine
 10
251.5
 20
64.99999999999997
 30
0.0
 11
251.5
 21
74.99999999999977
 31
0.0
  0
LINE
  5
290
330
2D3
100
AcDbEntity
  8
lazerCut
370
     0
100
AcDbLine
 10
248.5
 20
74.99999999999991
 30
0.0
 11
248.5
 21
64.99999999999989
 31
0.0
  0
ARC
  5
291
330
2D3
100
AcDbEntity
  8
lazerCut
370
     0
100
AcDbCircle
 10
250.0
 20
74.99999999999984
 30
0.0
 40
1.5
100
AcDbArc
 50
0.0
 51
180.0
  0
ARC
  5
292
330
2D3
100
AcDbEntity
  8
lazerCut
370
     0
100
AcDbCircle
 10
250.0
 20
65.0
 30
0.0
 40
1.5
100
AcDbArc
 50
180.0
 51
0.0
  0
CIRCLE
  5
293
330
2D3
100
AcDbEntity
  8
lazerCut
370
     0
100
AcDbCircle
 10
250.0
 20
55.0
 30
0.0
 40
1.5
  0
CIRCLE
  5
294
330
2D3
100
AcDbEntity
  8
lazerCut
370
     0
100
AcDbCircle
 10
280.0
 20
55.0
 30
0.0
 40
1.5
  0
CIRCLE
  5
295
330
2D3
100
AcDbEntity
  8
lazerCut
370
     0
100
AcDbCircle
 10
250.0
 20
85.0
 30
0.0
 40
1.5
  0
CIRCLE
  5
296
330
2D3
100
AcDbEntity
  8
lazerCut
370
     0
100
AcDbCircle
 10
280.0
 20
85.0
 30
0.0
 40
1.5
  0
CIRCLE
  5
297
330
2D3
100
AcDbEntity
  8
lazerCut
370
     0
100
AcDbCircle
 10
250.0
 20
25.0
 30
0.0
 40
1.5
  0
CIRCLE
  5
298
330
2D3
100
AcDbEntity
  8
lazerCut
370
     0
100
AcDbCircle
 10
280.0
 20
25.0
 30
0.0
 40
1.5
  0
LINE
  5
299
330
2D3
100
AcDbEntity
  8
lazerCut
370
     0
100
AcDbLine
 10
289.9999999999999
 20
203.5
 30
0.0
 11
300.0
 21
203.5
 31
0.0
  0
LINE
  5
29A
330
2D3
100
AcDbEntity
  8
lazerCut
370
     0
100
AcDbLine
 10
300.0
 20
206.5000000000001
 30
0.0
 11
290.0000000000001
 21
206.5000000000001
 31
0.0
  0
ARC
  5
29B
330
2D3
100
AcDbEntity
  8
lazerCut
370
     0
100
AcDbCircle
 10
300.0
 20
204.9999999999999
 30
0.0
 40
1.5
100
AcDbArc
 50
270.0
 51
90.00000000000001
  0
ARC
  5
29C
330
2D3
100
AcDbEntity
  8
lazerCut
370
     0
100
AcDbCircle
 10
290.0
 20
205.0000000000001
 30
0.0
 40
1.5
100
AcDbArc
 50
90.00000000000001
 51
270.0
  0
CIRCLE
  5
29D
330
2D3
100
AcDbEntity
  8
lazerCut
370
     0
100
AcDbCircle
 10
295.0
 20
194.2
 30
0.0
 40
1.5
  0
LINE
  5
29E
330
2D3
100
AcDbEntity
  8
lazerCut
370
     0
100
AcDbLine
 10
300.0
 20
200.0
 30
0.0
 11
300.0000000000001
 21
194.1999999999999
 31
0.0
  0
LINE
  5
29F
330
2D3
100
AcDbEntity
  8
lazerCut
370
     0
100
AcDbLine
 10
290.0
 20
199.9999999999999
 30
0.0
 11
289.9999999999999
 21
194.2
 31
0.0
  0
ARC
  5
2A0
330
2D3
100
AcDbEntity
  8
lazerCut
370
     0
100
AcDbCircle
 10
295.0
 20
194.2
 30
0.0
 40
5.0
100
AcDbArc
 50
180.0
 51
0.0
  0
LINE
  5
2A1
330
2D3
100
AcDbEntity
  8
lazerCut
370
     0
100
AcDbLine
 10
300.0
 20
200.0
 30
0.0
 11
305.0
 21
200.0000000000001
 31
0.0
  0
LINE
  5
2A2
330
2D3
100
AcDbEntity
  8
lazerCut
100
AcDbLine
 10
290.0
 20
199.9999999999999
 30
0.0
 11
285.0
 21
199.9999999999999
 31
0.0
  0
LINE
  5
2A3
330
2D3
100
AcDbEntity
  8
lazerCut
370
     0
100
AcDbLine
 10
301.4999999999999
 20
211.9999999999999
 30
0.0
 11
301.4999999999999
 21
222.0
 31
0.0
  0
LINE
  5
2A4
330
2D3
100
AcDbEntity
  8
lazerCut
370
     0
100
AcDbLine
 10
298.4999999999999
 20
222.0
 30
0.0
 11
298.4999999999998
 21
212.0000000000001
 31
0.0
  0
ARC
  5
2A5
330
2D3
100
AcDbEntity
  8
lazerCut
370
     0
100
AcDbCircle
 10
299.9999999999999
 20
222.0
 30
0.0
 40
1.5
100
AcDbArc
 50
0.0
 51
180.0
  0
ARC
  5
2A6
330
2D3
100
AcDbEntity
  8
lazerCut
370
     0
100
AcDbCircle
 10
299.9999999999999
 20
212.0
 30
0.0
 40
1.5
100
AcDbArc
 50
180.0
 51
0.0
  0
CIRCLE
  5
2A7
330
2D3
100
AcDbEntity
  8
lazerCut
370
     0
100
AcDbCircle
 10
310.7999999999999
 20
217.0
 30
0.0
 40
1.5
  0
LINE
  5
2A8
330
2D3
100
AcDbEntity
  8
lazerCut
370
     0
100
AcDbLine
 10
304.9999999999999
 20
222.0
 30
0.0
 11
310.8
 21
222.0000000000001
 31
0.0
  0
LINE
  5
2A9
330
2D3
100
AcDbEntity
  8
lazerCut
370
     0
100
AcDbLine
 10
305.0
 20
212.0
 30
0.0
 11
310.8
 21
211.9999999999999
 31
0.0
  0
ARC
  5
2AA
330
2D3
100
AcDbEntity
  8
lazerCut
370
     0
100
AcDbCircle
 10
310.7999999999999
 20
217.0
 30
0.0
 40
5.0
100
AcDbArc
 50
270.0
 51
90.0
  0
LINE
  5
2AB
330
2D3
100
AcDbEntity
  8
lazerCut
370
     0
100
AcDbLine
 10
304.9999999999999
 20
222.0
 30
0.0
 11
304.9999999999999
 21
227.0
 31
0.0
  0
LINE
  5
2AC
330
2D3
100
AcDbEntity
  8
lazerCut
100
AcDbLine
 10
305.0
 20
212.0
 30
0.0
 11
305.0
 21
207.0
 31
0.0
  0
ENDSEC
  0
SECTION
  2
OBJECTS
  0
DICTIONARY
  5
2C1
330
0
100
AcDbDictionary
281
     1
  3
ACAD_DETAILVIEWSTYLE
350
393
  3
ACAD_GROUP
350
2C2
  3
ACAD_LAYOUT
350
2CE
  3
ACAD_MATERIAL
350
2F7
  3
ACAD_MLEADERSTYLE
350
31F
  3
ACAD_MLINESTYLE
350
2CB
  3
ACAD_PLOTSETTINGS
350
2CD
  3
ACAD_PLOTSTYLENAME
350
2C3
  3
ACAD_SCALELIST
350
2FB
  3
ACAD_SECTIONVIEWSTYLE
350
394
  3
ACAD_TABLESTYLE
350
31D
  3
ACAD_VISUALSTYLE
350
2DE
  3
ACDB_RECOMPOSE_DATA
350
390
  3
AcDbVariableDictionary
350
38C
  3
QCAD_OBJECTS
350
323
  0
SUN
  5
321
330
2DD
100
AcDbSun
 90
        1
290
     0
 63
     7
421
 16777215
 40
1.0
291
     1
 91
  2455826
 92
 54000000
292
     0
 70
     2
 71
   256
280
     1
  0
DICTIONARY
  5
393
102
{ACAD_REACTORS
330
2C1
102
}
330
2C1
100
AcDbDictionary
281
     1
  0
DICTIONARY
  5
2C2
102
{ACAD_REACTORS
330
2C1
102
}
330
2C1
100
AcDbDictionary
281
     1
  0
DICTIONARY
  5
2CE
102
{ACAD_REACTORS
330
2C1
102
}
330
2C1
100
AcDbDictionary
281
     1
  3
Layout1
350
2D2
  3
Layout2
350
2DA
  3
Model
350
2D6
  0
DICTIONARY
  5
2F7
102
{ACAD_REACTORS
330
2C1
102
}
330
2C1
100
AcDbDictionary
281
     1
  3
ByBlock
350
2F9
  3
ByLayer
350
2F8
  3
Global
350
2FA
  0
DICTIONARY
  5
31F
102
{ACAD_REACTORS
330
2C1
102
}
330
2C1
100
AcDbDictionary
281
     1
  3
Standard
350
320
  0
DICTIONARY
  5
2CB
102
{ACAD_REACTORS
330
2C1
102
}
330
2C1
100
AcDbDictionary
281
     1
  3
Standard
350
2CC
  0
DICTIONARY
  5
2CD
102
{ACAD_REACTORS
330
2C1
102
}
330
2C1
100
AcDbDictionary
281
     1
  0
ACDBDICTIONARYWDFLT
  5
2C3
102
{ACAD_REACTORS
330
2C1
102
}
330
2C1
100
AcDbDictionary
281
     1
  3
Normal
350
2C4
100
AcDbDictionaryWithDefault
340
2C4
  0
DICTIONARY
  5
2FB
102
{ACAD_REACTORS
330
2C1
102
}
330
2C1
100
AcDbDictionary
281
     1
  3
A0
350
2FC
  3
A1
350
2FD
  3
A2
350
2FE
  3
A3
350
2FF
  3
A4
350
300
  3
A5
350
301
  3
A6
350
302
  3
A7
350
303
  3
A8
350
304
  3
A9
350
305
  3
B0
350
306
  3
B1
350
307
  3
B2
350
308
  3
B3
350
309
  3
B4
350
30A
  3
B5
350
30B
  3
B6
350
30C
  3
B7
350
30D
  3
B8
350
30E
  3
B9
350
30F
  3
C0
350
310
  3
C1
350
311
  3
C2
350
312
  3
C3
350
313
  3
C4
350
314
  3
C5
350
315
  3
C6
350
316
  3
C7
350
317
  3
C8
350
318
  3
C9
350
319
  3
D0
350
31A
  3
D1
350
31B
  3
D2
350
31C
  0
DICTIONARY
  5
394
102
{ACAD_REACTORS
330
2C1
102
}
330
2C1
100
AcDbDictionary
281
     1
  0
DICTIONARY
  5
31D
102
{ACAD_REACTORS
330
2C1
102
}
330
2C1
100
AcDbDictionary
281
     1
  3
Standard
350
31E
  0
DICTIONARY
  5
2DE
102
{ACAD_REACTORS
330
2C1
102
}
330
2C1
100
AcDbDictionary
281
     1
  3
2dWireframe
350
2E3
  3
Basic
350
2E6
  3
Brighten
350
2EA
  3
ColorChange
350
2EE
  3
Conceptual
350
2E8
  3
Dim
350
2E9
  3
EdgeColorOff
350
2F1
  3
Facepattern
350
2ED
  3
Flat
350
2DF
  3
FlatWithEdges
350
2E0
  3
Gouraud
350
2E1
  3
GouraudWithEdges
350
2E2
  3
Hidden
350
2E5
  3
JitterOff
350
2EF
  3
Linepattern
350
2EC
  3
OverhangOff
350
2F0
  3
Realistic
350
2E7
  3
Shaded
350
2F6
  3
Shaded with edges
350
2F5
  3
Shades of Gray
350
2F2
  3
Sketchy
350
2F3
  3
Thicken
350
2EB
  3
Wireframe
350
2E4
  3
X-Ray
350
2F4
  0
XRECORD
  5
390
102
{ACAD_REACTORS
330
2C1
102
}
330
2C1
100
AcDbXrecord
280
     1
 90
        1
330
31E
  0
DICTIONARY
  5
38C
102
{ACAD_REACTORS
330
2C1
102
}
330
2C1
100
AcDbDictionary
281
     1
  3
CANNOSCALE
350
38D
  3
CMLEADERSTYLE
350
392
  3
CTABLESTYLE
350
391
  0
DICTIONARY
  5
323
102
{ACAD_REACTORS
330
2C1
102
}
330
2C1
100
AcDbDictionary
281
     1
  3
Grid/DisplayGrid00
350
325
  3
Grid/DisplayGrid01
350
326
  3
Grid/DisplayGrid02
350
327
  3
Grid/DisplayGrid03
350
328
  3
Grid/GridSpacingX00
350
329
  3
Grid/GridSpacingX01
350
32A
  3
Grid/GridSpacingX02
350
32B
  3
Grid/GridSpacingX03
350
32C
  3
Grid/GridSpacingY00
350
32D
  3
Grid/GridSpacingY01
350
32E
  3
Grid/GridSpacingY02
350
32F
  3
Grid/GridSpacingY03
350
330
  3
Grid/IsometricGrid00
350
331
  3
Grid/IsometricGrid01
350
332
  3
Grid/IsometricGrid02
350
333
  3
Grid/IsometricGrid03
350
334
  3
Grid/IsometricProjection00
350
335
  3
Grid/IsometricProjection01
350
336
  3
Grid/IsometricProjection02
350
337
  3
Grid/IsometricProjection03
350
338
  3
Grid/MetaGridSpacingX00
350
339
  3
Grid/MetaGridSpacingX01
350
33A
  3
Grid/MetaGridSpacingX02
350
33B
  3
Grid/MetaGridSpacingX03
350
33C
  3
Grid/MetaGridSpacingY00
350
33D
  3
Grid/MetaGridSpacingY01
350
33E
  3
Grid/MetaGridSpacingY02
350
33F
  3
Grid/MetaGridSpacingY03
350
340
  3
MultiPageSettings/Columns
350
341
  3
MultiPageSettings/GlueMarginsBottom
350
342
  3
MultiPageSettings/GlueMarginsLeft
350
343
  3
MultiPageSettings/GlueMarginsRight
350
344
  3
MultiPageSettings/GlueMarginsTop
350
345
  3
MultiPageSettings/PrintCropMarks
350
346
  3
MultiPageSettings/Rows
350
347
  3
PageSettings/OffsetX
350
348
  3
PageSettings/OffsetY
350
349
  3
PageSettings/PageOrientation
350
34A
  3
PageSettings/PaperHeight
350
34B
  3
PageSettings/PaperWidth
350
34C
  3
PageSettings/Scale
350
34D
  3
PageSettings/ShowPaperBorders
350
34E
  3
QCADVersion
350
324
  3
UnitSettings/PaperUnit
350
34F
  0
LAYOUT
  5
2D2
102
{ACAD_REACTORS
330
2CE
102
}
330
2CE
100
AcDbPlotSettings
  1

  2
none_device
  4

  6

 40
0.0
 41
0.0
 42
0.0
 43
0.0
 44
0.0
 45
0.0
 46
0.0
 47
0.0
 48
0.0
 49
0.0
140
0.0
141
0.0
142
1.0
143
1.0
 70
   688
 72
     0
 73
     0
 74
     5
  7

 75
    16
 76
     0
 77
     2
 78
   300
147
1.0
148
0.0
149
0.0
100
AcDbLayout
  1
Layout1
 70
     1
 71
     1
 10
0.0
 20
0.0
 11
12.0
 21
9.0
 12
0.0
 22
0.0
 32
0.0
 14
1.000000000000000E+20
 24
1.000000000000000E+20
 34
1.000000000000000E+20
 15
-1.000000000000000E+20
 25
-1.000000000000000E+20
 35
-1.000000000000000E+20
146
0.0
 13
0.0
 23
0.0
 33
0.0
 16
1.0
 26
0.0
 36
0.0
 17
0.0
 27
1.0
 37
0.0
 76
     0
330
2CF
  0
LAYOUT
  5
2DA
102
{ACAD_REACTORS
330
2CE
102
}
330
2CE
100
AcDbPlotSettings
  1

  2
none_device
  4

  6

 40
0.0
 41
0.0
 42
0.0
 43
0.0
 44
0.0
 45
0.0
 46
0.0
 47
0.0
 48
0.0
 49
0.0
140
0.0
141
0.0
142
1.0
143
1.0
 70
   688
 72
     0
 73
     0
 74
     5
  7

 75
    16
 76
     0
 77
     2
 78
   300
147
1.0
148
0.0
149
0.0
100
AcDbLayout
  1
Layout2
 70
     1
 71
     2
 10
0.0
 20
0.0
 11
0.0
 21
0.0
 12
0.0
 22
0.0
 32
0.0
 14
0.0
 24
0.0
 34
0.0
 15
0.0
 25
0.0
 35
0.0
146
0.0
 13
0.0
 23
0.0
 33
0.0
 16
1.0
 26
0.0
 36
0.0
 17
0.0
 27
1.0
 37
0.0
 76
     0
330
2D7
  0
LAYOUT
  5
2D6
102
{ACAD_REACTORS
330
2CE
102
}
330
2CE
100
AcDbPlotSettings
  1

  2
none_device
  4
Letter_(8.50_x_11.00_Inches)
  6

 40
6.35
 41
6.35
 42
6.35000508
 43
6.35000508
 44
215.9
 45
279.4
 46
0.0
 47
0.0
 48
0.0
 49
0.0
140
0.0
141
0.0
142
1.0
143
1.0
 70
  1712
 72
     0
 73
     0
 74
     0
  7

 75
     0
 76
     0
 77
     2
 78
   300
147
1.0
148
0.0
149
0.0
100
AcDbLayout
  1
Model
 70
     1
 71
     0
 10
0.0
 20
0.0
 11
12.0
 21
9.0
 12
0.0
 22
0.0
 32
0.0
 14
1.000000000000000E+20
 24
1.000000000000000E+20
 34
1.000000000000000E+20
 15
-1.000000000000000E+20
 25
-1.000000000000000E+20
 35
-1.000000000000000E+20
146
0.0
 13
0.0
 23
0.0
 33
0.0
 16
1.0
 26
0.0
 36
0.0
 17
0.0
 27
1.0
 37
0.0
 76
     0
330
2D3
331
2DD
  0
MATERIAL
  5
2F9
102
{ACAD_REACTORS
330
2F7
102
}
330
2F7
100
AcDbMaterial
  1
ByBlock
 72
     1
 94
      127
  0
MATERIAL
  5
2F8
102
{ACAD_REACTORS
330
2F7
102
}
330
2F7
100
AcDbMaterial
  1
ByLayer
 72
     1
 94
      127
  0
MATERIAL
  5
2FA
102
{ACAD_REACTORS
330
2F7
102
}
330
2F7
100
AcDbMaterial
  1
Global
 72
     1
 94
      127
  0
MLEADERSTYLE
  5
320
102
{ACAD_REACTORS
330
31F
102
}
330
31F
100
AcDbMLeaderStyle
179
     2
170
     2
171
     1
172
     0
 90
        2
 40
0.0
 41
0.0
173
     1
 91
-1056964608
340
2C8
 92
       -2
290
     1
 42
0.09
291
     1
 43
0.36
  3
Standard
341
0
 44
0.18
300

342
2C6
174
     1
178
     6
175
     1
176
     0
 93
-1056964608
 45
0.18
292
     0
297
     0
 46
0.18
343
0
 94
-1056964608
 47
1.0
 49
1.0
140
1.0
293
     1
141
0.0
294
     1
177
     0
142
1.0
295
     0
296
     0
143
0.125
271
     0
272
     9
273
     9
298
     0
  0
MLINESTYLE
  5
2CC
102
{ACAD_REACTORS
330
2CB
102
}
330
2CB
100
AcDbMlineStyle
  2
Standard
 70
     0
  3

 62
   256
 51
90.0
 52
90.0
 71
     2
 49
0.5
 62
   256
  6
BYLAYER
 49
-0.5
 62
   256
  6
BYLAYER
  0
ACDBPLACEHOLDER
  5
2C4
102
{ACAD_REACTORS
330
2C3
102
}
330
2C3
  0
SCALE
  5
2FC
102
{ACAD_REACTORS
330
2FB
102
}
330
2FB
100
AcDbScale
 70
     0
300
1:1
140
1.0
141
1.0
290
     1
  0
SCALE
  5
2FD
102
{ACAD_REACTORS
330
2FB
102
}
330
2FB
100
AcDbScale
 70
     0
300
1:2
140
1.0
141
2.0
290
     0
  0
SCALE
  5
2FE
102
{ACAD_REACTORS
330
2FB
102
}
330
2FB
100
AcDbScale
 70
     0
300
1:4
140
1.0
141
4.0
290
     0
  0
SCALE
  5
2FF
102
{ACAD_REACTORS
330
2FB
102
}
330
2FB
100
AcDbScale
 70
     0
300
1:5
140
1.0
141
5.0
290
     0
  0
SCALE
  5
300
102
{ACAD_REACTORS
330
2FB
102
}
330
2FB
100
AcDbScale
 70
     0
300
1:8
140
1.0
141
8.0
290
     0
  0
SCALE
  5
301
102
{ACAD_REACTORS
330
2FB
102
}
330
2FB
100
AcDbScale
 70
     0
300
1:10
140
1.0
141
10.0
290
     0
  0
SCALE
  5
302
102
{ACAD_REACTORS
330
2FB
102
}
330
2FB
100
AcDbScale
 70
     0
300
1:16
140
1.0
141
16.0
290
     0
  0
SCALE
  5
303
102
{ACAD_REACTORS
330
2FB
102
}
330
2FB
100
AcDbScale
 70
     0
300
1:20
140
1.0
141
20.0
290
     0
  0
SCALE
  5
304
102
{ACAD_REACTORS
330
2FB
102
}
330
2FB
100
AcDbScale
 70
     0
300
1:30
140
1.0
141
30.0
290
     0
  0
SCALE
  5
305
102
{ACAD_REACTORS
330
2FB
102
}
330
2FB
100
AcDbScale
 70
     0
300
1:40
140
1.0
141
40.0
290
     0
  0
SCALE
  5
306
102
{ACAD_REACTORS
330
2FB
102
}
330
2FB
100
AcDbScale
 70
     0
300
1:50
140
1.0
141
50.0
290
     0
  0
SCALE
  5
307
102
{ACAD_REACTORS
330
2FB
102
}
330
2FB
100
AcDbScale
 70
     0
300
1:100
140
1.0
141
100.0
290
     0
  0
SCALE
  5
308
102
{ACAD_REACTORS
330
2FB
102
}
330
2FB
100
AcDbScale
 70
     0
300
2:1
140
2.0
141
1.0
290
     0
  0
SCALE
  5
309
102
{ACAD_REACTORS
330
2FB
102
}
330
2FB
100
AcDbScale
 70
     0
300
4:1
140
4.0
141
1.0
290
     0
  0
SCALE
  5
30A
102
{ACAD_REACTORS
330
2FB
102
}
330
2FB
100
AcDbScale
 70
     0
300
8:1
140
8.0
141
1.0
290
     0
  0
SCALE
  5
30B
102
{ACAD_REACTORS
330
2FB
102
}
330
2FB
100
AcDbScale
 70
     0
300
10:1
140
10.0
141
1.0
290
     0
  0
SCALE
  5
30C
102
{ACAD_REACTORS
330
2FB
102
}
330
2FB
100
AcDbScale
 70
     0
300
100:1
140
100.0
141
1.0
290
     0
  0
SCALE
  5
30D
102
{ACAD_REACTORS
330
2FB
102
}
330
2FB
100
AcDbScale
 70
     0
300
1/128" = 1'-0"
140
0.0078125
141
12.0
290
     0
  0
SCALE
  5
30E
102
{ACAD_REACTORS
330
2FB
102
}
330
2FB
100
AcDbScale
 70
     0
300
1/64" = 1'-0"
140
0.015625
141
12.0
290
     0
  0
SCALE
  5
30F
102
{ACAD_REACTORS
330
2FB
102
}
330
2FB
100
AcDbScale
 70
     0
300
1/32" = 1'-0"
140
0.03125
141
12.0
290
     0
  0
SCALE
  5
310
102
{ACAD_REACTORS
330
2FB
102
}
330
2FB
100
AcDbScale
 70
     0
300
1/16" = 1'-0"
140
0.0625
141
12.0
290
     0
  0
SCALE
  5
311
102
{ACAD_REACTORS
330
2FB
102
}
330
2FB
100
AcDbScale
 70
     0
300
3/32" = 1'-0"
140
0.09375
141
12.0
290
     0
  0
SCALE
  5
312
102
{ACAD_REACTORS
330
2FB
102
}
330
2FB
100
AcDbScale
 70
     0
300
1/8" = 1'-0"
140
0.125
141
12.0
290
     0
  0
SCALE
  5
313
102
{ACAD_REACTORS
330
2FB
102
}
330
2FB
100
AcDbScale
 70
     0
300
3/16" = 1'-0"
140
0.1875
141
12.0
290
     0
  0
SCALE
  5
314
102
{ACAD_REACTORS
330
2FB
102
}
330
2FB
100
AcDbScale
 70
     0
300
1/4" = 1'-0"
140
0.25
141
12.0
290
     0
  0
SCALE
  5
315
102
{ACAD_REACTORS
330
2FB
102
}
330
2FB
100
AcDbScale
 70
     0
300
3/8" = 1'-0"
140
0.375
141
12.0
290
     0
  0
SCALE
  5
316
102
{ACAD_REACTORS
330
2FB
102
}
330
2FB
100
AcDbScale
 70
     0
300
1/2" = 1'-0"
140
0.5
141
12.0
290
     0
  0
SCALE
  5
317
102
{ACAD_REACTORS
330
2FB
102
}
330
2FB
100
AcDbScale
 70
     0
300
3/4" = 1'-0"
140
0.75
141
12.0
290
     0
  0
SCALE
  5
318
102
{ACAD_REACTORS
330
2FB
102
}
330
2FB
100
AcDbScale
 70
     0
300
1" = 1'-0"
140
1.0
141
12.0
290
     0
  0
SCALE
  5
319
102
{ACAD_REACTORS
330
2FB
102
}
330
2FB
100
AcDbScale
 70
     0
300
1-1/2" = 1'-0"
140
1.5
141
12.0
290
     0
  0
SCALE
  5
31A
102
{ACAD_REACTORS
330
2FB
102
}
330
2FB
100
AcDbScale
 70
     0
300
3" = 1'-0"
140
3.0
141
12.0
290
     0
  0
SCALE
  5
31B
102
{ACAD_REACTORS
330
2FB
102
}
330
2FB
100
AcDbScale
 70
     0
300
6" = 1'-0"
140
6.0
141
12.0
290
     0
  0
SCALE
  5
31C
102
{ACAD_REACTORS
330
2FB
102
}
330
2FB
100
AcDbScale
 70
     0
300
1'-0" = 1'-0"
140
12.0
141
12.0
290
     0
  0
TABLESTYLE
  5
31E
102
{ACAD_REACTORS
330
31D
102
}
102
{ACAD_XDICTIONARY
360
38E
102
}
330
31D
100
AcDbTableStyle
  3
Standard
 70
     0
 71
     0
 40
0.06
 41
0.06
280
     0
281
     0
  7
Standard
140
0.18
170
     2
 62
     0
 63
   257
283
     0
 90
        4
 91
        0
  1

274
    -2
284
     1
 64
     0
275
    -2
285
     1
 65
     0
276
    -2
286
     1
 66
     0
277
    -2
287
     1
 67
     0
278
    -2
288
     1
 68
     0
279
    -2
289
     1
 69
     0
  7
Standard
140
0.25
170
     5
 62
     0
 63
   257
283
     0
 90
        4
 91
        0
  1

274
    -2
284
     1
 64
     0
275
    -2
285
     1
 65
     0
276
    -2
286
     1
 66
     0
277
    -2
287
     1
 67
     0
278
    -2
288
     1
 68
     0
279
    -2
289
     1
 69
     0
  7
Standard
140
0.18
170
     5
 62
     0
 63
   257
283
     0
 90
        4
 91
        0
  1

274
    -2
284
     1
 64
     0
275
    -2
285
     1
 65
     0
276
    -2
286
     1
 66
     0
277
    -2
287
     1
 67
     0
278
    -2
288
     1
 68
     0
279
    -2
289
     1
 69
     0
  0
VISUALSTYLE
  5
2E3
102
{ACAD_REACTORS
330
2DE
102
}
330
2DE
100
AcDbVisualStyle
  2
2dWireframe
 70
     4
177
     3
291
     0
 70
    58
 90
        0
176
     1
 90
        2
176
     1
 90
        0
176
     1
 90
        0
176
     1
 40
0.6
176
     1
 40
30.0
176
     1
 62
     7
420
 16777215
176
     1
 90
        1
176
     1
 90
        4
176
     1
 62
     7
176
     1
 62
   257
176
     1
 90
        1
176
     1
 90
        1
176
     1
 40
1.0
176
     1
 90
        0
176
     1
 62
   257
176
     1
 40
1.0
176
     1
 90
        1
176
     1
 90
        6
176
     1
 90
        2
176
     1
 62
     7
176
     1
 90
        5
176
     1
 90
        0
176
     1
 90
        0
176
     1
290
     0
176
     1
 90
        1
176
     1
 40
0.0
176
     1
 90
        0
176
     1
290
     1
176
     1
290
     1
176
     1
290
     0
176
     1
290
     0
176
     1
290
     0
176
     1
290
     0
176
     1
290
     0
176
     1
290
     0
176
     1
290
     0
176
     1
 90
       50
176
     1
 40
0.0
176
     1
 40
1.0
176
     1
 90
        0
176
     1
 62
    18
420
        0
176
     1
 90
       50
176
     1
 90
        3
176
     1
 62
     5
420
      255
176
     1
290
     0
176
     1
 90
       50
176
     1
 90
       50
176
     1
 90
       50
176
     1
290
     0
176
     1
 90
       50
176
     1
 62
   256
176
     0
 40
1.0
176
     0
 90
        2
176
     1
  1
strokes_ogs.tif
176
     1
290
     0
176
     1
 40
1.0
176
     1
 40
1.0
176
     1
  0
VISUALSTYLE
  5
2E6
102
{ACAD_REACTORS
330
2DE
102
}
330
2DE
100
AcDbVisualStyle
  2
Basic
 70
     7
177
     3
291
     1
 70
    58
 90
        1
176
     1
 90
        0
176
     1
 90
        1
176
     1
 90
        0
176
     1
 40
0.6
176
     1
 40
30.0
176
     1
 62
     7
420
 16777215
176
     1
 90
        0
176
     1
 90
        4
176
     1
 62
     7
176
     1
 62
   257
176
     1
 90
        1
176
     1
 90
        1
176
     1
 40
1.0
176
     1
 90
        8
176
     1
 62
     7
176
     1
 40
1.0
176
     1
 90
        1
176
     1
 90
        6
176
     1
 90
        2
176
     1
 62
     7
176
     1
 90
        5
176
     1
 90
        0
176
     1
 90
        0
176
     1
290
     0
176
     1
 90
        1
176
     1
 40
0.0
176
     1
 90
        0
176
     1
290
     0
176
     1
290
     1
176
     1
290
     1
176
     1
290
     0
176
     1
290
     0
176
     1
290
     0
176
     1
290
     0
176
     1
290
     0
176
     1
290
     0
176
     1
 90
       50
176
     1
 40
0.0
176
     1
 40
1.0
176
     1
 90
        0
176
     1
 62
    18
420
        0
176
     1
 90
       50
176
     1
 90
        3
176
     1
 62
     5
420
      255
176
     1
290
     0
176
     1
 90
       50
176
     1
 90
       50
176
     1
 90
       50
176
     1
290
     0
176
     1
 90
       50
176
     1
 62
   256
176
     0
 40
1.0
176
     0
 90
        2
176
     1
  1
strokes_ogs.tif
176
     1
290
     0
176
     1
 40
1.0
176
     1
 40
1.0
176
     1
  0
VISUALSTYLE
  5
2EA
102
{ACAD_REACTORS
330
2DE
102
}
330
2DE
100
AcDbVisualStyle
  2
Brighten
 70
    12
177
     3
291
     1
 70
    58
 90
        2
176
     1
 90
        2
176
     1
 90
        0
176
     1
 90
        0
176
     1
 40
0.6
176
     1
 40
30.0
176
     1
 62
     7
420
 16777215
176
     1
 90
        1
176
     1
 90
        4
176
     1
 62
     7
176
     1
 62
   257
176
     1
 90
        1
176
     1
 90
        1
176
     1
 40
1.0
176
     1
 90
        8
176
     1
 62
     7
176
     1
 40
1.0
176
     1
 90
        1
176
     1
 90
        6
176
     1
 90
        2
176
     1
 62
     7
176
     1
 90
        5
176
     1
 90
        0
176
     1
 90
        0
176
     1
290
     0
176
     1
 90
        1
176
     1
 40
50.0
176
     1
 90
        0
176
     1
290
     0
176
     1
290
     1
176
     1
290
     1
176
     1
290
     0
176
     1
290
     0
176
     1
290
     0
176
     1
290
     0
176
     1
290
     0
176
     1
290
     0
176
     1
 90
       50
176
     1
 40
0.0
176
     1
 40
1.0
176
     1
 90
        0
176
     1
 62
    18
420
        0
176
     1
 90
       50
176
     1
 90
        3
176
     1
 62
     5
420
      255
176
     1
290
     0
176
     1
 90
       50
176
     1
 90
       50
176
     1
 90
       50
176
     1
290
     0
176
     1
 90
       50
176
     1
 62
   256
176
     0
 40
1.0
176
     0
 90
        2
176
     1
  1
strokes_ogs.tif
176
     1
290
     0
176
     1
 40
1.0
176
     1
 40
1.0
176
     1
  0
VISUALSTYLE
  5
2EE
102
{ACAD_REACTORS
330
2DE
102
}
330
2DE
100
AcDbVisualStyle
  2
ColorChange
 70
    16
177
     3
291
     1
 70
    58
 90
        2
176
     1
 90
        2
176
     1
 90
        3
176
     1
 90
        0
176
     1
 40
0.6
176
     1
 40
30.0
176
     1
 62
     8
420
  8421504
176
     1
 90
        1
176
     1
 90
        4
176
     1
 62
     7
176
     1
 62
   257
176
     1
 90
        1
176
     1
 90
        1
176
     1
 40
1.0
176
     1
 90
        8
176
     1
 62
     8
420
  8421504
176
     1
 40
1.0
176
     1
 90
        1
176
     1
 90
        6
176
     1
 90
        2
176
     1
 62
     7
176
     1
 90
        5
176
     1
 90
        0
176
     1
 90
        0
176
     1
290
     0
176
     1
 90
        1
176
     1
 40
0.0
176
     1
 90
        0
176
     1
290
     0
176
     1
290
     1
176
     1
290
     1
176
     1
290
     0
176
     1
290
     0
176
     1
290
     0
176
     1
290
     0
176
     1
290
     0
176
     1
290
     0
176
     1
 90
       50
176
     1
 40
0.0
176
     1
 40
1.0
176
     1
 90
        0
176
     1
 62
    18
420
        0
176
     1
 90
       50
176
     1
 90
        3
176
     1
 62
     5
420
      255
176
     1
290
     0
176
     1
 90
       50
176
     1
 90
       50
176
     1
 90
       50
176
     1
290
     0
176
     1
 90
       50
176
     1
 62
   256
176
     0
 40
1.0
176
     0
 90
        2
176
     1
  1
strokes_ogs.tif
176
     1
290
     0
176
     1
 40
1.0
176
     1
 40
1.0
176
     1
  0
VISUALSTYLE
  5
2E8
102
{ACAD_REACTORS
330
2DE
102
}
330
2DE
100
AcDbVisualStyle
  2
Conceptual
 70
     9
177
     3
291
     0
 70
    58
 90
        3
176
     1
 90
        2
176
     1
 90
        0
176
     1
 90
        0
176
     1
 40
0.6
176
     1
 40
30.0
176
     1
 62
     7
420
 16777215
176
     1
 90
        2
176
     1
 90
        2
176
     1
 62
     7
176
     1
 62
   257
176
     1
 90
        1
176
     1
 90
        1
176
     1
 40
179.0
176
     1
 90
        8
176
     1
 62
     7
176
     1
 40
1.0
176
     1
 90
        1
176
     1
 90
        6
176
     1
 90
        2
176
     1
 62
     7
176
     1
 90
        3
176
     1
 90
        0
176
     1
 90
        0
176
     1
290
     0
176
     1
 90
        1
176
     1
 40
0.0
176
     1
 90
        0
176
     1
290
     0
176
     1
290
     1
176
     1
290
     1
176
     1
290
     0
176
     1
290
     0
176
     1
290
     0
176
     1
290
     0
176
     1
290
     0
176
     1
290
     0
176
     1
 90
       50
176
     1
 40
0.0
176
     1
 40
1.0
176
     1
 90
        0
176
     1
 62
    18
420
        0
176
     1
 90
       50
176
     1
 90
        3
176
     1
 62
     5
420
      255
176
     1
290
     0
176
     1
 90
       50
176
     1
 90
       50
176
     1
 90
       50
176
     1
290
     0
176
     1
 90
       50
176
     1
 62
   256
176
     0
 40
1.0
176
     0
 90
        2
176
     1
  1
strokes_ogs.tif
176
     1
290
     0
176
     1
 40
1.0
176
     1
 40
1.0
176
     1
  0
VISUALSTYLE
  5
2E9
102
{ACAD_REACTORS
330
2DE
102
}
330
2DE
100
AcDbVisualStyle
  2
Dim
 70
    11
177
     3
291
     1
 70
    58
 90
        2
176
     1
 90
        2
176
     1
 90
        0
176
     1
 90
        0
176
     1
 40
0.6
176
     1
 40
30.0
176
     1
 62
     7
420
 16777215
176
     1
 90
        1
176
     1
 90
        4
176
     1
 62
     7
176
     1
 62
   257
176
     1
 90
        1
176
     1
 90
        1
176
     1
 40
1.0
176
     1
 90
        8
176
     1
 62
     7
176
     1
 40
1.0
176
     1
 90
        1
176
     1
 90
        6
176
     1
 90
        2
176
     1
 62
     7
176
     1
 90
        5
176
     1
 90
        0
176
     1
 90
        0
176
     1
290
     0
176
     1
 90
        1
176
     1
 40
-50.0
176
     1
 90
        0
176
     1
290
     0
176
     1
290
     1
176
     1
290
     1
176
     1
290
     0
176
     1
290
     0
176
     1
290
     0
176
     1
290
     0
176
     1
290
     0
176
     1
290
     0
176
     1
 90
       50
176
     1
 40
0.0
176
     1
 40
1.0
176
     1
 90
        0
176
     1
 62
    18
420
        0
176
     1
 90
       50
176
     1
 90
        3
176
     1
 62
     5
420
      255
176
     1
290
     0
176
     1
 90
       50
176
     1
 90
       50
176
     1
 90
       50
176
     1
290
     0
176
     1
 90
       50
176
     1
 62
   256
176
     0
 40
1.0
176
     0
 90
        2
176
     1
  1
strokes_ogs.tif
176
     1
290
     0
176
     1
 40
1.0
176
     1
 40
1.0
176
     1
  0
VISUALSTYLE
  5
2F1
102
{ACAD_REACTORS
330
2DE
102
}
330
2DE
100
AcDbVisualStyle
  2
EdgeColorOff
 70
    22
177
     3
291
     1
 70
    58
 90
        2
176
     0
 90
        2
176
     0
 90
        0
176
     0
 90
        0
176
     0
 40
0.6
176
     0
 40
30.0
176
     0
 62
     7
420
 16777215
176
     0
 90
        1
176
     0
 90
        4
176
     0
 62
     7
176
     0
 62
   257
176
     0
 90
        1
176
     0
 90
        1
176
     0
 40
1.0
176
     0
 90
        8
176
     2
 62
     7
176
     0
 40
1.0
176
     0
 90
        1
176
     0
 90
        6
176
     0
 90
        2
176
     0
 62
     7
176
     0
 90
        5
176
     0
 90
        0
176
     0
 90
        0
176
     0
290
     0
176
     0
 90
        1
176
     0
 40
0.0
176
     0
 90
        0
176
     0
290
     0
176
     0
290
     1
176
     0
290
     1
176
     0
290
     0
176
     0
290
     0
176
     0
290
     0
176
     0
290
     0
176
     0
290
     0
176
     0
290
     0
176
     0
 90
       50
176
     0
 40
0.0
176
     0
 40
1.0
176
     0
 90
        0
176
     0
 62
    18
420
        0
176
     0
 90
       50
176
     0
 90
        3
176
     0
 62
     5
420
      255
176
     0
290
     0
176
     0
 90
       50
176
     0
 90
       50
176
     0
 90
       50
176
     0
290
     0
176
     0
 90
       50
176
     0
 62
   256
176
     0
 40
1.0
176
     0
 90
        2
176
     0
  1
strokes_ogs.tif
176
     0
290
     0
176
     0
 40
1.0
176
     0
 40
1.0
176
     0
  0
VISUALSTYLE
  5
2ED
102
{ACAD_REACTORS
330
2DE
102
}
330
2DE
100
AcDbVisualStyle
  2
Facepattern
 70
    15
177
     3
291
     1
 70
    58
 90
        2
176
     1
 90
        2
176
     1
 90
        0
176
     1
 90
        0
176
     1
 40
0.6
176
     1
 40
30.0
176
     1
 62
     7
420
 16777215
176
     1
 90
        1
176
     1
 90
        4
176
     1
 62
     7
176
     1
 62
   257
176
     1
 90
        1
176
     1
 90
        1
176
     1
 40
1.0
176
     1
 90
        8
176
     1
 62
     7
176
     1
 40
1.0
176
     1
 90
        1
176
     1
 90
        6
176
     1
 90
        2
176
     1
 62
     7
176
     1
 90
        5
176
     1
 90
        0
176
     1
 90
        0
176
     1
290
     0
176
     1
 90
        1
176
     1
 40
0.0
176
     1
 90
        0
176
     1
290
     0
176
     1
290
     1
176
     1
290
     1
176
     1
290
     0
176
     1
290
     0
176
     1
290
     0
176
     1
290
     0
176
     1
290
     0
176
     1
290
     0
176
     1
 90
       50
176
     1
 40
0.0
176
     1
 40
1.0
176
     1
 90
        0
176
     1
 62
    18
420
        0
176
     1
 90
       50
176
     1
 90
        3
176
     1
 62
     5
420
      255
176
     1
290
     0
176
     1
 90
       50
176
     1
 90
       50
176
     1
 90
       50
176
     1
290
     0
176
     1
 90
       50
176
     1
 62
   256
176
     0
 40
1.0
176
     0
 90
        2
176
     1
  1
strokes_ogs.tif
176
     1
290
     0
176
     1
 40
1.0
176
     1
 40
1.0
176
     1
  0
VISUALSTYLE
  5
2DF
102
{ACAD_REACTORS
330
2DE
102
}
330
2DE
100
AcDbVisualStyle
  2
Flat
 70
     0
177
     3
291
     1
 70
    58
 90
        2
176
     1
 90
        1
176
     1
 90
        1
176
     1
 90
        2
176
     1
 40
0.6
176
     1
 40
30.0
176
     1
 62
     7
420
 16777215
176
     1
 90
        0
176
     1
 90
        0
176
     1
 62
     7
176
     1
 62
   257
176
     1
 90
        1
176
     1
 90
        1
176
     1
 40
1.0
176
     1
 90
        8
176
     1
 62
     7
176
     1
 40
1.0
176
     1
 90
        1
176
     1
 90
        6
176
     1
 90
        2
176
     1
 62
     7
176
     1
 90
        5
176
     1
 90
        0
176
     1
 90
        0
176
     1
290
     0
176
     1
 90
       13
176
     1
 40
0.0
176
     1
 90
        0
176
     1
290
     0
176
     1
290
     1
176
     1
290
     1
176
     1
290
     0
176
     1
290
     0
176
     1
290
     0
176
     1
290
     0
176
     1
290
     0
176
     1
290
     0
176
     1
 90
       50
176
     1
 40
0.0
176
     1
 40
1.0
176
     1
 90
        0
176
     1
 62
    18
420
        0
176
     1
 90
       50
176
     1
 90
        3
176
     1
 62
     5
420
      255
176
     1
290
     0
176
     1
 90
       50
176
     1
 90
       50
176
     1
 90
       50
176
     1
290
     0
176
     1
 90
       50
176
     1
 62
   256
176
     0
 40
1.0
176
     0
 90
        2
176
     1
  1
strokes_ogs.tif
176
     1
290
     0
176
     1
 40
1.0
176
     1
 40
1.0
176
     1
  0
VISUALSTYLE
  5
2E0
102
{ACAD_REACTORS
330
2DE
102
}
330
2DE
100
AcDbVisualStyle
  2
FlatWithEdges
 70
     1
177
     3
291
     1
 70
    58
 90
        2
176
     1
 90
        1
176
     1
 90
        1
176
     1
 90
        2
176
     1
 40
0.6
176
     1
 40
30.0
176
     1
 62
     7
420
 16777215
176
     1
 90
        1
176
     1
 90
        0
176
     1
 62
     7
176
     1
 62
   257
176
     1
 90
        1
176
     1
 90
        1
176
     1
 40
1.0
176
     1
 90
        0
176
     1
 62
   257
176
     1
 40
1.0
176
     1
 90
        1
176
     1
 90
        6
176
     1
 90
        2
176
     1
 62
     7
176
     1
 90
        5
176
     1
 90
        0
176
     1
 90
        0
176
     1
290
     0
176
     1
 90
       13
176
     1
 40
0.0
176
     1
 90
        0
176
     1
290
     0
176
     1
290
     1
176
     1
290
     1
176
     1
290
     0
176
     1
290
     0
176
     1
290
     0
176
     1
290
     0
176
     1
290
     0
176
     1
290
     0
176
     1
 90
       50
176
     1
 40
0.0
176
     1
 40
1.0
176
     1
 90
        0
176
     1
 62
    18
420
        0
176
     1
 90
       50
176
     1
 90
        3
176
     1
 62
     5
420
      255
176
     1
290
     0
176
     1
 90
       50
176
     1
 90
       50
176
     1
 90
       50
176
     1
290
     0
176
     1
 90
       50
176
     1
 62
   256
176
     0
 40
1.0
176
     0
 90
        2
176
     1
  1
strokes_ogs.tif
176
     1
290
     0
176
     1
 40
1.0
176
     1
 40
1.0
176
     1
  0
VISUALSTYLE
  5
2E1
102
{ACAD_REACTORS
330
2DE
102
}
330
2DE
100
AcDbVisualStyle
  2
Gouraud
 70
     2
177
     3
291
     1
 70
    58
 90
        2
176
     1
 90
        2
176
     1
 90
        1
176
     1
 90
        2
176
     1
 40
0.6
176
     1
 40
30.0
176
     1
 62
     7
420
 16777215
176
     1
 90
        0
176
     1
 90
        0
176
     1
 62
     7
176
     1
 62
   257
176
     1
 90
        1
176
     1
 90
        1
176
     1
 40
1.0
176
     1
 90
        0
176
     1
 62
     7
176
     1
 40
1.0
176
     1
 90
        1
176
     1
 90
        6
176
     1
 90
        2
176
     1
 62
     7
176
     1
 90
        5
176
     1
 90
        0
176
     1
 90
        0
176
     1
290
     0
176
     1
 90
       13
176
     1
 40
0.0
176
     1
 90
        0
176
     1
290
     0
176
     1
290
     1
176
     1
290
     1
176
     1
290
     0
176
     1
290
     0
176
     1
290
     0
176
     1
290
     0
176
     1
290
     0
176
     1
290
     0
176
     1
 90
       50
176
     1
 40
0.0
176
     1
 40
1.0
176
     1
 90
        0
176
     1
 62
    18
420
        0
176
     1
 90
       50
176
     1
 90
        3
176
     1
 62
     5
420
      255
176
     1
290
     0
176
     1
 90
       50
176
     1
 90
       50
176
     1
 90
       50
176
     1
290
     0
176
     1
 90
       50
176
     1
 62
   256
176
     0
 40
1.0
176
     0
 90
        2
176
     1
  1
strokes_ogs.tif
176
     1
290
     0
176
     1
 40
1.0
176
     1
 40
1.0
176
     1
  0
VISUALSTYLE
  5
2E2
102
{ACAD_REACTORS
330
2DE
102
}
330
2DE
100
AcDbVisualStyle
  2
GouraudWithEdges
 70
     3
177
     3
291
     1
 70
    58
 90
        2
176
     1
 90
        2
176
     1
 90
        1
176
     1
 90
        2
176
     1
 40
0.6
176
     1
 40
30.0
176
     1
 62
     7
420
 16777215
176
     1
 90
        1
176
     1
 90
        0
176
     1
 62
     7
176
     1
 62
   257
176
     1
 90
        1
176
     1
 90
        1
176
     1
 40
1.0
176
     1
 90
        0
176
     1
 62
   257
176
     1
 40
1.0
176
     1
 90
        1
176
     1
 90
        6
176
     1
 90
        2
176
     1
 62
     7
176
     1
 90
        5
176
     1
 90
        0
176
     1
 90
        0
176
     1
290
     0
176
     1
 90
       13
176
     1
 40
0.0
176
     1
 90
        0
176
     1
290
     0
176
     1
290
     1
176
     1
290
     1
176
     1
290
     0
176
     1
290
     0
176
     1
290
     0
176
     1
290
     0
176
     1
290
     0
176
     1
290
     0
176
     1
 90
       50
176
     1
 40
0.0
176
     1
 40
1.0
176
     1
 90
        0
176
     1
 62
    18
420
        0
176
     1
 90
       50
176
     1
 90
        3
176
     1
 62
     5
420
      255
176
     1
290
     0
176
     1
 90
       50
176
     1
 90
       50
176
     1
 90
       50
176
     1
290
     0
176
     1
 90
       50
176
     1
 62
   256
176
     0
 40
1.0
176
     0
 90
        2
176
     1
  1
strokes_ogs.tif
176
     1
290
     0
176
     1
 40
1.0
176
     1
 40
1.0
176
     1
  0
VISUALSTYLE
  5
2E5
102
{ACAD_REACTORS
330
2DE
102
}
330
2DE
100
AcDbVisualStyle
  2
Hidden
 70
     6
177
     3
291
     0
 70
    58
 90
        1
176
     1
 90
        2
176
     1
 90
        2
176
     1
 90
        0
176
     1
 40
0.6
176
     1
 40
30.0
176
     1
 62
     7
420
 16777215
176
     1
 90
        2
176
     1
 90
        2
176
     1
 62
     7
176
     1
 62
   257
176
     1
 90
        2
176
     1
 90
        1
176
     1
 40
40.0
176
     1
 90
        0
176
     1
 62
   257
176
     1
 40
1.0
176
     1
 90
        1
176
     1
 90
        6
176
     1
 90
        2
176
     1
 62
     7
176
     1
 90
        3
176
     1
 90
        0
176
     1
 90
        0
176
     1
290
     0
176
     1
 90
        1
176
     1
 40
0.0
176
     1
 90
        0
176
     1
290
     0
176
     1
290
     1
176
     1
290
     1
176
     1
290
     0
176
     1
290
     0
176
     1
290
     0
176
     1
290
     0
176
     1
290
     0
176
     1
290
     0
176
     1
 90
       50
176
     1
 40
0.0
176
     1
 40
1.0
176
     1
 90
        0
176
     1
 62
    18
420
        0
176
     1
 90
       50
176
     1
 90
        3
176
     1
 62
     5
420
      255
176
     1
290
     0
176
     1
 90
       50
176
     1
 90
       50
176
     1
 90
       50
176
     1
290
     0
176
     1
 90
       50
176
     1
 62
   256
176
     0
 40
1.0
176
     0
 90
        2
176
     1
  1
strokes_ogs.tif
176
     1
290
     0
176
     1
 40
1.0
176
     1
 40
1.0
176
     1
  0
VISUALSTYLE
  5
2EF
102
{ACAD_REACTORS
330
2DE
102
}
330
2DE
100
AcDbVisualStyle
  2
JitterOff
 70
    20
177
     3
291
     1
 70
    58
 90
        2
176
     0
 90
        2
176
     0
 90
        0
176
     0
 90
        0
176
     0
 40
0.6
176
     0
 40
30.0
176
     0
 62
     7
420
 16777215
176
     0
 90
        1
176
     0
 90
        4
176
     0
 62
     7
176
     0
 62
   257
176
     0
 90
        1
176
     0
 90
        1
176
     0
 40
1.0
176
     0
 90
       10
176
     2
 62
     7
176
     0
 40
1.0
176
     0
 90
        1
176
     0
 90
        6
176
     0
 90
        2
176
     0
 62
     7
176
     0
 90
        5
176
     0
 90
        0
176
     0
 90
        0
176
     0
290
     0
176
     0
 90
        1
176
     0
 40
0.0
176
     0
 90
        0
176
     0
290
     0
176
     0
290
     1
176
     0
290
     1
176
     0
290
     0
176
     0
290
     0
176
     0
290
     0
176
     0
290
     0
176
     0
290
     0
176
     0
290
     0
176
     0
 90
       50
176
     0
 40
0.0
176
     0
 40
1.0
176
     0
 90
        0
176
     0
 62
    18
420
        0
176
     0
 90
       50
176
     0
 90
        3
176
     0
 62
     5
420
      255
176
     0
290
     0
176
     0
 90
       50
176
     0
 90
       50
176
     0
 90
       50
176
     0
290
     0
176
     0
 90
       50
176
     0
 62
   256
176
     0
 40
1.0
176
     0
 90
        2
176
     0
  1
strokes_ogs.tif
176
     0
290
     0
176
     0
 40
1.0
176
     0
 40
1.0
176
     0
  0
VISUALSTYLE
  5
2EC
102
{ACAD_REACTORS
330
2DE
102
}
330
2DE
100
AcDbVisualStyle
  2
Linepattern
 70
    14
177
     3
291
     1
 70
    58
 90
        2
176
     1
 90
        2
176
     1
 90
        0
176
     1
 90
        0
176
     1
 40
0.6
176
     1
 40
30.0
176
     1
 62
     7
420
 16777215
176
     1
 90
        1
176
     1
 90
        4
176
     1
 62
     7
176
     1
 62
   257
176
     1
 90
        7
176
     1
 90
        7
176
     1
 40
1.0
176
     1
 90
        8
176
     1
 62
     7
176
     1
 40
1.0
176
     1
 90
        1
176
     1
 90
        6
176
     1
 90
        2
176
     1
 62
     7
176
     1
 90
        5
176
     1
 90
        0
176
     1
 90
        0
176
     1
290
     0
176
     1
 90
        1
176
     1
 40
0.0
176
     1
 90
        0
176
     1
290
     0
176
     1
290
     1
176
     1
290
     1
176
     1
290
     0
176
     1
290
     0
176
     1
290
     0
176
     1
290
     0
176
     1
290
     0
176
     1
290
     0
176
     1
 90
       50
176
     1
 40
0.0
176
     1
 40
1.0
176
     1
 90
        0
176
     1
 62
    18
420
        0
176
     1
 90
       50
176
     1
 90
        3
176
     1
 62
     5
420
      255
176
     1
290
     0
176
     1
 90
       50
176
     1
 90
       50
176
     1
 90
       50
176
     1
290
     0
176
     1
 90
       50
176
     1
 62
   256
176
     0
 40
1.0
176
     0
 90
        2
176
     1
  1
strokes_ogs.tif
176
     1
290
     0
176
     1
 40
1.0
176
     1
 40
1.0
176
     1
  0
VISUALSTYLE
  5
2F0
102
{ACAD_REACTORS
330
2DE
102
}
330
2DE
100
AcDbVisualStyle
  2
OverhangOff
 70
    21
177
     3
291
     1
 70
    58
 90
        2
176
     0
 90
        2
176
     0
 90
        0
176
     0
 90
        0
176
     0
 40
0.6
176
     0
 40
30.0
176
     0
 62
     7
420
 16777215
176
     0
 90
        1
176
     0
 90
        4
176
     0
 62
     7
176
     0
 62
   257
176
     0
 90
        1
176
     0
 90
        1
176
     0
 40
1.0
176
     0
 90
        9
176
     2
 62
     7
176
     0
 40
1.0
176
     0
 90
        1
176
     0
 90
        6
176
     0
 90
        2
176
     0
 62
     7
176
     0
 90
        5
176
     0
 90
        0
176
     0
 90
        0
176
     0
290
     0
176
     0
 90
        1
176
     0
 40
0.0
176
     0
 90
        0
176
     0
290
     0
176
     0
290
     1
176
     0
290
     1
176
     0
290
     0
176
     0
290
     0
176
     0
290
     0
176
     0
290
     0
176
     0
290
     0
176
     0
290
     0
176
     0
 90
       50
176
     0
 40
0.0
176
     0
 40
1.0
176
     0
 90
        0
176
     0
 62
    18
420
        0
176
     0
 90
       50
176
     0
 90
        3
176
     0
 62
     5
420
      255
176
     0
290
     0
176
     0
 90
       50
176
     0
 90
       50
176
     0
 90
       50
176
     0
290
     0
176
     0
 90
       50
176
     0
 62
   256
176
     0
 40
1.0
176
     0
 90
        2
176
     0
  1
strokes_ogs.tif
176
     0
290
     0
176
     0
 40
1.0
176
     0
 40
1.0
176
     0
  0
VISUALSTYLE
  5
2E7
102
{ACAD_REACTORS
330
2DE
102
}
330
2DE
100
AcDbVisualStyle
  2
Realistic
 70
     8
177
     3
291
     0
 70
    58
 90
        2
176
     1
 90
        3
176
     1
 90
        0
176
     1
 90
        2
176
     1
 40
0.6
176
     1
 40
30.0
176
     1
 62
     7
420
 16777215
176
     1
 90
        0
176
     1
 90
        0
176
     1
 62
     7
176
     1
 62
   257
176
     1
 90
        1
176
     1
 90
        1
176
     1
 40
1.0
176
     1
 90
        8
176
     1
 62
   257
176
     1
 40
1.0
176
     1
 90
        1
176
     1
 90
        6
176
     1
 90
        2
176
     1
 62
     7
176
     1
 90
        3
176
     1
 90
        0
176
     1
 90
        0
176
     1
290
     0
176
     1
 90
       13
176
     1
 40
0.0
176
     1
 90
        0
176
     1
290
     0
176
     1
290
     1
176
     1
290
     1
176
     1
290
     0
176
     1
290
     0
176
     1
290
     0
176
     1
290
     0
176
     1
290
     0
176
     1
290
     0
176
     1
 90
       50
176
     1
 40
0.0
176
     1
 40
1.0
176
     1
 90
        0
176
     1
 62
    18
420
        0
176
     1
 90
       50
176
     1
 90
        3
176
     1
 62
     5
420
      255
176
     1
290
     0
176
     1
 90
       50
176
     1
 90
       50
176
     1
 90
       50
176
     1
290
     0
176
     1
 90
       50
176
     1
 62
   256
176
     0
 40
1.0
176
     0
 90
        2
176
     1
  1
strokes_ogs.tif
176
     1
290
     0
176
     1
 40
1.0
176
     1
 40
1.0
176
     1
  0
VISUALSTYLE
  5
2F6
102
{ACAD_REACTORS
330
2DE
102
}
330
2DE
100
AcDbVisualStyle
  2
Shaded
 70
    27
177
     3
291
     0
 70
    58
 90
        2
176
     1
 90
        2
176
     1
 90
        1
176
     1
 90
        2
176
     1
 40
0.6
176
     1
 40
30.0
176
     1
 62
     7
420
 16777215
176
     1
 90
        0
176
     1
 90
        4
176
     1
 62
     7
176
     1
 62
   257
176
     1
 90
        1
176
     1
 90
        1
176
     1
 40
1.0
176
     1
 90
        8
176
     1
 62
   257
176
     1
 40
1.0
176
     1
 90
        1
176
     1
 90
        6
176
     1
 90
        2
176
     1
 62
     8
420
  7895160
176
     1
 90
        3
176
     1
 90
        0
176
     1
 90
        0
176
     1
290
     0
176
     1
 90
        5
176
     1
 40
0.0
176
     1
 90
        0
176
     1
290
     0
176
     1
290
     1
176
     1
290
     1
176
     1
290
     0
176
     1
290
     0
176
     1
290
     0
176
     1
290
     0
176
     1
290
     0
176
     1
290
     0
176
     1
 90
       50
176
     1
 40
0.0
176
     1
 40
1.0
176
     1
 90
        0
176
     1
 62
    18
420
        0
176
     1
 90
       50
176
     1
 90
        3
176
     1
 62
     5
420
      255
176
     1
290
     0
176
     1
 90
       50
176
     1
 90
       50
176
     1
 90
       50
176
     1
290
     0
176
     1
 90
       50
176
     1
 62
   256
176
     0
 40
1.0
176
     0
 90
        2
176
     1
  1
strokes_ogs.tif
176
     1
290
     0
176
     1
 40
1.0
176
     1
 40
1.0
176
     1
  0
VISUALSTYLE
  5
2F5
102
{ACAD_REACTORS
330
2DE
102
}
330
2DE
100
AcDbVisualStyle
  2
Shaded with edges
 70
    26
177
     3
291
     0
 70
    58
 90
        2
176
     1
 90
        2
176
     1
 90
        1
176
     1
 90
        2
176
     1
 40
0.6
176
     1
 40
30.0
176
     1
 62
     7
420
 16777215
176
     1
 90
        1
176
     1
 90
       10
176
     1
 62
     7
176
     1
 62
   257
176
     1
 90
        2
176
     1
 90
        1
176
     1
 40
1.0
176
     1
 90
        8
176
     1
 62
   257
176
     1
 40
1.0
176
     1
 90
        1
176
     1
 90
        6
176
     1
 90
        2
176
     1
 62
     7
176
     1
 90
        3
176
     1
 90
        0
176
     1
 90
        0
176
     1
290
     0
176
     1
 90
        5
176
     1
 40
0.0
176
     1
 90
        0
176
     1
290
     0
176
     1
290
     1
176
     1
290
     1
176
     1
290
     0
176
     1
290
     0
176
     1
290
     0
176
     1
290
     0
176
     1
290
     0
176
     1
290
     0
176
     1
 90
       50
176
     1
 40
0.0
176
     1
 40
1.0
176
     1
 90
        0
176
     1
 62
    18
420
        0
176
     1
 90
       50
176
     1
 90
        3
176
     1
 62
     5
420
      255
176
     1
290
     0
176
     1
 90
       50
176
     1
 90
       50
176
     1
 90
       50
176
     1
290
     0
176
     1
 90
       50
176
     1
 62
   256
176
     0
 40
1.0
176
     0
 90
        2
176
     1
  1
strokes_ogs.tif
176
     1
290
     0
176
     1
 40
1.0
176
     1
 40
1.0
176
     1
  0
VISUALSTYLE
  5
2F2
102
{ACAD_REACTORS
330
2DE
102
}
330
2DE
100
AcDbVisualStyle
  2
Shades of Gray
 70
    23
177
     3
291
     0
 70
    58
 90
        2
176
     1
 90
        2
176
     1
 90
        3
176
     1
 90
        0
176
     1
 40
0.6
176
     1
 40
30.0
176
     1
 62
     7
420
 16777215
176
     1
 90
        2
176
     1
 90
        2
176
     1
 62
     7
176
     1
 62
     7
176
     1
 90
        1
176
     1
 90
        1
176
     1
 40
40.0
176
     1
 90
        8
176
     1
 62
     7
176
     1
 40
1.0
176
     1
 90
        1
176
     1
 90
        6
176
     1
 90
        2
176
     1
 62
     7
176
     1
 90
        3
176
     1
 90
        0
176
     1
 90
        0
176
     1
290
     0
176
     1
 90
        1
176
     1
 40
0.0
176
     1
 90
        0
176
     1
290
     0
176
     1
290
     1
176
     1
290
     1
176
     1
290
     0
176
     1
290
     0
176
     1
290
     0
176
     1
290
     0
176
     1
290
     0
176
     1
290
     0
176
     1
 90
       50
176
     1
 40
0.0
176
     1
 40
1.0
176
     1
 90
        0
176
     1
 62
    18
420
        0
176
     1
 90
       50
176
     1
 90
        3
176
     1
 62
     5
420
      255
176
     1
290
     0
176
     1
 90
       50
176
     1
 90
       50
176
     1
 90
       50
176
     1
290
     0
176
     1
 90
       50
176
     1
 62
   256
176
     0
 40
1.0
176
     0
 90
        2
176
     1
  1
strokes_ogs.tif
176
     1
290
     0
176
     1
 40
1.0
176
     1
 40
1.0
176
     1
  0
VISUALSTYLE
  5
2F3
102
{ACAD_REACTORS
330
2DE
102
}
330
2DE
100
AcDbVisualStyle
  2
Sketchy
 70
    24
177
     3
291
     0
 70
    58
 90
        1
176
     1
 90
        2
176
     1
 90
        2
176
     1
 90
        0
176
     1
 40
0.6
176
     1
 40
30.0
176
     1
 62
     7
420
 16777215
176
     1
 90
        2
176
     1
 90
        2
176
     1
 62
     7
176
     1
 62
     7
176
     1
 90
        1
176
     1
 90
        1
176
     1
 40
40.0
176
     1
 90
       11
176
     1
 62
     7
176
     1
 40
1.0
176
     1
 90
        1
176
     1
 90
        6
176
     1
 90
        2
176
     1
 62
     7
176
     1
 90
        6
176
     1
 90
        0
176
     1
 90
        0
176
     1
290
     0
176
     1
 90
        1
176
     1
 40
0.0
176
     1
 90
        0
176
     1
290
     0
176
     1
290
     1
176
     1
290
     1
176
     1
290
     0
176
     1
290
     0
176
     1
290
     0
176
     1
290
     0
176
     1
290
     0
176
     1
290
     0
176
     1
 90
       50
176
     1
 40
0.0
176
     1
 40
1.0
176
     1
 90
        0
176
     1
 62
    18
420
        0
176
     1
 90
       50
176
     1
 90
        3
176
     1
 62
     5
420
      255
176
     1
290
     0
176
     1
 90
       50
176
     1
 90
       50
176
     1
 90
       50
176
     1
290
     0
176
     1
 90
       50
176
     1
 62
   256
176
     0
 40
1.0
176
     0
 90
        2
176
     1
  1
strokes_ogs.tif
176
     1
290
     0
176
     1
 40
1.0
176
     1
 40
1.0
176
     1
  0
VISUALSTYLE
  5
2EB
102
{ACAD_REACTORS
330
2DE
102
}
330
2DE
100
AcDbVisualStyle
  2
Thicken
 70
    13
177
     3
291
     1
 70
    58
 90
        2
176
     1
 90
        2
176
     1
 90
        0
176
     1
 90
        0
176
     1
 40
0.6
176
     1
 40
30.0
176
     1
 62
     7
420
 16777215
176
     1
 90
        1
176
     1
 90
        4
176
     1
 62
     7
176
     1
 62
   257
176
     1
 90
        1
176
     1
 90
        1
176
     1
 40
1.0
176
     1
 90
       12
176
     1
 62
     7
176
     1
 40
1.0
176
     1
 90
        1
176
     1
 90
        6
176
     1
 90
        2
176
     1
 62
     7
176
     1
 90
        5
176
     1
 90
        0
176
     1
 90
        0
176
     1
290
     0
176
     1
 90
        1
176
     1
 40
0.0
176
     1
 90
        0
176
     1
290
     0
176
     1
290
     1
176
     1
290
     1
176
     1
290
     0
176
     1
290
     0
176
     1
290
     0
176
     1
290
     0
176
     1
290
     0
176
     1
290
     0
176
     1
 90
       50
176
     1
 40
0.0
176
     1
 40
1.0
176
     1
 90
        0
176
     1
 62
    18
420
        0
176
     1
 90
       50
176
     1
 90
        3
176
     1
 62
     5
420
      255
176
     1
290
     0
176
     1
 90
       50
176
     1
 90
       50
176
     1
 90
       50
176
     1
290
     0
176
     1
 90
       50
176
     1
 62
   256
176
     0
 40
1.0
176
     0
 90
        2
176
     1
  1
strokes_ogs.tif
176
     1
290
     0
176
     1
 40
1.0
176
     1
 40
1.0
176
     1
  0
VISUALSTYLE
  5
2E4
102
{ACAD_REACTORS
330
2DE
102
}
330
2DE
100
AcDbVisualStyle
  2
Wireframe
 70
     5
177
     3
291
     0
 70
    58
 90
        0
176
     1
 90
        2
176
     1
 90
        0
176
     1
 90
        0
176
     1
 40
0.6
176
     1
 40
30.0
176
     1
 62
     7
420
 16777215
176
     1
 90
        1
176
     1
 90
        4
176
     1
 62
     7
176
     1
 62
   257
176
     1
 90
        1
176
     1
 90
        1
176
     1
 40
1.0
176
     1
 90
        0
176
     1
 62
   257
176
     1
 40
1.0
176
     1
 90
        1
176
     1
 90
        6
176
     1
 90
        2
176
     1
 62
     7
176
     1
 90
        3
176
     1
 90
        0
176
     1
 90
        0
176
     1
290
     0
176
     1
 90
        1
176
     1
 40
0.0
176
     1
 90
        0
176
     1
290
     0
176
     1
290
     1
176
     1
290
     1
176
     1
290
     0
176
     1
290
     0
176
     1
290
     0
176
     1
290
     0
176
     1
290
     0
176
     1
290
     0
176
     1
 90
       50
176
     1
 40
0.0
176
     1
 40
1.0
176
     1
 90
        0
176
     1
 62
    18
420
        0
176
     1
 90
       50
176
     1
 90
        3
176
     1
 62
     5
420
      255
176
     1
290
     0
176
     1
 90
       50
176
     1
 90
       50
176
     1
 90
       50
176
     1
290
     0
176
     1
 90
       50
176
     1
 62
   256
176
     0
 40
1.0
176
     0
 90
        2
176
     1
  1
strokes_ogs.tif
176
     1
290
     0
176
     1
 40
1.0
176
     1
 40
1.0
176
     1
  0
VISUALSTYLE
  5
2F4
102
{ACAD_REACTORS
330
2DE
102
}
330
2DE
100
AcDbVisualStyle
  2
X-Ray
 70
    25
177
     3
291
     0
 70
    58
 90
        2
176
     1
 90
        2
176
     1
 90
        1
176
     1
 90
        1
176
     1
 40
0.5
176
     1
 40
30.0
176
     1
 62
     7
420
 16777215
176
     1
 90
        1
176
     1
 90
        0
176
     1
 62
     7
176
     1
 62
   257
176
     1
 90
        1
176
     1
 90
        1
176
     1
 40
1.0
176
     1
 90
        8
176
     1
 62
     7
176
     1
 40
1.0
176
     1
 90
        1
176
     1
 90
        6
176
     1
 90
        2
176
     1
 62
     7
176
     1
 90
        3
176
     1
 90
        0
176
     1
 90
        0
176
     1
290
     0
176
     1
 90
       13
176
     1
 40
0.0
176
     1
 90
        0
176
     1
290
     0
176
     1
290
     1
176
     1
290
     1
176
     1
290
     0
176
     1
290
     0
176
     1
290
     0
176
     1
290
     0
176
     1
290
     0
176
     1
290
     0
176
     1
 90
       50
176
     1
 40
0.0
176
     1
 40
1.0
176
     1
 90
        0
176
     1
 62
    18
420
        0
176
     1
 90
       50
176
     1
 90
        3
176
     1
 62
     5
420
      255
176
     1
290
     0
176
     1
 90
       50
176
     1
 90
       50
176
     1
 90
       50
176
     1
290
     0
176
     1
 90
       50
176
     1
 62
   256
176
     0
 40
1.0
176
     0
 90
        2
176
     1
  1
strokes_ogs.tif
176
     1
290
     0
176
     1
 40
1.0
176
     1
 40
1.0
176
     1
  0
DICTIONARYVAR
  5
38D
102
{ACAD_REACTORS
330
38C
102
}
330
38C
100
DictionaryVariables
280
     0
  1
1:1
  0
DICTIONARYVAR
  5
392
102
{ACAD_REACTORS
330
38C
102
}
330
38C
100
DictionaryVariables
280
     0
  1
Standard
  0
DICTIONARYVAR
  5
391
102
{ACAD_REACTORS
330
38C
102
}
330
38C
100
DictionaryVariables
280
     0
  1
Standard
  0
XRECORD
  5
325
102
{ACAD_REACTORS
330
323
102
}
330
323
100
AcDbXrecord
280
     1
290
     1
  0
XRECORD
  5
326
102
{ACAD_REACTORS
330
323
102
}
330
323
100
AcDbXrecord
280
     1
290
     1
  0
XRECORD
  5
327
102
{ACAD_REACTORS
330
323
102
}
330
323
100
AcDbXrecord
280
     1
290
     1
  0
XRECORD
  5
328
102
{ACAD_REACTORS
330
323
102
}
330
323
100
AcDbXrecord
280
     1
290
     1
  0
XRECORD
  5
329
102
{ACAD_REACTORS
330
323
102
}
330
323
100
AcDbXrecord
280
     1
1000
auto
  0
XRECORD
  5
32A
102
{ACAD_REACTORS
330
323
102
}
330
323
100
AcDbXrecord
280
     1
1000
auto
  0
XRECORD
  5
32B
102
{ACAD_REACTORS
330
323
102
}
330
323
100
AcDbXrecord
280
     1
1000
auto
  0
XRECORD
  5
32C
102
{ACAD_REACTORS
330
323
102
}
330
323
100
AcDbXrecord
280
     1
1000
auto
  0
XRECORD
  5
32D
102
{ACAD_REACTORS
330
323
102
}
330
323
100
AcDbXrecord
280
     1
1000
auto
  0
XRECORD
  5
32E
102
{ACAD_REACTORS
330
323
102
}
330
323
100
AcDbXrecord
280
     1
1000
auto
  0
XRECORD
  5
32F
102
{ACAD_REACTORS
330
323
102
}
330
323
100
AcDbXrecord
280
     1
1000
auto
  0
XRECORD
  5
330
102
{ACAD_REACTORS
330
323
102
}
330
323
100
AcDbXrecord
280
     1
1000
auto
  0
XRECORD
  5
331
102
{ACAD_REACTORS
330
323
102
}
330
323
100
AcDbXrecord
280
     1
290
     0
  0
XRECORD
  5
332
102
{ACAD_REACTORS
330
323
102
}
330
323
100
AcDbXrecord
280
     1
290
     0
  0
XRECORD
  5
333
102
{ACAD_REACTORS
330
323
102
}
330
323
100
AcDbXrecord
280
     1
290
     0
  0
XRECORD
  5
334
102
{ACAD_REACTORS
330
323
102
}
330
323
100
AcDbXrecord
280
     1
290
     0
  0
XRECORD
  5
335
102
{ACAD_REACTORS
330
323
102
}
330
323
100
AcDbXrecord
280
     1
 90
        0
  0
XRECORD
  5
336
102
{ACAD_REACTORS
330
323
102
}
330
323
100
AcDbXrecord
280
     1
 90
        0
  0
XRECORD
  5
337
102
{ACAD_REACTORS
330
323
102
}
330
323
100
AcDbXrecord
280
     1
 90
        0
  0
XRECORD
  5
338
102
{ACAD_REACTORS
330
323
102
}
330
323
100
AcDbXrecord
280
     1
 90
        0
  0
XRECORD
  5
339
102
{ACAD_REACTORS
330
323
102
}
330
323
100
AcDbXrecord
280
     1
1000
auto
  0
XRECORD
  5
33A
102
{ACAD_REACTORS
330
323
102
}
330
323
100
AcDbXrecord
280
     1
1000
auto
  0
XRECORD
  5
33B
102
{ACAD_REACTORS
330
323
102
}
330
323
100
AcDbXrecord
280
     1
1000
auto
  0
XRECORD
  5
33C
102
{ACAD_REACTORS
330
323
102
}
330
323
100
AcDbXrecord
280
     1
1000
auto
  0
XRECORD
  5
33D
102
{ACAD_REACTORS
330
323
102
}
330
323
100
AcDbXrecord
280
     1
1000
auto
  0
XRECORD
  5
33E
102
{ACAD_REACTORS
330
323
102
}
330
323
100
AcDbXrecord
280
     1
1000
auto
  0
XRECORD
  5
33F
102
{ACAD_REACTORS
330
323
102
}
330
323
100
AcDbXrecord
280
     1
1000
auto
  0
XRECORD
  5
340
102
{ACAD_REACTORS
330
323
102
}
330
323
100
AcDbXrecord
280
     1
1000
auto
  0
XRECORD
  5
341
102
{ACAD_REACTORS
330
323
102
}
330
323
100
AcDbXrecord
280
     1
 90
        1
  0
XRECORD
  5
342
102
{ACAD_REACTORS
330
323
102
}
330
323
100
AcDbXrecord
280
     1
 40
10.0
  0
XRECORD
  5
343
102
{ACAD_REACTORS
330
323
102
}
330
323
100
AcDbXrecord
280
     1
 40
10.0
  0
XRECORD
  5
344
102
{ACAD_REACTORS
330
323
102
}
330
323
100
AcDbXrecord
280
     1
 40
10.0
  0
XRECORD
  5
345
102
{ACAD_REACTORS
330
323
102
}
330
323
100
AcDbXrecord
280
     1
 40
10.0
  0
XRECORD
  5
346
102
{ACAD_REACTORS
330
323
102
}
330
323
100
AcDbXrecord
280
     1
290
     0
  0
XRECORD
  5
347
102
{ACAD_REACTORS
330
323
102
}
330
323
100
AcDbXrecord
280
     1
 90
        1
  0
XRECORD
  5
348
102
{ACAD_REACTORS
330
323
102
}
330
323
100
AcDbXrecord
280
     1
 40
0.0
  0
XRECORD
  5
349
102
{ACAD_REACTORS
330
323
102
}
330
323
100
AcDbXrecord
280
     1
 40
0.0
  0
XRECORD
  5
34A
102
{ACAD_REACTORS
330
323
102
}
330
323
100
AcDbXrecord
280
     1
1000
Portrait
  0
XRECORD
  5
34B
102
{ACAD_REACTORS
330
323
102
}
330
323
100
AcDbXrecord
280
     1
 40
297.0
  0
XRECORD
  5
34C
102
{ACAD_REACTORS
330
323
102
}
330
323
100
AcDbXrecord
280
     1
 40
210.0
  0
XRECORD
  5
34D
102
{ACAD_REACTORS
330
323
102
}
330
323
100
AcDbXrecord
280
     1
1000
1:1
  0
XRECORD
  5
34E
102
{ACAD_REACTORS
330
323
102
}
330
323
100
AcDbXrecord
280
     1
290
     1
  0
XRECORD
  5
324
102
{ACAD_REACTORS
330
323
102
}
330
323
100
AcDbXrecord
280
     1
1000
3.7.7
  0
XRECORD
  5
34F
102
{ACAD_REACTORS
330
323
102
}
330
323
100
AcDbXrecord
280
     1
 90
        4
  0
DICTIONARY
  5
38E
330
31E
100
AcDbDictionary
280
     1
281
     1
  3
ACAD_ROUNDTRIP_2008_TABLESTYLE_CELLSTYLEMAP
360
38F
  0
CELLSTYLEMAP
  5
38F
102
{ACAD_REACTORS
330
38E
102
}
330
38E
100
AcDbCellStyleMap
 90
        3
300
CELLSTYLE
  1
TABLEFORMAT_BEGIN
 90
        5
170
     1
 91
        0
 92
    32768
 62
   257
 93
        1
300
CONTENTFORMAT
  1
CONTENTFORMAT_BEGIN
 90
        0
 91
        0
 92
        4
 93
        0
300

 40
0.0
140
1.0
 94
        5
 62
     0
340
2C6
144
0.25
309
CONTENTFORMAT_END
171
     1
301
MARGIN
  1
CELLMARGIN_BEGIN
 40
0.06
 40
0.06
 40
0.06
 40
0.06
 40
0.06
 40
0.06
309
CELLMARGIN_END
 94
        6
 95
        1
302
GRIDFORMAT
  1
GRIDFORMAT_BEGIN
 90
        0
 91
        1
 62
     0
 92
       -2
340
2C8
 93
        0
 40
0.045
309
GRIDFORMAT_END
 95
        2
302
GRIDFORMAT
  1
GRIDFORMAT_BEGIN
 90
        0
 91
        1
 62
     0
 92
       -2
340
2C8
 93
        0
 40
0.045
309
GRIDFORMAT_END
 95
        4
302
GRIDFORMAT
  1
GRIDFORMAT_BEGIN
 90
        0
 91
        1
 62
     0
 92
       -2
340
2C8
 93
        0
 40
0.045
309
GRIDFORMAT_END
 95
        8
302
GRIDFORMAT
  1
GRIDFORMAT_BEGIN
 90
        0
 91
        1
 62
     0
 92
       -2
340
2C8
 93
        0
 40
0.045
309
GRIDFORMAT_END
 95
       16
302
GRIDFORMAT
  1
GRIDFORMAT_BEGIN
 90
        0
 91
        1
 62
     0
 92
       -2
340
2C8
 93
        0
 40
0.045
309
GRIDFORMAT_END
 95
       32
302
GRIDFORMAT
  1
GRIDFORMAT_BEGIN
 90
        0
 91
        1
 62
     0
 92
       -2
340
2C8
 93
        0
 40
0.045
309
GRIDFORMAT_END
309
TABLEFORMAT_END
  1
CELLSTYLE_BEGIN
 90
        1
 91
        1
300
_TITLE
309
CELLSTYLE_END
300
CELLSTYLE
  1
TABLEFORMAT_BEGIN
 90
        5
170
     1
 91
        0
 92
        0
 62
   257
 93
        1
300
CONTENTFORMAT
  1
CONTENTFORMAT_BEGIN
 90
        0
 91
        0
 92
        4
 93
        0
300

 40
0.0
140
1.0
 94
        5
 62
     0
340
2C6
144
0.18
309
CONTENTFORMAT_END
171
     1
301
MARGIN
  1
CELLMARGIN_BEGIN
 40
0.06
 40
0.06
 40
0.06
 40
0.06
 40
0.06
 40
0.06
309
CELLMARGIN_END
 94
        6
 95
        1
302
GRIDFORMAT
  1
GRIDFORMAT_BEGIN
 90
        0
 91
        1
 62
     0
 92
       -2
340
2C8
 93
        0
 40
0.045
309
GRIDFORMAT_END
 95
        2
302
GRIDFORMAT
  1
GRIDFORMAT_BEGIN
 90
        0
 91
        1
 62
     0
 92
       -2
340
2C8
 93
        0
 40
0.045
309
GRIDFORMAT_END
 95
        4
302
GRIDFORMAT
  1
GRIDFORMAT_BEGIN
 90
        0
 91
        1
 62
     0
 92
       -2
340
2C8
 93
        0
 40
0.045
309
GRIDFORMAT_END
 95
        8
302
GRIDFORMAT
  1
GRIDFORMAT_BEGIN
 90
        0
 91
        1
 62
     0
 92
       -2
340
2C8
 93
        0
 40
0.045
309
GRIDFORMAT_END
 95
       16
302
GRIDFORMAT
  1
GRIDFORMAT_BEGIN
 90
        0
 91
        1
 62
     0
 92
       -2
340
2C8
 93
        0
 40
0.045
309
GRIDFORMAT_END
 95
       32
302
GRIDFORMAT
  1
GRIDFORMAT_BEGIN
 90
        0
 91
        1
 62
     0
 92
       -2
340
2C8
 93
        0
 40
0.045
309
GRIDFORMAT_END
309
TABLEFORMAT_END
  1
CELLSTYLE_BEGIN
 90
        2
 91
        1
300
_HEADER
309
CELLSTYLE_END
300
CELLSTYLE
  1
TABLEFORMAT_BEGIN
 90
        5
170
     1
 91
        0
 92
        0
 62
   257
 93
        1
300
CONTENTFORMAT
  1
CONTENTFORMAT_BEGIN
 90
        0
 91
        0
 92
        4
 93
        0
300

 40
0.0
140
1.0
 94
        2
 62
     0
340
2C6
144
0.18
309
CONTENTFORMAT_END
171
     1
301
MARGIN
  1
CELLMARGIN_BEGIN
 40
0.06
 40
0.06
 40
0.06
 40
0.06
 40
0.06
 40
0.06
309
CELLMARGIN_END
 94
        6
 95
        1
302
GRIDFORMAT
  1
GRIDFORMAT_BEGIN
 90
        0
 91
        1
 62
     0
 92
       -2
340
2C8
 93
        0
 40
0.045
309
GRIDFORMAT_END
 95
        2
302
GRIDFORMAT
  1
GRIDFORMAT_BEGIN
 90
        0
 91
        1
 62
     0
 92
       -2
340
2C8
 93
        0
 40
0.045
309
GRIDFORMAT_END
 95
        4
302
GRIDFORMAT
  1
GRIDFORMAT_BEGIN
 90
        0
 91
        1
 62
     0
 92
       -2
340
2C8
 93
        0
 40
0.045
309
GRIDFORMAT_END
 95
        8
302
GRIDFORMAT
  1
GRIDFORMAT_BEGIN
 90
        0
 91
        1
 62
     0
 92
       -2
340
2C8
 93
        0
 40
0.045
309
GRIDFORMAT_END
 95
       16
302
GRIDFORMAT
  1
GRIDFORMAT_BEGIN
 90
        0
 91
        1
 62
     0
 92
       -2
340
2C8
 93
        0
 40
0.045
309
GRIDFORMAT_END
 95
       32
302
GRIDFORMAT
  1
GRIDFORMAT_BEGIN
 90
        0
 91
        1
 62
     0
 92
       -2
340
2C8
 93
        0
 40
0.045
309
GRIDFORMAT_END
309
TABLEFORMAT_END
  1
CELLSTYLE_BEGIN
 90
        3
 91
        2
300
_DATA
309
CELLSTYLE_END
  0
ENDSEC
  0
EOF
